<?xml version="1.0" encoding="utf-8" standalone="no"?>
<!DOCTYPE svg PUBLIC "-//W3C//DTD SVG 1.1//EN"
  "http://www.w3.org/Graphics/SVG/1.1/DTD/svg11.dtd">
<svg height="144pt" version="1.1" viewBox="0 0 360 144" width="360pt" xmlns="http://www.w3.org/2000/svg" xmlns:xlink="http://www.w3.org/1999/xlink">
 <metadata>
  <rdf:RDF xmlns:cc="http://creativecommons.org/ns#" xmlns:dc="http://purl.org/dc/elements/1.1/" xmlns:rdf="http://www.w3.org/1999/02/22-rdf-syntax-ns#">
   <cc:Work>
    <dc:type rdf:resource="http://purl.org/dc/dcmitype/StillImage"/>
    <dc:date>2022-05-04T11:41:34.669206</dc:date>
    <dc:format>image/svg+xml</dc:format>
    <dc:creator>
     <cc:Agent>
      <dc:title>Matplotlib v3.4.2, https://matplotlib.org/</dc:title>
     </cc:Agent>
    </dc:creator>
   </cc:Work>
  </rdf:RDF>
 </metadata>
 <defs>
  <style type="text/css">*{stroke-linecap:butt;stroke-linejoin:round;}</style>
 </defs>
 <g id="figure_1">
  <g id="patch_1">
   <path d="M 0 144 
L 360 144 
L 360 0 
L 0 0 
z
" style="fill:none;"/>
  </g>
  <g id="axes_1">
   <g id="patch_2">
    <path d="M 45 126 
L 324 126 
L 324 17.28 
L 45 17.28 
z
" style="fill:#ffffff;"/>
   </g>
   <g id="matplotlib.axis_1">
    <g id="xtick_1">
     <g id="line2d_1">
      <defs>
       <path d="M 0 0 
L 0 3.5 
" id="m9614103b13" style="stroke:#000000;stroke-width:0.8;"/>
      </defs>
      <g>
       <use style="stroke:#000000;stroke-width:0.8;" x="45" xlink:href="#m9614103b13" y="126"/>
      </g>
     </g>
     <g id="text_1">
      <!-- 0 -->
      <g transform="translate(41.81875 140.598437)scale(0.1 -0.1)">
       <defs>
        <path d="M 2034 4250 
Q 1547 4250 1301 3770 
Q 1056 3291 1056 2328 
Q 1056 1369 1301 889 
Q 1547 409 2034 409 
Q 2525 409 2770 889 
Q 3016 1369 3016 2328 
Q 3016 3291 2770 3770 
Q 2525 4250 2034 4250 
z
M 2034 4750 
Q 2819 4750 3233 4129 
Q 3647 3509 3647 2328 
Q 3647 1150 3233 529 
Q 2819 -91 2034 -91 
Q 1250 -91 836 529 
Q 422 1150 422 2328 
Q 422 3509 836 4129 
Q 1250 4750 2034 4750 
z
" id="DejaVuSans-30" transform="scale(0.015625)"/>
       </defs>
       <use xlink:href="#DejaVuSans-30"/>
      </g>
     </g>
    </g>
    <g id="xtick_2">
     <g id="line2d_2">
      <g>
       <use style="stroke:#000000;stroke-width:0.8;" x="84.857143" xlink:href="#m9614103b13" y="126"/>
      </g>
     </g>
     <g id="text_2">
      <!-- 1000 -->
      <g transform="translate(72.132143 140.598437)scale(0.1 -0.1)">
       <defs>
        <path d="M 794 531 
L 1825 531 
L 1825 4091 
L 703 3866 
L 703 4441 
L 1819 4666 
L 2450 4666 
L 2450 531 
L 3481 531 
L 3481 0 
L 794 0 
L 794 531 
z
" id="DejaVuSans-31" transform="scale(0.015625)"/>
       </defs>
       <use xlink:href="#DejaVuSans-31"/>
       <use x="63.623047" xlink:href="#DejaVuSans-30"/>
       <use x="127.246094" xlink:href="#DejaVuSans-30"/>
       <use x="190.869141" xlink:href="#DejaVuSans-30"/>
      </g>
     </g>
    </g>
    <g id="xtick_3">
     <g id="line2d_3">
      <g>
       <use style="stroke:#000000;stroke-width:0.8;" x="124.714286" xlink:href="#m9614103b13" y="126"/>
      </g>
     </g>
     <g id="text_3">
      <!-- 2000 -->
      <g transform="translate(111.989286 140.598437)scale(0.1 -0.1)">
       <defs>
        <path d="M 1228 531 
L 3431 531 
L 3431 0 
L 469 0 
L 469 531 
Q 828 903 1448 1529 
Q 2069 2156 2228 2338 
Q 2531 2678 2651 2914 
Q 2772 3150 2772 3378 
Q 2772 3750 2511 3984 
Q 2250 4219 1831 4219 
Q 1534 4219 1204 4116 
Q 875 4013 500 3803 
L 500 4441 
Q 881 4594 1212 4672 
Q 1544 4750 1819 4750 
Q 2544 4750 2975 4387 
Q 3406 4025 3406 3419 
Q 3406 3131 3298 2873 
Q 3191 2616 2906 2266 
Q 2828 2175 2409 1742 
Q 1991 1309 1228 531 
z
" id="DejaVuSans-32" transform="scale(0.015625)"/>
       </defs>
       <use xlink:href="#DejaVuSans-32"/>
       <use x="63.623047" xlink:href="#DejaVuSans-30"/>
       <use x="127.246094" xlink:href="#DejaVuSans-30"/>
       <use x="190.869141" xlink:href="#DejaVuSans-30"/>
      </g>
     </g>
    </g>
    <g id="xtick_4">
     <g id="line2d_4">
      <g>
       <use style="stroke:#000000;stroke-width:0.8;" x="164.571429" xlink:href="#m9614103b13" y="126"/>
      </g>
     </g>
     <g id="text_4">
      <!-- 3000 -->
      <g transform="translate(151.846429 140.598437)scale(0.1 -0.1)">
       <defs>
        <path d="M 2597 2516 
Q 3050 2419 3304 2112 
Q 3559 1806 3559 1356 
Q 3559 666 3084 287 
Q 2609 -91 1734 -91 
Q 1441 -91 1130 -33 
Q 819 25 488 141 
L 488 750 
Q 750 597 1062 519 
Q 1375 441 1716 441 
Q 2309 441 2620 675 
Q 2931 909 2931 1356 
Q 2931 1769 2642 2001 
Q 2353 2234 1838 2234 
L 1294 2234 
L 1294 2753 
L 1863 2753 
Q 2328 2753 2575 2939 
Q 2822 3125 2822 3475 
Q 2822 3834 2567 4026 
Q 2313 4219 1838 4219 
Q 1578 4219 1281 4162 
Q 984 4106 628 3988 
L 628 4550 
Q 988 4650 1302 4700 
Q 1616 4750 1894 4750 
Q 2613 4750 3031 4423 
Q 3450 4097 3450 3541 
Q 3450 3153 3228 2886 
Q 3006 2619 2597 2516 
z
" id="DejaVuSans-33" transform="scale(0.015625)"/>
       </defs>
       <use xlink:href="#DejaVuSans-33"/>
       <use x="63.623047" xlink:href="#DejaVuSans-30"/>
       <use x="127.246094" xlink:href="#DejaVuSans-30"/>
       <use x="190.869141" xlink:href="#DejaVuSans-30"/>
      </g>
     </g>
    </g>
    <g id="xtick_5">
     <g id="line2d_5">
      <g>
       <use style="stroke:#000000;stroke-width:0.8;" x="204.428571" xlink:href="#m9614103b13" y="126"/>
      </g>
     </g>
     <g id="text_5">
      <!-- 4000 -->
      <g transform="translate(191.703571 140.598437)scale(0.1 -0.1)">
       <defs>
        <path d="M 2419 4116 
L 825 1625 
L 2419 1625 
L 2419 4116 
z
M 2253 4666 
L 3047 4666 
L 3047 1625 
L 3713 1625 
L 3713 1100 
L 3047 1100 
L 3047 0 
L 2419 0 
L 2419 1100 
L 313 1100 
L 313 1709 
L 2253 4666 
z
" id="DejaVuSans-34" transform="scale(0.015625)"/>
       </defs>
       <use xlink:href="#DejaVuSans-34"/>
       <use x="63.623047" xlink:href="#DejaVuSans-30"/>
       <use x="127.246094" xlink:href="#DejaVuSans-30"/>
       <use x="190.869141" xlink:href="#DejaVuSans-30"/>
      </g>
     </g>
    </g>
    <g id="xtick_6">
     <g id="line2d_6">
      <g>
       <use style="stroke:#000000;stroke-width:0.8;" x="244.285714" xlink:href="#m9614103b13" y="126"/>
      </g>
     </g>
     <g id="text_6">
      <!-- 5000 -->
      <g transform="translate(231.560714 140.598437)scale(0.1 -0.1)">
       <defs>
        <path d="M 691 4666 
L 3169 4666 
L 3169 4134 
L 1269 4134 
L 1269 2991 
Q 1406 3038 1543 3061 
Q 1681 3084 1819 3084 
Q 2600 3084 3056 2656 
Q 3513 2228 3513 1497 
Q 3513 744 3044 326 
Q 2575 -91 1722 -91 
Q 1428 -91 1123 -41 
Q 819 9 494 109 
L 494 744 
Q 775 591 1075 516 
Q 1375 441 1709 441 
Q 2250 441 2565 725 
Q 2881 1009 2881 1497 
Q 2881 1984 2565 2268 
Q 2250 2553 1709 2553 
Q 1456 2553 1204 2497 
Q 953 2441 691 2322 
L 691 4666 
z
" id="DejaVuSans-35" transform="scale(0.015625)"/>
       </defs>
       <use xlink:href="#DejaVuSans-35"/>
       <use x="63.623047" xlink:href="#DejaVuSans-30"/>
       <use x="127.246094" xlink:href="#DejaVuSans-30"/>
       <use x="190.869141" xlink:href="#DejaVuSans-30"/>
      </g>
     </g>
    </g>
    <g id="xtick_7">
     <g id="line2d_7">
      <g>
       <use style="stroke:#000000;stroke-width:0.8;" x="284.142857" xlink:href="#m9614103b13" y="126"/>
      </g>
     </g>
     <g id="text_7">
      <!-- 6000 -->
      <g transform="translate(271.417857 140.598437)scale(0.1 -0.1)">
       <defs>
        <path d="M 2113 2584 
Q 1688 2584 1439 2293 
Q 1191 2003 1191 1497 
Q 1191 994 1439 701 
Q 1688 409 2113 409 
Q 2538 409 2786 701 
Q 3034 994 3034 1497 
Q 3034 2003 2786 2293 
Q 2538 2584 2113 2584 
z
M 3366 4563 
L 3366 3988 
Q 3128 4100 2886 4159 
Q 2644 4219 2406 4219 
Q 1781 4219 1451 3797 
Q 1122 3375 1075 2522 
Q 1259 2794 1537 2939 
Q 1816 3084 2150 3084 
Q 2853 3084 3261 2657 
Q 3669 2231 3669 1497 
Q 3669 778 3244 343 
Q 2819 -91 2113 -91 
Q 1303 -91 875 529 
Q 447 1150 447 2328 
Q 447 3434 972 4092 
Q 1497 4750 2381 4750 
Q 2619 4750 2861 4703 
Q 3103 4656 3366 4563 
z
" id="DejaVuSans-36" transform="scale(0.015625)"/>
       </defs>
       <use xlink:href="#DejaVuSans-36"/>
       <use x="63.623047" xlink:href="#DejaVuSans-30"/>
       <use x="127.246094" xlink:href="#DejaVuSans-30"/>
       <use x="190.869141" xlink:href="#DejaVuSans-30"/>
      </g>
     </g>
    </g>
    <g id="xtick_8">
     <g id="line2d_8">
      <g>
       <use style="stroke:#000000;stroke-width:0.8;" x="324" xlink:href="#m9614103b13" y="126"/>
      </g>
     </g>
     <g id="text_8">
      <!-- 7000 -->
      <g transform="translate(311.275 140.598437)scale(0.1 -0.1)">
       <defs>
        <path d="M 525 4666 
L 3525 4666 
L 3525 4397 
L 1831 0 
L 1172 0 
L 2766 4134 
L 525 4134 
L 525 4666 
z
" id="DejaVuSans-37" transform="scale(0.015625)"/>
       </defs>
       <use xlink:href="#DejaVuSans-37"/>
       <use x="63.623047" xlink:href="#DejaVuSans-30"/>
       <use x="127.246094" xlink:href="#DejaVuSans-30"/>
       <use x="190.869141" xlink:href="#DejaVuSans-30"/>
      </g>
     </g>
    </g>
    <g id="text_9">
     <!-- m/z -->
     <g transform="translate(175.321094 154.276563)scale(0.1 -0.1)">
      <defs>
       <path d="M 3328 2828 
Q 3544 3216 3844 3400 
Q 4144 3584 4550 3584 
Q 5097 3584 5394 3201 
Q 5691 2819 5691 2113 
L 5691 0 
L 5113 0 
L 5113 2094 
Q 5113 2597 4934 2840 
Q 4756 3084 4391 3084 
Q 3944 3084 3684 2787 
Q 3425 2491 3425 1978 
L 3425 0 
L 2847 0 
L 2847 2094 
Q 2847 2600 2669 2842 
Q 2491 3084 2119 3084 
Q 1678 3084 1418 2786 
Q 1159 2488 1159 1978 
L 1159 0 
L 581 0 
L 581 3500 
L 1159 3500 
L 1159 2956 
Q 1356 3278 1631 3431 
Q 1906 3584 2284 3584 
Q 2666 3584 2933 3390 
Q 3200 3197 3328 2828 
z
" id="DejaVuSans-6d" transform="scale(0.015625)"/>
       <path d="M 1625 4666 
L 2156 4666 
L 531 -594 
L 0 -594 
L 1625 4666 
z
" id="DejaVuSans-2f" transform="scale(0.015625)"/>
       <path d="M 353 3500 
L 3084 3500 
L 3084 2975 
L 922 459 
L 3084 459 
L 3084 0 
L 275 0 
L 275 525 
L 2438 3041 
L 353 3041 
L 353 3500 
z
" id="DejaVuSans-7a" transform="scale(0.015625)"/>
      </defs>
      <use xlink:href="#DejaVuSans-6d"/>
      <use x="97.412109" xlink:href="#DejaVuSans-2f"/>
      <use x="131.103516" xlink:href="#DejaVuSans-7a"/>
     </g>
    </g>
   </g>
   <g id="matplotlib.axis_2">
    <g id="ytick_1">
     <g id="line2d_9">
      <defs>
       <path d="M 0 0 
L -3.5 0 
" id="m2c3ce00e2b" style="stroke:#000000;stroke-width:0.8;"/>
      </defs>
      <g>
       <use style="stroke:#000000;stroke-width:0.8;" x="45" xlink:href="#m2c3ce00e2b" y="121.058182"/>
      </g>
     </g>
     <g id="text_10">
      <!-- 0 -->
      <g transform="translate(31.6375 124.857401)scale(0.1 -0.1)">
       <use xlink:href="#DejaVuSans-30"/>
      </g>
     </g>
    </g>
    <g id="ytick_2">
     <g id="line2d_10">
      <g>
       <use style="stroke:#000000;stroke-width:0.8;" x="45" xlink:href="#m2c3ce00e2b" y="96.349091"/>
      </g>
     </g>
     <g id="text_11">
      <!-- 25 -->
      <g transform="translate(25.275 100.14831)scale(0.1 -0.1)">
       <use xlink:href="#DejaVuSans-32"/>
       <use x="63.623047" xlink:href="#DejaVuSans-35"/>
      </g>
     </g>
    </g>
    <g id="ytick_3">
     <g id="line2d_11">
      <g>
       <use style="stroke:#000000;stroke-width:0.8;" x="45" xlink:href="#m2c3ce00e2b" y="71.64"/>
      </g>
     </g>
     <g id="text_12">
      <!-- 50 -->
      <g transform="translate(25.275 75.439219)scale(0.1 -0.1)">
       <use xlink:href="#DejaVuSans-35"/>
       <use x="63.623047" xlink:href="#DejaVuSans-30"/>
      </g>
     </g>
    </g>
    <g id="ytick_4">
     <g id="line2d_12">
      <g>
       <use style="stroke:#000000;stroke-width:0.8;" x="45" xlink:href="#m2c3ce00e2b" y="46.930909"/>
      </g>
     </g>
     <g id="text_13">
      <!-- 75 -->
      <g transform="translate(25.275 50.730128)scale(0.1 -0.1)">
       <use xlink:href="#DejaVuSans-37"/>
       <use x="63.623047" xlink:href="#DejaVuSans-35"/>
      </g>
     </g>
    </g>
    <g id="ytick_5">
     <g id="line2d_13">
      <g>
       <use style="stroke:#000000;stroke-width:0.8;" x="45" xlink:href="#m2c3ce00e2b" y="22.221818"/>
      </g>
     </g>
     <g id="text_14">
      <!-- 100 -->
      <g transform="translate(18.9125 26.021037)scale(0.1 -0.1)">
       <use xlink:href="#DejaVuSans-31"/>
       <use x="63.623047" xlink:href="#DejaVuSans-30"/>
       <use x="127.246094" xlink:href="#DejaVuSans-30"/>
      </g>
     </g>
    </g>
    <g id="text_15">
     <!-- Abundance (%) -->
     <g transform="translate(12.832812 110.04625)rotate(-90)scale(0.1 -0.1)">
      <defs>
       <path d="M 2188 4044 
L 1331 1722 
L 3047 1722 
L 2188 4044 
z
M 1831 4666 
L 2547 4666 
L 4325 0 
L 3669 0 
L 3244 1197 
L 1141 1197 
L 716 0 
L 50 0 
L 1831 4666 
z
" id="DejaVuSans-41" transform="scale(0.015625)"/>
       <path d="M 3116 1747 
Q 3116 2381 2855 2742 
Q 2594 3103 2138 3103 
Q 1681 3103 1420 2742 
Q 1159 2381 1159 1747 
Q 1159 1113 1420 752 
Q 1681 391 2138 391 
Q 2594 391 2855 752 
Q 3116 1113 3116 1747 
z
M 1159 2969 
Q 1341 3281 1617 3432 
Q 1894 3584 2278 3584 
Q 2916 3584 3314 3078 
Q 3713 2572 3713 1747 
Q 3713 922 3314 415 
Q 2916 -91 2278 -91 
Q 1894 -91 1617 61 
Q 1341 213 1159 525 
L 1159 0 
L 581 0 
L 581 4863 
L 1159 4863 
L 1159 2969 
z
" id="DejaVuSans-62" transform="scale(0.015625)"/>
       <path d="M 544 1381 
L 544 3500 
L 1119 3500 
L 1119 1403 
Q 1119 906 1312 657 
Q 1506 409 1894 409 
Q 2359 409 2629 706 
Q 2900 1003 2900 1516 
L 2900 3500 
L 3475 3500 
L 3475 0 
L 2900 0 
L 2900 538 
Q 2691 219 2414 64 
Q 2138 -91 1772 -91 
Q 1169 -91 856 284 
Q 544 659 544 1381 
z
M 1991 3584 
L 1991 3584 
z
" id="DejaVuSans-75" transform="scale(0.015625)"/>
       <path d="M 3513 2113 
L 3513 0 
L 2938 0 
L 2938 2094 
Q 2938 2591 2744 2837 
Q 2550 3084 2163 3084 
Q 1697 3084 1428 2787 
Q 1159 2491 1159 1978 
L 1159 0 
L 581 0 
L 581 3500 
L 1159 3500 
L 1159 2956 
Q 1366 3272 1645 3428 
Q 1925 3584 2291 3584 
Q 2894 3584 3203 3211 
Q 3513 2838 3513 2113 
z
" id="DejaVuSans-6e" transform="scale(0.015625)"/>
       <path d="M 2906 2969 
L 2906 4863 
L 3481 4863 
L 3481 0 
L 2906 0 
L 2906 525 
Q 2725 213 2448 61 
Q 2172 -91 1784 -91 
Q 1150 -91 751 415 
Q 353 922 353 1747 
Q 353 2572 751 3078 
Q 1150 3584 1784 3584 
Q 2172 3584 2448 3432 
Q 2725 3281 2906 2969 
z
M 947 1747 
Q 947 1113 1208 752 
Q 1469 391 1925 391 
Q 2381 391 2643 752 
Q 2906 1113 2906 1747 
Q 2906 2381 2643 2742 
Q 2381 3103 1925 3103 
Q 1469 3103 1208 2742 
Q 947 2381 947 1747 
z
" id="DejaVuSans-64" transform="scale(0.015625)"/>
       <path d="M 2194 1759 
Q 1497 1759 1228 1600 
Q 959 1441 959 1056 
Q 959 750 1161 570 
Q 1363 391 1709 391 
Q 2188 391 2477 730 
Q 2766 1069 2766 1631 
L 2766 1759 
L 2194 1759 
z
M 3341 1997 
L 3341 0 
L 2766 0 
L 2766 531 
Q 2569 213 2275 61 
Q 1981 -91 1556 -91 
Q 1019 -91 701 211 
Q 384 513 384 1019 
Q 384 1609 779 1909 
Q 1175 2209 1959 2209 
L 2766 2209 
L 2766 2266 
Q 2766 2663 2505 2880 
Q 2244 3097 1772 3097 
Q 1472 3097 1187 3025 
Q 903 2953 641 2809 
L 641 3341 
Q 956 3463 1253 3523 
Q 1550 3584 1831 3584 
Q 2591 3584 2966 3190 
Q 3341 2797 3341 1997 
z
" id="DejaVuSans-61" transform="scale(0.015625)"/>
       <path d="M 3122 3366 
L 3122 2828 
Q 2878 2963 2633 3030 
Q 2388 3097 2138 3097 
Q 1578 3097 1268 2742 
Q 959 2388 959 1747 
Q 959 1106 1268 751 
Q 1578 397 2138 397 
Q 2388 397 2633 464 
Q 2878 531 3122 666 
L 3122 134 
Q 2881 22 2623 -34 
Q 2366 -91 2075 -91 
Q 1284 -91 818 406 
Q 353 903 353 1747 
Q 353 2603 823 3093 
Q 1294 3584 2113 3584 
Q 2378 3584 2631 3529 
Q 2884 3475 3122 3366 
z
" id="DejaVuSans-63" transform="scale(0.015625)"/>
       <path d="M 3597 1894 
L 3597 1613 
L 953 1613 
Q 991 1019 1311 708 
Q 1631 397 2203 397 
Q 2534 397 2845 478 
Q 3156 559 3463 722 
L 3463 178 
Q 3153 47 2828 -22 
Q 2503 -91 2169 -91 
Q 1331 -91 842 396 
Q 353 884 353 1716 
Q 353 2575 817 3079 
Q 1281 3584 2069 3584 
Q 2775 3584 3186 3129 
Q 3597 2675 3597 1894 
z
M 3022 2063 
Q 3016 2534 2758 2815 
Q 2500 3097 2075 3097 
Q 1594 3097 1305 2825 
Q 1016 2553 972 2059 
L 3022 2063 
z
" id="DejaVuSans-65" transform="scale(0.015625)"/>
       <path id="DejaVuSans-20" transform="scale(0.015625)"/>
       <path d="M 1984 4856 
Q 1566 4138 1362 3434 
Q 1159 2731 1159 2009 
Q 1159 1288 1364 580 
Q 1569 -128 1984 -844 
L 1484 -844 
Q 1016 -109 783 600 
Q 550 1309 550 2009 
Q 550 2706 781 3412 
Q 1013 4119 1484 4856 
L 1984 4856 
z
" id="DejaVuSans-28" transform="scale(0.015625)"/>
       <path d="M 4653 2053 
Q 4381 2053 4226 1822 
Q 4072 1591 4072 1178 
Q 4072 772 4226 539 
Q 4381 306 4653 306 
Q 4919 306 5073 539 
Q 5228 772 5228 1178 
Q 5228 1588 5073 1820 
Q 4919 2053 4653 2053 
z
M 4653 2450 
Q 5147 2450 5437 2106 
Q 5728 1763 5728 1178 
Q 5728 594 5436 251 
Q 5144 -91 4653 -91 
Q 4153 -91 3862 251 
Q 3572 594 3572 1178 
Q 3572 1766 3864 2108 
Q 4156 2450 4653 2450 
z
M 1428 4353 
Q 1159 4353 1004 4120 
Q 850 3888 850 3481 
Q 850 3069 1003 2837 
Q 1156 2606 1428 2606 
Q 1700 2606 1854 2837 
Q 2009 3069 2009 3481 
Q 2009 3884 1853 4118 
Q 1697 4353 1428 4353 
z
M 4250 4750 
L 4750 4750 
L 1831 -91 
L 1331 -91 
L 4250 4750 
z
M 1428 4750 
Q 1922 4750 2215 4408 
Q 2509 4066 2509 3481 
Q 2509 2891 2217 2550 
Q 1925 2209 1428 2209 
Q 931 2209 642 2551 
Q 353 2894 353 3481 
Q 353 4063 643 4406 
Q 934 4750 1428 4750 
z
" id="DejaVuSans-25" transform="scale(0.015625)"/>
       <path d="M 513 4856 
L 1013 4856 
Q 1481 4119 1714 3412 
Q 1947 2706 1947 2009 
Q 1947 1309 1714 600 
Q 1481 -109 1013 -844 
L 513 -844 
Q 928 -128 1133 580 
Q 1338 1288 1338 2009 
Q 1338 2731 1133 3434 
Q 928 4138 513 4856 
z
" id="DejaVuSans-29" transform="scale(0.015625)"/>
      </defs>
      <use xlink:href="#DejaVuSans-41"/>
      <use x="68.408203" xlink:href="#DejaVuSans-62"/>
      <use x="131.884766" xlink:href="#DejaVuSans-75"/>
      <use x="195.263672" xlink:href="#DejaVuSans-6e"/>
      <use x="258.642578" xlink:href="#DejaVuSans-64"/>
      <use x="322.119141" xlink:href="#DejaVuSans-61"/>
      <use x="383.398438" xlink:href="#DejaVuSans-6e"/>
      <use x="446.777344" xlink:href="#DejaVuSans-63"/>
      <use x="501.757812" xlink:href="#DejaVuSans-65"/>
      <use x="563.28125" xlink:href="#DejaVuSans-20"/>
      <use x="595.068359" xlink:href="#DejaVuSans-28"/>
      <use x="634.082031" xlink:href="#DejaVuSans-25"/>
      <use x="729.101562" xlink:href="#DejaVuSans-29"/>
     </g>
    </g>
   </g>
   <g id="line2d_14">
    <path clip-path="url(#p8ec7eea888)" d="M 64.928571 120.990781 
L 65.008286 121.025191 
L 65.008286 121.024357 
L 65.048143 120.968247 
L 65.048143 120.5221 
L 65.127857 120.850846 
L 65.167714 120.958824 
L 65.247429 121.025431 
L 65.247429 121.024241 
L 66.283714 120.958904 
L 66.323571 120.684408 
L 66.363429 120.84419 
L 66.403286 120.84419 
L 66.403286 120.950444 
L 66.483 121.00706 
L 66.841714 121.008984 
L 66.841714 120.944791 
L 66.881571 120.734969 
L 66.921429 120.857903 
L 67.001143 120.970252 
L 67.080857 121.021658 
L 67.439571 120.989217 
L 67.439571 120.930917 
L 67.479429 120.820533 
L 67.519286 120.988535 
L 67.519286 120.981438 
L 68.037429 120.869731 
L 68.037429 120.847999 
L 68.117143 120.998399 
L 69.233143 120.872939 
L 69.312857 120.185695 
L 69.312857 120.222584 
L 69.352714 120.314403 
L 69.352714 120.178478 
L 69.352714 119.939106 
L 69.432429 120.880677 
L 69.432429 120.878231 
L 69.552 120.992745 
L 69.631714 121.018363 
L 69.591857 120.962232 
L 69.631714 121.003611 
L 69.791143 121.029597 
L 69.791143 120.908544 
L 69.831 120.720414 
L 69.870857 120.783485 
L 69.910714 120.783124 
L 69.910714 120.892345 
L 69.990429 120.97386 
L 69.950571 120.859306 
L 69.990429 120.968327 
L 72.222429 120.841584 
L 72.302143 119.891792 
L 72.222429 120.852009 
L 72.302143 120.469975 
L 72.342 120.385373 
L 72.342 120.186898 
L 72.421714 120.937894 
L 72.421714 120.93609 
L 72.780429 120.82346 
L 72.820286 120.809627 
L 72.860143 120.940621 
L 72.860143 120.896435 
L 73.059429 120.975985 
L 73.059429 121.003732 
L 73.099286 121.013234 
L 73.099286 120.969891 
L 73.139143 121.003411 
L 74.295 120.961029 
L 74.295 120.997838 
L 74.295 121.00706 
L 74.374714 120.952048 
L 74.374714 120.972898 
L 75.211714 120.865481 
L 75.251571 120.336456 
L 75.291429 120.742186 
L 75.331286 120.848641 
L 75.411 120.964959 
L 75.371143 120.806981 
L 75.411 120.943628 
L 78.161143 120.944751 
L 78.161143 120.880958 
L 78.201 120.708866 
L 78.240857 120.884767 
L 78.240857 120.870533 
L 78.320571 120.899242 
L 78.320571 120.975985 
L 78.400286 120.990741 
L 78.360429 120.933604 
L 78.400286 120.97783 
L 78.719143 120.850806 
L 78.759 120.775947 
L 78.798857 120.958423 
L 78.798857 120.942465 
L 85.694143 120.946635 
L 85.694143 120.9907 
L 86.491286 120.959706 
L 86.491286 120.926066 
L 86.491286 120.923019 
L 86.571 120.967645 
L 86.571 120.966924 
L 87.009429 120.938375 
L 87.009429 120.88172 
L 87.049286 120.794632 
L 87.089143 120.964839 
L 87.089143 120.959746 
L 89.201571 120.940661 
L 89.201571 120.967966 
L 89.201571 120.981238 
L 89.281286 120.920733 
L 89.281286 120.959225 
L 93.625714 120.798 
L 93.705429 117.560618 
L 93.705429 118.798378 
L 93.745286 118.871753 
L 93.785143 120.894591 
L 93.825 120.540945 
L 93.864857 120.445517 
L 93.904714 119.296369 
L 93.944571 120.552573 
L 93.984429 120.659869 
L 93.984429 120.90269 
L 94.064143 120.510873 
L 94.104 120.360513 
L 94.143857 120.24223 
L 94.183714 120.880557 
L 94.183714 120.876267 
L 94.263429 120.757423 
L 94.343143 120.628755 
L 94.343143 120.716525 
L 94.383 120.714199 
L 94.383 120.817647 
L 94.422857 120.892265 
L 94.462714 120.83172 
L 94.622143 120.900244 
L 94.622143 120.934005 
L 94.662 120.943508 
L 94.701857 120.909907 
L 95.299714 120.749163 
L 95.299714 120.687134 
L 95.379429 120.880878 
L 95.379429 120.832001 
L 95.578714 120.857462 
L 95.578714 120.900525 
L 95.578714 120.91961 
L 95.658429 120.835088 
L 95.658429 120.867686 
L 96.176571 120.945793 
L 96.176571 120.976386 
L 96.176571 120.978551 
L 96.256286 120.9235 
L 96.256286 120.936691 
L 100.999286 120.899242 
L 100.999286 120.864278 
L 100.999286 120.826067 
L 101.079 120.963235 
L 101.079 120.962914 
L 102.314571 120.792988 
L 102.314571 120.785249 
L 102.354429 120.929634 
L 102.394286 120.914799 
L 107.296714 120.937654 
L 107.296714 120.92791 
L 107.336571 120.850525 
L 107.376429 120.996153 
L 107.376429 120.992545 
L 109.369286 120.978351 
L 109.369286 120.933885 
L 109.449 120.324828 
L 109.488857 120.192512 
L 109.488857 120.188101 
L 109.528714 120.849523 
L 109.568571 120.727551 
L 109.648286 120.782683 
L 109.648286 120.83573 
L 109.728 120.939298 
L 109.648286 120.830598 
L 109.728 120.934526 
L 109.847571 120.830838 
L 109.927286 120.295558 
L 109.927286 120.52651 
L 109.967143 120.526109 
L 109.967143 120.623943 
L 110.046857 120.938175 
L 110.046857 120.925184 
L 110.166429 120.8569 
L 110.166429 120.830197 
L 110.206286 120.697599 
L 110.246143 120.83585 
L 110.565 120.985969 
L 110.565 120.992625 
L 110.644714 120.971895 
L 117.579857 120.99483 
L 117.579857 121.004774 
L 117.579857 121.014517 
L 117.659571 120.99042 
L 117.659571 120.993948 
L 118.656 120.938816 
L 118.656 120.901848 
L 118.695857 120.7395 
L 118.735714 120.930917 
L 130.095 120.972096 
L 130.095 120.946635 
L 130.095 120.93613 
L 130.174714 120.959787 
L 130.174714 120.95698 
L 133.363286 120.998198 
L 133.363286 121.006418 
L 133.363286 121.00718 
L 133.403143 120.985729 
L 133.443 120.99042 
L 135.954 120.974983 
L 135.954 120.949081 
L 135.993857 120.942986 
L 136.033714 120.983964 
L 136.950429 120.920934 
L 136.950429 120.894871 
L 137.030143 120.885489 
L 136.990286 120.910348 
L 137.030143 120.904414 
L 137.588143 120.817927 
L 137.588143 120.815201 
L 137.667857 120.691184 
L 137.707714 120.578234 
L 137.787429 119.363329 
L 137.787429 119.364131 
L 137.827286 119.326039 
L 137.827286 119.461163 
L 137.907 120.102296 
L 137.946857 120.208149 
L 138.026571 120.400609 
L 138.026571 120.399406 
L 138.066429 120.508868 
L 138.146143 120.623542 
L 138.265714 120.694111 
L 138.265714 120.730157 
L 138.305571 120.755979 
L 138.305571 120.631161 
L 138.385286 120.518892 
L 138.385286 120.423063 
L 138.465 120.553776 
L 138.465 120.548964 
L 138.544714 120.607504 
L 138.544714 120.64359 
L 138.624429 120.752691 
L 138.624429 120.744512 
L 138.823714 120.829314 
L 138.823714 120.843669 
L 138.863571 120.870934 
L 138.863571 120.808745 
L 138.903429 120.823621 
L 140.816571 120.957501 
L 140.816571 120.950765 
L 140.856429 120.945432 
L 140.896286 121.001647 
L 140.896286 120.993748 
L 143.726143 120.805137 
L 143.805857 120.730157 
L 143.805857 120.75622 
L 144.164571 120.755578 
L 144.164571 120.709388 
L 144.244286 120.602292 
L 144.244286 120.623141 
L 144.403714 120.609509 
L 144.403714 120.538539 
L 144.483429 120.132368 
L 144.483429 120.193314 
L 144.603 120.143194 
L 144.523286 120.265887 
L 144.603 120.247443 
L 144.682714 120.347683 
L 144.642857 120.229801 
L 144.682714 120.346881 
L 144.762429 120.37575 
L 144.762429 120.439903 
L 144.762429 120.447922 
L 144.842143 120.334451 
L 144.842143 120.38417 
L 145.041429 120.247844 
L 145.121143 120.085857 
L 145.121143 120.141991 
L 145.320429 120.214564 
L 145.320429 120.222584 
L 145.320429 120.228999 
L 145.400143 120.071422 
L 145.400143 120.118334 
L 145.479857 120.062601 
L 145.479857 120.014486 
L 145.559571 119.947125 
L 145.559571 119.98281 
L 145.719 119.969578 
L 145.719 119.927879 
L 145.798714 119.695724 
L 145.798714 119.725395 
L 145.838571 119.73181 
L 145.838571 119.622348 
L 145.838571 119.605508 
L 145.878429 119.768698 
L 145.918286 119.761882 
L 145.958143 119.789949 
L 145.958143 119.667656 
L 146.037857 119.388589 
L 146.037857 119.389792 
L 146.197286 119.408637 
L 146.197286 119.306392 
L 146.277 118.933501 
L 146.197286 119.345686 
L 146.277 118.948336 
L 146.316857 118.825242 
L 146.396571 118.54417 
L 146.396571 118.552991 
L 146.436429 118.560208 
L 146.436429 118.451147 
L 146.516143 118.252673 
L 146.516143 118.342888 
L 146.556 118.226209 
L 146.635714 117.870158 
L 146.635714 117.930302 
L 146.715429 117.85853 
L 146.715429 117.84169 
L 146.795143 116.639615 
L 146.795143 116.655653 
L 146.835 116.543385 
L 146.914714 114.903463 
L 146.954571 114.755108 
L 147.034286 74.707335 
L 147.074143 74.065801 
L 147.114 68.171706 
L 147.153857 75.709733 
L 147.153857 75.188486 
L 147.193714 75.789924 
L 147.273429 92.826667 
L 147.313286 93.327866 
L 147.393 99.310172 
L 147.393 99.278096 
L 147.432857 99.43046 
L 147.512571 106.399125 
L 147.552429 106.64371 
L 147.632143 109.911525 
L 147.632143 108.460054 
L 147.672 108.20344 
L 147.751714 100.216339 
L 147.751714 101.980558 
L 147.791571 102.221134 
L 147.871286 107.682194 
L 147.911143 107.798472 
L 147.990857 111.12643 
L 148.030714 111.334929 
L 148.030714 111.3229 
L 148.110429 113.439963 
L 148.110429 113.439963 
L 148.150286 113.552232 
L 148.150286 113.552232 
L 148.23 115.496882 
L 148.269857 115.61316 
L 148.309714 115.933927 
L 148.349571 115.532968 
L 148.389429 115.512921 
L 148.389429 115.625189 
L 148.469143 116.29479 
L 148.509 116.29479 
L 148.509 116.387011 
L 148.588714 117.619558 
L 148.588714 117.607931 
L 148.628571 117.706968 
L 148.708286 118.258687 
L 148.788 118.380979 
L 148.788 118.376569 
L 148.867714 119.038552 
L 148.867714 119.030934 
L 148.907571 119.017301 
L 148.907571 119.121951 
L 148.987286 119.318421 
L 149.067 119.40583 
L 149.067 119.40583 
L 149.146714 119.603503 
L 149.146714 119.59388 
L 149.226429 119.633976 
L 149.226429 119.684898 
L 149.306143 119.956748 
L 149.306143 119.954743 
L 149.425714 119.958352 
L 149.425714 120.031727 
L 149.505429 120.186096 
L 149.505429 120.150812 
L 149.625 120.22539 
L 149.625 120.247042 
L 149.664857 120.291949 
L 149.704714 120.206545 
L 149.704714 120.264684 
L 149.904 120.404619 
L 149.983714 120.541747 
L 149.904 120.403817 
L 149.983714 120.47639 
L 150.143143 120.516887 
L 150.143143 120.571418 
L 150.222857 120.654817 
L 150.222857 120.632363 
L 150.701143 120.745594 
L 150.701143 120.754335 
L 150.741 120.694833 
L 150.780857 120.701328 
L 151.219286 120.745915 
L 151.219286 120.770213 
L 151.259143 120.808665 
L 151.219286 120.740582 
L 151.299 120.766765 
L 153.730286 120.837695 
L 153.730286 120.853051 
L 153.730286 120.859908 
L 153.81 120.799162 
L 154.726714 120.703213 
L 154.726714 120.698762 
L 154.806429 120.595876 
L 154.806429 120.596678 
L 155.205 120.576229 
L 155.205 120.489622 
L 155.205 120.479999 
L 155.244857 120.549766 
L 155.284714 120.538138 
L 155.404286 120.518491 
L 155.404286 120.454739 
L 155.444143 120.352895 
L 155.523857 119.716974 
L 155.523857 119.759075 
L 155.563714 119.872145 
L 155.563714 119.869339 
L 155.643429 119.837262 
L 155.643429 119.94512 
L 155.763 120.07062 
L 155.763 120.069016 
L 155.842714 120.11673 
L 155.763 120.01609 
L 155.842714 120.081847 
L 156.121714 120.207748 
L 156.161571 120.305181 
L 156.201429 120.125952 
L 156.201429 120.137981 
L 156.440571 120.184492 
L 156.440571 120.20013 
L 156.440571 120.207748 
L 156.520286 120.084253 
L 156.520286 120.087059 
L 156.6 120.063403 
L 156.6 119.979201 
L 156.6 119.971984 
L 156.639857 120.064606 
L 156.679714 120.043756 
L 156.918857 120.084654 
L 156.918857 120.000051 
L 156.998571 119.906227 
L 156.918857 120.017293 
L 156.998571 119.922265 
L 157.118143 119.795963 
L 157.197857 119.653222 
L 157.197857 119.675676 
L 157.317429 119.537746 
L 157.317429 119.548171 
L 157.397143 119.432294 
L 157.357286 119.570624 
L 157.397143 119.460762 
L 157.437 119.356111 
L 157.437 119.364532 
L 157.516714 119.159642 
L 157.556571 119.161646 
L 157.556571 119.063812 
L 157.636286 118.997654 
L 157.596429 119.089073 
L 157.636286 119.013292 
L 157.676143 118.890999 
L 157.676143 118.895811 
L 157.755857 118.672476 
L 157.755857 118.69894 
L 157.795714 118.601106 
L 157.875429 118.167669 
L 157.875429 118.176089 
L 157.915286 118.157244 
L 157.915286 118.279537 
L 157.955143 118.336473 
L 157.995 118.118752 
L 158.034857 117.996059 
L 158.034857 117.998465 
L 158.114571 117.732228 
L 158.074714 118.016909 
L 158.114571 117.73744 
L 158.154429 117.610336 
L 158.154429 117.611539 
L 158.234143 116.739855 
L 158.234143 116.743864 
L 158.274 116.627586 
L 158.353714 91.651858 
L 158.393571 90.404876 
L 158.433429 84.005572 
L 158.473286 86.483498 
L 158.513143 86.258961 
L 158.513143 86.291037 
L 158.513143 85.849983 
L 158.592857 93.508297 
L 158.592857 93.420086 
L 158.632714 93.528345 
L 158.632714 93.524336 
L 158.712429 98.476178 
L 158.752286 98.692696 
L 158.832 102.998994 
L 158.871857 103.123291 
L 158.951571 107.373455 
L 158.991429 107.369446 
L 158.991429 107.449637 
L 159.031286 109.338154 
L 159.071143 106.006186 
L 159.111 105.801696 
L 159.150857 104.266024 
L 159.190714 105.693438 
L 159.230571 105.797687 
L 159.310286 108.716668 
L 159.350143 108.881061 
L 159.429857 111.463236 
L 159.429857 111.459226 
L 159.469714 111.455217 
L 159.469714 111.547437 
L 159.549429 113.291608 
L 159.589286 113.464021 
L 159.669 115.32447 
L 159.708857 115.448767 
L 159.708857 115.448767 
L 159.748714 116.166483 
L 159.788571 115.877793 
L 159.828429 115.769534 
L 159.868286 115.7134 
L 159.908143 116.262714 
L 159.948 116.403049 
L 159.948 116.403049 
L 160.027714 117.388205 
L 160.027714 117.37337 
L 160.067571 117.493657 
L 160.147286 118.062618 
L 160.147286 118.05099 
L 160.187143 118.047783 
L 160.187143 118.142008 
L 160.227 118.27673 
L 160.266857 118.440321 
L 160.306714 118.425887 
L 160.346571 118.425085 
L 160.346571 118.523721 
L 160.426286 119.197332 
L 160.426286 119.190916 
L 160.506 119.237428 
L 160.506 119.263089 
L 160.585714 119.461965 
L 160.585714 119.451941 
L 160.665429 119.516896 
L 160.665429 119.556591 
L 160.745143 119.806789 
L 160.785 119.803982 
L 160.785 119.913444 
L 160.864714 120.03293 
L 160.864714 120.017293 
L 160.984286 120.143595 
L 161.064 120.226192 
L 161.064 120.193714 
L 161.223429 120.311997 
L 161.223429 120.304379 
L 161.303143 120.400208 
L 161.303143 120.368533 
L 161.542286 120.437097 
L 161.542286 120.469975 
L 161.622 120.530921 
L 161.622 120.522501 
L 161.980714 120.605499 
L 161.980714 120.615122 
L 162.020571 120.648803 
L 162.020571 120.609509 
L 162.060429 120.619132 
L 162.259714 120.699885 
L 162.259714 120.719773 
L 162.339429 120.75638 
L 162.299571 120.708866 
L 162.339429 120.750486 
L 162.897429 120.787254 
L 162.897429 120.78998 
L 162.977143 120.737976 
L 162.977143 120.772258 
L 163.256143 120.825946 
L 163.256143 120.853532 
L 163.296 120.86508 
L 163.335857 120.787013 
L 163.335857 120.80221 
L 168.995571 120.813717 
L 168.995571 120.805377 
L 168.995571 120.791985 
L 169.075286 120.845233 
L 169.075286 120.837534 
L 169.274571 120.728954 
L 169.314429 120.680639 
L 169.354286 120.754055 
L 169.354286 120.740783 
L 169.553571 120.629557 
L 169.633286 120.441507 
L 169.633286 120.467569 
L 169.673143 120.571017 
L 169.713 120.600287 
L 169.752857 120.458347 
L 169.912286 120.577432 
L 169.992 120.76063 
L 170.510143 120.634368 
L 170.589857 120.583847 
L 170.589857 120.610311 
L 170.789143 120.672981 
L 170.789143 120.717647 
L 170.789143 120.721898 
L 170.868857 120.650407 
L 170.868857 120.657223 
L 171.068143 120.663678 
L 171.068143 120.585451 
L 171.108 120.526911 
L 171.147857 120.615924 
L 171.387 120.506061 
L 171.387 120.463961 
L 171.466714 120.596678 
L 171.466714 120.588258 
L 171.666 120.538539 
L 171.666 120.497641 
L 171.945 120.353697 
L 172.024714 120.322823 
L 172.024714 120.382165 
L 172.024714 120.349687 
L 172.104429 120.235815 
L 172.184143 120.15843 
L 172.104429 120.239424 
L 172.184143 120.183691 
L 172.224 120.186898 
L 172.224 120.074229 
L 172.303714 119.963163 
L 172.303714 119.963163 
L 172.383429 119.784335 
L 172.463143 119.665251 
L 172.463143 119.666454 
L 172.542857 116.960382 
L 172.582714 116.795989 
L 172.662429 116.383001 
L 172.742143 116.238656 
L 172.742143 116.238656 
L 172.821857 114.033382 
L 172.861714 113.840922 
L 172.941429 112.854563 
L 172.981286 112.730266 
L 172.981286 112.325297 
L 173.061 113.548222 
L 173.061 113.540203 
L 173.100857 113.656481 
L 173.180571 115.937937 
L 173.220429 116.042186 
L 173.300143 117.323651 
L 173.379857 117.203764 
L 173.379857 117.176499 
L 173.459571 117.631587 
L 173.459571 117.621964 
L 173.499429 117.759092 
L 173.579143 118.137196 
L 173.579143 118.078656 
L 173.619 118.083869 
L 173.619 117.985634 
L 173.698714 117.670079 
L 173.698714 117.753078 
L 173.778429 117.834071 
L 173.778429 117.661258 
L 173.818286 117.625974 
L 173.858143 118.172481 
L 173.898 118.287957 
L 173.977714 119.067421 
L 174.017571 119.062209 
L 174.017571 119.169665 
L 174.097286 119.544963 
L 174.177 119.663647 
L 174.256714 119.904623 
L 174.256714 119.892995 
L 174.336429 119.960757 
L 174.336429 119.973588 
L 174.416143 120.253858 
L 174.416143 120.227395 
L 174.535714 120.116329 
L 174.535714 120.117933 
L 174.535714 120.1039 
L 174.615429 120.232207 
L 174.774857 120.352494 
L 174.854571 120.483207 
L 174.854571 120.481202 
L 175.014 120.548162 
L 175.014 120.585852 
L 175.093714 120.682283 
L 175.093714 120.660631 
L 175.332857 120.690663 
L 175.332857 120.72703 
L 175.372714 120.7648 
L 175.412571 120.706781 
L 175.412571 120.728834 
L 175.731429 120.830999 
L 175.731429 120.813958 
L 175.811143 120.853693 
L 176.409 120.859627 
L 176.409 120.872458 
L 176.488714 120.897477 
L 176.409 120.857061 
L 176.488714 120.889458 
L 177.843857 120.85658 
L 177.843857 120.800686 
L 178.601143 120.633165 
L 178.680857 120.555379 
L 178.641 120.654817 
L 178.680857 120.556181 
L 178.92 120.433087 
L 178.92 120.435493 
L 178.999714 120.34648 
L 179.079429 120.336456 
L 179.079429 120.248245 
L 179.159143 120.096682 
L 179.159143 120.105504 
L 179.238857 120.056186 
L 179.238857 120.008471 
L 179.318571 119.72339 
L 179.398286 119.575436 
L 179.398286 119.576238 
L 179.478 118.647216 
L 179.517857 118.663254 
L 179.517857 118.54858 
L 179.517857 118.550585 
L 179.597571 117.580665 
L 179.637429 117.596704 
L 179.637429 117.47802 
L 179.637429 117.480025 
L 179.717143 116.631596 
L 179.757 116.507299 
L 179.757 116.511308 
L 179.757 116.374982 
L 179.836714 116.872171 
L 179.916429 116.936325 
L 179.916429 116.972411 
L 179.996143 117.251879 
L 179.916429 116.952363 
L 179.996143 117.233034 
L 180.036 117.274333 
L 180.036 117.146828 
L 180.075857 117.166475 
L 180.075857 117.184518 
L 180.155571 116.571452 
L 180.195429 116.459183 
L 180.195429 116.479231 
L 180.235286 116.330877 
L 180.275143 116.49126 
L 180.315 116.607538 
L 180.354857 116.723816 
L 180.394714 116.527346 
L 180.434571 116.419088 
L 180.514286 115.641227 
L 180.554143 115.488863 
L 180.633857 114.193766 
L 180.633857 114.213814 
L 180.673714 114.073478 
L 180.753429 112.072693 
L 180.793286 111.952406 
L 180.793286 111.956415 
L 180.873 109.233904 
L 180.912857 109.113617 
L 180.992571 105.508996 
L 181.032429 105.300498 
L 181.112143 97.213157 
L 181.152 96.960553 
L 181.231714 74.226185 
L 181.271571 73.504459 
L 181.351286 57.385912 
L 181.351286 57.385912 
L 181.391143 57.385912 
L 181.391143 57.30572 
L 181.470857 53.175844 
L 181.470857 53.336227 
L 181.510714 53.496611 
L 181.590429 59.591186 
L 181.510714 53.256035 
L 181.590429 59.55109 
L 181.630286 59.831761 
L 181.630286 60.473295 
L 181.71 59.190227 
L 181.71 59.591186 
L 181.749857 59.631282 
L 181.749857 59.510994 
L 181.749857 59.510994 
L 181.749857 59.430802 
L 181.829571 64.081925 
L 181.869429 64.362596 
L 181.949143 70.457171 
L 181.989 70.577459 
L 182.068714 79.839609 
L 182.108571 79.999993 
L 182.188286 87.550048 
L 182.228143 87.678355 
L 182.307857 92.329478 
L 182.347714 92.541986 
L 182.427429 98.023094 
L 182.467286 98.015075 
L 182.467286 98.107296 
L 182.547 102.854649 
L 182.586857 103.079186 
L 182.666571 106.711873 
L 182.706429 106.832161 
L 182.786143 109.634863 
L 182.826 109.626844 
L 182.826 109.731093 
L 182.905714 111.904291 
L 182.945571 112.00854 
L 183.025286 113.588318 
L 183.025286 113.588318 
L 183.065143 113.552232 
L 183.065143 113.692567 
L 183.144857 115.035779 
L 183.184714 115.156067 
L 183.264429 116.507299 
L 183.264429 116.49126 
L 183.304286 116.599519 
L 183.304286 116.599519 
L 183.384 117.07666 
L 183.423857 117.220604 
L 183.423857 117.219402 
L 183.503571 117.642413 
L 183.503571 117.61194 
L 183.543429 117.609134 
L 183.543429 117.707368 
L 183.623143 118.270315 
L 183.623143 118.269513 
L 183.702857 118.336473 
L 183.702857 118.376569 
L 183.782571 118.7242 
L 183.822429 118.838073 
L 183.902143 119.244645 
L 183.902143 119.201341 
L 184.021714 119.31361 
L 184.061571 119.48522 
L 184.101429 119.404627 
L 184.221 119.516094 
L 184.221 119.516094 
L 184.300714 119.771104 
L 184.300714 119.76108 
L 184.460143 119.883773 
L 184.5 120.011679 
L 184.539857 119.885778 
L 184.699286 119.964366 
L 184.699286 119.980805 
L 184.739143 120.126353 
L 184.779 120.1039 
L 185.097857 120.209753 
L 185.097857 120.20855 
L 185.097857 120.3132 
L 185.177571 120.301572 
L 185.735571 120.490424 
L 185.815286 120.520496 
L 185.775429 120.472782 
L 185.815286 120.477994 
L 185.934857 120.530921 
L 185.934857 120.568611 
L 187.050857 120.426271 
L 187.130571 120.311997 
L 187.050857 120.431082 
L 187.130571 120.373745 
L 187.369714 120.238221 
L 187.449429 119.958352 
L 187.449429 120.058591 
L 187.569 119.937101 
L 187.569 119.925072 
L 187.648714 120.148406 
L 187.768286 120.227796 
L 187.768286 120.24624 
L 187.768286 120.322422 
L 187.848 120.197323 
L 187.848 120.214965 
L 188.246571 120.063804 
L 188.246571 120.066611 
L 188.326286 119.818818 
L 188.326286 119.819219 
L 188.445857 119.701337 
L 188.525571 119.519703 
L 188.525571 119.541755 
L 188.605286 119.460361 
L 188.605286 119.44753 
L 188.605286 119.493239 
L 188.685 119.070629 
L 188.724857 118.956355 
L 188.804571 118.820029 
L 188.724857 118.984823 
L 188.804571 118.881376 
L 188.844429 118.886188 
L 188.844429 118.790358 
L 188.924143 118.291566 
L 188.924143 118.29357 
L 188.964 118.158046 
L 189.043714 117.099916 
L 189.083571 116.960382 
L 189.163286 115.492873 
L 189.163286 115.496882 
L 189.203143 115.372585 
L 189.203143 115.384614 
L 189.282857 114.306034 
L 189.322714 114.15768 
L 189.402429 113.411896 
L 189.402429 113.500107 
L 189.442286 113.56426 
L 189.442286 113.3718 
L 189.482143 113.311656 
L 189.522 113.612375 
L 189.522 113.596337 
L 189.561857 113.740682 
L 189.561857 113.740682 
L 189.561857 113.872999 
L 189.601714 113.684548 
L 189.641571 113.744692 
L 189.681429 113.776769 
L 189.681429 113.640443 
L 189.761143 113.127215 
L 189.801 113.123206 
L 189.801 113.219436 
L 189.801 113.251512 
L 189.880714 112.998908 
L 189.880714 113.055043 
L 189.920571 113.014947 
L 189.920571 113.123206 
L 190.000286 113.195378 
L 189.960429 113.08311 
L 190.000286 113.051033 
L 190.08 112.609978 
L 190.040143 113.151273 
L 190.08 112.662103 
L 190.119857 112.662103 
L 190.119857 112.569882 
L 190.199571 111.655696 
L 190.199571 111.71985 
L 190.239429 111.607581 
L 190.239429 111.61961 
L 190.319143 110.071909 
L 190.319143 110.075918 
L 190.359 110.075918 
L 190.359 109.975678 
L 190.438714 107.710261 
L 190.478571 107.585963 
L 190.558286 104.606839 
L 190.598143 104.434427 
L 190.677857 99.13375 
L 190.717714 98.957328 
L 190.797429 87.485895 
L 190.837286 87.34155 
L 190.917 69.976021 
L 190.956857 69.254295 
L 191.036571 33.288283 
L 191.076429 32.125502 
L 191.156143 23.585078 
L 191.156143 23.945941 
L 191.196 23.905845 
L 191.196 23.986037 
L 191.196 23.986037 
L 191.196 24.066229 
L 191.275714 22.221818 
L 191.275714 22.863352 
L 191.315571 22.863352 
L 191.315571 22.943544 
L 191.395286 28.516873 
L 191.395286 28.396585 
L 191.435143 28.236201 
L 191.435143 28.436681 
L 191.435143 28.236201 
L 191.435143 27.113517 
L 191.514857 28.677256 
L 191.554714 29.078215 
L 191.554714 29.078215 
L 191.634429 37.89931 
L 191.674286 38.300269 
L 191.754 47.36194 
L 191.793857 47.722803 
L 191.873571 59.470898 
L 191.913429 59.751569 
L 191.993143 67.810843 
L 192.033 68.412281 
L 192.112714 76.51165 
L 192.152571 76.672034 
L 192.232286 83.688814 
L 192.272143 83.688814 
L 192.272143 83.781035 
L 192.351857 91.130611 
L 192.391714 91.375196 
L 192.471429 97.253253 
L 192.511286 97.557982 
L 192.591 101.314967 
L 192.630857 101.559552 
L 192.710571 105.368661 
L 192.750429 105.529044 
L 192.830143 108.520198 
L 192.87 108.736715 
L 192.87 108.716668 
L 192.949714 110.677356 
L 192.989571 110.669337 
L 192.989571 110.777596 
L 193.069286 112.445585 
L 193.109143 112.597949 
L 193.109143 112.597949 
L 193.188857 113.636433 
L 193.188857 113.624404 
L 193.228714 113.720634 
L 193.308429 114.915492 
L 193.348286 115.035779 
L 193.428 116.114359 
L 193.467857 116.246675 
L 193.547571 116.751883 
L 193.587429 116.8842 
L 193.667143 117.330868 
L 193.627286 116.88019 
L 193.667143 117.329264 
L 193.786714 117.475213 
L 193.786714 117.466392 
L 193.866429 118.047783 
L 193.906286 118.162858 
L 193.986 118.384989 
L 193.986 118.302391 
L 194.065714 118.42308 
L 194.105571 118.538556 
L 194.065714 118.40624 
L 194.145429 118.517706 
L 194.185286 118.516904 
L 194.185286 118.61113 
L 194.265 118.890197 
L 194.265 118.875362 
L 194.344714 118.990437 
L 194.424429 119.099498 
L 194.384571 118.966379 
L 194.424429 119.08386 
L 194.464286 119.071832 
L 194.464286 119.185303 
L 194.464286 119.199737 
L 194.544 119.106314 
L 194.544 119.12155 
L 194.663571 119.180892 
L 194.663571 119.210162 
L 194.703429 119.42227 
L 194.743286 119.379367 
L 194.783143 119.492437 
L 194.783143 119.490433 
L 194.862857 119.527321 
L 194.823 119.440714 
L 194.862857 119.520905 
L 195.022286 119.640391 
L 195.102 119.738225 
L 195.022286 119.636783 
L 195.102 119.687303 
L 195.221571 119.764688 
L 195.221571 119.789147 
L 195.301286 120.029321 
L 195.301286 120.022906 
L 195.460714 119.911439 
L 195.500571 119.891391 
L 195.540429 120.03694 
L 195.540429 120.036539 
L 195.66 120.152416 
L 195.739714 120.316007 
L 195.66 120.147604 
L 195.739714 120.314002 
L 196.058571 120.345678 
L 196.058571 120.411435 
L 196.138286 120.48441 
L 196.058571 120.406624 
L 196.138286 120.462357 
L 196.457143 120.60149 
L 196.497 120.648402 
L 196.457143 120.601089 
L 196.536857 120.607905 
L 197.254286 120.648402 
L 197.254286 120.695234 
L 197.294143 120.711392 
L 197.334 120.670976 
L 197.334 120.698041 
L 198.45 120.669813 
L 198.45 120.691625 
L 198.489857 120.707263 
L 198.529714 120.635972 
L 198.529714 120.63918 
L 199.047857 120.603494 
L 199.047857 120.585451 
L 199.087714 120.516085 
L 199.127571 120.573423 
L 199.326857 120.496037 
L 199.326857 120.472782 
L 199.326857 120.428275 
L 199.366714 120.475589 
L 199.406571 120.467569 
L 199.645714 120.394996 
L 199.645714 120.358509 
L 199.725429 120.164845 
L 199.685571 120.372542 
L 199.725429 120.168454 
L 199.964571 120.080644 
L 200.044286 119.956748 
L 199.964571 120.109112 
L 200.044286 119.960356 
L 200.124 119.829243 
L 200.124 119.829644 
L 200.203714 119.540953 
L 200.203714 119.550576 
L 200.243571 119.558195 
L 200.243571 119.449535 
L 200.243571 119.453544 
L 200.323286 119.15082 
L 200.363143 119.155632 
L 200.363143 119.056595 
L 200.403 118.935506 
L 200.442857 118.986026 
L 200.482714 118.872555 
L 200.562429 118.706959 
L 200.522571 118.884183 
L 200.562429 118.745451 
L 200.682 118.6404 
L 200.682 118.6404 
L 200.761714 118.546976 
L 200.682 118.644008 
L 200.761714 118.629173 
L 200.881286 118.598299 
L 200.881286 118.546976 
L 200.961 118.3477 
L 200.961 118.387395 
L 201.040714 118.407844 
L 201.040714 118.479615 
L 201.24 118.485229 
L 201.24 118.413457 
L 201.319714 118.315623 
L 201.319714 118.316024 
L 201.399429 118.266706 
L 201.399429 118.214982 
L 201.399429 118.216185 
L 201.479143 117.882587 
L 201.558857 117.774329 
L 201.638571 117.424291 
L 201.558857 117.785154 
L 201.638571 117.44875 
L 201.678429 117.451557 
L 201.678429 117.340892 
L 201.758143 116.799999 
L 201.758143 116.799999 
L 201.798 116.679711 
L 201.877714 116.058225 
L 201.877714 116.070253 
L 201.917571 116.070253 
L 201.917571 115.961994 
L 201.997286 114.049421 
L 202.037143 113.901066 
L 202.116857 111.166526 
L 202.156714 110.877836 
L 202.236429 105.500977 
L 202.276286 105.236344 
L 202.356 101.687858 
L 202.356 101.756021 
L 202.395857 101.555542 
L 202.475571 100.914008 
L 202.515429 100.78971 
L 202.555286 100.396771 
L 202.595143 100.677442 
L 202.674857 100.813768 
L 202.674857 101.08241 
L 202.714714 100.725557 
L 202.754571 100.829806 
L 202.794429 100.749615 
L 202.834286 101.022267 
L 202.914 102.024664 
L 202.953857 102.209105 
L 203.033571 104.021439 
L 203.033571 104.005401 
L 203.073429 104.125688 
L 203.153143 106.503375 
L 203.193 106.495355 
L 203.193 106.575547 
L 203.272714 107.990932 
L 203.272714 107.858616 
L 203.312571 107.950836 
L 203.312571 107.946826 
L 203.392286 110.148091 
L 203.432143 110.288426 
L 203.511857 111.691782 
L 203.511857 111.683763 
L 203.551714 111.868204 
L 203.551714 111.860185 
L 203.631429 113.363781 
L 203.671286 113.351752 
L 203.671286 113.456001 
L 203.751 114.743079 
L 203.751 114.731051 
L 203.790857 114.711003 
L 203.790857 114.827281 
L 203.870571 115.721419 
L 203.910429 115.841707 
L 203.990143 116.619567 
L 204.069857 116.747874 
L 204.149571 117.865747 
L 204.189429 117.974407 
L 204.269143 118.119153 
L 204.348857 118.235431 
L 204.428571 118.84128 
L 204.468429 118.943525 
L 204.508286 118.937109 
L 204.548143 119.186907 
L 204.667714 119.357314 
L 204.667714 119.356512 
L 204.747429 119.554185 
L 204.747429 119.551779 
L 204.827143 119.667255 
L 204.906857 119.766693 
L 204.827143 119.66485 
L 204.906857 119.741032 
L 204.986571 119.880967 
L 205.026429 119.864527 
L 205.066286 119.96597 
L 205.305429 120.127155 
L 205.385143 120.26308 
L 205.305429 120.125551 
L 205.385143 120.26308 
L 206.262 120.285534 
L 206.262 120.249448 
L 206.341714 120.224588 
L 206.341714 120.280322 
L 206.341714 120.273505 
L 206.501143 120.223385 
L 206.501143 120.187299 
L 206.501143 120.178478 
L 206.580857 120.296761 
L 206.580857 120.284732 
L 206.859857 120.3132 
L 206.859857 120.369735 
L 206.899714 120.433488 
L 206.939571 120.395798 
L 207.099 120.467569 
L 207.099 120.491627 
L 207.138857 120.546558 
L 207.178714 120.451932 
L 207.338143 120.525708 
L 207.338143 120.544553 
L 207.417857 120.617528 
L 210.008571 120.938897 
L 210.008571 120.924101 
L 213.476143 120.708866 
L 213.476143 120.705178 
L 213.516 120.744672 
L 213.555857 120.730919 
L 213.755143 120.66841 
L 213.755143 120.640383 
L 213.755143 120.625948 
L 213.834857 120.66444 
L 213.834857 120.664039 
L 214.233429 120.603093 
L 214.233429 120.590664 
L 214.273286 120.556181 
L 214.313143 120.621538 
L 214.831286 120.605499 
L 214.831286 120.5638 
L 214.911 120.500047 
L 214.911 120.504057 
L 215.030571 120.439502 
L 215.030571 120.419454 
L 215.110286 120.179681 
L 215.110286 120.190106 
L 215.19 120.105904 
L 215.19 120.093876 
L 215.269714 119.855706 
L 215.269714 119.868938 
L 215.349429 119.751858 
L 215.349429 119.751858 
L 215.349429 119.762283 
L 215.429143 119.325639 
L 215.588571 119.203747 
L 215.668286 119.075039 
L 215.668286 119.139594 
L 215.787857 119.204148 
L 215.787857 119.232616 
L 215.827714 119.252263 
L 215.867571 119.170868 
L 215.867571 119.231413 
L 215.987143 119.3513 
L 215.987143 119.317619 
L 216.066857 119.461965 
L 216.146571 119.570223 
L 216.226286 119.745442 
L 216.226286 119.721385 
L 216.385714 119.763486 
L 216.385714 119.824832 
L 216.465429 120.00366 
L 216.465429 120.002457 
L 216.624857 120.133972 
L 216.704571 120.239023 
L 216.704571 120.2294 
L 216.903857 120.382165 
L 216.903857 120.380561 
L 216.983571 120.524506 
L 217.182857 120.569012 
L 217.182857 120.610311 
L 217.262571 120.710109 
L 217.262571 120.695515 
L 217.701 120.795794 
L 217.701 120.80253 
L 217.740857 120.838938 
L 217.780714 120.821817 
L 218.418429 120.899723 
L 218.418429 120.921455 
L 218.498143 120.929274 
L 218.498143 120.914037 
L 218.498143 120.924743 
L 220.650429 120.951807 
L 220.650429 120.931198 
L 222.125143 120.902209 
L 222.125143 120.916403 
L 222.165 120.926507 
L 222.204857 120.904655 
L 222.483857 120.80638 
L 222.483857 120.795033 
L 222.563571 120.744792 
L 222.563571 120.776709 
L 222.683143 120.661754 
L 222.762857 120.519694 
L 222.762857 120.524907 
L 223.480286 120.548162 
L 223.480286 120.56821 
L 223.480286 120.603895 
L 223.56 120.60149 
L 223.679571 120.619934 
L 223.679571 120.687776 
L 224.436857 120.866443 
L 224.436857 120.876588 
L 224.516571 120.856099 
L 224.516571 120.865561 
L 225.194143 120.722138 
L 225.273857 120.565002 
L 225.473143 120.460352 
L 225.552857 120.378957 
L 225.552857 120.38016 
L 225.672429 120.337659 
L 225.672429 120.279119 
L 225.752143 120.208149 
L 225.752143 120.243834 
L 225.871714 120.326432 
L 225.871714 120.336857 
L 225.951429 120.363721 
L 225.911571 120.307587 
L 225.951429 120.362919 
L 226.310143 120.404619 
L 226.310143 120.416648 
L 226.389857 120.575427 
L 226.629 120.653213 
L 226.629 120.679556 
L 226.668857 120.717287 
L 226.708714 120.691224 
L 227.187 120.859507 
L 227.266714 120.90702 
L 227.266714 120.901728 
L 229.498714 120.896154 
L 229.498714 120.887093 
L 229.578429 120.836933 
L 229.578429 120.847518 
L 229.817571 120.780839 
L 229.817571 120.759949 
L 229.897286 120.707623 
L 229.897286 120.747479 
L 230.375571 120.6729 
L 230.375571 120.670174 
L 230.455286 120.608306 
L 230.375571 120.671016 
L 230.455286 120.610311 
L 230.574857 120.488419 
L 230.574857 120.48882 
L 230.654571 120.218975 
L 230.694429 120.222584 
L 230.694429 120.111117 
L 230.774143 119.750254 
L 230.814 119.60631 
L 230.893714 119.226201 
L 230.814 119.606711 
L 230.893714 119.233017 
L 230.933571 119.269504 
L 230.933571 119.136787 
L 230.933571 119.138391 
L 231.013286 118.879772 
L 231.053143 118.76189 
L 231.132857 118.606318 
L 231.053143 118.777127 
L 231.132857 118.626366 
L 231.172714 118.634385 
L 231.172714 118.525726 
L 231.252429 118.468789 
L 231.212571 118.561411 
L 231.252429 118.488436 
L 231.491571 118.462775 
L 231.491571 118.551788 
L 231.571286 118.762692 
L 231.571286 118.758683 
L 231.651 118.867343 
L 231.651 118.861328 
L 231.730714 119.171269 
L 231.850286 119.321228 
L 231.93 119.663246 
L 231.93 119.634778 
L 232.049571 119.688105 
L 232.049571 119.742235 
L 232.129286 120.005264 
L 232.209 120.130764 
L 232.288714 120.356905 
L 232.488 120.502854 
L 232.567714 120.631562 
L 232.567714 120.629156 
L 232.806857 120.729235 
L 232.806857 120.73982 
L 232.886571 120.787936 
L 232.886571 120.775025 
L 235.915714 120.964839 
L 235.915714 120.953532 
L 235.955571 120.939979 
L 235.995429 120.96143 
L 235.995429 120.959466 
L 236.792571 120.819531 
L 236.792571 120.820694 
L 236.832429 120.769572 
L 236.872286 120.771095 
L 237.868714 120.859186 
L 237.868714 120.866684 
L 237.948429 120.891904 
L 237.868714 120.866523 
L 237.948429 120.875144 
L 238.626 120.677792 
L 238.705714 120.487216 
L 238.705714 120.487617 
L 238.825286 120.548162 
L 238.825286 120.591065 
L 238.865143 120.608707 
L 238.905 120.445116 
L 238.984714 120.38818 
L 238.984714 120.344475 
L 239.024571 120.3549 
L 239.064429 120.283128 
L 239.144143 120.209753 
L 239.144143 120.180884 
L 239.223857 119.797567 
L 239.263714 119.679284 
L 239.263714 119.680086 
L 239.303571 119.682492 
L 239.343429 119.256273 
L 239.383286 119.140396 
L 239.463 117.796782 
L 239.502857 117.651635 
L 239.582571 115.300412 
L 239.622429 115.13201 
L 239.702143 111.074306 
L 239.742 110.962037 
L 239.821714 105.059923 
L 239.861571 104.807318 
L 239.941286 98.909213 
L 239.981143 98.624533 
L 240.060857 95.829849 
L 240.060857 95.829849 
L 240.100714 95.705552 
L 240.100714 95.713571 
L 240.180429 93.275741 
L 240.220286 93.115358 
L 240.260143 92.60614 
L 240.3 93.139415 
L 240.3 93.127386 
L 240.339857 93.255693 
L 240.419571 94.711174 
L 240.459429 94.707164 
L 240.459429 94.799385 
L 240.539143 97.18509 
L 240.539143 97.153013 
L 240.579 97.313397 
L 240.658714 100.440876 
L 240.658714 100.432857 
L 240.698571 100.60126 
L 240.778286 103.516231 
L 240.818143 103.676614 
L 240.897857 106.74395 
L 240.937714 106.860228 
L 241.017429 109.466461 
L 241.057286 109.554672 
L 241.137 112.052645 
L 241.176857 112.196991 
L 241.256571 113.965219 
L 241.296429 114.125603 
L 241.376143 115.452777 
L 241.376143 115.448767 
L 241.416 115.565045 
L 241.416 115.561036 
L 241.495714 116.603529 
L 241.535571 116.715797 
L 241.615286 117.604723 
L 241.655143 117.747063 
L 241.734857 118.280339 
L 241.734857 118.270315 
L 241.814571 118.325246 
L 241.814571 118.366144 
L 241.894286 118.799981 
L 241.934143 118.936708 
L 242.013857 119.305591 
L 242.093571 119.408236 
L 242.173286 119.658434 
L 242.173286 119.650816 
L 242.213143 119.759476 
L 242.292857 119.878561 
L 242.213143 119.758674 
L 242.292857 119.874551 
L 242.412429 119.95755 
L 242.412429 119.984013 
L 242.492143 120.139184 
L 242.492143 120.11673 
L 242.571857 120.229801 
L 242.651571 120.344876 
L 242.651571 120.335654 
L 242.771143 120.460352 
L 242.850857 120.544954 
L 242.850857 120.541747 
L 243.09 120.629557 
L 243.09 120.63517 
L 243.169714 120.716324 
L 243.767571 120.863436 
L 243.847286 120.889057 
L 243.767571 120.857422 
L 243.847286 120.878512 
L 247.992429 120.85654 
L 247.992429 120.818288 
L 248.072143 120.787575 
L 248.072143 120.796356 
L 248.271429 120.695835 
L 248.271429 120.691304 
L 248.351143 120.558587 
L 248.550429 120.440304 
L 248.630143 120.190908 
L 248.630143 120.194115 
L 248.709857 120.125952 
L 248.709857 120.092673 
L 248.789571 119.956748 
L 248.749714 120.107508 
L 248.789571 119.95755 
L 248.869286 119.8533 
L 248.949 119.348493 
L 248.988857 119.235824 
L 249.068571 118.470794 
L 249.108429 118.352511 
L 249.188143 116.804008 
L 249.228 116.607538 
L 249.307714 114.045411 
L 249.347571 113.889037 
L 249.427286 108.973281 
L 249.467143 108.79285 
L 249.546857 100.837826 
L 249.586714 100.533097 
L 249.666429 91.695963 
L 249.706286 91.359158 
L 249.786 85.200429 
L 249.825857 84.735317 
L 249.905571 80.80191 
L 249.945429 80.481143 
L 249.945429 80.481143 
L 250.025143 78.275869 
L 250.025143 78.275869 
L 250.065 78.275869 
L 250.065 78.195678 
L 250.065 78.115486 
L 250.144714 79.238171 
L 250.184571 79.398554 
L 250.184571 79.398554 
L 250.264286 82.469899 
L 250.264286 82.401736 
L 250.304143 82.393717 
L 250.304143 82.473909 
L 250.383857 85.416947 
L 250.423714 85.641484 
L 250.503429 90.593326 
L 250.543286 90.857959 
L 250.623 95.027931 
L 250.662857 95.192325 
L 250.742571 99.654997 
L 250.782429 99.875524 
L 250.862143 103.279665 
L 250.902 103.488164 
L 250.981714 106.904333 
L 251.021571 107.100803 
L 251.101286 109.674959 
L 251.141143 109.815295 
L 251.220857 111.9083 
L 251.260714 112.048636 
L 251.340429 113.868989 
L 251.380286 113.977248 
L 251.46 115.328479 
L 251.499857 115.432729 
L 251.579571 116.479231 
L 251.619429 116.583481 
L 251.699143 117.070245 
L 251.699143 117.063028 
L 251.739 117.166876 
L 251.739 117.157654 
L 251.818714 117.870158 
L 251.858571 118.007286 
L 251.938286 118.443128 
L 251.938286 118.438717 
L 252.018 118.564619 
L 252.097714 118.836068 
L 252.097714 118.833662 
L 252.177429 118.946331 
L 252.177429 118.938312 
L 252.257143 119.263891 
L 252.336857 119.413048 
L 252.416571 119.557393 
L 252.496286 119.670062 
L 252.576 119.816813 
L 252.576 119.814006 
L 252.655714 119.927478 
L 252.735429 120.035336 
L 252.735429 120.023708 
L 252.855 120.11232 
L 252.855 120.11673 
L 252.894857 120.224588 
L 252.934714 120.214163 
L 253.054286 120.327635 
L 253.134 120.428275 
L 253.134 120.424667 
L 253.373143 120.556983 
L 253.413 120.607504 
L 253.452857 120.605098 
L 253.572429 120.677471 
L 253.572429 120.715562 
L 253.652143 120.756581 
L 253.652143 120.709708 
L 253.652143 120.755378 
L 254.090571 120.83585 
L 254.090571 120.855297 
L 254.170286 120.851929 
L 254.170286 120.877389 
L 256.521857 120.996354 
L 256.521857 120.998519 
L 256.561714 120.981318 
L 256.601571 120.983644 
L 258.315429 120.814279 
L 258.355286 120.801769 
L 258.355286 120.823581 
L 258.395143 120.815602 
L 259.032857 120.726509 
L 259.032857 120.710992 
L 259.112571 120.684167 
L 259.072714 120.71448 
L 259.112571 120.686934 
L 259.272 120.567408 
L 259.272 120.567809 
L 259.351714 120.489221 
L 259.272 120.573423 
L 259.351714 120.490023 
L 259.551 120.362919 
L 259.551 120.36332 
L 259.630714 120.27952 
L 259.750286 120.236617 
L 259.750286 120.17527 
L 259.83 120.042553 
L 259.909714 119.9367 
L 259.989429 119.445525 
L 260.029286 119.33446 
L 260.109 118.542165 
L 260.148857 118.411853 
L 260.228571 116.936325 
L 260.268429 116.804008 
L 260.348143 114.943559 
L 260.388 114.803223 
L 260.467714 112.758333 
L 260.507571 112.613988 
L 260.587286 110.974066 
L 260.587286 110.974066 
L 260.627143 110.83373 
L 260.706857 109.743122 
L 260.706857 109.747132 
L 260.746714 109.602787 
L 260.826429 109.149703 
L 260.746714 109.606796 
L 260.826429 109.286029 
L 260.866286 109.286029 
L 260.866286 109.18178 
L 260.906143 109.245933 
L 260.946 108.969272 
L 261.025714 108.836955 
L 261.065571 109.005358 
L 261.145286 110.011765 
L 261.185143 110.160119 
L 261.264857 111.114402 
L 261.304714 111.246718 
L 261.384429 112.293221 
L 261.384429 112.293221 
L 261.424286 112.285202 
L 261.424286 112.381432 
L 261.504 113.648462 
L 261.543857 113.772759 
L 261.623571 114.811242 
L 261.663429 114.807233 
L 261.663429 114.903463 
L 261.743143 115.833688 
L 261.743143 115.833688 
L 261.783 115.933927 
L 261.862714 116.763912 
L 261.902571 116.888209 
L 261.982286 117.461982 
L 262.022143 117.575854 
L 262.101857 118.130781 
L 262.141714 118.245455 
L 262.221429 118.591483 
L 262.261286 118.713374 
L 262.341 119.042562 
L 262.341 119.031736 
L 262.380857 119.14641 
L 262.460571 119.365734 
L 262.460571 119.352503 
L 262.540286 119.449936 
L 262.540286 119.450337 
L 262.62 119.668057 
L 262.62 119.640792 
L 262.699714 119.746645 
L 262.779429 119.829644 
L 262.779429 119.81962 
L 262.859143 119.935096 
L 262.859143 119.935096 
L 262.899 120.008471 
L 262.859143 119.933492 
L 262.938857 119.979602 
L 263.058429 120.095079 
L 263.058429 120.09989 
L 263.098286 120.042954 
L 263.138143 120.081045 
L 263.257714 120.196521 
L 263.257714 120.244235 
L 263.337429 120.198125 
L 263.536714 120.310794 
L 263.616429 120.419454 
L 263.536714 120.306384 
L 263.616429 120.404619 
L 264.015 120.53894 
L 264.094714 120.617929 
L 264.094714 120.616726 
L 264.612857 120.763918 
L 264.612857 120.763477 
L 264.692571 120.787214 
L 264.612857 120.753052 
L 264.692571 120.779555 
L 265.449857 120.926587 
L 265.529571 120.935889 
L 265.489714 120.924582 
L 265.529571 120.929795 
L 267.442714 120.805016 
L 267.522429 120.741785 
L 267.522429 120.749002 
L 268.479 120.7731 
L 268.479 120.803413 
L 268.558714 120.852971 
L 271.189286 120.963916 
L 271.189286 120.963836 
L 271.189286 120.97378 
L 271.269 120.948079 
L 272.185714 120.699003 
L 272.265429 120.59347 
L 272.385 120.477192 
L 272.385 120.478395 
L 272.464714 120.259873 
L 272.544429 120.213762 
L 272.544429 120.152416 
L 272.584286 120.115928 
L 272.584286 120.154821 
L 272.624143 120.122745 
L 272.863286 120.009273 
L 272.863286 120.012882 
L 272.943 119.94111 
L 272.943 119.976395 
L 273.062571 120.099088 
L 273.142286 120.134774 
L 273.102429 120.069417 
L 273.142286 120.117131 
L 273.341571 120.185695 
L 273.341571 120.221381 
L 273.421286 120.253457 
L 273.381429 120.208149 
L 273.421286 120.24183 
L 273.620571 120.376953 
L 273.700286 120.462758 
L 273.700286 120.457144 
L 273.859714 120.521298 
L 273.859714 120.561394 
L 273.939429 120.666365 
L 273.939429 120.666325 
L 274.617 120.815281 
L 274.696714 120.8569 
L 274.696714 120.855898 
L 276.291 120.888255 
L 276.291 120.891944 
L 276.291 120.894951 
L 276.330857 120.871856 
L 276.370714 120.881239 
L 278.921571 120.939498 
L 278.921571 120.95273 
L 278.921571 120.959305 
L 279.001286 120.943067 
L 279.001286 120.946916 
L 280.954286 120.888296 
L 280.954286 120.863075 
L 281.034 120.793589 
L 281.193429 120.680118 
L 281.193429 120.6812 
L 281.273143 120.597079 
L 281.273143 120.607905 
L 281.432571 120.489622 
L 281.512286 120.429077 
L 281.512286 120.439903 
L 282.15 120.538539 
L 282.15 120.544553 
L 282.229714 120.612717 
L 282.229714 120.60991 
L 282.468857 120.721096 
L 282.508714 120.744191 
L 282.548571 120.724985 
L 282.708 120.782803 
L 282.708 120.828553 
L 282.787714 120.87743 
L 282.787714 120.877349 
L 283.744286 120.95706 
L 283.744286 120.962914 
L 283.744286 120.968287 
L 283.824 120.949883 
L 283.824 120.959987 
L 290.360571 120.803092 
L 290.400429 120.807703 
L 290.440286 120.719291 
L 290.639571 120.599485 
L 290.719286 120.477593 
L 290.878714 120.361716 
L 290.958429 120.235815 
L 290.958429 120.239023 
L 291.237429 120.192111 
L 291.237429 120.174869 
L 291.237429 120.144797 
L 291.317143 120.221381 
L 291.715714 120.36733 
L 291.795429 120.437898 
L 291.715714 120.366528 
L 291.795429 120.435493 
L 291.954857 120.523704 
L 291.954857 120.545756 
L 291.954857 120.533728 
L 292.034571 120.630359 
L 292.273714 120.706741 
L 292.273714 120.727792 
L 292.353429 120.792627 
L 292.712143 120.868248 
L 292.712143 120.89002 
L 292.791857 120.9067 
L 292.791857 120.905016 
L 294.824571 121.025311 
L 294.824571 121.021302 
L 300.763286 120.914318 
L 300.763286 120.912233 
L 300.843 120.890421 
L 300.803143 120.921415 
L 300.843 120.895393 
L 301.082143 120.771897 
L 301.161857 120.725466 
L 301.161857 120.726829 
L 302.238 120.843107 
L 302.317714 120.877309 
L 302.317714 120.869571 
L 302.756143 120.953572 
L 302.756143 120.969329 
L 302.796 120.971815 
L 302.796 120.955135 
L 302.835857 120.964718 
L 305.745429 121.03738 
L 305.745429 121.040516 
L 305.745429 121.045042 
L 305.825143 121.03333 
L 308.734714 121.047107 
L 308.734714 121.041787 
L 318.380143 120.932241 
L 318.380143 120.931639 
L 318.42 120.935408 
L 318.459857 120.919931 
L 319.695429 120.996033 
L 319.695429 120.99868 
L 319.775143 121.014999 
L 319.775143 121.012954 
L 323.561571 121.048655 
L 323.561571 121.051117 
L 324.039857 121.051157 
L 324.039857 121.051157 
" style="fill:none;stroke:#1f77b4;stroke-linecap:square;stroke-width:1.5;"/>
   </g>
   <g id="line2d_15">
    <path clip-path="url(#p8ec7eea888)" d="M 64.928571 121.04942 
L 79.596 120.911136 
L 79.596 120.911136 
L 85.933286 120.637559 
L 85.933286 120.637559 
L 90.357429 120.23308 
L 90.357429 120.23308 
L 93.904714 119.691505 
L 93.904714 119.691505 
L 96.933857 119.007398 
L 96.933857 119.007398 
L 99.604286 118.180917 
L 99.604286 118.180917 
L 102.075429 117.184552 
L 102.075429 117.184552 
L 104.387143 116.012968 
L 104.387143 116.012968 
L 106.619143 114.629253 
L 106.619143 114.629253 
L 108.771429 113.032553 
L 108.771429 113.032553 
L 110.923714 111.155477 
L 110.923714 111.155477 
L 113.076 108.981071 
L 113.076 108.981071 
L 115.308 106.402209 
L 115.308 106.402209 
L 117.619714 103.384582 
L 117.619714 103.384582 
L 120.090857 99.787537 
L 120.090857 99.787537 
L 122.880857 95.319166 
L 122.880857 95.319166 
L 126.348429 89.315 
L 126.348429 89.315 
L 135.037286 74.061455 
L 135.037286 74.061455 
L 137.468571 70.362539 
L 137.468571 70.362539 
L 139.501286 67.661 
L 139.501286 67.661 
L 141.294857 65.638879 
L 141.294857 65.638879 
L 142.889143 64.165429 
L 142.889143 64.165429 
L 144.363857 63.098828 
L 144.363857 63.098828 
L 145.719 62.385046 
L 145.719 62.385046 
L 146.994429 61.955402 
L 146.994429 61.955402 
L 148.23 61.768223 
L 148.23 61.768223 
L 149.465571 61.808645 
L 149.465571 61.808645 
L 150.701143 62.076202 
L 150.701143 62.076202 
L 151.976571 62.587354 
L 151.976571 62.587354 
L 153.291857 63.357905 
L 153.291857 63.357905 
L 154.686857 64.434236 
L 154.686857 64.434236 
L 156.201429 65.887043 
L 156.201429 65.887043 
L 157.875429 67.808493 
L 157.875429 67.808493 
L 159.748714 70.30583 
L 159.748714 70.30583 
L 161.940857 73.61523 
L 161.940857 73.61523 
L 164.651143 78.134145 
L 164.651143 78.134145 
L 168.995571 85.880988 
L 168.995571 85.880988 
L 174.057429 94.784915 
L 174.057429 94.784915 
L 177.086571 99.66552 
L 177.086571 99.66552 
L 179.717143 103.494382 
L 179.717143 103.494382 
L 182.148429 106.64594 
L 182.148429 106.64594 
L 184.460143 109.280128 
L 184.460143 109.280128 
L 186.692143 111.488596 
L 186.692143 111.488596 
L 188.884286 113.348785 
L 188.884286 113.348785 
L 191.076429 114.922078 
L 191.076429 114.922078 
L 193.308429 116.254619 
L 193.308429 116.254619 
L 195.620143 117.379487 
L 195.620143 117.379487 
L 198.091286 118.333156 
L 198.091286 118.333156 
L 200.761714 119.121624 
L 200.761714 119.121624 
L 203.711143 119.757626 
L 203.711143 119.757626 
L 207.138857 120.261586 
L 207.138857 120.261586 
L 211.244143 120.632236 
L 211.244143 120.632236 
L 216.624857 120.882351 
L 216.624857 120.882351 
L 224.875286 121.018881 
L 224.875286 121.018881 
L 244.803857 121.057662 
L 244.803857 121.057662 
L 324.039857 121.058182 
L 324.039857 121.058182 
" style="fill:none;stroke:#ff7f0e;stroke-dasharray:5.55,2.4;stroke-dashoffset:0;stroke-opacity:0.3;stroke-width:1.5;"/>
   </g>
   <g id="line2d_16">
    <path clip-path="url(#p8ec7eea888)" d="M 64.928571 121.058024 
L 100.401429 120.946271 
L 100.401429 120.946271 
L 108.333 120.698815 
L 108.333 120.698815 
L 113.634 120.321077 
L 113.634 120.321077 
L 117.779143 119.809 
L 117.779143 119.809 
L 121.246714 119.160383 
L 121.246714 119.160383 
L 124.275857 118.370125 
L 124.275857 118.370125 
L 126.986143 117.437371 
L 126.986143 117.437371 
L 129.497143 116.340999 
L 129.497143 116.340999 
L 131.848714 115.075112 
L 131.848714 115.075112 
L 134.120571 113.599235 
L 134.120571 113.599235 
L 136.312714 111.909563 
L 136.312714 111.909563 
L 138.465 109.969732 
L 138.465 109.969732 
L 140.617286 107.727008 
L 140.617286 107.727008 
L 142.769571 105.159975 
L 142.769571 105.159975 
L 144.961714 102.194429 
L 144.961714 102.194429 
L 147.233571 98.734882 
L 147.233571 98.734882 
L 149.585143 94.735723 
L 149.585143 94.735723 
L 152.056286 90.083386 
L 152.056286 90.083386 
L 154.726714 84.567896 
L 154.726714 84.567896 
L 157.716 77.86453 
L 157.716 77.86453 
L 161.382857 69.058956 
L 161.382857 69.058956 
L 172.224 42.624232 
L 172.224 42.624232 
L 174.774857 37.202044 
L 174.774857 37.202044 
L 176.967 33.047515 
L 176.967 33.047515 
L 178.880143 29.88212 
L 178.880143 29.88212 
L 180.594 27.459963 
L 180.594 27.459963 
L 182.148429 25.632314 
L 182.148429 25.632314 
L 183.583286 24.277204 
L 183.583286 24.277204 
L 184.898571 23.327684 
L 184.898571 23.327684 
L 186.134143 22.698635 
L 186.134143 22.698635 
L 187.329857 22.337258 
L 187.329857 22.337258 
L 188.485714 22.221818 
L 188.485714 22.221818 
L 189.601714 22.329322 
L 189.601714 22.329322 
L 190.757571 22.666693 
L 190.757571 22.666693 
L 191.953286 23.255211 
L 191.953286 23.255211 
L 193.188857 24.114596 
L 193.188857 24.114596 
L 194.504143 25.302424 
L 194.504143 25.302424 
L 195.939 26.907026 
L 195.939 26.907026 
L 197.493429 28.989805 
L 197.493429 28.989805 
L 199.207286 31.671656 
L 199.207286 31.671656 
L 201.120429 35.09627 
L 201.120429 35.09627 
L 203.272714 39.419314 
L 203.272714 39.419314 
L 205.823571 45.063574 
L 205.823571 45.063574 
L 209.091857 52.872001 
L 209.091857 52.872001 
L 220.969286 81.769036 
L 220.969286 81.769036 
L 223.918714 88.080978 
L 223.918714 88.080978 
L 226.589143 93.283345 
L 226.589143 93.283345 
L 229.060286 97.625107 
L 229.060286 97.625107 
L 231.411857 101.321556 
L 231.411857 101.321556 
L 233.683714 104.490733 
L 233.683714 104.490733 
L 235.915714 107.230321 
L 235.915714 107.230321 
L 238.107857 109.57734 
L 238.107857 109.57734 
L 240.3 111.605758 
L 240.3 111.605758 
L 242.532 113.369921 
L 242.532 113.369921 
L 244.803857 114.88334 
L 244.803857 114.88334 
L 247.155429 116.183403 
L 247.155429 116.183403 
L 249.626571 117.295146 
L 249.626571 117.295146 
L 252.257143 118.234775 
L 252.257143 118.234775 
L 255.126857 119.022673 
L 255.126857 119.022673 
L 258.355286 119.673549 
L 258.355286 119.673549 
L 262.062 120.188331 
L 262.062 120.188331 
L 266.565857 120.579445 
L 266.565857 120.579445 
L 272.385 120.848191 
L 272.385 120.848191 
L 281.034 121.002879 
L 281.034 121.002879 
L 299.448 121.056093 
L 299.448 121.056093 
L 324.039857 121.058171 
L 324.039857 121.058171 
" style="fill:none;stroke:#2ca02c;stroke-dasharray:5.55,2.4;stroke-dashoffset:0;stroke-opacity:0.3;stroke-width:1.5;"/>
   </g>
   <g id="line2d_17">
    <path clip-path="url(#p8ec7eea888)" d="M 64.928571 121.058182 
L 192.790286 120.947118 
L 192.790286 120.947118 
L 198.45 120.697913 
L 198.45 120.697913 
L 202.276286 120.31496 
L 202.276286 120.31496 
L 205.305429 119.792425 
L 205.305429 119.792425 
L 207.856286 119.131049 
L 207.856286 119.131049 
L 210.128143 118.315694 
L 210.128143 118.315694 
L 212.240571 117.319552 
L 212.240571 117.319552 
L 214.233429 116.130148 
L 214.233429 116.130148 
L 216.146571 114.727473 
L 216.146571 114.727473 
L 218.059714 113.041823 
L 218.059714 113.041823 
L 219.972857 111.052468 
L 219.972857 111.052468 
L 221.925857 108.6966 
L 221.925857 108.6966 
L 223.998429 105.838899 
L 223.998429 105.838899 
L 226.270286 102.309669 
L 226.270286 102.309669 
L 228.900857 97.786762 
L 228.900857 97.786762 
L 232.727143 90.702912 
L 232.727143 90.702912 
L 236.991857 82.917327 
L 236.991857 82.917327 
L 239.263714 79.224588 
L 239.263714 79.224588 
L 241.097143 76.647815 
L 241.097143 76.647815 
L 242.691429 74.778656 
L 242.691429 74.778656 
L 244.086429 73.470692 
L 244.086429 73.470692 
L 245.361857 72.568488 
L 245.361857 72.568488 
L 246.557571 71.993164 
L 246.557571 71.993164 
L 247.673571 71.701161 
L 247.673571 71.701161 
L 248.749714 71.647769 
L 248.749714 71.647769 
L 249.825857 71.819177 
L 249.825857 71.819177 
L 250.941857 72.231848 
L 250.941857 72.231848 
L 252.097714 72.904997 
L 252.097714 72.904997 
L 253.333286 73.889278 
L 253.333286 73.889278 
L 254.688429 75.26306 
L 254.688429 75.26306 
L 256.203 77.12838 
L 256.203 77.12838 
L 257.956714 79.662882 
L 257.956714 79.662882 
L 260.069143 83.136582 
L 260.069143 83.136582 
L 262.938857 88.326976 
L 262.938857 88.326976 
L 269.714571 100.725491 
L 269.714571 100.725491 
L 272.265429 104.839031 
L 272.265429 104.839031 
L 274.497429 108.026153 
L 274.497429 108.026153 
L 276.57 110.607107 
L 276.57 110.607107 
L 278.562857 112.73911 
L 278.562857 112.73911 
L 280.515857 114.505986 
L 280.515857 114.505986 
L 282.468857 115.97446 
L 282.468857 115.97446 
L 284.461714 117.194427 
L 284.461714 117.194427 
L 286.534286 118.201433 
L 286.534286 118.201433 
L 288.726429 119.020286 
L 288.726429 119.020286 
L 291.157714 119.68766 
L 291.157714 119.68766 
L 293.907857 120.207396 
L 293.907857 120.207396 
L 297.216 120.597269 
L 297.216 120.597269 
L 301.480714 120.861913 
L 301.480714 120.861913 
L 307.818 121.00982 
L 307.818 121.00982 
L 321.887571 121.056956 
L 321.887571 121.056956 
L 324.039857 121.057529 
L 324.039857 121.057529 
" style="fill:none;stroke:#d62728;stroke-dasharray:5.55,2.4;stroke-dashoffset:0;stroke-opacity:0.3;stroke-width:1.5;"/>
   </g>
   <g id="patch_3">
    <path d="M 45 126 
L 45 17.28 
" style="fill:none;stroke:#000000;stroke-linecap:square;stroke-linejoin:miter;stroke-width:0.8;"/>
   </g>
   <g id="patch_4">
    <path d="M 45 126 
L 324 126 
" style="fill:none;stroke:#000000;stroke-linecap:square;stroke-linejoin:miter;stroke-width:0.8;"/>
   </g>
   <g id="text_16">
    <!-- 26 kDa -->
    <g transform="translate(140.657143 56.814545)scale(0.1 -0.1)">
     <defs>
      <path d="M 581 4863 
L 1159 4863 
L 1159 1991 
L 2875 3500 
L 3609 3500 
L 1753 1863 
L 3688 0 
L 2938 0 
L 1159 1709 
L 1159 0 
L 581 0 
L 581 4863 
z
" id="DejaVuSans-6b" transform="scale(0.015625)"/>
      <path d="M 1259 4147 
L 1259 519 
L 2022 519 
Q 2988 519 3436 956 
Q 3884 1394 3884 2338 
Q 3884 3275 3436 3711 
Q 2988 4147 2022 4147 
L 1259 4147 
z
M 628 4666 
L 1925 4666 
Q 3281 4666 3915 4102 
Q 4550 3538 4550 2338 
Q 4550 1131 3912 565 
Q 3275 0 1925 0 
L 628 0 
L 628 4666 
z
" id="DejaVuSans-44" transform="scale(0.015625)"/>
     </defs>
     <use xlink:href="#DejaVuSans-32"/>
     <use x="63.623047" xlink:href="#DejaVuSans-36"/>
     <use x="127.246094" xlink:href="#DejaVuSans-20"/>
     <use x="159.033203" xlink:href="#DejaVuSans-6b"/>
     <use x="216.943359" xlink:href="#DejaVuSans-44"/>
     <use x="293.945312" xlink:href="#DejaVuSans-61"/>
    </g>
   </g>
   <g id="text_17">
    <!-- 54 kDa -->
    <g transform="translate(184.500307 17.28)scale(0.1 -0.1)">
     <use xlink:href="#DejaVuSans-35"/>
     <use x="63.623047" xlink:href="#DejaVuSans-34"/>
     <use x="127.246094" xlink:href="#DejaVuSans-20"/>
     <use x="159.033203" xlink:href="#DejaVuSans-6b"/>
     <use x="216.943359" xlink:href="#DejaVuSans-44"/>
     <use x="293.945312" xlink:href="#DejaVuSans-61"/>
    </g>
   </g>
   <g id="text_18">
    <!-- 102 kDa -->
    <g transform="translate(244.481288 69.663273)scale(0.1 -0.1)">
     <use xlink:href="#DejaVuSans-31"/>
     <use x="63.623047" xlink:href="#DejaVuSans-30"/>
     <use x="127.246094" xlink:href="#DejaVuSans-32"/>
     <use x="190.869141" xlink:href="#DejaVuSans-20"/>
     <use x="222.65625" xlink:href="#DejaVuSans-6b"/>
     <use x="280.566406" xlink:href="#DejaVuSans-44"/>
     <use x="357.568359" xlink:href="#DejaVuSans-61"/>
    </g>
   </g>
   <g id="legend_1">
    <g id="patch_5">
     <path d="M 221.402812 57.3075 
L 319.8 57.3075 
Q 321 57.3075 321 56.1075 
L 321 21.48 
Q 321 20.28 319.8 20.28 
L 221.402812 20.28 
Q 220.202812 20.28 220.202812 21.48 
L 220.202812 56.1075 
Q 220.202812 57.3075 221.402812 57.3075 
z
" style="fill:#ffffff;opacity:0.8;stroke:#cccccc;stroke-linejoin:miter;"/>
    </g>
    <g id="line2d_18">
     <path d="M 222.602812 25.139063 
L 234.602812 25.139063 
" style="fill:none;stroke:#1f77b4;stroke-linecap:square;stroke-width:1.5;"/>
    </g>
    <g id="line2d_19"/>
    <g id="text_19">
     <!-- data -->
     <g transform="translate(239.402813 27.239063)scale(0.06 -0.06)">
      <defs>
       <path d="M 1172 4494 
L 1172 3500 
L 2356 3500 
L 2356 3053 
L 1172 3053 
L 1172 1153 
Q 1172 725 1289 603 
Q 1406 481 1766 481 
L 2356 481 
L 2356 0 
L 1766 0 
Q 1100 0 847 248 
Q 594 497 594 1153 
L 594 3053 
L 172 3053 
L 172 3500 
L 594 3500 
L 594 4494 
L 1172 4494 
z
" id="DejaVuSans-74" transform="scale(0.015625)"/>
      </defs>
      <use xlink:href="#DejaVuSans-64"/>
      <use x="63.476562" xlink:href="#DejaVuSans-61"/>
      <use x="124.755859" xlink:href="#DejaVuSans-74"/>
      <use x="163.964844" xlink:href="#DejaVuSans-61"/>
     </g>
    </g>
    <g id="line2d_20">
     <path d="M 222.602812 33.945938 
L 234.602812 33.945938 
" style="fill:none;stroke:#ff7f0e;stroke-dasharray:5.55,2.4;stroke-dashoffset:0;stroke-opacity:0.3;stroke-width:1.5;"/>
    </g>
    <g id="line2d_21"/>
    <g id="text_20">
     <!-- 1st population : Monomer  -->
     <g transform="translate(239.402813 36.045938)scale(0.06 -0.06)">
      <defs>
       <path d="M 2834 3397 
L 2834 2853 
Q 2591 2978 2328 3040 
Q 2066 3103 1784 3103 
Q 1356 3103 1142 2972 
Q 928 2841 928 2578 
Q 928 2378 1081 2264 
Q 1234 2150 1697 2047 
L 1894 2003 
Q 2506 1872 2764 1633 
Q 3022 1394 3022 966 
Q 3022 478 2636 193 
Q 2250 -91 1575 -91 
Q 1294 -91 989 -36 
Q 684 19 347 128 
L 347 722 
Q 666 556 975 473 
Q 1284 391 1588 391 
Q 1994 391 2212 530 
Q 2431 669 2431 922 
Q 2431 1156 2273 1281 
Q 2116 1406 1581 1522 
L 1381 1569 
Q 847 1681 609 1914 
Q 372 2147 372 2553 
Q 372 3047 722 3315 
Q 1072 3584 1716 3584 
Q 2034 3584 2315 3537 
Q 2597 3491 2834 3397 
z
" id="DejaVuSans-73" transform="scale(0.015625)"/>
       <path d="M 1159 525 
L 1159 -1331 
L 581 -1331 
L 581 3500 
L 1159 3500 
L 1159 2969 
Q 1341 3281 1617 3432 
Q 1894 3584 2278 3584 
Q 2916 3584 3314 3078 
Q 3713 2572 3713 1747 
Q 3713 922 3314 415 
Q 2916 -91 2278 -91 
Q 1894 -91 1617 61 
Q 1341 213 1159 525 
z
M 3116 1747 
Q 3116 2381 2855 2742 
Q 2594 3103 2138 3103 
Q 1681 3103 1420 2742 
Q 1159 2381 1159 1747 
Q 1159 1113 1420 752 
Q 1681 391 2138 391 
Q 2594 391 2855 752 
Q 3116 1113 3116 1747 
z
" id="DejaVuSans-70" transform="scale(0.015625)"/>
       <path d="M 1959 3097 
Q 1497 3097 1228 2736 
Q 959 2375 959 1747 
Q 959 1119 1226 758 
Q 1494 397 1959 397 
Q 2419 397 2687 759 
Q 2956 1122 2956 1747 
Q 2956 2369 2687 2733 
Q 2419 3097 1959 3097 
z
M 1959 3584 
Q 2709 3584 3137 3096 
Q 3566 2609 3566 1747 
Q 3566 888 3137 398 
Q 2709 -91 1959 -91 
Q 1206 -91 779 398 
Q 353 888 353 1747 
Q 353 2609 779 3096 
Q 1206 3584 1959 3584 
z
" id="DejaVuSans-6f" transform="scale(0.015625)"/>
       <path d="M 603 4863 
L 1178 4863 
L 1178 0 
L 603 0 
L 603 4863 
z
" id="DejaVuSans-6c" transform="scale(0.015625)"/>
       <path d="M 603 3500 
L 1178 3500 
L 1178 0 
L 603 0 
L 603 3500 
z
M 603 4863 
L 1178 4863 
L 1178 4134 
L 603 4134 
L 603 4863 
z
" id="DejaVuSans-69" transform="scale(0.015625)"/>
       <path d="M 750 794 
L 1409 794 
L 1409 0 
L 750 0 
L 750 794 
z
M 750 3309 
L 1409 3309 
L 1409 2516 
L 750 2516 
L 750 3309 
z
" id="DejaVuSans-3a" transform="scale(0.015625)"/>
       <path d="M 628 4666 
L 1569 4666 
L 2759 1491 
L 3956 4666 
L 4897 4666 
L 4897 0 
L 4281 0 
L 4281 4097 
L 3078 897 
L 2444 897 
L 1241 4097 
L 1241 0 
L 628 0 
L 628 4666 
z
" id="DejaVuSans-4d" transform="scale(0.015625)"/>
       <path d="M 2631 2963 
Q 2534 3019 2420 3045 
Q 2306 3072 2169 3072 
Q 1681 3072 1420 2755 
Q 1159 2438 1159 1844 
L 1159 0 
L 581 0 
L 581 3500 
L 1159 3500 
L 1159 2956 
Q 1341 3275 1631 3429 
Q 1922 3584 2338 3584 
Q 2397 3584 2469 3576 
Q 2541 3569 2628 3553 
L 2631 2963 
z
" id="DejaVuSans-72" transform="scale(0.015625)"/>
      </defs>
      <use xlink:href="#DejaVuSans-31"/>
      <use x="63.623047" xlink:href="#DejaVuSans-73"/>
      <use x="115.722656" xlink:href="#DejaVuSans-74"/>
      <use x="154.931641" xlink:href="#DejaVuSans-20"/>
      <use x="186.71875" xlink:href="#DejaVuSans-70"/>
      <use x="250.195312" xlink:href="#DejaVuSans-6f"/>
      <use x="311.376953" xlink:href="#DejaVuSans-70"/>
      <use x="374.853516" xlink:href="#DejaVuSans-75"/>
      <use x="438.232422" xlink:href="#DejaVuSans-6c"/>
      <use x="466.015625" xlink:href="#DejaVuSans-61"/>
      <use x="527.294922" xlink:href="#DejaVuSans-74"/>
      <use x="566.503906" xlink:href="#DejaVuSans-69"/>
      <use x="594.287109" xlink:href="#DejaVuSans-6f"/>
      <use x="655.46875" xlink:href="#DejaVuSans-6e"/>
      <use x="718.847656" xlink:href="#DejaVuSans-20"/>
      <use x="750.634766" xlink:href="#DejaVuSans-3a"/>
      <use x="784.326172" xlink:href="#DejaVuSans-20"/>
      <use x="816.113281" xlink:href="#DejaVuSans-4d"/>
      <use x="902.392578" xlink:href="#DejaVuSans-6f"/>
      <use x="963.574219" xlink:href="#DejaVuSans-6e"/>
      <use x="1026.953125" xlink:href="#DejaVuSans-6f"/>
      <use x="1088.134766" xlink:href="#DejaVuSans-6d"/>
      <use x="1185.546875" xlink:href="#DejaVuSans-65"/>
      <use x="1247.070312" xlink:href="#DejaVuSans-72"/>
      <use x="1288.183594" xlink:href="#DejaVuSans-20"/>
     </g>
    </g>
    <g id="line2d_22">
     <path d="M 222.602812 42.752812 
L 234.602812 42.752812 
" style="fill:none;stroke:#2ca02c;stroke-dasharray:5.55,2.4;stroke-dashoffset:0;stroke-opacity:0.3;stroke-width:1.5;"/>
    </g>
    <g id="line2d_23"/>
    <g id="text_21">
     <!-- 2nd population : Dimer -->
     <g transform="translate(239.402813 44.852812)scale(0.06 -0.06)">
      <use xlink:href="#DejaVuSans-32"/>
      <use x="63.623047" xlink:href="#DejaVuSans-6e"/>
      <use x="127.001953" xlink:href="#DejaVuSans-64"/>
      <use x="190.478516" xlink:href="#DejaVuSans-20"/>
      <use x="222.265625" xlink:href="#DejaVuSans-70"/>
      <use x="285.742188" xlink:href="#DejaVuSans-6f"/>
      <use x="346.923828" xlink:href="#DejaVuSans-70"/>
      <use x="410.400391" xlink:href="#DejaVuSans-75"/>
      <use x="473.779297" xlink:href="#DejaVuSans-6c"/>
      <use x="501.5625" xlink:href="#DejaVuSans-61"/>
      <use x="562.841797" xlink:href="#DejaVuSans-74"/>
      <use x="602.050781" xlink:href="#DejaVuSans-69"/>
      <use x="629.833984" xlink:href="#DejaVuSans-6f"/>
      <use x="691.015625" xlink:href="#DejaVuSans-6e"/>
      <use x="754.394531" xlink:href="#DejaVuSans-20"/>
      <use x="786.181641" xlink:href="#DejaVuSans-3a"/>
      <use x="819.873047" xlink:href="#DejaVuSans-20"/>
      <use x="851.660156" xlink:href="#DejaVuSans-44"/>
      <use x="928.662109" xlink:href="#DejaVuSans-69"/>
      <use x="956.445312" xlink:href="#DejaVuSans-6d"/>
      <use x="1053.857422" xlink:href="#DejaVuSans-65"/>
      <use x="1115.380859" xlink:href="#DejaVuSans-72"/>
     </g>
    </g>
    <g id="line2d_24">
     <path d="M 222.602812 51.559688 
L 234.602812 51.559688 
" style="fill:none;stroke:#d62728;stroke-dasharray:5.55,2.4;stroke-dashoffset:0;stroke-opacity:0.3;stroke-width:1.5;"/>
    </g>
    <g id="line2d_25"/>
    <g id="text_22">
     <!-- 3rd population : Tetramer -->
     <g transform="translate(239.402813 53.659688)scale(0.06 -0.06)">
      <defs>
       <path d="M -19 4666 
L 3928 4666 
L 3928 4134 
L 2272 4134 
L 2272 0 
L 1638 0 
L 1638 4134 
L -19 4134 
L -19 4666 
z
" id="DejaVuSans-54" transform="scale(0.015625)"/>
      </defs>
      <use xlink:href="#DejaVuSans-33"/>
      <use x="63.623047" xlink:href="#DejaVuSans-72"/>
      <use x="102.986328" xlink:href="#DejaVuSans-64"/>
      <use x="166.462891" xlink:href="#DejaVuSans-20"/>
      <use x="198.25" xlink:href="#DejaVuSans-70"/>
      <use x="261.726562" xlink:href="#DejaVuSans-6f"/>
      <use x="322.908203" xlink:href="#DejaVuSans-70"/>
      <use x="386.384766" xlink:href="#DejaVuSans-75"/>
      <use x="449.763672" xlink:href="#DejaVuSans-6c"/>
      <use x="477.546875" xlink:href="#DejaVuSans-61"/>
      <use x="538.826172" xlink:href="#DejaVuSans-74"/>
      <use x="578.035156" xlink:href="#DejaVuSans-69"/>
      <use x="605.818359" xlink:href="#DejaVuSans-6f"/>
      <use x="667" xlink:href="#DejaVuSans-6e"/>
      <use x="730.378906" xlink:href="#DejaVuSans-20"/>
      <use x="762.166016" xlink:href="#DejaVuSans-3a"/>
      <use x="795.857422" xlink:href="#DejaVuSans-20"/>
      <use x="827.644531" xlink:href="#DejaVuSans-54"/>
      <use x="871.728516" xlink:href="#DejaVuSans-65"/>
      <use x="933.251953" xlink:href="#DejaVuSans-74"/>
      <use x="972.460938" xlink:href="#DejaVuSans-72"/>
      <use x="1013.574219" xlink:href="#DejaVuSans-61"/>
      <use x="1074.853516" xlink:href="#DejaVuSans-6d"/>
      <use x="1172.265625" xlink:href="#DejaVuSans-65"/>
      <use x="1233.789062" xlink:href="#DejaVuSans-72"/>
     </g>
    </g>
   </g>
  </g>
 </g>
 <defs>
  <clipPath id="p8ec7eea888">
   <rect height="108.72" width="279" x="45" y="17.28"/>
  </clipPath>
 </defs>
</svg>
