<?xml version="1.0" encoding="utf-8" standalone="no"?>
<!DOCTYPE svg PUBLIC "-//W3C//DTD SVG 1.1//EN"
  "http://www.w3.org/Graphics/SVG/1.1/DTD/svg11.dtd">
<svg height="288pt" version="1.1" viewBox="0 0 432 288" width="432pt" xmlns="http://www.w3.org/2000/svg" xmlns:xlink="http://www.w3.org/1999/xlink">
 <metadata>
  <rdf:RDF xmlns:cc="http://creativecommons.org/ns#" xmlns:dc="http://purl.org/dc/elements/1.1/" xmlns:rdf="http://www.w3.org/1999/02/22-rdf-syntax-ns#">
   <cc:Work>
    <dc:type rdf:resource="http://purl.org/dc/dcmitype/StillImage"/>
    <dc:date>2022-05-18T16:21:36.677187</dc:date>
    <dc:format>image/svg+xml</dc:format>
    <dc:creator>
     <cc:Agent>
      <dc:title>Matplotlib v3.4.2, https://matplotlib.org/</dc:title>
     </cc:Agent>
    </dc:creator>
   </cc:Work>
  </rdf:RDF>
 </metadata>
 <defs>
  <style type="text/css">*{stroke-linecap:butt;stroke-linejoin:round;}</style>
 </defs>
 <g id="figure_1">
  <g id="patch_1">
   <path d="M 0 288 
L 432 288 
L 432 0 
L 0 0 
z
" style="fill:none;"/>
  </g>
  <g id="axes_1">
   <g id="patch_2">
    <path d="M 54 252 
L 388.8 252 
L 388.8 34.56 
L 54 34.56 
z
" style="fill:#ffffff;"/>
   </g>
   <g id="matplotlib.axis_1">
    <g id="xtick_1">
     <g id="line2d_1">
      <defs>
       <path d="M 0 0 
L 0 3.5 
" id="m0e3637906a" style="stroke:#000000;stroke-width:0.8;"/>
      </defs>
      <g>
       <use style="stroke:#000000;stroke-width:0.8;" x="69.218182" xlink:href="#m0e3637906a" y="252"/>
      </g>
     </g>
     <g id="text_1">
      <!-- 3700 -->
      <g transform="translate(56.493182 266.598437)scale(0.1 -0.1)">
       <defs>
        <path d="M 2597 2516 
Q 3050 2419 3304 2112 
Q 3559 1806 3559 1356 
Q 3559 666 3084 287 
Q 2609 -91 1734 -91 
Q 1441 -91 1130 -33 
Q 819 25 488 141 
L 488 750 
Q 750 597 1062 519 
Q 1375 441 1716 441 
Q 2309 441 2620 675 
Q 2931 909 2931 1356 
Q 2931 1769 2642 2001 
Q 2353 2234 1838 2234 
L 1294 2234 
L 1294 2753 
L 1863 2753 
Q 2328 2753 2575 2939 
Q 2822 3125 2822 3475 
Q 2822 3834 2567 4026 
Q 2313 4219 1838 4219 
Q 1578 4219 1281 4162 
Q 984 4106 628 3988 
L 628 4550 
Q 988 4650 1302 4700 
Q 1616 4750 1894 4750 
Q 2613 4750 3031 4423 
Q 3450 4097 3450 3541 
Q 3450 3153 3228 2886 
Q 3006 2619 2597 2516 
z
" id="DejaVuSans-33" transform="scale(0.015625)"/>
        <path d="M 525 4666 
L 3525 4666 
L 3525 4397 
L 1831 0 
L 1172 0 
L 2766 4134 
L 525 4134 
L 525 4666 
z
" id="DejaVuSans-37" transform="scale(0.015625)"/>
        <path d="M 2034 4250 
Q 1547 4250 1301 3770 
Q 1056 3291 1056 2328 
Q 1056 1369 1301 889 
Q 1547 409 2034 409 
Q 2525 409 2770 889 
Q 3016 1369 3016 2328 
Q 3016 3291 2770 3770 
Q 2525 4250 2034 4250 
z
M 2034 4750 
Q 2819 4750 3233 4129 
Q 3647 3509 3647 2328 
Q 3647 1150 3233 529 
Q 2819 -91 2034 -91 
Q 1250 -91 836 529 
Q 422 1150 422 2328 
Q 422 3509 836 4129 
Q 1250 4750 2034 4750 
z
" id="DejaVuSans-30" transform="scale(0.015625)"/>
       </defs>
       <use xlink:href="#DejaVuSans-33"/>
       <use x="63.623047" xlink:href="#DejaVuSans-37"/>
       <use x="127.246094" xlink:href="#DejaVuSans-30"/>
       <use x="190.869141" xlink:href="#DejaVuSans-30"/>
      </g>
     </g>
    </g>
    <g id="xtick_2">
     <g id="line2d_2">
      <g>
       <use style="stroke:#000000;stroke-width:0.8;" x="112.698701" xlink:href="#m0e3637906a" y="252"/>
      </g>
     </g>
     <g id="text_2">
      <!-- 3800 -->
      <g transform="translate(99.973701 266.598437)scale(0.1 -0.1)">
       <defs>
        <path d="M 2034 2216 
Q 1584 2216 1326 1975 
Q 1069 1734 1069 1313 
Q 1069 891 1326 650 
Q 1584 409 2034 409 
Q 2484 409 2743 651 
Q 3003 894 3003 1313 
Q 3003 1734 2745 1975 
Q 2488 2216 2034 2216 
z
M 1403 2484 
Q 997 2584 770 2862 
Q 544 3141 544 3541 
Q 544 4100 942 4425 
Q 1341 4750 2034 4750 
Q 2731 4750 3128 4425 
Q 3525 4100 3525 3541 
Q 3525 3141 3298 2862 
Q 3072 2584 2669 2484 
Q 3125 2378 3379 2068 
Q 3634 1759 3634 1313 
Q 3634 634 3220 271 
Q 2806 -91 2034 -91 
Q 1263 -91 848 271 
Q 434 634 434 1313 
Q 434 1759 690 2068 
Q 947 2378 1403 2484 
z
M 1172 3481 
Q 1172 3119 1398 2916 
Q 1625 2713 2034 2713 
Q 2441 2713 2670 2916 
Q 2900 3119 2900 3481 
Q 2900 3844 2670 4047 
Q 2441 4250 2034 4250 
Q 1625 4250 1398 4047 
Q 1172 3844 1172 3481 
z
" id="DejaVuSans-38" transform="scale(0.015625)"/>
       </defs>
       <use xlink:href="#DejaVuSans-33"/>
       <use x="63.623047" xlink:href="#DejaVuSans-38"/>
       <use x="127.246094" xlink:href="#DejaVuSans-30"/>
       <use x="190.869141" xlink:href="#DejaVuSans-30"/>
      </g>
     </g>
    </g>
    <g id="xtick_3">
     <g id="line2d_3">
      <g>
       <use style="stroke:#000000;stroke-width:0.8;" x="156.179221" xlink:href="#m0e3637906a" y="252"/>
      </g>
     </g>
     <g id="text_3">
      <!-- 3900 -->
      <g transform="translate(143.454221 266.598437)scale(0.1 -0.1)">
       <defs>
        <path d="M 703 97 
L 703 672 
Q 941 559 1184 500 
Q 1428 441 1663 441 
Q 2288 441 2617 861 
Q 2947 1281 2994 2138 
Q 2813 1869 2534 1725 
Q 2256 1581 1919 1581 
Q 1219 1581 811 2004 
Q 403 2428 403 3163 
Q 403 3881 828 4315 
Q 1253 4750 1959 4750 
Q 2769 4750 3195 4129 
Q 3622 3509 3622 2328 
Q 3622 1225 3098 567 
Q 2575 -91 1691 -91 
Q 1453 -91 1209 -44 
Q 966 3 703 97 
z
M 1959 2075 
Q 2384 2075 2632 2365 
Q 2881 2656 2881 3163 
Q 2881 3666 2632 3958 
Q 2384 4250 1959 4250 
Q 1534 4250 1286 3958 
Q 1038 3666 1038 3163 
Q 1038 2656 1286 2365 
Q 1534 2075 1959 2075 
z
" id="DejaVuSans-39" transform="scale(0.015625)"/>
       </defs>
       <use xlink:href="#DejaVuSans-33"/>
       <use x="63.623047" xlink:href="#DejaVuSans-39"/>
       <use x="127.246094" xlink:href="#DejaVuSans-30"/>
       <use x="190.869141" xlink:href="#DejaVuSans-30"/>
      </g>
     </g>
    </g>
    <g id="xtick_4">
     <g id="line2d_4">
      <g>
       <use style="stroke:#000000;stroke-width:0.8;" x="199.65974" xlink:href="#m0e3637906a" y="252"/>
      </g>
     </g>
     <g id="text_4">
      <!-- 4000 -->
      <g transform="translate(186.93474 266.598437)scale(0.1 -0.1)">
       <defs>
        <path d="M 2419 4116 
L 825 1625 
L 2419 1625 
L 2419 4116 
z
M 2253 4666 
L 3047 4666 
L 3047 1625 
L 3713 1625 
L 3713 1100 
L 3047 1100 
L 3047 0 
L 2419 0 
L 2419 1100 
L 313 1100 
L 313 1709 
L 2253 4666 
z
" id="DejaVuSans-34" transform="scale(0.015625)"/>
       </defs>
       <use xlink:href="#DejaVuSans-34"/>
       <use x="63.623047" xlink:href="#DejaVuSans-30"/>
       <use x="127.246094" xlink:href="#DejaVuSans-30"/>
       <use x="190.869141" xlink:href="#DejaVuSans-30"/>
      </g>
     </g>
    </g>
    <g id="xtick_5">
     <g id="line2d_5">
      <g>
       <use style="stroke:#000000;stroke-width:0.8;" x="243.14026" xlink:href="#m0e3637906a" y="252"/>
      </g>
     </g>
     <g id="text_5">
      <!-- 4100 -->
      <g transform="translate(230.41526 266.598437)scale(0.1 -0.1)">
       <defs>
        <path d="M 794 531 
L 1825 531 
L 1825 4091 
L 703 3866 
L 703 4441 
L 1819 4666 
L 2450 4666 
L 2450 531 
L 3481 531 
L 3481 0 
L 794 0 
L 794 531 
z
" id="DejaVuSans-31" transform="scale(0.015625)"/>
       </defs>
       <use xlink:href="#DejaVuSans-34"/>
       <use x="63.623047" xlink:href="#DejaVuSans-31"/>
       <use x="127.246094" xlink:href="#DejaVuSans-30"/>
       <use x="190.869141" xlink:href="#DejaVuSans-30"/>
      </g>
     </g>
    </g>
    <g id="xtick_6">
     <g id="line2d_6">
      <g>
       <use style="stroke:#000000;stroke-width:0.8;" x="286.620779" xlink:href="#m0e3637906a" y="252"/>
      </g>
     </g>
     <g id="text_6">
      <!-- 4200 -->
      <g transform="translate(273.895779 266.598437)scale(0.1 -0.1)">
       <defs>
        <path d="M 1228 531 
L 3431 531 
L 3431 0 
L 469 0 
L 469 531 
Q 828 903 1448 1529 
Q 2069 2156 2228 2338 
Q 2531 2678 2651 2914 
Q 2772 3150 2772 3378 
Q 2772 3750 2511 3984 
Q 2250 4219 1831 4219 
Q 1534 4219 1204 4116 
Q 875 4013 500 3803 
L 500 4441 
Q 881 4594 1212 4672 
Q 1544 4750 1819 4750 
Q 2544 4750 2975 4387 
Q 3406 4025 3406 3419 
Q 3406 3131 3298 2873 
Q 3191 2616 2906 2266 
Q 2828 2175 2409 1742 
Q 1991 1309 1228 531 
z
" id="DejaVuSans-32" transform="scale(0.015625)"/>
       </defs>
       <use xlink:href="#DejaVuSans-34"/>
       <use x="63.623047" xlink:href="#DejaVuSans-32"/>
       <use x="127.246094" xlink:href="#DejaVuSans-30"/>
       <use x="190.869141" xlink:href="#DejaVuSans-30"/>
      </g>
     </g>
    </g>
    <g id="xtick_7">
     <g id="line2d_7">
      <g>
       <use style="stroke:#000000;stroke-width:0.8;" x="330.101299" xlink:href="#m0e3637906a" y="252"/>
      </g>
     </g>
     <g id="text_7">
      <!-- 4300 -->
      <g transform="translate(317.376299 266.598437)scale(0.1 -0.1)">
       <use xlink:href="#DejaVuSans-34"/>
       <use x="63.623047" xlink:href="#DejaVuSans-33"/>
       <use x="127.246094" xlink:href="#DejaVuSans-30"/>
       <use x="190.869141" xlink:href="#DejaVuSans-30"/>
      </g>
     </g>
    </g>
    <g id="xtick_8">
     <g id="line2d_8">
      <g>
       <use style="stroke:#000000;stroke-width:0.8;" x="373.581818" xlink:href="#m0e3637906a" y="252"/>
      </g>
     </g>
     <g id="text_8">
      <!-- 4400 -->
      <g transform="translate(360.856818 266.598437)scale(0.1 -0.1)">
       <use xlink:href="#DejaVuSans-34"/>
       <use x="63.623047" xlink:href="#DejaVuSans-34"/>
       <use x="127.246094" xlink:href="#DejaVuSans-30"/>
       <use x="190.869141" xlink:href="#DejaVuSans-30"/>
      </g>
     </g>
    </g>
    <g id="text_9">
     <!-- m/z -->
     <g transform="translate(212.221094 280.276563)scale(0.1 -0.1)">
      <defs>
       <path d="M 3328 2828 
Q 3544 3216 3844 3400 
Q 4144 3584 4550 3584 
Q 5097 3584 5394 3201 
Q 5691 2819 5691 2113 
L 5691 0 
L 5113 0 
L 5113 2094 
Q 5113 2597 4934 2840 
Q 4756 3084 4391 3084 
Q 3944 3084 3684 2787 
Q 3425 2491 3425 1978 
L 3425 0 
L 2847 0 
L 2847 2094 
Q 2847 2600 2669 2842 
Q 2491 3084 2119 3084 
Q 1678 3084 1418 2786 
Q 1159 2488 1159 1978 
L 1159 0 
L 581 0 
L 581 3500 
L 1159 3500 
L 1159 2956 
Q 1356 3278 1631 3431 
Q 1906 3584 2284 3584 
Q 2666 3584 2933 3390 
Q 3200 3197 3328 2828 
z
" id="DejaVuSans-6d" transform="scale(0.015625)"/>
       <path d="M 1625 4666 
L 2156 4666 
L 531 -594 
L 0 -594 
L 1625 4666 
z
" id="DejaVuSans-2f" transform="scale(0.015625)"/>
       <path d="M 353 3500 
L 3084 3500 
L 3084 2975 
L 922 459 
L 3084 459 
L 3084 0 
L 275 0 
L 275 525 
L 2438 3041 
L 353 3041 
L 353 3500 
z
" id="DejaVuSans-7a" transform="scale(0.015625)"/>
      </defs>
      <use xlink:href="#DejaVuSans-6d"/>
      <use x="97.412109" xlink:href="#DejaVuSans-2f"/>
      <use x="131.103516" xlink:href="#DejaVuSans-7a"/>
     </g>
    </g>
   </g>
   <g id="matplotlib.axis_2"/>
   <g id="line2d_9">
    <path clip-path="url(#p862b78a735)" d="M 69.218182 235.27432 
L 69.218182 235.504755 
L 69.218182 235.266428 
L 69.218182 235.438466 
L 69.652987 235.339031 
L 69.652987 235.310621 
L 69.652987 235.454249 
L 69.652987 235.414791 
L 70.087792 235.378489 
L 70.087792 235.195403 
L 70.087792 235.482659 
L 70.087792 235.443201 
L 70.522597 235.353236 
L 70.522597 234.546711 
L 70.522597 234.611423 
L 70.957403 234.488313 
L 70.957403 234.507253 
L 70.957403 234.365204 
L 70.957403 234.589326 
L 70.957403 234.583013 
L 71.827013 234.480422 
L 71.827013 234.461482 
L 71.827013 234.93498 
L 72.261818 234.994956 
L 72.261818 234.88763 
L 72.261818 234.72664 
L 72.261818 234.91604 
L 72.261818 234.903413 
L 72.696623 234.807135 
L 72.696623 234.983908 
L 72.696623 235.318513 
L 73.131429 235.392694 
L 73.131429 235.291681 
L 73.131429 235.193825 
L 73.131429 235.438466 
L 73.131429 235.345344 
L 73.566234 235.256958 
L 73.566234 235.261693 
L 73.566234 235.182777 
L 73.566234 235.446357 
L 73.566234 235.365863 
L 74.001039 235.487394 
L 74.001039 235.307465 
L 74.001039 235.182777 
L 74.001039 235.233283 
L 74.435844 235.342188 
L 74.435844 235.432152 
L 74.435844 235.256958 
L 74.435844 235.297995 
L 74.870649 235.192247 
L 74.870649 235.034414 
L 74.870649 235.223813 
L 74.870649 235.111752 
L 75.305455 235.250645 
L 75.305455 235.425839 
L 75.305455 235.021787 
L 75.74026 234.895521 
L 75.74026 234.895521 
L 75.74026 234.728219 
L 75.74026 234.922353 
L 75.74026 234.920775 
L 76.175065 234.920775 
L 76.175065 235.020209 
L 76.175065 235.335874 
L 76.175065 235.201717 
L 76.60987 235.228548 
L 76.60987 235.15121 
L 76.60987 235.010739 
L 76.60987 235.50002 
L 76.60987 235.473189 
L 77.044675 235.514225 
L 77.044675 235.387959 
L 77.044675 235.392694 
L 77.044675 235.061246 
L 77.479481 234.931823 
L 77.479481 234.941293 
L 77.479481 234.50094 
L 77.479481 235.056511 
L 77.479481 234.624049 
L 77.914286 234.731375 
L 77.914286 234.933401 
L 78.349091 234.904991 
L 78.349091 234.991799 
L 78.349091 235.081764 
L 78.349091 234.72664 
L 78.349091 234.963389 
L 78.783896 234.919196 
L 78.783896 235.012318 
L 78.783896 235.425839 
L 78.783896 235.339031 
L 79.218701 235.356393 
L 79.218701 235.279055 
L 79.218701 235.17015 
L 79.218701 235.369019 
L 79.653506 235.455827 
L 79.653506 235.785697 
L 79.653506 235.743083 
L 80.088312 235.732034 
L 80.088312 235.820421 
L 80.088312 235.91512 
L 80.088312 235.750974 
L 80.088312 235.90565 
L 80.523117 235.959313 
L 80.523117 235.880397 
L 80.523117 235.833047 
L 80.523117 236.035073 
L 80.957922 235.964048 
L 80.957922 235.589985 
L 80.957922 235.593142 
L 81.392727 235.484237 
L 81.392727 235.392694 
L 81.392727 235.515804 
L 81.392727 235.451092 
L 81.827532 235.610503 
L 81.827532 235.572623 
L 81.827532 235.766757 
L 81.827532 235.746239 
L 82.262338 235.872505 
L 82.262338 235.8583 
L 82.262338 235.910385 
L 82.262338 235.638913 
L 82.262338 235.758866 
L 82.697143 235.785697 
L 82.697143 236.011398 
L 82.697143 235.664166 
L 82.697143 235.749396 
L 83.131948 235.635756 
L 83.131948 235.601033 
L 83.131948 236.186592 
L 83.566753 236.2734 
L 83.566753 236.090314 
L 83.566753 235.964048 
L 83.566753 236.240255 
L 83.566753 235.973518 
L 84.001558 235.946687 
L 84.001558 236.024025 
L 84.001558 236.346003 
L 84.001558 236.025603 
L 84.436364 236.058748 
L 84.436364 235.92459 
L 84.436364 235.593142 
L 84.436364 235.946687 
L 84.436364 235.64207 
L 84.871169 235.717829 
L 84.871169 235.946687 
L 84.871169 235.708359 
L 85.305974 235.821999 
L 85.305974 235.812529 
L 85.305974 236.101363 
L 85.305974 235.893024 
L 85.740779 235.992458 
L 85.740779 236.024025 
L 85.740779 235.577358 
L 86.175584 235.694154 
L 86.175584 236.215002 
L 86.175584 236.077688 
L 86.61039 235.941952 
L 86.61039 235.771492 
L 86.61039 235.992458 
L 86.61039 235.812529 
L 87.045195 235.893024 
L 87.045195 235.788854 
L 87.045195 236.090314 
L 87.045195 235.589985 
L 87.48 235.539478 
L 87.48 234.73611 
L 87.48 234.938136 
L 87.914805 234.739267 
L 87.914805 234.919196 
L 87.914805 234.665086 
L 88.34961 234.688761 
L 88.34961 234.600374 
L 88.34961 234.420445 
L 88.34961 234.901835 
L 88.784416 234.977594 
L 88.784416 234.824497 
L 88.784416 234.466217 
L 88.784416 234.767677 
L 89.219221 234.679291 
L 89.219221 234.862377 
L 89.219221 234.732954 
L 89.219221 234.952341 
L 89.654026 234.974438 
L 89.654026 234.890786 
L 89.654026 234.363625 
L 89.654026 234.409397 
L 90.088831 234.516723 
L 90.088831 234.688761 
L 90.088831 234.278396 
L 90.088831 234.311541 
L 90.523636 234.459903 
L 90.523636 234.289444 
L 90.523636 234.204215 
L 90.523636 234.526193 
L 90.958442 234.658772 
L 90.958442 235.084921 
L 90.958442 234.960233 
L 91.393247 234.875003 
L 91.393247 234.931823 
L 91.393247 235.047041 
L 91.393247 234.829232 
L 91.828052 234.928666 
L 91.828052 234.8024 
L 91.828052 234.341529 
L 92.262857 234.420445 
L 92.262857 234.249986 
L 92.262857 233.904333 
L 92.262857 233.918537 
L 92.697662 234.01955 
L 92.697662 234.136346 
L 92.697662 233.841199 
L 92.697662 233.972201 
L 93.132468 234.156865 
L 93.132468 233.970622 
L 93.132468 233.505016 
L 93.132468 234.017972 
L 93.132468 233.618655 
L 93.567273 233.6518 
L 93.567273 233.568149 
L 93.567273 233.02994 
L 94.002078 233.028361 
L 94.002078 232.123981 
L 94.002078 232.146077 
L 94.436883 232.226572 
L 94.436883 232.114511 
L 94.436883 231.519482 
L 94.436883 231.533687 
L 94.871688 231.397951 
L 94.871688 230.659294 
L 94.871688 230.796608 
L 95.306494 230.686125 
L 95.306494 230.124241 
L 95.306494 230.329424 
L 95.741299 230.44622 
L 95.741299 230.526715 
L 95.741299 229.664948 
L 95.741299 229.799106 
L 96.176104 229.759648 
L 96.176104 229.765961 
L 96.176104 229.915902 
L 96.176104 229.59708 
L 96.610909 229.469236 
L 96.610909 229.515007 
L 96.610909 229.25774 
L 96.610909 229.590767 
L 97.045714 229.660213 
L 97.045714 230.406762 
L 97.045714 230.307327 
L 97.480519 230.193688 
L 97.480519 229.931686 
L 97.480519 230.859741 
L 97.480519 230.828175 
L 97.915325 230.706644 
L 97.915325 230.662451 
L 97.915325 231.112274 
L 97.915325 231.028622 
L 98.35013 231.022309 
L 98.35013 231.101225 
L 98.35013 231.887232 
L 98.35013 231.030201 
L 98.35013 231.882497 
L 98.784935 231.768857 
L 98.784935 231.206973 
L 98.784935 231.265371 
L 99.21974 231.206973 
L 99.21974 231.309564 
L 99.21974 231.776749 
L 99.21974 231.754652 
L 99.654545 231.855665 
L 99.654545 232.376513 
L 99.654545 231.754652 
L 99.654545 232.335476 
L 100.089351 232.335476 
L 100.089351 232.292862 
L 100.089351 232.168174 
L 100.089351 232.66219 
L 100.089351 232.640093 
L 100.524156 232.52014 
L 100.524156 232.535924 
L 100.524156 232.067161 
L 100.524156 232.55802 
L 100.524156 232.116089 
L 100.958961 232.19027 
L 100.958961 232.054534 
L 100.958961 231.62523 
L 100.958961 231.806737 
L 101.393766 231.642591 
L 101.393766 231.655218 
L 101.393766 231.399529 
L 101.393766 231.581036 
L 101.828571 231.467397 
L 101.828571 231.183298 
L 101.828571 231.588928 
L 101.828571 231.522638 
L 102.263377 231.399529 
L 102.263377 231.438987 
L 102.263377 231.236961 
L 102.263377 231.584193 
L 102.263377 231.418469 
L 102.698182 231.54 
L 102.698182 231.290624 
L 102.698182 231.661531 
L 103.132987 231.656796 
L 103.132987 231.663109 
L 103.132987 231.84146 
L 103.132987 230.997056 
L 103.132987 231.137527 
L 103.567792 231.019152 
L 103.567792 231.126478 
L 103.567792 231.47371 
L 103.567792 230.965489 
L 103.567792 231.386902 
L 104.002597 231.486337 
L 104.002597 231.671001 
L 104.002597 230.774512 
L 104.002597 230.933923 
L 104.437403 230.850271 
L 104.437403 231.027044 
L 104.437403 231.87934 
L 104.872208 232.004028 
L 104.872208 231.996136 
L 104.872208 232.093992 
L 104.872208 231.598398 
L 104.872208 231.691519 
L 105.307013 231.79411 
L 105.307013 231.778327 
L 105.307013 232.36073 
L 105.307013 232.010341 
L 105.741818 231.858822 
L 105.741818 231.885653 
L 105.741818 230.660872 
L 106.176623 230.496726 
L 106.176623 230.37046 
L 106.176623 230.722427 
L 106.611429 230.619836 
L 106.611429 230.698752 
L 106.611429 229.848034 
L 107.046234 229.721768 
L 107.046234 229.835408 
L 107.046234 230.226833 
L 107.046234 229.792793 
L 107.046234 229.900119 
L 107.481039 229.734395 
L 107.481039 228.460686 
L 107.915844 228.508035 
L 107.915844 228.397552 
L 107.915844 227.355857 
L 108.350649 227.213808 
L 108.350649 227.229591 
L 108.350649 226.124763 
L 108.785455 225.982713 
L 108.785455 225.19355 
L 108.785455 225.209334 
L 109.22026 225.209334 
L 109.22026 225.304033 
L 109.22026 225.351383 
L 109.22026 224.120289 
L 109.655065 223.994022 
L 109.655065 224.025589 
L 109.655065 222.463046 
L 110.08987 222.305213 
L 110.08987 220.253389 
L 110.524675 220.20604 
L 110.524675 220.237606 
L 110.524675 218.65928 
L 110.524675 218.769763 
L 110.959481 218.627713 
L 110.959481 218.627713 
L 110.959481 217.964816 
L 110.959481 218.012166 
L 111.394286 217.917467 
L 111.394286 217.964816 
L 111.394286 218.043733 
L 111.394286 217.443969 
L 111.394286 217.712284 
L 111.829091 217.570235 
L 111.829091 216.938904 
L 111.829091 217.586018 
L 111.829091 217.11252 
L 112.263896 217.301919 
L 112.263896 217.223003 
L 112.263896 216.639022 
L 112.263896 216.686372 
L 112.698701 216.765289 
L 112.698701 216.765289 
L 112.698701 217.033604 
L 112.698701 216.670589 
L 113.133506 216.43384 
L 113.133506 216.070825 
L 113.133506 216.844205 
L 113.133506 216.102392 
L 113.568312 216.039259 
L 113.568312 215.250095 
L 113.568312 215.549977 
L 114.003117 215.565761 
L 114.003117 215.502628 
L 114.003117 215.234312 
L 114.003117 215.628894 
L 114.003117 215.344795 
L 114.437922 215.329012 
L 114.437922 215.329012 
L 114.437922 216.639022 
L 114.437922 216.591673 
L 114.872727 216.575889 
L 114.872727 217.712284 
L 115.307532 217.83855 
L 115.307532 217.822767 
L 115.307532 218.690846 
L 115.307532 218.359398 
L 115.742338 218.548797 
L 115.742338 219.180128 
L 115.742338 218.517231 
L 115.742338 219.022295 
L 116.177143 218.990728 
L 116.177143 218.596147 
L 116.177143 219.085428 
L 116.177143 218.738196 
L 116.611948 218.911812 
L 116.611948 218.911812 
L 116.611948 218.359398 
L 116.611948 219.274827 
L 117.046753 219.148561 
L 117.046753 218.327831 
L 117.046753 218.56458 
L 117.481558 218.422531 
L 117.481558 218.138432 
L 117.481558 218.959162 
L 117.481558 218.864462 
L 117.916364 219.132778 
L 117.916364 219.227477 
L 117.916364 218.817113 
L 117.916364 219.022295 
L 118.351169 219.132778 
L 118.351169 219.132778 
L 118.351169 219.669409 
L 118.351169 219.369527 
L 118.785974 219.43266 
L 118.785974 219.748325 
L 118.785974 218.990728 
L 119.220779 218.990728 
L 119.220779 219.038078 
L 119.220779 219.243261 
L 119.220779 218.596147 
L 119.220779 218.65928 
L 119.655584 218.65928 
L 119.655584 218.61193 
L 119.655584 218.343615 
L 119.655584 219.259044 
L 119.655584 219.180128 
L 120.09039 219.101211 
L 120.09039 218.469881 
L 120.09039 218.548797 
L 120.525195 218.454098 
L 120.525195 218.643497 
L 120.525195 217.901683 
L 120.96 217.854334 
L 120.96 217.8859 
L 120.96 218.122649 
L 120.96 216.639022 
L 120.96 216.923121 
L 121.394805 217.128304 
L 121.394805 217.065171 
L 121.394805 215.692027 
L 121.394805 215.692027 
L 121.82961 215.471061 
L 121.82961 215.723593 
L 121.82961 215.297445 
L 122.264416 215.423711 
L 122.264416 215.739377 
L 122.264416 214.871297 
L 122.264416 215.139613 
L 122.699221 215.013346 
L 122.699221 214.602982 
L 122.699221 214.855514 
L 123.134026 214.634548 
L 123.134026 212.345975 
L 123.568831 212.12501 
L 123.568831 209.583904 
L 124.003636 209.599688 
L 124.003636 209.504988 
L 124.003636 209.536555 
L 124.003636 207.342681 
L 124.438442 207.263765 
L 124.438442 205.243507 
L 124.873247 205.038325 
L 124.873247 201.060943 
L 125.308052 201.108293 
L 125.308052 196.925728 
L 125.742857 196.846812 
L 125.742857 192.632681 
L 126.177662 192.459065 
L 126.177662 187.645171 
L 126.612468 187.455771 
L 126.612468 181.679098 
L 126.612468 181.679098 
L 127.047273 181.615965 
L 127.047273 172.224924 
L 127.482078 172.051308 
L 127.482078 157.420224 
L 127.916883 157.009859 
L 127.916883 136.712585 
L 128.351688 136.191737 
L 128.351688 115.184216 
L 128.786494 114.726501 
L 128.786494 101.70531 
L 129.221299 101.184462 
L 129.221299 93.62428 
L 129.656104 93.797896 
L 129.656104 93.498014 
L 129.656104 96.181169 
L 130.090909 96.196952 
L 130.090909 96.039119 
L 130.090909 102.683872 
L 130.525714 102.889055 
L 130.525714 114.347703 
L 130.960519 114.552885 
L 130.960519 126.832263 
L 131.395325 127.211061 
L 131.395325 137.580664 
L 131.83013 137.785847 
L 131.83013 144.983014 
L 132.264935 145.15663 
L 132.264935 151.01222 
L 132.69974 151.122703 
L 132.69974 153.790074 
L 133.134545 153.584892 
L 133.134545 152.795729 
L 133.134545 154.358271 
L 133.134545 154.295138 
L 133.569351 154.232005 
L 133.569351 154.342488 
L 133.569351 154.531887 
L 133.569351 152.195965 
L 133.569351 152.432714 
L 134.004156 152.353797 
L 134.004156 152.36958 
L 134.004156 151.990782 
L 134.004156 152.685246 
L 134.004156 152.41693 
L 134.438961 152.385364 
L 134.438961 152.385364 
L 134.438961 150.159924 
L 134.438961 152.41693 
L 134.438961 150.23884 
L 134.873766 150.065224 
L 134.873766 150.23884 
L 134.873766 152.290664 
L 134.873766 151.564634 
L 135.308571 151.611984 
L 135.308571 151.548851 
L 135.308571 150.822821 
L 135.308571 153.695374 
L 135.743377 153.821641 
L 135.743377 158.083121 
L 136.178182 158.225171 
L 136.178182 164.064977 
L 136.612987 164.191244 
L 136.612987 169.241887 
L 137.047792 169.525986 
L 137.047792 175.507842 
L 137.482597 175.570975 
L 137.482597 180.858368 
L 137.917403 180.921501 
L 137.917403 185.46708 
L 137.917403 185.46708 
L 138.352208 185.65648 
L 138.352208 191.448937 
L 138.787013 191.480503 
L 138.787013 195.710417 
L 138.787013 195.710417 
L 139.221818 195.852467 
L 139.221818 195.805117 
L 139.221818 195.584151 
L 139.221818 198.803937 
L 139.656623 198.851286 
L 139.656623 200.508529 
L 139.656623 200.398046 
L 140.091429 200.382263 
L 140.091429 200.508529 
L 140.091429 202.576136 
L 140.091429 202.465653 
L 140.526234 202.733969 
L 140.526234 204.72266 
L 140.961039 204.864709 
L 140.961039 204.864709 
L 140.961039 206.711351 
L 140.961039 206.679784 
L 141.395844 206.916533 
L 141.395844 206.916533 
L 141.395844 209.678604 
L 141.830649 209.741737 
L 141.830649 211.777778 
L 141.830649 211.761995 
L 142.265455 211.872477 
L 142.265455 211.856694 
L 142.265455 214.760814 
L 142.70026 214.98178 
L 142.70026 215.692027 
L 142.70026 214.950213 
L 142.70026 215.581544 
L 143.135065 215.818293 
L 143.135065 217.791201 
L 143.56987 217.822767 
L 143.56987 219.779892 
L 143.56987 219.653625 
L 144.004675 219.716759 
L 144.004675 221.879065 
L 144.004675 221.800149 
L 144.439481 221.942198 
L 144.439481 222.952327 
L 144.439481 222.810278 
L 144.874286 222.96811 
L 144.874286 222.952327 
L 144.874286 223.552091 
L 144.874286 223.488958 
L 145.309091 223.394259 
L 145.309091 223.520525 
L 145.309091 224.767402 
L 145.743896 224.814752 
L 145.743896 226.456211 
L 145.743896 226.393078 
L 146.178701 226.424645 
L 146.178701 228.002971 
L 146.613506 227.971404 
L 146.613506 228.034537 
L 146.613506 228.949967 
L 147.048312 228.934183 
L 147.048312 228.96575 
L 147.048312 229.34297 
L 147.483117 229.325608 
L 147.483117 229.410838 
L 147.483117 229.328765 
L 147.483117 229.866974 
L 147.917922 229.991662 
L 147.917922 229.958517 
L 147.917922 230.334159 
L 148.352727 230.321532 
L 148.352727 230.348364 
L 148.352727 231.186455 
L 148.787532 231.379011 
L 148.787532 231.315878 
L 148.787532 232.087679 
L 149.222338 232.176065 
L 149.222338 232.829492 
L 149.657143 232.755311 
L 149.657143 232.903674 
L 149.657143 233.79385 
L 149.657143 233.785958 
L 150.091948 233.754392 
L 150.091948 233.880658 
L 150.091948 234.49147 
L 150.526753 234.482 
L 150.526753 234.587748 
L 150.526753 234.813448 
L 150.526753 234.51041 
L 150.526753 234.553025 
L 150.961558 234.658772 
L 150.961558 234.556181 
L 151.396364 234.39677 
L 151.396364 234.294179 
L 151.396364 234.553025 
L 151.396364 234.344686 
L 151.831169 234.47253 
L 151.831169 234.695074 
L 151.831169 234.464638 
L 151.831169 234.646146 
L 152.265974 234.592483 
L 152.265974 234.684026 
L 152.265974 235.15121 
L 152.700779 235.297995 
L 152.700779 235.286946 
L 152.700779 235.615238 
L 153.135584 235.779384 
L 153.135584 235.90565 
L 153.135584 235.555262 
L 153.135584 235.582093 
L 153.57039 235.692576 
L 153.57039 236.031916 
L 153.57039 235.965627 
L 154.005195 235.987723 
L 154.005195 235.959313 
L 154.005195 235.874084 
L 154.005195 236.155026 
L 154.005195 236.098206 
L 154.44 236.084001 
L 154.44 236.194484 
L 154.44 236.828971 
L 154.44 236.802139 
L 154.874805 236.920514 
L 154.874805 236.904731 
L 154.874805 237.059407 
L 154.874805 237.032575 
L 155.30961 237.158841 
L 155.30961 237.150949 
L 155.30961 237.313517 
L 155.30961 237.12254 
L 155.30961 237.307204 
L 155.744416 237.214083 
L 155.744416 237.225131 
L 155.744416 237.180938 
L 155.744416 237.551844 
L 155.744416 237.294577 
L 156.179221 237.40506 
L 156.179221 237.240914 
L 156.179221 237.299312 
L 156.179221 236.991539 
L 156.614026 236.881056 
L 156.614026 236.73585 
L 156.614026 237.04678 
L 156.614026 236.806874 
L 157.048831 236.71691 
L 157.048831 236.890526 
L 157.048831 236.98049 
L 157.048831 236.77373 
L 157.048831 236.825814 
L 157.483636 236.975755 
L 157.483636 237.450831 
L 157.483636 237.44294 
L 157.918442 237.343505 
L 157.918442 237.436627 
L 157.918442 237.674954 
L 157.918442 237.47135 
L 158.353247 237.332457 
L 158.353247 237.496603 
L 158.353247 237.723882 
L 158.353247 237.474506 
L 158.353247 237.621291 
L 158.788052 237.693894 
L 158.788052 237.856461 
L 158.788052 237.824895 
L 159.222857 237.731774 
L 159.222857 237.895919 
L 159.222857 238.138982 
L 160.092468 238.276296 
L 160.092468 238.116885 
L 160.092468 238.262091 
L 160.092468 238.009559 
L 160.527273 237.919594 
L 160.527273 237.736508 
L 160.527273 237.970101 
L 160.527273 237.862775 
L 160.962078 237.826473 
L 160.962078 237.924329 
L 160.962078 237.987462 
L 160.962078 237.562893 
L 160.962078 237.741243 
L 161.396883 237.856461 
L 161.396883 237.851726 
L 161.396883 238.097945 
L 161.831688 238.026921 
L 161.831688 238.08374 
L 161.831688 237.960631 
L 162.266494 237.996932 
L 162.266494 237.878558 
L 162.266494 237.603929 
L 162.266494 237.684424 
L 162.701299 237.580254 
L 162.701299 237.441361 
L 162.701299 237.733352 
L 162.701299 237.495025 
L 163.136104 237.44294 
L 163.136104 236.974177 
L 163.136104 237.166733 
L 163.570909 237.272481 
L 163.570909 237.272481 
L 163.570909 237.703364 
L 164.005714 237.627604 
L 164.005714 237.285107 
L 164.005714 237.330879 
L 164.440519 237.37665 
L 164.440519 237.242492 
L 164.440519 237.266167 
L 164.440519 236.800561 
L 164.875325 236.699548 
L 164.875325 235.708359 
L 164.875325 235.725721 
L 165.31013 235.602611 
L 165.31013 234.966546 
L 165.744935 234.794508 
L 165.744935 234.448855 
L 165.744935 234.464638 
L 166.17974 234.403084 
L 166.17974 234.01955 
L 166.17974 234.197901 
L 166.614545 234.279974 
L 166.614545 234.568808 
L 167.049351 234.436228 
L 167.049351 234.115828 
L 167.049351 234.504096 
L 167.049351 234.44412 
L 167.484156 234.537241 
L 167.484156 234.677712 
L 167.484156 234.153708 
L 167.484156 234.412554 
L 167.918961 234.526193 
L 167.918961 234.467795 
L 167.918961 234.832388 
L 168.353766 234.816605 
L 168.353766 234.876581 
L 168.353766 235.064402 
L 168.353766 234.816605 
L 168.353766 234.85922 
L 168.788571 234.969703 
L 168.788571 235.378489 
L 168.788571 234.846593 
L 168.788571 234.867111 
L 169.223377 234.829232 
L 169.223377 234.949184 
L 169.223377 235.29326 
L 169.223377 234.815027 
L 169.223377 235.250645 
L 169.658182 235.387959 
L 169.658182 235.589985 
L 169.658182 235.266428 
L 169.658182 235.55684 
L 170.092987 235.468454 
L 170.092987 235.596298 
L 170.092987 236.256039 
L 170.092987 236.093471 
L 170.527792 236.017711 
L 170.527792 236.102941 
L 170.527792 236.233942 
L 170.527792 235.799902 
L 170.962597 235.720986 
L 170.962597 235.855144 
L 170.962597 235.96247 
L 170.962597 235.836204 
L 170.962597 235.91512 
L 171.397403 235.826734 
L 171.397403 235.492129 
L 171.397403 235.719408 
L 171.832208 235.66101 
L 171.832208 235.359549 
L 171.832208 235.679949 
L 172.267013 235.744661 
L 172.267013 235.631021 
L 172.267013 235.460562 
L 172.267013 235.638913 
L 172.701818 235.656275 
L 172.701818 235.563153 
L 172.701818 235.50949 
L 172.701818 235.67048 
L 172.701818 235.563153 
L 173.136623 235.646805 
L 173.136623 235.910385 
L 173.136623 235.558418 
L 173.571429 235.673636 
L 173.571429 235.874084 
L 173.571429 235.627865 
L 173.571429 235.798324 
L 174.006234 235.844095 
L 174.006234 235.809372 
L 174.006234 235.514225 
L 174.006234 235.571045 
L 174.441039 235.66101 
L 174.441039 235.591563 
L 174.441039 235.49055 
L 174.441039 236.066639 
L 174.441039 236.001928 
L 174.875844 235.91512 
L 174.875844 235.864614 
L 174.875844 236.360208 
L 175.310649 236.33022 
L 175.310649 236.458064 
L 175.310649 236.664825 
L 175.310649 236.486474 
L 175.745455 236.56539 
L 175.745455 236.701127 
L 175.745455 236.298653 
L 175.745455 236.445438 
L 176.18026 236.467534 
L 176.18026 236.388618 
L 176.18026 236.025603 
L 176.18026 236.407558 
L 176.18026 236.047699 
L 176.615065 236.137664 
L 176.615065 236.380726 
L 176.615065 236.181857 
L 177.04987 236.221315 
L 177.04987 236.178701 
L 177.04987 236.057169 
L 177.04987 236.279713 
L 177.04987 236.196062 
L 177.484675 236.102941 
L 177.484675 236.298653 
L 177.484675 236.426498 
L 177.484675 236.40598 
L 177.919481 236.276557 
L 177.919481 236.287605 
L 177.919481 236.047699 
L 177.919481 236.308123 
L 177.919481 236.237099 
L 178.354286 236.363365 
L 178.354286 236.582752 
L 178.354286 236.34916 
L 178.354286 236.503836 
L 178.789091 236.633258 
L 178.789091 236.781621 
L 178.789091 236.559077 
L 178.789091 236.596957 
L 179.223896 236.742163 
L 179.223896 236.592222 
L 179.223896 236.562234 
L 179.223896 236.907887 
L 179.658701 236.923671 
L 179.658701 236.824236 
L 179.658701 236.849489 
L 179.658701 236.042965 
L 180.093506 236.104519 
L 180.093506 235.986145 
L 180.093506 235.621551 
L 180.093506 235.643648 
L 180.528312 235.512647 
L 180.528312 235.526852 
L 180.528312 234.791352 
L 180.963117 234.687182 
L 180.963117 234.03849 
L 180.963117 234.720327 
L 180.963117 234.071635 
L 181.397922 234.103202 
L 181.397922 234.103202 
L 181.397922 234.524615 
L 181.397922 234.172648 
L 181.832727 234.128455 
L 181.832727 234.231046 
L 181.832727 234.429915 
L 181.832727 234.207371 
L 181.832727 234.251564 
L 182.267532 234.305227 
L 182.267532 234.166335 
L 182.267532 234.036912 
L 182.267532 234.294179 
L 182.267532 234.051117 
L 182.702338 234.01008 
L 182.702338 233.443461 
L 182.702338 233.465558 
L 183.137143 233.309304 
L 183.137143 233.197242 
L 183.137143 233.364545 
L 183.571948 233.364545 
L 183.571948 233.32193 
L 183.571948 233.227231 
L 183.571948 233.983249 
L 183.571948 233.918537 
L 184.006753 233.748078 
L 184.006753 233.771753 
L 184.006753 233.419786 
L 184.006753 233.637595 
L 184.441558 233.640752 
L 184.441558 233.593402 
L 184.441558 233.238279 
L 184.441558 233.64233 
L 184.441558 233.320352 
L 184.876364 233.332978 
L 184.876364 233.257219 
L 184.876364 232.734793 
L 184.876364 232.902095 
L 185.311169 233.07729 
L 185.311169 233.200399 
L 185.311169 233.023627 
L 185.311169 233.176724 
L 185.745974 233.059928 
L 185.745974 233.162519 
L 185.745974 233.748078 
L 186.180779 233.686524 
L 186.180779 233.844356 
L 186.180779 234.13319 
L 186.180779 233.980092 
L 186.615584 234.096888 
L 186.615584 234.213684 
L 186.615584 233.912224 
L 186.615584 233.934321 
L 187.05039 233.861718 
L 187.05039 233.757548 
L 187.05039 234.194745 
L 187.05039 234.191588 
L 187.485195 234.063743 
L 187.485195 233.666005 
L 187.92 233.470293 
L 187.92 233.036253 
L 187.92 233.536583 
L 187.92 233.08676 
L 188.354805 233.011 
L 188.354805 233.036253 
L 188.354805 232.482261 
L 188.78961 232.5959 
L 188.78961 232.737949 
L 188.78961 232.461742 
L 188.78961 232.524875 
L 189.224416 232.433333 
L 189.224416 231.988245 
L 189.224416 232.559599 
L 189.224416 232.049799 
L 189.659221 232.056113 
L 189.659221 231.96457 
L 189.659221 231.255901 
L 190.094026 231.11543 
L 190.094026 230.026385 
L 190.528831 229.923794 
L 190.528831 228.729001 
L 190.528831 228.760568 
L 190.963636 228.602735 
L 190.963636 226.961276 
L 190.963636 227.024409 
L 191.398442 226.78766 
L 191.398442 225.872231 
L 191.833247 225.935364 
L 191.833247 225.91958 
L 191.833247 224.783186 
L 191.833247 224.862102 
L 192.268052 224.656919 
L 192.268052 223.583658 
L 192.268052 224.672703 
L 192.268052 223.583658 
L 192.702857 223.583658 
L 192.702857 223.567874 
L 192.702857 223.15751 
L 192.702857 223.994022 
L 192.702857 223.930889 
L 193.137662 224.057155 
L 193.137662 224.846319 
L 193.137662 224.846319 
L 193.572468 224.972585 
L 193.572468 225.91958 
L 194.007273 226.077413 
L 194.007273 226.377295 
L 194.007273 226.030063 
L 194.007273 226.377295 
L 194.442078 226.550911 
L 194.442078 227.276941 
L 194.442078 227.071759 
L 194.876883 227.071759 
L 194.876883 226.961276 
L 194.876883 226.929709 
L 194.876883 227.529473 
L 194.876883 227.41899 
L 195.311688 227.545256 
L 195.311688 227.545256 
L 195.311688 228.034537 
L 195.311688 228.034537 
L 195.746494 228.14502 
L 195.746494 228.665868 
L 195.746494 228.539602 
L 196.181299 228.492252 
L 196.181299 228.555385 
L 196.181299 228.87105 
L 196.181299 228.28707 
L 196.181299 228.807917 
L 196.616104 228.855267 
L 196.616104 228.792134 
L 196.616104 227.829355 
L 197.050909 227.750439 
L 197.050909 227.592606 
L 197.050909 227.876705 
L 197.050909 227.703089 
L 197.485714 227.845138 
L 197.485714 227.718872 
L 197.485714 227.276941 
L 197.920519 227.198025 
L 197.920519 226.992842 
L 197.920519 227.576823 
L 197.920519 227.529473 
L 198.355325 227.41899 
L 198.355325 227.261158 
L 198.355325 227.655739 
L 198.355325 227.276941 
L 198.79013 227.450557 
L 198.79013 228.350203 
L 199.224935 228.476469 
L 199.224935 228.429119 
L 199.224935 228.571168 
L 199.224935 228.381769 
L 199.224935 228.539602 
L 199.65974 228.586952 
L 199.65974 228.476469 
L 199.65974 228.365986 
L 199.65974 228.997316 
L 199.65974 228.839484 
L 200.094545 229.0131 
L 200.094545 229.060449 
L 200.094545 228.697434 
L 200.094545 228.855267 
L 200.529351 228.855267 
L 200.529351 228.96575 
L 200.529351 229.240379 
L 200.529351 229.221439 
L 200.964156 229.170932 
L 200.964156 229.256162 
L 200.964156 229.718612 
L 200.964156 229.694937 
L 201.398961 229.756491 
L 201.398961 230.294701 
L 201.398961 230.250507 
L 201.833766 230.122663 
L 201.833766 230.151073 
L 201.833766 229.818046 
L 201.833766 230.271026 
L 201.833766 230.015337 
L 202.268571 229.915902 
L 202.268571 229.947469 
L 202.268571 229.268789 
L 202.703377 229.148836 
L 202.703377 229.156727 
L 202.703377 228.96575 
L 202.703377 229.502381 
L 202.703377 229.439248 
L 203.138182 229.311403 
L 203.138182 227.860922 
L 203.138182 227.939838 
L 203.572987 227.797789 
L 203.572987 227.340074 
L 203.572987 227.829355 
L 203.572987 227.355857 
L 204.007792 227.340074 
L 204.007792 227.355857 
L 204.007792 226.01428 
L 204.442597 225.888014 
L 204.442597 225.903797 
L 204.442597 225.351383 
L 204.877403 225.177767 
L 204.877403 224.262338 
L 204.877403 224.325471 
L 205.312208 224.167638 
L 205.312208 222.778711 
L 205.747013 222.684012 
L 205.747013 221.784366 
L 205.747013 221.800149 
L 206.181818 221.689666 
L 206.181818 219.211694 
L 206.616623 219.038078 
L 206.616623 215.676243 
L 207.051429 215.70781 
L 207.051429 215.61311 
L 207.051429 212.75634 
L 207.486234 212.630074 
L 207.486234 211.004398 
L 207.921039 211.114881 
L 207.921039 211.383196 
L 207.921039 210.357284 
L 208.355844 210.48355 
L 208.355844 210.57825 
L 208.355844 209.820653 
L 208.355844 209.994269 
L 208.790649 209.820653 
L 208.790649 208.337027 
L 208.790649 209.868003 
L 208.790649 208.479076 
L 209.225455 208.289677 
L 209.225455 208.289677 
L 209.225455 208.731608 
L 209.225455 207.910879 
L 209.225455 207.926662 
L 209.66026 207.989795 
L 209.66026 208.179194 
L 209.66026 207.390031 
L 209.66026 207.390031 
L 210.095065 207.169065 
L 210.095065 207.263765 
L 210.095065 206.427252 
L 210.095065 206.443035 
L 210.52987 206.569301 
L 210.52987 206.537735 
L 210.52987 207.105932 
L 210.52987 206.979666 
L 210.964675 206.963883 
L 210.964675 206.632434 
L 210.964675 207.390031 
L 210.964675 206.979666 
L 211.399481 206.99545 
L 211.399481 206.963883 
L 211.399481 206.711351 
L 211.399481 207.879312 
L 211.399481 207.57943 
L 211.834286 207.500514 
L 211.834286 207.374248 
L 211.834286 208.210761 
L 211.834286 208.021362 
L 212.269091 207.974012 
L 212.269091 208.084495 
L 212.269091 208.021362 
L 212.269091 209.441855 
L 212.703896 209.599688 
L 212.703896 210.136319 
L 212.703896 209.299806 
L 212.703896 210.010053 
L 213.138701 209.868003 
L 213.138701 209.946919 
L 213.138701 210.657166 
L 213.138701 209.85222 
L 213.138701 210.515117 
L 213.573506 210.67295 
L 213.573506 211.320063 
L 213.573506 211.130664 
L 214.008312 211.414763 
L 214.008312 211.888261 
L 214.008312 211.651512 
L 214.443117 211.541029 
L 214.443117 211.635728 
L 214.443117 211.856694 
L 214.443117 211.493679 
L 214.443117 211.777778 
L 214.877922 211.730428 
L 214.877922 211.840911 
L 214.877922 212.345975 
L 214.877922 211.604162 
L 214.877922 212.188143 
L 215.312727 212.440675 
L 215.312727 212.345975 
L 215.312727 213.087789 
L 215.312727 212.977306 
L 215.747532 213.056222 
L 215.747532 212.945739 
L 215.747532 212.898389 
L 215.747532 213.703336 
L 215.747532 213.356104 
L 216.182338 213.513937 
L 216.182338 213.782252 
L 216.182338 213.103572 
L 216.182338 213.119355 
L 216.617143 213.119355 
L 216.617143 213.024656 
L 216.617143 212.961522 
L 216.617143 213.703336 
L 216.617143 213.419237 
L 217.051948 213.135138 
L 217.051948 213.135138 
L 217.051948 212.377542 
L 217.051948 212.519591 
L 217.486753 212.330192 
L 217.486753 211.904044 
L 217.486753 212.440675 
L 217.486753 211.998743 
L 217.921558 212.12501 
L 217.921558 212.298625 
L 217.921558 211.683078 
L 217.921558 211.809344 
L 218.356364 211.730428 
L 218.356364 211.525246 
L 218.356364 211.967177 
L 218.356364 211.967177 
L 218.791169 211.98296 
L 218.791169 210.704516 
L 219.225974 210.751866 
L 219.225974 210.704516 
L 219.225974 210.48355 
L 219.225974 211.051748 
L 219.225974 210.783432 
L 219.660779 210.57825 
L 219.660779 209.441855 
L 219.660779 210.641383 
L 219.660779 209.662821 
L 220.095584 209.647037 
L 220.095584 209.678604 
L 220.095584 208.242327 
L 220.53039 208.147628 
L 220.53039 208.242327 
L 220.53039 206.316769 
L 220.965195 206.364119 
L 220.965195 206.348336 
L 220.965195 204.138679 
L 220.965195 204.186029 
L 221.4 203.94928 
L 221.4 203.94928 
L 221.4 204.138679 
L 221.4 202.023722 
L 221.834805 201.960589 
L 221.834805 202.134205 
L 221.834805 200.255997 
L 221.834805 200.255997 
L 222.26961 200.019248 
L 222.26961 200.17708 
L 222.26961 200.240213 
L 222.26961 196.831029 
L 222.704416 196.59428 
L 222.704416 192.601115 
L 223.139221 192.364366 
L 223.139221 187.171673 
L 223.574026 187.076973 
L 223.574026 181.758014 
L 224.008831 181.600181 
L 224.008831 176.439055 
L 224.443636 176.233872 
L 224.443636 169.036705 
L 224.878442 168.894656 
L 224.878442 160.103379 
L 225.313247 159.740364 
L 225.313247 144.572649 
L 225.748052 144.320117 
L 225.748052 124.622606 
L 226.182857 124.149108 
L 226.182857 100.695181 
L 226.617662 99.874452 
L 226.617662 75.852327 
L 227.052468 75.063164 
L 227.052468 56.596748 
L 227.487273 56.12325 
L 227.487273 46.337628 
L 227.922078 46.337628 
L 227.922078 44.443636 
L 227.922078 44.759302 
L 228.356883 44.601469 
L 228.356883 51.072606 
L 228.356883 50.914774 
L 228.791688 51.072606 
L 228.791688 51.072606 
L 228.791688 63.857048 
L 229.226494 64.172714 
L 229.226494 78.219817 
L 229.661299 78.377649 
L 229.661299 89.236533 
L 230.096104 89.662681 
L 230.096104 102.38399 
L 230.530909 102.699656 
L 230.530909 110.828035 
L 230.965714 110.906952 
L 230.965714 116.825675 
L 230.965714 116.399527 
L 231.400519 116.336394 
L 231.400519 118.514484 
L 231.835325 118.498701 
L 231.835325 119.808711 
L 232.27013 119.698229 
L 232.27013 118.956415 
L 232.27013 120.266426 
L 232.27013 120.171726 
L 232.704935 120.077027 
L 232.704935 118.214602 
L 232.704935 118.309302 
L 233.13974 118.388218 
L 233.13974 118.293518 
L 233.13974 116.068078 
L 233.13974 116.194344 
L 233.574545 116.099645 
L 233.574545 115.847113 
L 233.574545 117.835804 
L 234.009351 117.993636 
L 234.009351 117.851587 
L 234.009351 123.060063 
L 234.444156 123.028497 
L 234.444156 123.09163 
L 234.444156 129.657467 
L 234.878961 130.052048 
L 234.878961 137.312349 
L 235.313766 137.438615 
L 235.313766 146.466641 
L 235.748571 146.734956 
L 235.748571 155.431533 
L 236.183377 155.794548 
L 236.183377 163.796662 
L 236.618182 163.733529 
L 236.618182 170.362499 
L 237.052987 170.488765 
L 237.052987 176.849419 
L 237.487792 176.928336 
L 237.487792 181.126683 
L 237.922597 181.505482 
L 237.922597 184.456952 
L 237.922597 184.251769 
L 238.357403 184.456952 
L 238.357403 186.035278 
L 238.792208 186.350943 
L 238.792208 186.319377 
L 238.792208 188.41855 
L 239.227013 188.592166 
L 239.227013 191.954001 
L 239.661818 191.906651 
L 239.661818 192.001351 
L 239.661818 194.384623 
L 239.661818 194.384623 
L 240.096623 194.258357 
L 240.096623 194.274141 
L 240.096623 198.204173 
L 240.531429 198.472488 
L 240.531429 200.839977 
L 240.966234 201.076726 
L 240.966234 204.406995 
L 240.966234 204.359645 
L 241.401039 204.470128 
L 241.401039 206.443035 
L 241.835844 206.569301 
L 241.835844 209.931136 
L 242.270649 210.199452 
L 242.270649 213.450804 
L 242.705455 213.687553 
L 242.705455 217.191437 
L 243.14026 217.286136 
L 243.14026 219.180128 
L 243.14026 219.180128 
L 243.575065 219.48001 
L 243.575065 220.805804 
L 243.575065 220.647971 
L 244.00987 220.647971 
L 244.00987 220.679537 
L 244.00987 221.989548 
L 244.444675 222.131598 
L 244.444675 222.084248 
L 244.444675 223.252209 
L 244.879481 223.141726 
L 244.879481 223.031243 
L 244.879481 224.56222 
L 244.879481 224.483304 
L 245.314286 224.451737 
L 245.314286 224.499087 
L 245.314286 225.824881 
L 245.749091 225.982713 
L 245.749091 225.951147 
L 245.749091 226.724527 
L 245.749091 226.582477 
L 246.183896 226.377295 
L 246.183896 226.219462 
L 246.183896 227.529473 
L 246.618701 227.624173 
L 246.618701 228.208153 
L 246.618701 228.002971 
L 247.053506 228.14502 
L 247.053506 229.745443 
L 247.488312 229.911167 
L 247.488312 229.827516 
L 247.488312 229.780166 
L 247.488312 230.37993 
L 247.923117 230.514088 
L 247.923117 232.045064 
L 247.923117 232.004028 
L 248.357922 232.122402 
L 248.357922 232.111354 
L 248.357922 233.07729 
L 248.792727 233.119904 
L 248.792727 233.023627 
L 248.792727 232.928927 
L 248.792727 233.366123 
L 249.227532 233.481341 
L 249.227532 233.475028 
L 249.227532 233.874344 
L 249.662338 233.989562 
L 249.662338 234.302071 
L 250.097143 234.478843 
L 250.097143 234.867111 
L 250.097143 234.82134 
L 250.531948 234.971281 
L 250.531948 235.668901 
L 250.531948 235.662588 
L 250.966753 235.812529 
L 250.966753 235.769914 
L 250.966753 236.054013 
L 251.401558 236.117146 
L 251.401558 236.063483 
L 251.401558 236.661668 
L 251.401558 236.548029 
L 251.836364 236.611162 
L 251.836364 237.106756 
L 252.271169 237.144636 
L 252.271169 237.02784 
L 252.271169 236.939454 
L 252.271169 237.207769 
L 252.271169 237.040467 
L 252.705974 237.174624 
L 252.705974 237.466615 
L 252.705974 237.416108 
L 253.140779 237.274059 
L 253.140779 237.128853 
L 253.140779 237.311939 
L 253.575584 237.311939 
L 253.575584 237.417687 
L 253.575584 237.362445 
L 253.575584 237.905389 
L 254.01039 238.052174 
L 254.01039 238.172127 
L 254.01039 237.966944 
L 254.01039 238.107415 
L 254.445195 238.224211 
L 254.445195 238.336272 
L 254.445195 238.205271 
L 254.445195 238.205271 
L 255.314805 238.099524 
L 255.314805 238.116885 
L 255.314805 237.809111 
L 255.314805 237.960631 
L 255.74961 238.056909 
L 255.74961 238.412032 
L 255.74961 238.410454 
L 256.184416 238.48937 
L 256.184416 238.386779 
L 256.184416 238.318911 
L 256.184416 238.653516 
L 256.619221 238.606166 
L 256.619221 238.734011 
L 256.619221 239.245388 
L 256.619221 239.122279 
L 257.054026 239.163315 
L 257.054026 239.079664 
L 257.054026 238.973916 
L 257.054026 239.117544 
L 257.923636 239.256437 
L 257.923636 239.278533 
L 257.923636 239.210665 
L 257.923636 239.267485 
L 258.358442 239.166472 
L 258.358442 239.305365 
L 258.358442 239.540535 
L 258.358442 239.482137 
L 258.793247 239.434787 
L 258.793247 239.532644 
L 258.793247 239.663645 
L 258.793247 239.65891 
L 259.228052 239.671536 
L 259.228052 239.598933 
L 259.228052 239.54527 
L 259.228052 239.791489 
L 259.228052 239.785176 
L 259.662857 239.684163 
L 259.662857 239.860936 
L 259.662857 239.939852 
L 260.097662 240.001407 
L 260.097662 240.108733 
L 260.097662 239.709416 
L 260.097662 239.766236 
L 260.532468 239.651018 
L 260.532468 239.824634 
L 260.967273 239.901972 
L 260.967273 239.755188 
L 260.967273 239.448992 
L 261.402078 239.436366 
L 261.402078 239.537379 
L 261.402078 239.729934 
L 261.402078 239.676271 
L 261.836883 239.568945 
L 261.836883 239.087556 
L 261.836883 239.128592 
L 262.271688 239.223292 
L 262.271688 239.542114 
L 262.271688 239.448992 
L 262.706494 239.551584 
L 262.706494 239.537379 
L 262.706494 239.662066 
L 263.141299 239.770971 
L 263.141299 239.965105 
L 263.141299 239.712573 
L 263.141299 239.925647 
L 263.576104 239.928804 
L 263.576104 239.829369 
L 263.576104 239.739404 
L 263.576104 239.854622 
L 263.576104 239.745718 
L 264.010909 239.747296 
L 264.010909 239.654175 
L 264.010909 239.180677 
L 264.445714 239.074929 
L 264.445714 238.793987 
L 265.315325 238.80977 
L 265.315325 238.871325 
L 265.315325 239.090712 
L 265.315325 238.82871 
L 265.315325 239.087556 
L 265.75013 239.185412 
L 265.75013 239.226448 
L 265.75013 238.994434 
L 265.75013 238.997591 
L 266.184935 238.997591 
L 266.184935 238.912361 
L 266.184935 238.756107 
L 266.184935 238.954976 
L 266.184935 238.782939 
L 266.61974 238.895 
L 266.61974 238.883952 
L 266.61974 239.093869 
L 267.054545 239.221713 
L 267.054545 239.373233 
L 267.054545 239.371654 
L 267.489351 239.527909 
L 267.489351 239.644705 
L 267.489351 239.561054 
L 267.924156 239.496342 
L 267.924156 239.603668 
L 267.924156 239.720464 
L 267.924156 239.436366 
L 267.924156 239.478981 
L 268.358961 239.598933 
L 268.358961 239.812007 
L 268.358961 239.665223 
L 269.228571 239.6305 
L 269.228571 239.701525 
L 269.228571 239.92249 
L 269.228571 239.862514 
L 269.663377 239.876719 
L 269.663377 239.780441 
L 269.663377 239.515282 
L 270.098182 239.513704 
L 270.098182 239.619452 
L 270.098182 239.750453 
L 270.098182 239.729934 
L 270.532987 239.605247 
L 270.532987 239.613138 
L 270.532987 239.502655 
L 270.532987 239.647861 
L 271.402597 239.767814 
L 271.402597 239.685741 
L 271.402597 239.534222 
L 271.402597 239.553162 
L 271.837403 239.617873 
L 271.837403 239.452149 
L 271.837403 239.007061 
L 272.272208 239.011796 
L 272.272208 238.901313 
L 272.272208 238.535142 
L 272.707013 238.563551 
L 272.707013 238.448334 
L 272.707013 238.533563 
L 272.707013 237.924329 
L 273.141818 237.821738 
L 273.141818 237.515543 
L 273.141818 237.531326 
L 273.576623 237.618134 
L 273.576623 237.45241 
L 273.576623 237.308782 
L 273.576623 237.547109 
L 274.011429 237.449253 
L 274.011429 237.256697 
L 274.011429 237.627604 
L 274.011429 237.599194 
L 274.446234 237.599194 
L 274.446234 237.709677 
L 274.446234 238.110572 
L 274.881039 238.118463 
L 274.881039 238.011137 
L 274.881039 237.870666 
L 274.881039 238.037969 
L 275.315844 238.000089 
L 275.315844 238.099524 
L 275.315844 238.363104 
L 275.315844 238.202115 
L 275.750649 238.105837 
L 275.750649 238.246308 
L 275.750649 238.8003 
L 276.185455 238.901313 
L 276.185455 239.221713 
L 276.185455 239.19646 
L 276.62026 239.218557 
L 276.62026 239.131749 
L 276.62026 239.068616 
L 276.62026 239.404799 
L 276.62026 239.387438 
L 277.055065 239.270642 
L 277.055065 239.306943 
L 277.055065 239.153845 
L 277.48987 239.267485 
L 277.48987 239.108074 
L 277.924675 239.048098 
L 277.924675 239.14911 
L 277.924675 239.17752 
L 277.924675 239.024423 
L 277.924675 239.079664 
L 278.359481 239.191725 
L 278.359481 239.010218 
L 278.359481 238.78136 
L 278.359481 238.94235 
L 278.794286 238.822397 
L 278.794286 238.525672 
L 278.794286 238.779782 
L 279.229091 238.85712 
L 279.229091 238.724541 
L 279.229091 238.579335 
L 279.663896 238.571443 
L 279.663896 238.642468 
L 279.663896 238.814505 
L 280.098701 238.748216 
L 280.098701 238.896578 
L 280.098701 239.046519 
L 280.098701 238.80977 
L 280.098701 238.891843 
L 280.533506 238.909205 
L 280.533506 238.830289 
L 280.533506 238.768734 
L 280.533506 238.95182 
L 280.533506 238.90447 
L 280.968312 239.016531 
L 280.968312 238.822397 
L 280.968312 238.782939 
L 280.968312 238.865012 
L 281.403117 238.958133 
L 281.403117 238.820819 
L 281.403117 238.798722 
L 281.403117 238.910783 
L 281.403117 238.831867 
L 281.837922 238.962868 
L 281.837922 238.958133 
L 281.837922 239.062302 
L 281.837922 238.94235 
L 281.837922 239.002326 
L 282.272727 238.860277 
L 282.272727 238.909205 
L 282.272727 238.61248 
L 282.272727 238.629841 
L 282.707532 238.751372 
L 282.707532 238.745059 
L 282.707532 238.721384 
L 282.707532 238.835024 
L 283.142338 238.863433 
L 283.142338 238.757686 
L 283.142338 238.664564 
L 283.142338 238.928145 
L 283.142338 238.893422 
L 283.577143 239.002326 
L 283.577143 239.463197 
L 283.577143 239.346401 
L 284.011948 239.463197 
L 284.011948 239.273798 
L 284.011948 239.228027 
L 284.011948 239.303786 
L 284.881558 239.351136 
L 284.881558 239.259593 
L 284.881558 239.073351 
L 284.881558 239.294316 
L 284.881558 239.250123 
L 285.316364 239.288003 
L 285.316364 239.22487 
L 285.316364 239.163315 
L 285.316364 239.327461 
L 285.316364 239.258015 
L 286.185974 239.403221 
L 286.185974 239.551584 
L 286.185974 239.392173 
L 286.185974 239.497921 
L 286.620779 239.447414 
L 286.620779 239.520017 
L 286.620779 239.584728 
L 286.620779 239.483716 
L 286.620779 239.486872 
L 287.055584 239.491607 
L 287.055584 239.392173 
L 287.055584 239.311678 
L 287.055584 239.55474 
L 287.055584 239.485294 
L 287.49039 239.490029 
L 287.49039 239.415848 
L 287.49039 239.030736 
L 287.49039 239.030736 
L 287.925195 239.082821 
L 287.925195 238.94235 
L 287.925195 238.84765 
L 287.925195 238.984964 
L 288.36 239.108074 
L 288.36 239.150689 
L 288.36 238.958133 
L 288.36 238.967603 
L 288.794805 238.967603 
L 288.794805 239.068616 
L 288.794805 239.366919 
L 288.794805 239.286425 
L 289.22961 239.20593 
L 289.22961 239.311678 
L 289.22961 239.428474 
L 289.22961 239.2154 
L 289.664416 239.30063 
L 289.664416 239.147532 
L 289.664416 239.120701 
L 289.664416 239.28169 
L 289.664416 239.16805 
L 290.099221 239.190147 
L 290.099221 239.109652 
L 290.099221 238.746637 
L 290.099221 238.853963 
L 290.534026 238.730854 
L 290.534026 238.749794 
L 290.534026 238.487792 
L 290.534026 238.573021 
L 290.968831 238.580913 
L 290.968831 238.484635 
L 290.968831 238.227368 
L 290.968831 238.391514 
L 291.403636 238.443599 
L 291.403636 238.497262 
L 291.403636 238.393092 
L 291.403636 238.601431 
L 291.838442 238.601431 
L 291.838442 238.550925 
L 291.838442 238.311019 
L 292.273247 238.426237 
L 292.273247 238.394671 
L 292.273247 238.648781 
L 292.273247 238.520937 
L 293.142857 238.408875 
L 293.142857 238.213163 
L 293.142857 238.541455 
L 293.142857 238.525672 
L 293.577662 238.554081 
L 293.577662 238.449912 
L 293.577662 238.17844 
L 293.577662 238.23526 
L 294.012468 238.359947 
L 294.012468 238.41361 
L 294.012468 238.05533 
L 294.447273 237.960631 
L 294.447273 237.996932 
L 294.447273 237.894341 
L 294.447273 238.011137 
L 294.447273 237.935378 
L 294.882078 237.905389 
L 294.882078 237.837521 
L 294.882078 237.537639 
L 295.316883 237.537639 
L 295.316883 237.635496 
L 295.316883 237.787015 
L 295.316883 237.614977 
L 295.316883 237.671797 
L 295.751688 237.817003 
L 295.751688 237.862775 
L 295.751688 237.626026 
L 295.751688 237.657592 
L 296.186494 237.769653 
L 296.186494 237.742822 
L 296.186494 237.832786 
L 296.186494 237.823316 
L 296.621299 237.709677 
L 296.621299 237.768075 
L 296.621299 237.545531 
L 297.056104 237.491868 
L 297.056104 237.555001 
L 297.056104 237.68758 
L 297.056104 237.613399 
L 297.490909 237.667062 
L 297.490909 237.521856 
L 297.490909 237.198299 
L 297.490909 237.250384 
L 297.925714 237.209348 
L 297.925714 237.297734 
L 297.925714 237.567628 
L 297.925714 237.299312 
L 298.360519 237.176203 
L 298.360519 236.653777 
L 298.360519 236.803718 
L 298.795325 236.701127 
L 298.795325 236.200797 
L 298.795325 236.208689 
L 299.23013 236.148712 
L 299.23013 235.460562 
L 299.23013 235.534743 
L 299.664935 235.414791 
L 299.664935 235.424261 
L 299.664935 235.083342 
L 299.664935 235.473189 
L 299.664935 235.182777 
L 300.09974 235.11333 
L 300.09974 235.114909 
L 300.09974 234.652459 
L 300.09974 234.701387 
L 300.534545 234.718749 
L 300.534545 234.620893 
L 300.534545 233.770175 
L 300.534545 233.809633 
L 300.969351 233.885393 
L 300.969351 233.790693 
L 300.969351 233.415051 
L 300.969351 233.422943 
L 301.404156 233.250905 
L 301.404156 233.411895 
L 301.404156 233.536583 
L 301.404156 233.336135 
L 301.404156 233.364545 
L 301.838961 233.356653 
L 301.838961 233.470293 
L 301.838961 234.117407 
L 301.838961 234.081105 
L 302.273766 234.15213 
L 302.273766 234.147395 
L 302.273766 234.50094 
L 302.708571 234.613001 
L 302.708571 234.603531 
L 302.708571 235.088077 
L 302.708571 235.045462 
L 303.143377 234.92551 
L 303.143377 235.037571 
L 303.143377 235.242753 
L 303.143377 235.137005 
L 303.578182 235.269585 
L 303.578182 235.25538 
L 303.578182 235.375333 
L 303.578182 235.252223 
L 303.578182 235.28379 
L 304.012987 235.190668 
L 304.012987 234.889208 
L 304.012987 235.064402 
L 304.447792 235.084921 
L 304.447792 235.006004 
L 304.447792 234.912883 
L 304.447792 235.558418 
L 304.447792 235.534743 
L 304.882597 235.440044 
L 304.882597 235.25538 
L 304.882597 235.30273 
L 305.317403 235.343766 
L 305.317403 235.337453 
L 305.317403 235.754131 
L 305.317403 235.458984 
L 305.752208 235.451092 
L 305.752208 235.539478 
L 305.752208 235.635756 
L 305.752208 235.332718 
L 305.752208 235.350079 
L 306.187013 235.405321 
L 306.187013 235.316934 
L 306.187013 235.288525 
L 306.187013 235.484237 
L 306.187013 235.46214 
L 306.621818 235.342188 
L 306.621818 235.272741 
L 306.621818 235.859879 
L 306.621818 235.840939 
L 307.056623 235.727299 
L 307.056623 235.463719 
L 307.056623 235.713094 
L 307.491429 235.755709 
L 307.491429 235.678371 
L 307.491429 235.256958 
L 307.491429 235.332718 
L 307.926234 235.463719 
L 307.926234 235.514225 
L 307.926234 235.309043 
L 307.926234 235.375333 
L 308.361039 235.506334 
L 308.361039 235.667323 
L 308.361039 235.435309 
L 308.361039 235.577358 
L 308.795844 235.673636 
L 308.795844 236.012976 
L 308.795844 235.814107 
L 309.230649 235.960892 
L 309.230649 235.959313 
L 309.230649 236.033495 
L 309.230649 235.941952 
L 309.230649 235.987723 
L 309.665455 236.125037 
L 309.665455 236.413871 
L 309.665455 236.24499 
L 310.10026 236.342846 
L 310.10026 236.614319 
L 310.10026 236.592222 
L 310.535065 236.671138 
L 310.535065 236.66956 
L 310.535065 236.740585 
L 310.535065 236.303388 
L 310.535065 236.447016 
L 310.96987 236.544872 
L 310.96987 236.371256 
L 310.96987 235.803059 
L 310.96987 236.027181 
L 311.404675 236.125037 
L 311.404675 236.112411 
L 311.404675 236.202375 
L 311.404675 235.875662 
L 311.839481 235.918277 
L 311.839481 235.795167 
L 311.839481 235.948265 
L 311.839481 235.482659 
L 312.274286 235.577358 
L 312.274286 236.178701 
L 312.274286 236.003506 
L 312.709091 235.902493 
L 312.709091 235.452671 
L 313.143896 235.346923 
L 313.143896 234.961811 
L 313.143896 235.351658 
L 313.143896 235.121222 
L 313.578701 235.001269 
L 313.578701 234.635098 
L 313.578701 234.657194 
L 314.013506 234.524615 
L 314.013506 234.365204 
L 314.013506 234.682447 
L 314.013506 234.482 
L 314.448312 234.553025 
L 314.448312 234.392035 
L 314.448312 234.125298 
L 314.883117 233.987984 
L 314.883117 233.778066 
L 314.883117 233.817525 
L 315.317922 233.702307 
L 315.317922 232.955758 
L 315.317922 233.705463 
L 315.317922 232.97312 
L 315.752727 232.873686 
L 315.752727 232.056113 
L 315.752727 232.141342 
L 316.187532 231.994558 
L 316.187532 230.365725 
L 316.622338 230.272604 
L 316.622338 230.280496 
L 316.622338 229.903276 
L 316.622338 230.119506 
L 317.057143 229.971144 
L 317.057143 229.980614 
L 317.057143 228.949967 
L 317.057143 229.028883 
L 317.491948 229.028883 
L 317.491948 229.0131 
L 317.491948 228.302853 
L 317.491948 228.381769 
L 317.926753 228.523819 
L 317.926753 228.602735 
L 317.926753 227.355857 
L 318.361558 227.355857 
L 318.361558 227.46634 
L 318.361558 227.892488 
L 318.361558 227.450557 
L 318.361558 227.671522 
L 318.796364 227.718872 
L 318.796364 228.397552 
L 318.796364 228.081887 
L 319.231169 227.955621 
L 319.231169 227.955621 
L 319.231169 227.782005 
L 319.231169 228.081887 
L 319.231169 227.924055 
L 319.665974 227.813572 
L 319.665974 227.829355 
L 319.665974 227.261158 
L 319.665974 227.276941 
L 320.100779 227.308507 
L 320.100779 227.245374 
L 320.100779 226.74031 
L 320.100779 226.803443 
L 320.535584 226.882359 
L 320.535584 227.37164 
L 320.97039 227.308507 
L 320.97039 227.387424 
L 320.97039 227.908271 
L 320.97039 227.908271 
L 321.405195 227.971404 
L 321.405195 228.839484 
L 321.405195 228.823701 
L 321.84 228.855267 
L 321.84 228.760568 
L 321.84 228.508035 
L 321.84 228.9184 
L 321.84 228.539602 
L 322.274805 228.444902 
L 322.274805 228.618518 
L 322.274805 228.729001 
L 322.274805 228.318636 
L 322.70961 228.19237 
L 322.70961 228.002971 
L 322.70961 228.208153 
L 323.144416 228.365986 
L 323.144416 228.839484 
L 323.144416 228.744784 
L 323.579221 228.681651 
L 323.579221 228.729001 
L 323.579221 229.150414 
L 323.579221 229.028883 
L 324.014026 228.934183 
L 324.014026 228.823701 
L 324.014026 229.31456 
L 324.014026 229.204077 
L 324.448831 229.349283 
L 324.448831 229.568671 
L 324.448831 229.317717 
L 324.448831 229.453453 
L 324.883636 229.357175 
L 324.883636 229.36191 
L 324.883636 229.224595 
L 324.883636 229.810154 
L 324.883636 229.740708 
L 325.318442 229.810154 
L 325.318442 229.988505 
L 325.318442 229.690202 
L 325.318442 229.751756 
L 325.753247 229.650743 
L 325.753247 229.747021 
L 325.753247 229.904854 
L 325.753247 229.639695 
L 326.188052 229.751756 
L 326.188052 229.57814 
L 326.188052 229.571827 
L 326.188052 229.718612 
L 326.188052 229.598659 
L 326.622857 229.70125 
L 326.622857 229.598659 
L 326.622857 229.159884 
L 326.622857 229.331922 
L 327.057662 229.208812 
L 327.057662 229.202499 
L 327.057662 229.620755 
L 327.057662 229.440826 
L 327.492468 229.571827 
L 327.492468 229.431356 
L 327.492468 229.265632 
L 327.492468 229.319295 
L 327.927273 229.440826 
L 327.927273 229.603394 
L 327.927273 229.125161 
L 328.362078 228.997316 
L 328.362078 228.997316 
L 328.362078 228.586952 
L 328.362078 228.650085 
L 328.796883 228.460686 
L 328.796883 227.876705 
L 329.231688 228.002971 
L 329.231688 228.460686 
L 329.231688 228.460686 
L 329.666494 228.429119 
L 329.666494 228.539602 
L 329.666494 228.760568 
L 329.666494 228.476469 
L 329.666494 228.618518 
L 330.101299 228.681651 
L 330.101299 228.681651 
L 330.101299 228.9184 
L 330.101299 228.665868 
L 330.101299 228.807917 
L 330.536104 228.87105 
L 330.536104 228.760568 
L 330.536104 227.592606 
L 330.970909 227.41899 
L 330.970909 227.482123 
L 330.970909 227.055975 
L 330.970909 227.308507 
L 331.405714 227.324291 
L 331.405714 227.213808 
L 331.405714 226.677177 
L 331.405714 226.724527 
L 331.840519 226.882359 
L 331.840519 226.945492 
L 331.840519 226.408862 
L 331.840519 226.424645 
L 332.275325 226.329945 
L 332.275325 225.272467 
L 332.275325 225.319816 
L 332.71013 225.256683 
L 332.71013 225.382949 
L 332.71013 225.398733 
L 332.71013 223.946673 
L 332.71013 223.946673 
L 333.144935 223.962456 
L 333.144935 223.88354 
L 333.144935 222.510396 
L 333.57974 222.320997 
L 333.57974 220.190256 
L 334.014545 220.032424 
L 334.014545 218.264698 
L 334.449351 218.138432 
L 334.449351 216.307574 
L 334.884156 216.370707 
L 334.884156 216.307574 
L 334.884156 214.2084 
L 335.318961 214.082134 
L 335.318961 214.082134 
L 335.318961 210.893915 
L 335.753766 210.783432 
L 335.753766 205.701222 
L 336.188571 205.574956 
L 336.188571 197.856941 
L 336.623377 197.588625 
L 336.623377 189.507595 
L 337.058182 189.176147 
L 337.058182 182.341995 
L 337.492987 182.152595 
L 337.492987 177.322917 
L 337.927792 177.101952 
L 337.927792 173.045653 
L 337.927792 173.345535 
L 338.362597 173.108786 
L 338.362597 170.504548 
L 338.797403 170.425632 
L 338.797403 170.441415 
L 338.797403 169.952134 
L 338.797403 170.772864 
L 338.797403 170.567681 
L 339.232208 170.772864 
L 339.232208 170.472982 
L 339.232208 173.282402 
L 339.667013 173.392885 
L 339.667013 178.285696 
L 340.101818 178.459312 
L 340.101818 181.915847 
L 340.536623 182.152595 
L 340.536623 186.272027 
L 340.971429 186.445643 
L 340.971429 186.24046 
L 340.971429 188.844698 
L 341.406234 188.986748 
L 341.406234 191.985568 
L 341.406234 191.985568 
L 341.841039 191.985568 
L 341.841039 193.974259 
L 342.275844 194.005825 
L 342.275844 195.14222 
L 342.710649 195.363186 
L 342.710649 196.199698 
L 342.710649 195.899816 
L 343.145455 195.678851 
L 343.145455 195.457885 
L 343.145455 195.789334 
L 343.145455 195.568368 
L 343.58026 195.315836 
L 343.58026 195.378969 
L 343.58026 194.116308 
L 344.015065 194.053175 
L 344.015065 194.116308 
L 344.015065 194.731855 
L 344.015065 194.037392 
L 344.015065 194.211007 
L 344.44987 194.305707 
L 344.44987 194.211007 
L 344.44987 193.879559 
L 344.44987 195.079087 
L 344.884675 195.18957 
L 344.884675 195.173786 
L 344.884675 196.988862 
L 344.884675 196.988862 
L 345.319481 197.115128 
L 345.319481 198.535621 
L 345.319481 198.472488 
L 345.754286 198.504055 
L 345.754286 200.682145 
L 346.189091 200.713711 
L 346.189091 200.508529 
L 346.189091 203.065417 
L 346.623896 203.239033 
L 346.623896 206.758701 
L 347.058701 206.979666 
L 347.058701 209.141973 
L 347.058701 209.141973 
L 347.493506 209.12619 
L 347.493506 209.236673 
L 347.493506 212.046093 
L 347.493506 212.014527 
L 347.928312 212.07766 
L 347.928312 214.713465 
L 348.363117 214.760814 
L 348.363117 217.317703 
L 348.797922 217.491319 
L 348.797922 218.517231 
L 349.232727 218.801329 
L 349.232727 219.637842 
L 349.232727 219.590492 
L 349.667532 219.558926 
L 349.667532 219.606276 
L 349.667532 220.79002 
L 349.667532 220.742671 
L 350.102338 220.868937 
L 350.102338 221.989548 
L 350.102338 221.973765 
L 350.537143 222.147381 
L 350.537143 223.488958 
L 350.537143 223.441608 
L 350.971948 223.394259 
L 350.971948 223.488958 
L 350.971948 224.341254 
L 351.406753 224.451737 
L 351.406753 224.420171 
L 351.406753 225.367166 
L 351.841558 225.367166 
L 351.841558 225.477649 
L 351.841558 226.06163 
L 352.276364 226.077413 
L 352.276364 225.998497 
L 352.276364 225.951147 
L 352.276364 227.087542 
L 352.711169 227.229591 
L 352.711169 228.28707 
L 352.711169 228.28707 
L 353.145974 228.413336 
L 353.145974 229.423465 
L 353.145974 229.406103 
L 353.580779 229.451874 
L 353.580779 230.280496 
L 353.580779 230.228411 
L 354.015584 230.338894 
L 354.015584 230.293122 
L 354.015584 231.142262 
L 354.45039 231.295359 
L 354.45039 232.204475 
L 354.45039 232.147655 
L 354.885195 232.270765 
L 354.885195 233.577619 
L 355.32 233.692837 
L 355.32 234.592483 
L 355.32 234.496205 
L 355.754805 234.589326 
L 355.754805 234.931823 
L 355.754805 234.455168 
L 355.754805 234.911305 
L 356.18961 234.838702 
L 356.18961 234.957076 
L 356.18961 235.530008 
L 356.624416 235.400586 
L 356.624416 235.29326 
L 356.624416 235.913542 
L 357.059221 236.039808 
L 357.059221 236.544872 
L 357.494026 236.65062 
L 357.494026 236.649042 
L 357.494026 236.661668 
L 357.494026 236.445438 
L 357.494026 236.642728 
L 357.928831 236.789513 
L 357.928831 236.727958 
L 357.928831 236.955237 
L 358.363636 237.057828 
L 358.363636 237.051515 
L 358.363636 237.179359 
L 358.363636 236.917357 
L 358.363636 237.007322 
L 358.798442 237.119383 
L 358.798442 237.761762 
L 359.233247 237.835943 
L 359.233247 238.307863 
L 359.233247 238.257356 
L 359.668052 238.440442 
L 359.668052 238.822397 
L 359.668052 238.805035 
L 360.102857 238.81924 
L 360.102857 238.726119 
L 360.102857 238.418345 
L 360.102857 238.732432 
L 360.102857 238.462539 
L 360.537662 238.563551 
L 360.537662 238.81924 
L 360.972468 238.705601 
L 360.972468 238.839758 
L 360.972468 239.016531 
L 360.972468 239.008639 
L 361.407273 239.142797 
L 361.407273 239.138062 
L 361.407273 239.644705 
L 361.407273 239.622608 
L 361.842078 239.567367 
L 361.842078 239.665223 
L 361.842078 240.141878 
L 362.276883 240.2713 
L 362.276883 240.383361 
L 362.711688 240.520676 
L 362.711688 240.6864 
L 362.711688 240.500158 
L 363.146494 240.503314 
L 363.146494 240.397566 
L 363.146494 240.269722 
L 363.146494 240.334433 
L 363.581299 240.482796 
L 363.581299 240.459121 
L 363.581299 240.495423 
L 364.016104 240.669039 
L 364.016104 240.823714 
L 364.450909 240.927884 
L 364.450909 240.923149 
L 364.450909 241.030475 
L 364.450909 240.948402 
L 364.885714 240.908944 
L 364.885714 241.017849 
L 364.885714 241.142536 
L 364.885714 241.11097 
L 365.320519 241.087295 
L 365.320519 241.193043 
L 365.320519 241.264067 
L 365.320519 241.164633 
L 365.320519 241.240393 
L 365.755325 241.153585 
L 365.755325 240.919992 
L 365.755325 241.172525 
L 365.755325 241.062042 
L 366.19013 241.125175 
L 366.19013 240.99733 
L 366.19013 240.967342 
L 366.19013 241.002065 
L 367.05974 240.976812 
L 367.05974 241.461358 
L 367.05974 241.349297 
L 367.929351 241.361924 
L 367.929351 241.363502 
L 367.929351 241.598673 
L 367.929351 241.565528 
L 368.364156 241.576576 
L 368.364156 241.503973 
L 368.364156 241.464515 
L 368.364156 241.810168 
L 368.798961 241.76124 
L 368.798961 241.890663 
L 368.798961 241.942748 
L 368.798961 241.819638 
L 368.798961 241.906446 
L 369.233766 241.78965 
L 369.233766 241.633396 
L 369.233766 241.77071 
L 369.668571 241.814903 
L 369.668571 241.709155 
L 369.668571 241.612878 
L 369.668571 241.729674 
L 369.668571 241.672854 
L 370.103377 241.556058 
L 370.103377 241.473985 
L 370.103377 241.603408 
L 370.103377 241.52607 
L 370.538182 241.518178 
L 370.538182 241.625504 
L 370.538182 241.819638 
L 370.538182 241.657071 
L 371.407792 241.822795 
L 371.407792 241.949061 
L 371.842597 241.906446 
L 371.842597 242.020086 
L 371.842597 242.042182 
L 371.842597 242.023242 
L 372.712208 241.983784 
L 372.712208 242.048496 
L 372.712208 242.116364 
L 372.712208 242.031134 
L 373.581818 242.037447 
L 373.581818 242.037447 
" style="fill:none;stroke:#1f77b4;stroke-linecap:square;stroke-width:1.5;"/>
   </g>
   <g id="line2d_10">
    <path clip-path="url(#p862b78a735)" d="M 69.218182 201.541265 
L 74.435844 196.828573 
L 74.435844 196.828573 
L 79.653506 191.79504 
L 79.653506 191.79504 
L 84.871169 186.445135 
L 84.871169 186.445135 
L 90.088831 180.787367 
L 90.088831 180.787367 
L 95.741299 174.325693 
L 95.741299 174.325693 
L 101.828571 167.005585 
L 101.828571 167.005585 
L 108.350649 158.787395 
L 108.350649 158.787395 
L 115.307532 149.655635 
L 115.307532 149.655635 
L 123.568831 138.434237 
L 123.568831 138.434237 
L 136.612987 120.274752 
L 136.612987 120.274752 
L 148.787532 103.442024 
L 148.787532 103.442024 
L 156.179221 93.585407 
L 156.179221 93.585407 
L 162.266494 85.819847 
L 162.266494 85.819847 
L 167.484156 79.493508 
L 167.484156 79.493508 
L 172.267013 74.014831 
L 172.267013 74.014831 
L 176.615065 69.338324 
L 176.615065 69.338324 
L 180.963117 64.984162 
L 180.963117 64.984162 
L 184.876364 61.36586 
L 184.876364 61.36586 
L 188.78961 58.053517 
L 188.78961 58.053517 
L 192.268052 55.381497 
L 192.268052 55.381497 
L 195.746494 52.97857 
L 195.746494 52.97857 
L 199.224935 50.855879 
L 199.224935 50.855879 
L 202.268571 49.23624 
L 202.268571 49.23624 
L 205.312208 47.84461 
L 205.312208 47.84461 
L 208.355844 46.686033 
L 208.355844 46.686033 
L 211.399481 45.764722 
L 211.399481 45.764722 
L 214.443117 45.084043 
L 214.443117 45.084043 
L 217.486753 44.646487 
L 217.486753 44.646487 
L 220.53039 44.453658 
L 220.53039 44.453658 
L 223.574026 44.506266 
L 223.574026 44.506266 
L 226.617662 44.804117 
L 226.617662 44.804117 
L 229.661299 45.346118 
L 229.661299 45.346118 
L 232.704935 46.130281 
L 232.704935 46.130281 
L 235.748571 47.153739 
L 235.748571 47.153739 
L 238.792208 48.412761 
L 238.792208 48.412761 
L 241.835844 49.902774 
L 241.835844 49.902774 
L 244.879481 51.618391 
L 244.879481 51.618391 
L 248.357922 53.8474 
L 248.357922 53.8474 
L 251.836364 56.352606 
L 251.836364 56.352606 
L 255.314805 59.122428 
L 255.314805 59.122428 
L 259.228052 62.538951 
L 259.228052 62.538951 
L 263.141299 66.254744 
L 263.141299 66.254744 
L 267.489351 70.708841 
L 267.489351 70.708841 
L 271.837403 75.475948 
L 271.837403 75.475948 
L 276.62026 81.043008 
L 276.62026 81.043008 
L 281.837922 87.451839 
L 281.837922 87.451839 
L 287.925195 95.294887 
L 287.925195 95.294887 
L 295.316883 105.218338 
L 295.316883 105.218338 
L 305.317403 119.060092 
L 305.317403 119.060092 
L 323.579221 144.382843 
L 323.579221 144.382843 
L 331.405714 154.834359 
L 331.405714 154.834359 
L 338.362597 163.762141 
L 338.362597 163.762141 
L 344.44987 171.232565 
L 344.44987 171.232565 
L 350.102338 177.846869 
L 350.102338 177.846869 
L 355.754805 184.12451 
L 355.754805 184.12451 
L 360.972468 189.603968 
L 360.972468 189.603968 
L 366.19013 194.770091 
L 366.19013 194.770091 
L 371.407792 199.616763 
L 371.407792 199.616763 
L 373.581818 201.541265 
L 373.581818 201.541265 
" style="fill:none;stroke:#ff7f0e;stroke-dasharray:5.55,2.4;stroke-dashoffset:0;stroke-opacity:0.3;stroke-width:1.5;"/>
   </g>
   <g id="line2d_11">
    <path clip-path="url(#p862b78a735)" d="M 69.218182 219.106676 
L 74.870649 215.967499 
L 74.870649 215.967499 
L 80.523117 212.582925 
L 80.523117 212.582925 
L 86.61039 208.665352 
L 86.61039 208.665352 
L 92.697662 204.471289 
L 92.697662 204.471289 
L 98.784935 200.012102 
L 98.784935 200.012102 
L 105.307013 194.959336 
L 105.307013 194.959336 
L 112.263896 189.286981 
L 112.263896 189.286981 
L 120.09039 182.61005 
L 120.09039 182.61005 
L 129.656104 174.1337 
L 129.656104 174.1337 
L 159.657662 147.282122 
L 159.657662 147.282122 
L 166.614545 141.494772 
L 166.614545 141.494772 
L 172.701818 136.719437 
L 172.701818 136.719437 
L 177.919481 132.888798 
L 177.919481 132.888798 
L 183.137143 129.339242 
L 183.137143 129.339242 
L 187.92 126.362189 
L 187.92 126.362189 
L 192.268052 123.90727 
L 192.268052 123.90727 
L 196.616104 121.709845 
L 196.616104 121.709845 
L 200.529351 119.965372 
L 200.529351 119.965372 
L 204.442597 118.452491 
L 204.442597 118.452491 
L 208.355844 117.180166 
L 208.355844 117.180166 
L 212.269091 116.155991 
L 212.269091 116.155991 
L 216.182338 115.386115 
L 216.182338 115.386115 
L 219.660779 114.919057 
L 219.660779 114.919057 
L 223.139221 114.658853 
L 223.139221 114.658853 
L 226.617662 114.606749 
L 226.617662 114.606749 
L 230.096104 114.762997 
L 230.096104 114.762997 
L 233.574545 115.126846 
L 233.574545 115.126846 
L 237.052987 115.696554 
L 237.052987 115.696554 
L 240.531429 116.4694 
L 240.531429 116.4694 
L 244.444675 117.577048 
L 244.444675 117.577048 
L 248.357922 118.930472 
L 248.357922 118.930472 
L 252.271169 120.521611 
L 252.271169 120.521611 
L 256.184416 122.341065 
L 256.184416 122.341065 
L 260.532468 124.61747 
L 260.532468 124.61747 
L 264.880519 127.146319 
L 264.880519 127.146319 
L 269.663377 130.198338 
L 269.663377 130.198338 
L 274.446234 133.508689 
L 274.446234 133.508689 
L 279.663896 137.382651 
L 279.663896 137.382651 
L 285.316364 141.84701 
L 285.316364 141.84701 
L 291.838442 147.282122 
L 291.838442 147.282122 
L 299.664935 154.103791 
L 299.664935 154.103791 
L 310.96987 164.285385 
L 310.96987 164.285385 
L 328.362078 179.944222 
L 328.362078 179.944222 
L 337.058182 187.460931 
L 337.058182 187.460931 
L 344.44987 193.567159 
L 344.44987 193.567159 
L 351.406753 199.023572 
L 351.406753 199.023572 
L 357.928831 203.850163 
L 357.928831 203.850163 
L 364.016104 208.082919 
L 364.016104 208.082919 
L 370.103377 212.040492 
L 370.103377 212.040492 
L 373.581818 214.17551 
L 373.581818 214.17551 
" style="fill:none;stroke:#2ca02c;stroke-dasharray:5.55,2.4;stroke-dashoffset:0;stroke-opacity:0.3;stroke-width:1.5;"/>
   </g>
   <g id="patch_3">
    <path d="M 54 252 
L 54 34.56 
" style="fill:none;stroke:#000000;stroke-linecap:square;stroke-linejoin:miter;stroke-width:0.8;"/>
   </g>
   <g id="patch_4">
    <path d="M 54 252 
L 388.8 252 
" style="fill:none;stroke:#000000;stroke-linecap:square;stroke-linejoin:miter;stroke-width:0.8;"/>
   </g>
   <g id="text_10">
    <!-- 68.85 kDa -->
    <g transform="translate(221.4 40.434688)scale(0.1 -0.1)">
     <defs>
      <path d="M 2113 2584 
Q 1688 2584 1439 2293 
Q 1191 2003 1191 1497 
Q 1191 994 1439 701 
Q 1688 409 2113 409 
Q 2538 409 2786 701 
Q 3034 994 3034 1497 
Q 3034 2003 2786 2293 
Q 2538 2584 2113 2584 
z
M 3366 4563 
L 3366 3988 
Q 3128 4100 2886 4159 
Q 2644 4219 2406 4219 
Q 1781 4219 1451 3797 
Q 1122 3375 1075 2522 
Q 1259 2794 1537 2939 
Q 1816 3084 2150 3084 
Q 2853 3084 3261 2657 
Q 3669 2231 3669 1497 
Q 3669 778 3244 343 
Q 2819 -91 2113 -91 
Q 1303 -91 875 529 
Q 447 1150 447 2328 
Q 447 3434 972 4092 
Q 1497 4750 2381 4750 
Q 2619 4750 2861 4703 
Q 3103 4656 3366 4563 
z
" id="DejaVuSans-36" transform="scale(0.015625)"/>
      <path d="M 684 794 
L 1344 794 
L 1344 0 
L 684 0 
L 684 794 
z
" id="DejaVuSans-2e" transform="scale(0.015625)"/>
      <path d="M 691 4666 
L 3169 4666 
L 3169 4134 
L 1269 4134 
L 1269 2991 
Q 1406 3038 1543 3061 
Q 1681 3084 1819 3084 
Q 2600 3084 3056 2656 
Q 3513 2228 3513 1497 
Q 3513 744 3044 326 
Q 2575 -91 1722 -91 
Q 1428 -91 1123 -41 
Q 819 9 494 109 
L 494 744 
Q 775 591 1075 516 
Q 1375 441 1709 441 
Q 2250 441 2565 725 
Q 2881 1009 2881 1497 
Q 2881 1984 2565 2268 
Q 2250 2553 1709 2553 
Q 1456 2553 1204 2497 
Q 953 2441 691 2322 
L 691 4666 
z
" id="DejaVuSans-35" transform="scale(0.015625)"/>
      <path id="DejaVuSans-20" transform="scale(0.015625)"/>
      <path d="M 581 4863 
L 1159 4863 
L 1159 1991 
L 2875 3500 
L 3609 3500 
L 1753 1863 
L 3688 0 
L 2938 0 
L 1159 1709 
L 1159 0 
L 581 0 
L 581 4863 
z
" id="DejaVuSans-6b" transform="scale(0.015625)"/>
      <path d="M 1259 4147 
L 1259 519 
L 2022 519 
Q 2988 519 3436 956 
Q 3884 1394 3884 2338 
Q 3884 3275 3436 3711 
Q 2988 4147 2022 4147 
L 1259 4147 
z
M 628 4666 
L 1925 4666 
Q 3281 4666 3915 4102 
Q 4550 3538 4550 2338 
Q 4550 1131 3912 565 
Q 3275 0 1925 0 
L 628 0 
L 628 4666 
z
" id="DejaVuSans-44" transform="scale(0.015625)"/>
      <path d="M 2194 1759 
Q 1497 1759 1228 1600 
Q 959 1441 959 1056 
Q 959 750 1161 570 
Q 1363 391 1709 391 
Q 2188 391 2477 730 
Q 2766 1069 2766 1631 
L 2766 1759 
L 2194 1759 
z
M 3341 1997 
L 3341 0 
L 2766 0 
L 2766 531 
Q 2569 213 2275 61 
Q 1981 -91 1556 -91 
Q 1019 -91 701 211 
Q 384 513 384 1019 
Q 384 1609 779 1909 
Q 1175 2209 1959 2209 
L 2766 2209 
L 2766 2266 
Q 2766 2663 2505 2880 
Q 2244 3097 1772 3097 
Q 1472 3097 1187 3025 
Q 903 2953 641 2809 
L 641 3341 
Q 956 3463 1253 3523 
Q 1550 3584 1831 3584 
Q 2591 3584 2966 3190 
Q 3341 2797 3341 1997 
z
" id="DejaVuSans-61" transform="scale(0.015625)"/>
     </defs>
     <use xlink:href="#DejaVuSans-36"/>
     <use x="63.623047" xlink:href="#DejaVuSans-38"/>
     <use x="127.246094" xlink:href="#DejaVuSans-2e"/>
     <use x="159.033203" xlink:href="#DejaVuSans-38"/>
     <use x="222.65625" xlink:href="#DejaVuSans-35"/>
     <use x="286.279297" xlink:href="#DejaVuSans-20"/>
     <use x="318.066406" xlink:href="#DejaVuSans-6b"/>
     <use x="375.976562" xlink:href="#DejaVuSans-44"/>
     <use x="452.978516" xlink:href="#DejaVuSans-61"/>
    </g>
   </g>
   <g id="text_11">
    <!-- 69.02 kDa -->
    <g transform="translate(230.096104 108.586812)scale(0.1 -0.1)">
     <use xlink:href="#DejaVuSans-36"/>
     <use x="63.623047" xlink:href="#DejaVuSans-39"/>
     <use x="127.246094" xlink:href="#DejaVuSans-2e"/>
     <use x="159.033203" xlink:href="#DejaVuSans-30"/>
     <use x="222.65625" xlink:href="#DejaVuSans-32"/>
     <use x="286.279297" xlink:href="#DejaVuSans-20"/>
     <use x="318.066406" xlink:href="#DejaVuSans-6b"/>
     <use x="375.976562" xlink:href="#DejaVuSans-44"/>
     <use x="452.978516" xlink:href="#DejaVuSans-61"/>
    </g>
   </g>
   <g id="text_12">
    <!-- 17 + -->
    <g transform="translate(221.4 30.412317)scale(0.1 -0.1)">
     <defs>
      <path d="M 2944 4013 
L 2944 2272 
L 4684 2272 
L 4684 1741 
L 2944 1741 
L 2944 0 
L 2419 0 
L 2419 1741 
L 678 1741 
L 678 2272 
L 2419 2272 
L 2419 4013 
L 2944 4013 
z
" id="DejaVuSans-2b" transform="scale(0.015625)"/>
     </defs>
     <use xlink:href="#DejaVuSans-31"/>
     <use x="63.623047" xlink:href="#DejaVuSans-37"/>
     <use x="127.246094" xlink:href="#DejaVuSans-20"/>
     <use x="159.033203" xlink:href="#DejaVuSans-2b"/>
    </g>
   </g>
   <g id="legend_1">
    <g id="patch_5">
     <path d="M 58.9 60.709375 
L 200.4225 60.709375 
Q 201.8225 60.709375 201.8225 59.309375 
L 201.8225 39.46 
Q 201.8225 38.06 200.4225 38.06 
L 58.9 38.06 
Q 57.5 38.06 57.5 39.46 
L 57.5 59.309375 
Q 57.5 60.709375 58.9 60.709375 
z
" style="fill:#ffffff;opacity:0.8;stroke:#cccccc;stroke-linejoin:miter;"/>
    </g>
    <g id="line2d_12">
     <path d="M 60.3 43.728906 
L 74.3 43.728906 
" style="fill:none;stroke:#ff7f0e;stroke-dasharray:5.55,2.4;stroke-dashoffset:0;stroke-opacity:0.3;stroke-width:1.5;"/>
    </g>
    <g id="line2d_13"/>
    <g id="text_13">
     <!-- 1st population : Dimer -->
     <g transform="translate(79.9 46.178906)scale(0.07 -0.07)">
      <defs>
       <path d="M 2834 3397 
L 2834 2853 
Q 2591 2978 2328 3040 
Q 2066 3103 1784 3103 
Q 1356 3103 1142 2972 
Q 928 2841 928 2578 
Q 928 2378 1081 2264 
Q 1234 2150 1697 2047 
L 1894 2003 
Q 2506 1872 2764 1633 
Q 3022 1394 3022 966 
Q 3022 478 2636 193 
Q 2250 -91 1575 -91 
Q 1294 -91 989 -36 
Q 684 19 347 128 
L 347 722 
Q 666 556 975 473 
Q 1284 391 1588 391 
Q 1994 391 2212 530 
Q 2431 669 2431 922 
Q 2431 1156 2273 1281 
Q 2116 1406 1581 1522 
L 1381 1569 
Q 847 1681 609 1914 
Q 372 2147 372 2553 
Q 372 3047 722 3315 
Q 1072 3584 1716 3584 
Q 2034 3584 2315 3537 
Q 2597 3491 2834 3397 
z
" id="DejaVuSans-73" transform="scale(0.015625)"/>
       <path d="M 1172 4494 
L 1172 3500 
L 2356 3500 
L 2356 3053 
L 1172 3053 
L 1172 1153 
Q 1172 725 1289 603 
Q 1406 481 1766 481 
L 2356 481 
L 2356 0 
L 1766 0 
Q 1100 0 847 248 
Q 594 497 594 1153 
L 594 3053 
L 172 3053 
L 172 3500 
L 594 3500 
L 594 4494 
L 1172 4494 
z
" id="DejaVuSans-74" transform="scale(0.015625)"/>
       <path d="M 1159 525 
L 1159 -1331 
L 581 -1331 
L 581 3500 
L 1159 3500 
L 1159 2969 
Q 1341 3281 1617 3432 
Q 1894 3584 2278 3584 
Q 2916 3584 3314 3078 
Q 3713 2572 3713 1747 
Q 3713 922 3314 415 
Q 2916 -91 2278 -91 
Q 1894 -91 1617 61 
Q 1341 213 1159 525 
z
M 3116 1747 
Q 3116 2381 2855 2742 
Q 2594 3103 2138 3103 
Q 1681 3103 1420 2742 
Q 1159 2381 1159 1747 
Q 1159 1113 1420 752 
Q 1681 391 2138 391 
Q 2594 391 2855 752 
Q 3116 1113 3116 1747 
z
" id="DejaVuSans-70" transform="scale(0.015625)"/>
       <path d="M 1959 3097 
Q 1497 3097 1228 2736 
Q 959 2375 959 1747 
Q 959 1119 1226 758 
Q 1494 397 1959 397 
Q 2419 397 2687 759 
Q 2956 1122 2956 1747 
Q 2956 2369 2687 2733 
Q 2419 3097 1959 3097 
z
M 1959 3584 
Q 2709 3584 3137 3096 
Q 3566 2609 3566 1747 
Q 3566 888 3137 398 
Q 2709 -91 1959 -91 
Q 1206 -91 779 398 
Q 353 888 353 1747 
Q 353 2609 779 3096 
Q 1206 3584 1959 3584 
z
" id="DejaVuSans-6f" transform="scale(0.015625)"/>
       <path d="M 544 1381 
L 544 3500 
L 1119 3500 
L 1119 1403 
Q 1119 906 1312 657 
Q 1506 409 1894 409 
Q 2359 409 2629 706 
Q 2900 1003 2900 1516 
L 2900 3500 
L 3475 3500 
L 3475 0 
L 2900 0 
L 2900 538 
Q 2691 219 2414 64 
Q 2138 -91 1772 -91 
Q 1169 -91 856 284 
Q 544 659 544 1381 
z
M 1991 3584 
L 1991 3584 
z
" id="DejaVuSans-75" transform="scale(0.015625)"/>
       <path d="M 603 4863 
L 1178 4863 
L 1178 0 
L 603 0 
L 603 4863 
z
" id="DejaVuSans-6c" transform="scale(0.015625)"/>
       <path d="M 603 3500 
L 1178 3500 
L 1178 0 
L 603 0 
L 603 3500 
z
M 603 4863 
L 1178 4863 
L 1178 4134 
L 603 4134 
L 603 4863 
z
" id="DejaVuSans-69" transform="scale(0.015625)"/>
       <path d="M 3513 2113 
L 3513 0 
L 2938 0 
L 2938 2094 
Q 2938 2591 2744 2837 
Q 2550 3084 2163 3084 
Q 1697 3084 1428 2787 
Q 1159 2491 1159 1978 
L 1159 0 
L 581 0 
L 581 3500 
L 1159 3500 
L 1159 2956 
Q 1366 3272 1645 3428 
Q 1925 3584 2291 3584 
Q 2894 3584 3203 3211 
Q 3513 2838 3513 2113 
z
" id="DejaVuSans-6e" transform="scale(0.015625)"/>
       <path d="M 750 794 
L 1409 794 
L 1409 0 
L 750 0 
L 750 794 
z
M 750 3309 
L 1409 3309 
L 1409 2516 
L 750 2516 
L 750 3309 
z
" id="DejaVuSans-3a" transform="scale(0.015625)"/>
       <path d="M 3597 1894 
L 3597 1613 
L 953 1613 
Q 991 1019 1311 708 
Q 1631 397 2203 397 
Q 2534 397 2845 478 
Q 3156 559 3463 722 
L 3463 178 
Q 3153 47 2828 -22 
Q 2503 -91 2169 -91 
Q 1331 -91 842 396 
Q 353 884 353 1716 
Q 353 2575 817 3079 
Q 1281 3584 2069 3584 
Q 2775 3584 3186 3129 
Q 3597 2675 3597 1894 
z
M 3022 2063 
Q 3016 2534 2758 2815 
Q 2500 3097 2075 3097 
Q 1594 3097 1305 2825 
Q 1016 2553 972 2059 
L 3022 2063 
z
" id="DejaVuSans-65" transform="scale(0.015625)"/>
       <path d="M 2631 2963 
Q 2534 3019 2420 3045 
Q 2306 3072 2169 3072 
Q 1681 3072 1420 2755 
Q 1159 2438 1159 1844 
L 1159 0 
L 581 0 
L 581 3500 
L 1159 3500 
L 1159 2956 
Q 1341 3275 1631 3429 
Q 1922 3584 2338 3584 
Q 2397 3584 2469 3576 
Q 2541 3569 2628 3553 
L 2631 2963 
z
" id="DejaVuSans-72" transform="scale(0.015625)"/>
      </defs>
      <use xlink:href="#DejaVuSans-31"/>
      <use x="63.623047" xlink:href="#DejaVuSans-73"/>
      <use x="115.722656" xlink:href="#DejaVuSans-74"/>
      <use x="154.931641" xlink:href="#DejaVuSans-20"/>
      <use x="186.71875" xlink:href="#DejaVuSans-70"/>
      <use x="250.195312" xlink:href="#DejaVuSans-6f"/>
      <use x="311.376953" xlink:href="#DejaVuSans-70"/>
      <use x="374.853516" xlink:href="#DejaVuSans-75"/>
      <use x="438.232422" xlink:href="#DejaVuSans-6c"/>
      <use x="466.015625" xlink:href="#DejaVuSans-61"/>
      <use x="527.294922" xlink:href="#DejaVuSans-74"/>
      <use x="566.503906" xlink:href="#DejaVuSans-69"/>
      <use x="594.287109" xlink:href="#DejaVuSans-6f"/>
      <use x="655.46875" xlink:href="#DejaVuSans-6e"/>
      <use x="718.847656" xlink:href="#DejaVuSans-20"/>
      <use x="750.634766" xlink:href="#DejaVuSans-3a"/>
      <use x="784.326172" xlink:href="#DejaVuSans-20"/>
      <use x="816.113281" xlink:href="#DejaVuSans-44"/>
      <use x="893.115234" xlink:href="#DejaVuSans-69"/>
      <use x="920.898438" xlink:href="#DejaVuSans-6d"/>
      <use x="1018.310547" xlink:href="#DejaVuSans-65"/>
      <use x="1079.833984" xlink:href="#DejaVuSans-72"/>
     </g>
    </g>
    <g id="line2d_14">
     <path d="M 60.3 54.003594 
L 74.3 54.003594 
" style="fill:none;stroke:#2ca02c;stroke-dasharray:5.55,2.4;stroke-dashoffset:0;stroke-opacity:0.3;stroke-width:1.5;"/>
    </g>
    <g id="line2d_15"/>
    <g id="text_14">
     <!-- 2nd population : Dimer + adducts -->
     <g transform="translate(79.9 56.453594)scale(0.07 -0.07)">
      <defs>
       <path d="M 2906 2969 
L 2906 4863 
L 3481 4863 
L 3481 0 
L 2906 0 
L 2906 525 
Q 2725 213 2448 61 
Q 2172 -91 1784 -91 
Q 1150 -91 751 415 
Q 353 922 353 1747 
Q 353 2572 751 3078 
Q 1150 3584 1784 3584 
Q 2172 3584 2448 3432 
Q 2725 3281 2906 2969 
z
M 947 1747 
Q 947 1113 1208 752 
Q 1469 391 1925 391 
Q 2381 391 2643 752 
Q 2906 1113 2906 1747 
Q 2906 2381 2643 2742 
Q 2381 3103 1925 3103 
Q 1469 3103 1208 2742 
Q 947 2381 947 1747 
z
" id="DejaVuSans-64" transform="scale(0.015625)"/>
       <path d="M 3122 3366 
L 3122 2828 
Q 2878 2963 2633 3030 
Q 2388 3097 2138 3097 
Q 1578 3097 1268 2742 
Q 959 2388 959 1747 
Q 959 1106 1268 751 
Q 1578 397 2138 397 
Q 2388 397 2633 464 
Q 2878 531 3122 666 
L 3122 134 
Q 2881 22 2623 -34 
Q 2366 -91 2075 -91 
Q 1284 -91 818 406 
Q 353 903 353 1747 
Q 353 2603 823 3093 
Q 1294 3584 2113 3584 
Q 2378 3584 2631 3529 
Q 2884 3475 3122 3366 
z
" id="DejaVuSans-63" transform="scale(0.015625)"/>
      </defs>
      <use xlink:href="#DejaVuSans-32"/>
      <use x="63.623047" xlink:href="#DejaVuSans-6e"/>
      <use x="127.001953" xlink:href="#DejaVuSans-64"/>
      <use x="190.478516" xlink:href="#DejaVuSans-20"/>
      <use x="222.265625" xlink:href="#DejaVuSans-70"/>
      <use x="285.742188" xlink:href="#DejaVuSans-6f"/>
      <use x="346.923828" xlink:href="#DejaVuSans-70"/>
      <use x="410.400391" xlink:href="#DejaVuSans-75"/>
      <use x="473.779297" xlink:href="#DejaVuSans-6c"/>
      <use x="501.5625" xlink:href="#DejaVuSans-61"/>
      <use x="562.841797" xlink:href="#DejaVuSans-74"/>
      <use x="602.050781" xlink:href="#DejaVuSans-69"/>
      <use x="629.833984" xlink:href="#DejaVuSans-6f"/>
      <use x="691.015625" xlink:href="#DejaVuSans-6e"/>
      <use x="754.394531" xlink:href="#DejaVuSans-20"/>
      <use x="786.181641" xlink:href="#DejaVuSans-3a"/>
      <use x="819.873047" xlink:href="#DejaVuSans-20"/>
      <use x="851.660156" xlink:href="#DejaVuSans-44"/>
      <use x="928.662109" xlink:href="#DejaVuSans-69"/>
      <use x="956.445312" xlink:href="#DejaVuSans-6d"/>
      <use x="1053.857422" xlink:href="#DejaVuSans-65"/>
      <use x="1115.380859" xlink:href="#DejaVuSans-72"/>
      <use x="1156.494141" xlink:href="#DejaVuSans-20"/>
      <use x="1188.28125" xlink:href="#DejaVuSans-2b"/>
      <use x="1272.070312" xlink:href="#DejaVuSans-20"/>
      <use x="1303.857422" xlink:href="#DejaVuSans-61"/>
      <use x="1365.136719" xlink:href="#DejaVuSans-64"/>
      <use x="1428.613281" xlink:href="#DejaVuSans-64"/>
      <use x="1492.089844" xlink:href="#DejaVuSans-75"/>
      <use x="1555.46875" xlink:href="#DejaVuSans-63"/>
      <use x="1610.449219" xlink:href="#DejaVuSans-74"/>
      <use x="1649.658203" xlink:href="#DejaVuSans-73"/>
     </g>
    </g>
   </g>
  </g>
 </g>
 <defs>
  <clipPath id="p862b78a735">
   <rect height="217.44" width="334.8" x="54" y="34.56"/>
  </clipPath>
 </defs>
</svg>
