<?xml version="1.0" encoding="utf-8" standalone="no"?>
<!DOCTYPE svg PUBLIC "-//W3C//DTD SVG 1.1//EN"
  "http://www.w3.org/Graphics/SVG/1.1/DTD/svg11.dtd">
<svg height="288pt" version="1.1" viewBox="0 0 432 288" width="432pt" xmlns="http://www.w3.org/2000/svg" xmlns:xlink="http://www.w3.org/1999/xlink">
 <metadata>
  <rdf:RDF xmlns:cc="http://creativecommons.org/ns#" xmlns:dc="http://purl.org/dc/elements/1.1/" xmlns:rdf="http://www.w3.org/1999/02/22-rdf-syntax-ns#">
   <cc:Work>
    <dc:type rdf:resource="http://purl.org/dc/dcmitype/StillImage"/>
    <dc:date>2022-05-08T22:08:27.270008</dc:date>
    <dc:format>image/svg+xml</dc:format>
    <dc:creator>
     <cc:Agent>
      <dc:title>Matplotlib v3.4.2, https://matplotlib.org/</dc:title>
     </cc:Agent>
    </dc:creator>
   </cc:Work>
  </rdf:RDF>
 </metadata>
 <defs>
  <style type="text/css">*{stroke-linecap:butt;stroke-linejoin:round;}</style>
 </defs>
 <g id="figure_1">
  <g id="patch_1">
   <path d="M 0 288 
L 432 288 
L 432 0 
L 0 0 
z
" style="fill:none;"/>
  </g>
  <g id="axes_1">
   <g id="patch_2">
    <path d="M 14.3 247 
L 421.2 247 
L 421.2 12.320304 
L 14.3 12.320304 
z
" style="fill:#ffffff;"/>
   </g>
   <g id="matplotlib.axis_1">
    <g id="xtick_1">
     <g id="line2d_1">
      <defs>
       <path d="M 0 0 
L 0 3.5 
" id="mb5c1a058a7" style="stroke:#000000;stroke-width:0.8;"/>
      </defs>
      <g>
       <use style="stroke:#000000;stroke-width:0.8;" x="61.25" xlink:href="#mb5c1a058a7" y="247"/>
      </g>
     </g>
     <g id="text_1">
      <!-- 2600 -->
      <g transform="translate(48.525 261.598437)scale(0.1 -0.1)">
       <defs>
        <path d="M 1228 531 
L 3431 531 
L 3431 0 
L 469 0 
L 469 531 
Q 828 903 1448 1529 
Q 2069 2156 2228 2338 
Q 2531 2678 2651 2914 
Q 2772 3150 2772 3378 
Q 2772 3750 2511 3984 
Q 2250 4219 1831 4219 
Q 1534 4219 1204 4116 
Q 875 4013 500 3803 
L 500 4441 
Q 881 4594 1212 4672 
Q 1544 4750 1819 4750 
Q 2544 4750 2975 4387 
Q 3406 4025 3406 3419 
Q 3406 3131 3298 2873 
Q 3191 2616 2906 2266 
Q 2828 2175 2409 1742 
Q 1991 1309 1228 531 
z
" id="DejaVuSans-32" transform="scale(0.015625)"/>
        <path d="M 2113 2584 
Q 1688 2584 1439 2293 
Q 1191 2003 1191 1497 
Q 1191 994 1439 701 
Q 1688 409 2113 409 
Q 2538 409 2786 701 
Q 3034 994 3034 1497 
Q 3034 2003 2786 2293 
Q 2538 2584 2113 2584 
z
M 3366 4563 
L 3366 3988 
Q 3128 4100 2886 4159 
Q 2644 4219 2406 4219 
Q 1781 4219 1451 3797 
Q 1122 3375 1075 2522 
Q 1259 2794 1537 2939 
Q 1816 3084 2150 3084 
Q 2853 3084 3261 2657 
Q 3669 2231 3669 1497 
Q 3669 778 3244 343 
Q 2819 -91 2113 -91 
Q 1303 -91 875 529 
Q 447 1150 447 2328 
Q 447 3434 972 4092 
Q 1497 4750 2381 4750 
Q 2619 4750 2861 4703 
Q 3103 4656 3366 4563 
z
" id="DejaVuSans-36" transform="scale(0.015625)"/>
        <path d="M 2034 4250 
Q 1547 4250 1301 3770 
Q 1056 3291 1056 2328 
Q 1056 1369 1301 889 
Q 1547 409 2034 409 
Q 2525 409 2770 889 
Q 3016 1369 3016 2328 
Q 3016 3291 2770 3770 
Q 2525 4250 2034 4250 
z
M 2034 4750 
Q 2819 4750 3233 4129 
Q 3647 3509 3647 2328 
Q 3647 1150 3233 529 
Q 2819 -91 2034 -91 
Q 1250 -91 836 529 
Q 422 1150 422 2328 
Q 422 3509 836 4129 
Q 1250 4750 2034 4750 
z
" id="DejaVuSans-30" transform="scale(0.015625)"/>
       </defs>
       <use xlink:href="#DejaVuSans-32"/>
       <use x="63.623047" xlink:href="#DejaVuSans-36"/>
       <use x="127.246094" xlink:href="#DejaVuSans-30"/>
       <use x="190.869141" xlink:href="#DejaVuSans-30"/>
      </g>
     </g>
    </g>
    <g id="xtick_2">
     <g id="line2d_2">
      <g>
       <use style="stroke:#000000;stroke-width:0.8;" x="118.159091" xlink:href="#mb5c1a058a7" y="247"/>
      </g>
     </g>
     <g id="text_2">
      <!-- 2700 -->
      <g transform="translate(105.434091 261.598437)scale(0.1 -0.1)">
       <defs>
        <path d="M 525 4666 
L 3525 4666 
L 3525 4397 
L 1831 0 
L 1172 0 
L 2766 4134 
L 525 4134 
L 525 4666 
z
" id="DejaVuSans-37" transform="scale(0.015625)"/>
       </defs>
       <use xlink:href="#DejaVuSans-32"/>
       <use x="63.623047" xlink:href="#DejaVuSans-37"/>
       <use x="127.246094" xlink:href="#DejaVuSans-30"/>
       <use x="190.869141" xlink:href="#DejaVuSans-30"/>
      </g>
     </g>
    </g>
    <g id="xtick_3">
     <g id="line2d_3">
      <g>
       <use style="stroke:#000000;stroke-width:0.8;" x="175.068182" xlink:href="#mb5c1a058a7" y="247"/>
      </g>
     </g>
     <g id="text_3">
      <!-- 2800 -->
      <g transform="translate(162.343182 261.598437)scale(0.1 -0.1)">
       <defs>
        <path d="M 2034 2216 
Q 1584 2216 1326 1975 
Q 1069 1734 1069 1313 
Q 1069 891 1326 650 
Q 1584 409 2034 409 
Q 2484 409 2743 651 
Q 3003 894 3003 1313 
Q 3003 1734 2745 1975 
Q 2488 2216 2034 2216 
z
M 1403 2484 
Q 997 2584 770 2862 
Q 544 3141 544 3541 
Q 544 4100 942 4425 
Q 1341 4750 2034 4750 
Q 2731 4750 3128 4425 
Q 3525 4100 3525 3541 
Q 3525 3141 3298 2862 
Q 3072 2584 2669 2484 
Q 3125 2378 3379 2068 
Q 3634 1759 3634 1313 
Q 3634 634 3220 271 
Q 2806 -91 2034 -91 
Q 1263 -91 848 271 
Q 434 634 434 1313 
Q 434 1759 690 2068 
Q 947 2378 1403 2484 
z
M 1172 3481 
Q 1172 3119 1398 2916 
Q 1625 2713 2034 2713 
Q 2441 2713 2670 2916 
Q 2900 3119 2900 3481 
Q 2900 3844 2670 4047 
Q 2441 4250 2034 4250 
Q 1625 4250 1398 4047 
Q 1172 3844 1172 3481 
z
" id="DejaVuSans-38" transform="scale(0.015625)"/>
       </defs>
       <use xlink:href="#DejaVuSans-32"/>
       <use x="63.623047" xlink:href="#DejaVuSans-38"/>
       <use x="127.246094" xlink:href="#DejaVuSans-30"/>
       <use x="190.869141" xlink:href="#DejaVuSans-30"/>
      </g>
     </g>
    </g>
    <g id="xtick_4">
     <g id="line2d_4">
      <g>
       <use style="stroke:#000000;stroke-width:0.8;" x="231.977273" xlink:href="#mb5c1a058a7" y="247"/>
      </g>
     </g>
     <g id="text_4">
      <!-- 2900 -->
      <g transform="translate(219.252273 261.598437)scale(0.1 -0.1)">
       <defs>
        <path d="M 703 97 
L 703 672 
Q 941 559 1184 500 
Q 1428 441 1663 441 
Q 2288 441 2617 861 
Q 2947 1281 2994 2138 
Q 2813 1869 2534 1725 
Q 2256 1581 1919 1581 
Q 1219 1581 811 2004 
Q 403 2428 403 3163 
Q 403 3881 828 4315 
Q 1253 4750 1959 4750 
Q 2769 4750 3195 4129 
Q 3622 3509 3622 2328 
Q 3622 1225 3098 567 
Q 2575 -91 1691 -91 
Q 1453 -91 1209 -44 
Q 966 3 703 97 
z
M 1959 2075 
Q 2384 2075 2632 2365 
Q 2881 2656 2881 3163 
Q 2881 3666 2632 3958 
Q 2384 4250 1959 4250 
Q 1534 4250 1286 3958 
Q 1038 3666 1038 3163 
Q 1038 2656 1286 2365 
Q 1534 2075 1959 2075 
z
" id="DejaVuSans-39" transform="scale(0.015625)"/>
       </defs>
       <use xlink:href="#DejaVuSans-32"/>
       <use x="63.623047" xlink:href="#DejaVuSans-39"/>
       <use x="127.246094" xlink:href="#DejaVuSans-30"/>
       <use x="190.869141" xlink:href="#DejaVuSans-30"/>
      </g>
     </g>
    </g>
    <g id="xtick_5">
     <g id="line2d_5">
      <g>
       <use style="stroke:#000000;stroke-width:0.8;" x="288.886364" xlink:href="#mb5c1a058a7" y="247"/>
      </g>
     </g>
     <g id="text_5">
      <!-- 3000 -->
      <g transform="translate(276.161364 261.598437)scale(0.1 -0.1)">
       <defs>
        <path d="M 2597 2516 
Q 3050 2419 3304 2112 
Q 3559 1806 3559 1356 
Q 3559 666 3084 287 
Q 2609 -91 1734 -91 
Q 1441 -91 1130 -33 
Q 819 25 488 141 
L 488 750 
Q 750 597 1062 519 
Q 1375 441 1716 441 
Q 2309 441 2620 675 
Q 2931 909 2931 1356 
Q 2931 1769 2642 2001 
Q 2353 2234 1838 2234 
L 1294 2234 
L 1294 2753 
L 1863 2753 
Q 2328 2753 2575 2939 
Q 2822 3125 2822 3475 
Q 2822 3834 2567 4026 
Q 2313 4219 1838 4219 
Q 1578 4219 1281 4162 
Q 984 4106 628 3988 
L 628 4550 
Q 988 4650 1302 4700 
Q 1616 4750 1894 4750 
Q 2613 4750 3031 4423 
Q 3450 4097 3450 3541 
Q 3450 3153 3228 2886 
Q 3006 2619 2597 2516 
z
" id="DejaVuSans-33" transform="scale(0.015625)"/>
       </defs>
       <use xlink:href="#DejaVuSans-33"/>
       <use x="63.623047" xlink:href="#DejaVuSans-30"/>
       <use x="127.246094" xlink:href="#DejaVuSans-30"/>
       <use x="190.869141" xlink:href="#DejaVuSans-30"/>
      </g>
     </g>
    </g>
    <g id="xtick_6">
     <g id="line2d_6">
      <g>
       <use style="stroke:#000000;stroke-width:0.8;" x="345.795455" xlink:href="#mb5c1a058a7" y="247"/>
      </g>
     </g>
     <g id="text_6">
      <!-- 3100 -->
      <g transform="translate(333.070455 261.598437)scale(0.1 -0.1)">
       <defs>
        <path d="M 794 531 
L 1825 531 
L 1825 4091 
L 703 3866 
L 703 4441 
L 1819 4666 
L 2450 4666 
L 2450 531 
L 3481 531 
L 3481 0 
L 794 0 
L 794 531 
z
" id="DejaVuSans-31" transform="scale(0.015625)"/>
       </defs>
       <use xlink:href="#DejaVuSans-33"/>
       <use x="63.623047" xlink:href="#DejaVuSans-31"/>
       <use x="127.246094" xlink:href="#DejaVuSans-30"/>
       <use x="190.869141" xlink:href="#DejaVuSans-30"/>
      </g>
     </g>
    </g>
    <g id="xtick_7">
     <g id="line2d_7">
      <g>
       <use style="stroke:#000000;stroke-width:0.8;" x="402.704545" xlink:href="#mb5c1a058a7" y="247"/>
      </g>
     </g>
     <g id="text_7">
      <!-- 3200 -->
      <g transform="translate(389.979545 261.598437)scale(0.1 -0.1)">
       <use xlink:href="#DejaVuSans-33"/>
       <use x="63.623047" xlink:href="#DejaVuSans-32"/>
       <use x="127.246094" xlink:href="#DejaVuSans-30"/>
       <use x="190.869141" xlink:href="#DejaVuSans-30"/>
      </g>
     </g>
    </g>
    <g id="text_8">
     <!-- m/z -->
     <g transform="translate(208.571094 275.276563)scale(0.1 -0.1)">
      <defs>
       <path d="M 3328 2828 
Q 3544 3216 3844 3400 
Q 4144 3584 4550 3584 
Q 5097 3584 5394 3201 
Q 5691 2819 5691 2113 
L 5691 0 
L 5113 0 
L 5113 2094 
Q 5113 2597 4934 2840 
Q 4756 3084 4391 3084 
Q 3944 3084 3684 2787 
Q 3425 2491 3425 1978 
L 3425 0 
L 2847 0 
L 2847 2094 
Q 2847 2600 2669 2842 
Q 2491 3084 2119 3084 
Q 1678 3084 1418 2786 
Q 1159 2488 1159 1978 
L 1159 0 
L 581 0 
L 581 3500 
L 1159 3500 
L 1159 2956 
Q 1356 3278 1631 3431 
Q 1906 3584 2284 3584 
Q 2666 3584 2933 3390 
Q 3200 3197 3328 2828 
z
" id="DejaVuSans-6d" transform="scale(0.015625)"/>
       <path d="M 1625 4666 
L 2156 4666 
L 531 -594 
L 0 -594 
L 1625 4666 
z
" id="DejaVuSans-2f" transform="scale(0.015625)"/>
       <path d="M 353 3500 
L 3084 3500 
L 3084 2975 
L 922 459 
L 3084 459 
L 3084 0 
L 275 0 
L 275 525 
L 2438 3041 
L 353 3041 
L 353 3500 
z
" id="DejaVuSans-7a" transform="scale(0.015625)"/>
      </defs>
      <use xlink:href="#DejaVuSans-6d"/>
      <use x="97.412109" xlink:href="#DejaVuSans-2f"/>
      <use x="131.103516" xlink:href="#DejaVuSans-7a"/>
     </g>
    </g>
   </g>
   <g id="matplotlib.axis_2"/>
   <g id="line2d_8">
    <path clip-path="url(#paa4f1086a5)" d="M 32.795455 235.910204 
L 32.795455 235.699941 
L 32.795455 235.710857 
L 33.933636 235.821733 
L 33.933636 235.828627 
L 35.071818 235.943812 
L 35.071818 236.038315 
L 36.21 236.153213 
L 36.21 236.209226 
L 36.21 236.208939 
L 49.299091 236.199747 
L 49.299091 236.19314 
L 49.299091 236.174757 
L 49.299091 236.18165 
L 51.575455 236.063593 
L 51.575455 236.05871 
L 52.713636 235.94927 
L 52.713636 235.861373 
L 54.420909 235.736709 
L 54.420909 235.722346 
L 54.420909 235.728666 
L 56.128182 235.61147 
L 56.128182 235.613768 
L 56.128182 235.464688 
L 56.697273 235.35295 
L 56.697273 235.347779 
L 57.835455 235.233743 
L 57.835455 235.072599 
L 58.404545 234.962297 
L 58.404545 234.943913 
L 58.973636 234.833037 
L 58.973636 234.345583 
L 59.542727 234.234419 
L 59.542727 233.71307 
L 60.111818 233.598173 
L 60.111818 233.015066 
L 61.25 232.92602 
L 61.25 232.917403 
L 61.25 232.782398 
L 61.25 233.012194 
L 61.819091 233.127091 
L 61.819091 233.135709 
L 61.819091 233.086877 
L 61.819091 233.095495 
L 62.388182 233.20752 
L 62.388182 233.44306 
L 62.957273 233.557958 
L 62.957273 233.629769 
L 63.526364 233.750412 
L 63.526364 233.845203 
L 63.526364 233.819351 
L 64.095455 233.819351 
L 64.095455 233.718815 
L 64.095455 233.316673 
L 64.664545 233.198903 
L 64.664545 232.874316 
L 65.233636 232.745056 
L 65.233636 232.53824 
L 65.233636 232.635903 
L 65.802727 232.676117 
L 65.802727 232.541112 
L 65.802727 232.52675 
L 66.371818 232.635903 
L 66.371818 232.871444 
L 67.51 232.992086 
L 67.51 233.345397 
L 68.079091 233.345397 
L 68.079091 233.448805 
L 68.079091 233.603917 
L 68.648182 233.72456 
L 68.648182 233.767647 
L 68.648182 233.761902 
L 69.217273 233.761902 
L 69.217273 233.868182 
L 69.217273 233.934249 
L 69.786364 233.934249 
L 69.786364 234.03938 
L 69.786364 234.047998 
L 73.200909 234.000315 
L 73.200909 233.971591 
L 73.200909 233.917014 
L 73.200909 233.917014 
L 74.908182 233.830841 
L 74.908182 233.807861 
L 74.908182 233.701581 
L 75.477273 233.701581 
L 75.477273 233.5953 
L 75.477273 233.532106 
L 76.046364 233.532106 
L 76.046364 233.431571 
L 76.046364 233.331035 
L 76.615455 233.210392 
L 76.615455 232.949 
L 77.184545 232.834102 
L 77.184545 232.601434 
L 78.322727 232.463556 
L 78.322727 232.242378 
L 78.322727 232.245251 
L 78.891818 232.133225 
L 78.891818 232.136098 
L 78.891818 232.110246 
L 79.460909 231.99822 
L 79.460909 231.978113 
L 79.460909 231.978113 
L 80.03 231.989603 
L 80.03 231.874705 
L 80.03 231.848853 
L 80.03 231.848853 
L 80.599091 231.733955 
L 80.599091 231.653527 
L 81.168182 231.538629 
L 81.168182 231.360537 
L 81.737273 231.239894 
L 81.737273 231.239894 
L 81.737273 230.989992 
L 82.306364 230.877966 
L 82.306364 230.662533 
L 82.875455 230.539018 
L 82.875455 230.274753 
L 83.444545 230.168472 
L 83.444545 229.961656 
L 83.444545 229.964528 
L 84.013636 229.852503 
L 84.013636 229.559514 
L 84.582727 229.438871 
L 84.582727 229.441743 
L 84.582727 229.125774 
L 85.151818 229.013749 
L 85.151818 228.789698 
L 85.720909 228.689162 
L 85.720909 228.269785 
L 86.29 228.14627 
L 86.29 227.695296 
L 86.859091 227.698169 
L 86.859091 227.603378 
L 86.859091 227.135169 
L 87.428182 227.026016 
L 87.428182 226.451527 
L 87.997273 226.356736 
L 87.997273 225.368615 
L 88.566364 225.262334 
L 88.566364 224.078887 
L 89.135455 223.961116 
L 89.135455 222.522021 
L 89.704545 222.392761 
L 89.704545 220.965155 
L 90.273636 220.847385 
L 90.273636 218.641347 
L 90.842727 218.494852 
L 90.842727 215.774645 
L 91.411818 215.622406 
L 91.411818 210.954681 
L 91.980909 210.739248 
L 91.980909 189.072388 
L 92.55 188.555348 
L 92.55 171.837712 
L 93.119091 171.263223 
L 93.119091 155.694566 
L 93.119091 156.441402 
L 93.688182 156.585024 
L 93.688182 157.877625 
L 93.688182 148.657073 
L 94.257273 148.283655 
L 94.257273 145.497383 
L 94.257273 153.166814 
L 94.826364 153.33916 
L 94.826364 154.085996 
L 94.826364 150.926306 
L 94.826364 151.816764 
L 95.395455 152.017835 
L 95.395455 165.920474 
L 95.964545 166.064096 
L 95.964545 174.422914 
L 96.533636 174.85378 
L 96.533636 183.557292 
L 97.102727 183.67219 
L 97.102727 193.811924 
L 97.671818 193.98427 
L 97.671818 199.413193 
L 98.240909 199.614265 
L 98.240909 206.163441 
L 98.81 206.335788 
L 98.81 210.796697 
L 99.379091 211.017875 
L 99.379091 214.036816 
L 99.948182 214.137351 
L 99.948182 216.010186 
L 100.517273 216.139446 
L 100.517273 217.305659 
L 100.517273 217.294169 
L 101.086364 217.40045 
L 101.086364 219.264667 
L 101.655455 219.40829 
L 101.655455 220.091932 
L 102.224545 220.221192 
L 102.224545 221.309849 
L 102.224545 221.281124 
L 102.793636 221.169099 
L 102.793636 221.120267 
L 102.793636 221.559752 
L 103.362727 221.694757 
L 103.362727 221.749333 
L 103.362727 220.945048 
L 103.931818 220.936431 
L 103.931818 221.042711 
L 103.931818 221.548262 
L 103.931818 221.485068 
L 104.500909 221.37017 
L 104.500909 220.784191 
L 104.500909 221.266762 
L 105.07 221.361553 
L 105.07 221.841251 
L 105.07 221.298359 
L 105.639091 221.166226 
L 105.639091 221.082926 
L 105.639091 222.401378 
L 106.208182 222.527766 
L 106.208182 222.585215 
L 106.777273 222.725965 
L 106.777273 224.452305 
L 107.346364 224.572947 
L 107.346364 225.509365 
L 107.915455 225.650115 
L 107.915455 226.836435 
L 108.484545 226.957078 
L 108.484545 228.203719 
L 109.053636 228.335852 
L 109.053636 229.168861 
L 109.622727 229.289504 
L 109.622727 230.314967 
L 110.191818 230.421247 
L 110.191818 231.07042 
L 110.760909 231.193935 
L 110.760909 231.659272 
L 111.33 231.774169 
L 111.33 232.003965 
L 111.899091 232.003965 
L 111.899091 232.110246 
L 111.899091 232.386 
L 111.899091 232.386 
L 112.468182 232.492281 
L 112.468182 232.813995 
L 113.037273 232.931765 
L 113.037273 233.046663 
L 113.606364 233.152943 
L 113.606364 233.262096 
L 114.175455 233.365504 
L 114.175455 233.411464 
L 115.313636 233.543596 
L 115.313636 233.741795 
L 115.313636 233.741795 
L 115.882727 233.85382 
L 115.882727 233.957228 
L 116.451818 234.078446 
L 116.451818 234.101138 
L 116.451818 234.093382 
L 117.020909 234.20311 
L 117.020909 234.283825 
L 118.159091 234.309965 
L 118.159091 234.383212 
L 118.159091 234.515057 
L 118.159091 234.512472 
L 118.728182 234.626508 
L 118.728182 234.637136 
L 119.297273 234.752321 
L 119.297273 234.750885 
L 119.297273 234.767545 
L 119.866364 234.7618 
L 119.866364 234.87756 
L 119.866364 234.896805 
L 121.004545 235.010554 
L 121.004545 235.166815 
L 124.419091 235.24035 
L 124.419091 235.261319 
L 124.419091 235.321927 
L 125.557273 235.434527 
L 127.264545 235.55 
L 127.264545 235.555744 
L 127.264545 235.545691 
L 127.264545 235.550574 
L 132.386364 235.426484 
L 132.386364 235.129186 
L 132.955455 235.016874 
L 132.955455 234.927828 
L 133.524545 234.815228 
L 133.524545 234.783918 
L 133.524545 234.807185 
L 135.800909 234.806036 
L 135.800909 234.914902 
L 135.800909 234.936732 
L 135.800909 234.927828 
L 137.508182 234.949658 
L 137.508182 234.820973 
L 137.508182 234.565038 
L 138.077273 234.457608 
L 138.077273 234.210578 
L 138.646364 234.095393 
L 138.646364 233.753285 
L 139.784545 233.641259 
L 139.784545 233.569448 
L 139.784545 233.629769 
L 140.353636 233.73605 
L 140.353636 233.871055 
L 140.353636 233.85382 
L 141.491818 233.957228 
L 141.491818 234.178981 
L 141.491818 234.161459 
L 142.060909 234.153704 
L 142.060909 234.264006 
L 142.060909 234.415671 
L 142.63 234.536888 
L 142.63 234.565612 
L 143.199091 234.675914 
L 143.199091 234.777024 
L 144.906364 234.906284 
L 144.906364 234.922657 
L 144.906364 234.904848 
L 144.906364 234.9172 
L 149.459091 234.84424 
L 149.459091 234.749449 
L 149.459091 234.75146 
L 150.028182 234.648626 
L 150.028182 234.581985 
L 150.028182 234.584283 
L 151.166364 234.474843 
L 151.166364 234.304507 
L 151.735455 234.195354 
L 151.735455 234.000315 
L 152.304545 233.896907 
L 152.304545 232.908786 
L 152.873636 232.756546 
L 152.873636 231.185318 
L 153.442727 231.07042 
L 153.442727 229.59111 
L 154.011818 229.456105 
L 154.011818 229.249289 
L 154.011818 229.418764 
L 154.580909 229.323973 
L 154.580909 228.459367 
L 154.580909 228.465112 
L 155.15 228.55703 
L 155.15 229.407274 
L 155.15 229.401529 
L 155.719091 229.286631 
L 155.719091 229.220565 
L 155.719091 229.542279 
L 156.288182 229.648559 
L 156.288182 230.579232 
L 156.857273 230.579232 
L 156.857273 230.68264 
L 156.857273 231.22266 
L 157.426364 231.360537 
L 157.426364 231.906302 
L 157.426364 231.906302 
L 157.995455 232.012582 
L 157.995455 232.518133 
L 158.564545 232.630158 
L 158.564545 232.673245 
L 158.564545 232.618668 
L 158.564545 232.618668 
L 159.133636 232.612924 
L 159.133636 232.716332 
L 159.133636 232.854209 
L 159.133636 232.854209 
L 159.702727 232.739311 
L 159.702727 232.739311 
L 159.702727 232.736439 
L 159.702727 232.750801 
L 159.702727 232.750801 
L 160.271818 232.862826 
L 160.271818 233.009321 
L 160.271818 233.000704 
L 161.41 233.003576 
L 161.41 233.109857 
L 161.41 233.173051 
L 161.41 233.135709 
L 162.548182 233.198903 
L 162.548182 233.239117 
L 162.548182 233.434443 
L 163.117273 233.434443 
L 163.117273 233.540724 
L 163.117273 233.672856 
L 163.686364 233.784882 
L 163.686364 233.807861 
L 163.686364 233.756157 
L 165.962727 233.738922 
L 165.962727 233.652749 
L 165.962727 233.494765 
L 165.962727 233.497637 
L 167.67 233.592428 
L 167.67 233.60679 
L 167.67 233.684346 
L 167.67 233.655621 
L 168.808182 233.776264 
L 168.808182 233.776264 
L 168.808182 233.813606 
L 168.808182 233.810734 
L 169.377273 233.810734 
L 169.377273 233.919887 
L 169.377273 233.934249 
L 172.222727 233.868182 
L 172.222727 233.84233 
L 172.222727 233.73605 
L 172.222727 233.73605 
L 173.360909 233.629769 
L 173.360909 233.563703 
L 173.360909 233.572321 
L 174.499091 233.45455 
L 174.499091 233.305183 
L 175.068182 233.181668 
L 175.068182 232.974852 
L 175.068182 232.974852 
L 175.637273 232.974852 
L 175.637273 232.877189 
L 175.637273 232.618668 
L 176.206364 232.500898 
L 176.206364 232.506643 
L 176.206364 232.434832 
L 176.775455 232.328551 
L 176.775455 232.236633 
L 177.913636 232.12748 
L 177.913636 232.12748 
L 177.913636 231.995348 
L 177.913636 231.99822 
L 178.482727 232.001093 
L 178.482727 231.89194 
L 178.482727 231.843108 
L 178.482727 231.843108 
L 179.051818 231.748317 
L 179.051818 231.300216 
L 179.620909 231.300216 
L 179.620909 231.191063 
L 179.620909 230.840624 
L 180.19 230.728599 
L 180.19 230.41263 
L 180.759091 230.29486 
L 180.759091 229.87261 
L 181.328182 229.749095 
L 181.328182 229.553769 
L 181.897273 229.441743 
L 181.897273 228.255423 
L 182.466364 228.131908 
L 182.466364 225.62139 
L 183.035455 225.49213 
L 183.035455 222.889694 
L 183.604545 222.725965 
L 183.604545 221.852741 
L 183.604545 221.890083 
L 184.173636 221.76944 
L 184.173636 220.379176 
L 184.742727 220.31311 
L 184.742727 220.456732 
L 184.742727 221.338573 
L 185.311818 221.364425 
L 185.311818 221.2524 
L 185.311818 221.062818 
L 185.311818 221.266762 
L 185.880909 221.387405 
L 185.880909 222.964378 
L 186.45 222.961505 
L 186.45 223.064913 
L 186.45 223.797387 
L 187.019091 223.943882 
L 187.019091 224.661993 
L 187.019091 224.613162 
L 187.588182 224.509754 
L 187.588182 223.429714 
L 188.157273 223.311944 
L 188.157273 222.553618 
L 188.726364 222.421485 
L 188.726364 221.215058 
L 188.726364 221.309849 
L 189.295455 221.419002 
L 189.295455 221.697629 
L 189.295455 221.352935 
L 189.864545 221.215058 
L 189.864545 220.86462 
L 189.864545 221.565496 
L 190.433636 221.700501 
L 190.433636 222.19169 
L 190.433636 222.094027 
L 191.002727 222.085409 
L 191.002727 222.183072 
L 191.002727 223.426841 
L 191.571818 223.576209 
L 191.571818 224.127718 
L 192.140909 224.236871 
L 192.140909 225.472023 
L 192.71 225.586921 
L 192.71 226.052257 
L 193.279091 226.170027 
L 193.279091 226.916863 
L 193.848182 227.034634 
L 193.848182 227.034634 
L 193.848182 227.247195 
L 194.417273 227.367837 
L 194.417273 227.48848 
L 194.417273 227.422414 
L 194.986364 227.399434 
L 194.986364 227.525822 
L 194.986364 227.718276 
L 195.555455 227.611995 
L 195.555455 227.583271 
L 195.555455 227.603378 
L 196.124545 227.709658 
L 196.124545 227.778597 
L 196.124545 227.761362 
L 197.262727 227.801577 
L 197.262727 227.86477 
L 197.262727 227.982541 
L 197.262727 227.979668 
L 198.400909 228.091694 
L 198.400909 228.13478 
L 198.400909 228.051479 
L 198.97 228.057224 
L 198.97 227.948071 
L 198.97 227.939454 
L 198.97 227.956689 
L 198.97 227.956689 
L 199.539091 227.841791 
L 199.539091 227.847536 
L 199.539091 227.778597 
L 200.108182 227.666572 
L 200.108182 227.419541 
L 200.677273 227.310388 
L 200.677273 226.951333 
L 201.246364 226.847925 
L 201.246364 226.296415 
L 201.815455 226.195879 
L 201.815455 225.495003 
L 202.384545 225.37436 
L 202.384545 225.2451 
L 202.384545 225.288186 
L 202.953636 225.170416 
L 202.953636 224.71657 
L 204.091818 224.607417 
L 204.091818 224.279958 
L 204.091818 224.28283 
L 204.660909 224.17655 
L 204.660909 224.17655 
L 205.23 224.061652 
L 205.23 223.780152 
L 205.799091 223.65951 
L 205.799091 223.329178 
L 206.368182 223.199918 
L 206.368182 222.619684 
L 206.937273 222.504786 
L 206.937273 221.941787 
L 207.506364 221.844124 
L 207.506364 221.261017 
L 208.075455 221.140374 
L 208.075455 220.485457 
L 208.644545 220.367687 
L 208.644545 219.649575 
L 209.213636 219.52606 
L 209.213636 218.695923 
L 209.782727 218.604005 
L 209.782727 217.822699 
L 210.351818 217.696312 
L 210.351818 216.759894 
L 210.920909 216.6134 
L 210.920909 215.80337 
L 211.49 215.67411 
L 211.49 214.671626 
L 212.059091 214.571091 
L 212.059091 213.38477 
L 212.628182 213.261255 
L 212.628182 212.020359 
L 213.197273 211.888226 
L 213.197273 210.250932 
L 213.766364 210.113054 
L 213.766364 207.886909 
L 214.335455 207.772011 
L 214.335455 205.387881 
L 214.904545 205.215534 
L 214.904545 202.22819 
L 215.473636 202.055844 
L 215.473636 198.580184 
L 216.042727 198.379113 
L 216.042727 194.328964 
L 216.611818 194.099168 
L 216.611818 188.641521 
L 217.180909 188.469174 
L 217.180909 180.167805 
L 217.75 179.851836 
L 217.75 140.671674 
L 218.319091 139.436522 
L 218.319091 105.771455 
L 218.888182 104.852273 
L 218.888182 57.600537 
L 219.457273 57.198394 
L 219.457273 48.954475 
L 220.026364 48.121465 
L 220.026364 22.987563 
L 220.026364 26.836641 
L 220.595455 27.439854 
L 220.595455 38.900914 
L 220.595455 34.333725 
L 221.164545 33.78796 
L 221.164545 28.617557 
L 221.164545 46.570344 
L 221.733636 47.489527 
L 221.733636 60.300636 
L 222.302727 60.386809 
L 222.302727 88.881473 
L 222.871818 89.57086 
L 222.871818 103.329876 
L 223.440909 103.789468 
L 223.440909 128.66485 
L 224.01 128.980819 
L 224.01 141.303612 
L 224.579091 141.734479 
L 224.579091 157.791452 
L 225.148182 157.992523 
L 225.148182 168.678022 
L 225.717273 168.993991 
L 225.717273 177.467706 
L 226.286364 177.582604 
L 226.286364 183.040251 
L 226.855455 183.212598 
L 226.855455 187.061676 
L 227.424545 187.176574 
L 227.424545 190.106468 
L 227.993636 190.221366 
L 227.993636 193.179986 
L 227.993636 193.151261 
L 228.562727 193.151261 
L 228.562727 193.237435 
L 228.562727 195.477942 
L 229.131818 195.650289 
L 229.131818 196.052432 
L 229.131818 194.185342 
L 229.700909 194.099168 
L 229.700909 193.840648 
L 229.700909 194.55876 
L 229.700909 194.443862 
L 230.27 194.328964 
L 230.27 190.192642 
L 230.27 190.250091 
L 230.839091 190.364989 
L 230.839091 191.399069 
L 230.839091 190.451162 
L 231.408182 190.30754 
L 231.408182 187.952134 
L 231.408182 189.560704 
L 231.977273 189.704326 
L 231.977273 191.485242 
L 231.977273 190.422437 
L 232.546364 190.278815 
L 232.546364 190.04902 
L 232.546364 194.271515 
L 233.115455 194.386413 
L 233.115455 195.880085 
L 233.684545 195.994983 
L 233.684545 201.739875 
L 234.253636 201.912221 
L 234.253636 204.210178 
L 234.822727 204.325076 
L 234.822727 209.199617 
L 235.391818 209.323132 
L 235.391818 212.161108 
L 235.960909 212.376542 
L 235.960909 215.504636 
L 236.53 215.628151 
L 236.53 218.098454 
L 237.099091 218.247821 
L 237.099091 220.267151 
L 237.668182 220.393539 
L 237.668182 222.079664 
L 238.237273 222.226159 
L 238.237273 223.300454 
L 238.806364 223.421097 
L 238.806364 224.30581 
L 239.375455 224.43507 
L 239.375455 225.084243 
L 239.944545 225.202013 
L 239.944545 225.980446 
L 240.513636 226.103961 
L 240.513636 226.195879 
L 240.513636 226.181517 
L 241.082727 226.307905 
L 241.082727 226.698557 
L 241.082727 226.68994 
L 241.651818 226.580787 
L 241.651818 226.511848 
L 241.651818 226.635364 
L 242.220909 226.744517 
L 242.220909 226.985802 
L 242.220909 226.905373 
L 242.79 226.80771 
L 242.79 226.764624 
L 242.79 227.11219 
L 243.359091 227.209853 
L 243.359091 227.35922 
L 243.359091 227.07772 
L 243.928182 226.962822 
L 243.928182 227.158149 
L 243.928182 227.396562 
L 245.066364 227.505715 
L 245.066364 228.080204 
L 245.635455 228.195102 
L 245.635455 228.195102 
L 245.635455 228.378938 
L 246.204545 228.488091 
L 246.204545 229.180351 
L 246.773636 229.303866 
L 246.773636 229.62558 
L 247.342727 229.75484 
L 247.342727 230.297732 
L 247.911818 230.41263 
L 247.911818 230.854987 
L 248.480909 230.981374 
L 248.480909 231.504159 
L 249.05 231.61044 
L 249.05 231.932154 
L 249.619091 232.052797 
L 249.619091 232.394618 
L 250.188182 232.394618 
L 250.188182 232.498026 
L 250.188182 232.701969 
L 250.757273 232.80825 
L 250.757273 232.974852 
L 251.326364 233.092622 
L 251.326364 233.19603 
L 251.326364 233.19603 
L 251.895455 233.190285 
L 251.895455 233.302311 
L 251.895455 233.351142 
L 252.464545 233.351142 
L 252.464545 233.460295 
L 252.464545 233.491892 
L 252.464545 233.48902 
L 253.033636 233.48902 
L 253.033636 233.598173 
L 253.033636 233.638387 
L 254.171818 233.753285 
L 254.171818 233.750412 
L 254.171818 233.822223 
L 255.31 233.937121 
L 255.31 233.98308 
L 255.31 233.980208 
L 257.017273 234.077009 
L 257.017273 234.08735 
L 257.017273 234.142788 
L 257.586364 234.13216 
L 257.586364 234.244186 
L 257.586364 234.26142 
L 258.724545 234.377467 
L 258.724545 234.407341 
L 258.724545 234.405617 
L 259.862727 234.524249 
L 259.862727 234.523962 
L 259.862727 234.58773 
L 261.000909 234.65035 
L 261.000909 234.693149 
L 261.000909 234.70349 
L 261.000909 234.702628 
L 262.708182 234.814366 
L 262.708182 234.812643 
L 262.708182 234.845963 
L 262.708182 234.836484 
L 264.415455 234.881294 
L 264.415455 234.945637 
L 264.415455 234.952531 
L 266.691818 235.022044 
L 266.691818 235.055939 
L 266.691818 235.078344 
L 266.691818 235.077769 
L 268.968182 235.205306 
L 268.968182 235.227711 
L 268.968182 235.223402 
L 272.951818 235.194678 
L 272.951818 235.129761 
L 272.951818 235.098738 
L 274.09 234.987 
L 274.09 234.912317 
L 278.642727 234.970053 
L 278.642727 234.982692 
L 278.642727 234.994469 
L 278.642727 234.948509 
L 279.211818 234.842229 
L 279.211818 234.746002 
L 279.780909 234.633689 
L 279.780909 234.590603 
L 280.35 234.480013 
L 280.35 234.402745 
L 280.35 234.420554 
L 283.195455 234.532292 
L 283.195455 234.597784 
L 283.195455 234.596922 
L 283.764545 234.702341 
L 283.764545 234.711245 
L 284.902727 234.836484 
L 284.902727 234.866932 
L 286.040909 234.981543 
L 286.040909 235.003373 
L 291.731818 235.021757 
L 291.731818 234.991596 
L 291.731818 234.97551 
L 293.439091 234.892497 
L 293.439091 234.871815 
L 293.439091 234.822122 
L 294.577273 234.710958 
L 294.577273 234.696883 
L 294.577273 234.697458 
L 295.146364 234.585719 
L 295.146364 234.261708 
L 295.715455 234.147671 
L 295.715455 233.684346 
L 296.284545 233.575193 
L 296.284545 233.118474 
L 296.853636 232.989214 
L 296.853636 232.900168 
L 296.853636 232.908786 
L 297.422727 232.908786 
L 297.422727 232.811122 
L 297.422727 232.546857 
L 297.991818 232.486536 
L 297.991818 232.641648 
L 297.991818 232.762291 
L 298.560909 232.762291 
L 298.560909 232.653138 
L 298.560909 232.647393 
L 299.13 232.750801 
L 299.13 233.049535 
L 299.699091 233.164433 
L 299.699091 233.170178 
L 300.268182 233.287948 
L 300.268182 233.641259 
L 300.837273 233.753285 
L 300.837273 233.753285 
L 300.837273 233.779137 
L 301.406364 233.88829 
L 301.406364 234.072988 
L 303.682727 234.179268 
L 303.682727 234.262857 
L 303.682727 234.254814 
L 305.959091 234.292443 
L 305.959091 234.36253 
L 305.959091 234.437789 
L 305.959091 234.433193 
L 308.235455 234.475705 
L 308.235455 234.538899 
L 308.235455 234.54292 
L 308.235455 234.537175 
L 308.804545 234.541197 
L 308.804545 234.430895 
L 308.804545 234.413373 
L 308.804545 234.416532 
L 309.942727 234.411075 
L 309.942727 234.308241 
L 309.942727 234.272623 
L 309.942727 234.273772 
L 311.65 234.384361 
L 311.65 234.384074 
L 311.65 234.445544 
L 311.65 234.440374 
L 312.788182 234.552974 
L 312.788182 234.589454 
L 312.788182 234.58773 
L 319.617273 234.50127 
L 319.617273 234.491503 
L 319.617273 234.411936 
L 320.755455 234.298188 
L 320.755455 234.299049 
L 320.755455 234.259122 
L 323.031818 234.148246 
L 323.031818 234.150831 
L 324.17 234.023295 
L 324.17 233.922759 
L 324.17 233.928504 
L 325.308182 233.813606 
L 325.308182 233.692963 
L 325.308182 233.698708 
L 326.446364 233.644132 
L 326.446364 233.5953 
L 326.446364 233.48902 
L 326.446364 233.503382 
L 327.015455 233.503382 
L 327.015455 233.394229 
L 327.015455 233.365504 
L 327.584545 233.256351 
L 327.584545 232.813995 
L 328.153636 232.701969 
L 328.153636 232.27972 
L 328.722727 232.164822 
L 328.722727 231.558736 
L 329.291818 231.446711 
L 329.291818 231.300216 
L 329.860909 231.191063 
L 329.860909 230.791793 
L 330.43 230.771686 
L 330.43 230.892328 
L 330.43 230.978502 
L 330.999091 230.984247 
L 330.999091 230.877966 
L 330.999091 230.83488 
L 330.999091 230.849242 
L 331.568182 230.969885 
L 331.568182 231.245639 
L 331.568182 231.245639 
L 332.706364 231.349047 
L 332.706364 231.759807 
L 333.844545 231.745445 
L 333.844545 231.662144 
L 333.844545 231.555863 
L 333.844545 231.561608 
L 334.413636 231.452455 
L 334.413636 231.237022 
L 334.982727 231.116379 
L 334.982727 231.087655 
L 334.982727 231.147976 
L 334.982727 231.147976 
L 336.120909 231.05893 
L 336.120909 231.047441 
L 336.120909 231.007226 
L 336.120909 231.248512 
L 336.69 231.369155 
L 336.69 231.395007 
L 336.69 231.323195 
L 337.259091 231.31745 
L 337.259091 231.426603 
L 337.259091 231.650654 
L 337.828182 231.771297 
L 337.828182 231.85747 
L 337.828182 231.854598 
L 338.397273 231.966623 
L 338.397273 232.265358 
L 339.535455 232.357276 
L 339.535455 232.371638 
L 339.535455 232.598561 
L 339.535455 232.598561 
L 340.104545 232.713459 
L 340.104545 232.747929 
L 340.673636 232.865699 
L 340.673636 232.882934 
L 342.380909 232.851337 
L 342.380909 232.799633 
L 342.380909 232.788143 
L 342.380909 232.81974 
L 342.380909 232.816867 
L 343.519091 232.931765 
L 343.519091 232.931765 
L 343.519091 232.946127 
L 343.519091 232.946127 
L 344.657273 233.046663 
L 344.657273 233.05528 
L 344.657273 233.101239 
L 344.657273 233.049535 
L 344.657273 233.098367 
L 348.071818 232.96049 
L 348.071818 232.836974 
L 348.071818 232.839847 
L 349.21 232.722077 
L 349.21 232.641648 
L 349.21 232.641648 
L 351.486364 232.509516 
L 351.486364 232.463556 
L 351.486364 232.483664 
L 353.762727 232.443449 
L 353.762727 232.374511 
L 353.762727 232.377383 
L 353.762727 232.308444 
L 354.331818 232.184929 
L 354.331818 232.156205 
L 354.900909 232.052797 
L 354.900909 231.972368 
L 354.900909 231.972368 
L 355.47 231.863215 
L 355.47 231.808639 
L 356.608182 231.682251 
L 356.608182 231.685124 
L 356.608182 231.581716 
L 357.177273 231.472563 
L 357.177273 231.472563 
L 357.177273 231.426603 
L 357.746364 231.311706 
L 357.746364 231.254257 
L 358.315455 231.139359 
L 358.315455 231.139359 
L 358.315455 231.033078 
L 358.315455 231.035951 
L 358.884545 230.921053 
L 358.884545 230.860732 
L 358.884545 230.872221 
L 359.453636 230.875094 
L 359.453636 230.774558 
L 359.453636 230.628063 
L 359.453636 230.630936 
L 360.022727 230.513166 
L 360.022727 230.355181 
L 360.591818 230.246028 
L 360.591818 230.044957 
L 361.160909 229.935804 
L 361.160909 229.76633 
L 361.73 229.645687 
L 361.73 229.390039 
L 362.299091 229.275141 
L 362.299091 229.275141 
L 362.299091 228.890234 
L 362.868182 228.775336 
L 362.868182 228.353086 
L 363.437273 228.249678 
L 363.437273 227.660827 
L 364.006364 227.537312 
L 364.006364 226.962822 
L 364.575455 226.845052 
L 364.575455 226.204497 
L 365.144545 226.089599 
L 365.144545 225.242227 
L 365.713636 225.121585 
L 365.713636 223.714086 
L 366.282727 223.590571 
L 366.282727 219.023382 
L 366.851818 218.790714 
L 366.851818 210.696161 
L 367.420909 210.564028 
L 367.420909 202.429262 
L 367.99 202.113293 
L 367.99 196.914165 
L 368.559091 196.914165 
L 368.559091 196.827992 
L 368.559091 191.025651 
L 369.128182 190.82458 
L 369.128182 188.900041 
L 369.128182 190.82458 
L 369.697273 190.996927 
L 369.697273 191.399069 
L 369.697273 189.101112 
L 370.266364 188.95749 
L 370.266364 188.785143 
L 370.266364 193.409781 
L 370.835455 193.524679 
L 370.835455 194.960902 
L 370.835455 194.960902 
L 371.404545 195.047075 
L 371.404545 200.906865 
L 371.973636 201.050488 
L 371.973636 203.664413 
L 372.542727 203.808036 
L 372.542727 208.869285 
L 373.111818 209.070357 
L 373.111818 211.465977 
L 373.680909 211.623961 
L 373.680909 215.484528 
L 374.25 215.625278 
L 374.25 217.650353 
L 374.819091 217.762378 
L 374.819091 220.370559 
L 375.388182 220.505564 
L 375.388182 221.806782 
L 375.957273 221.936042 
L 375.957273 223.004592 
L 376.526364 223.11949 
L 376.526364 223.719831 
L 377.095455 223.834729 
L 377.095455 224.340279 
L 377.664545 224.455177 
L 377.664545 224.83434 
L 378.233636 224.943493 
L 378.233636 225.371487 
L 378.802727 225.477768 
L 378.802727 225.299676 
L 378.802727 224.888916 
L 379.371818 224.742422 
L 379.371818 224.521243 
L 379.371818 224.538478 
L 379.940909 224.42358 
L 379.940909 223.139597 
L 380.51 223.007464 
L 380.51 222.86097 
L 380.51 222.947143 
L 381.079091 222.83799 
L 381.079091 221.654542 
L 381.648182 221.643053 
L 381.648182 221.752205 
L 381.648182 222.323822 
L 382.217273 222.231904 
L 382.217273 221.752205 
L 382.217273 221.78093 
L 382.786364 221.901573 
L 382.786364 223.194173 
L 383.355455 223.300454 
L 383.355455 223.527377 
L 383.924545 223.670999 
L 383.924545 225.196268 
L 384.493636 225.319783 
L 384.493636 225.905762 
L 385.062727 226.046512 
L 385.062727 227.34773 
L 385.631818 227.459756 
L 385.631818 228.13478 
L 386.200909 228.258296 
L 386.200909 229.263652 
L 386.77 229.369932 
L 386.77 229.964528 
L 387.339091 230.096661 
L 387.339091 230.757324 
L 387.908182 230.869349 
L 387.908182 231.297343 
L 388.477273 231.406496 
L 388.477273 231.771297 
L 389.046364 231.883322 
L 389.046364 232.113118 
L 389.615455 232.222271 
L 389.615455 232.423342 
L 390.184545 232.423342 
L 390.184545 232.529623 
L 390.184545 232.638776 
L 390.753636 232.638776 
L 390.753636 232.747929 
L 390.753636 232.877189 
L 394.168182 233.020811 
L 394.168182 233.020811 
L 394.168182 233.063898 
L 394.168182 233.063898 
L 395.306364 233.175923 
L 395.306364 233.316673 
L 395.306364 233.308056 
L 395.875455 233.308056 
L 395.875455 233.408591 
L 395.875455 233.448805 
L 396.444545 233.557958 
L 396.444545 233.715943 
L 397.013636 233.830841 
L 397.013636 233.905524 
L 397.582727 234.02789 
L 397.582727 234.135033 
L 398.151818 234.244473 
L 398.151818 234.336104 
L 398.720909 234.452438 
L 398.720909 234.507014 
L 399.29 234.616455 
L 399.29 234.655807 
L 399.859091 234.770705 
L 399.859091 234.780471 
L 400.428182 234.890199 
L 400.428182 234.925817 
L 400.428182 234.924955 
L 401.566364 235.048183 
L 401.566364 235.093855 
L 402.704545 235.161932 
L 402.704545 235.161932 
" style="fill:none;stroke:#1f77b4;stroke-linecap:square;stroke-width:1.5;"/>
   </g>
   <g id="line2d_9">
    <path clip-path="url(#paa4f1086a5)" d="M 32.795455 176.122225 
L 39.055455 170.681312 
L 39.055455 170.681312 
L 45.884545 164.439186 
L 45.884545 164.439186 
L 52.713636 157.893563 
L 52.713636 157.893563 
L 60.111818 150.485334 
L 60.111818 150.485334 
L 68.079091 142.177159 
L 68.079091 142.177159 
L 76.615455 132.953887 
L 76.615455 132.953887 
L 86.859091 121.552559 
L 86.859091 121.552559 
L 103.931818 102.151569 
L 103.931818 102.151569 
L 118.159091 86.127353 
L 118.159091 86.127353 
L 127.264545 76.20859 
L 127.264545 76.20859 
L 134.662727 68.466669 
L 134.662727 68.466669 
L 141.491818 61.648044 
L 141.491818 61.648044 
L 147.751818 55.72927 
L 147.751818 55.72927 
L 153.442727 50.664785 
L 153.442727 50.664785 
L 158.564545 46.393455 
L 158.564545 46.393455 
L 163.686364 42.418381 
L 163.686364 42.418381 
L 168.239091 39.15186 
L 168.239091 39.15186 
L 172.791818 36.151925 
L 172.791818 36.151925 
L 177.344545 33.432286 
L 177.344545 33.432286 
L 181.328182 31.29243 
L 181.328182 31.29243 
L 185.311818 29.38443 
L 185.311818 29.38443 
L 189.295455 27.715131 
L 189.295455 27.715131 
L 193.279091 26.290556 
L 193.279091 26.290556 
L 197.262727 25.115873 
L 197.262727 25.115873 
L 201.246364 24.195359 
L 201.246364 24.195359 
L 205.23 23.532378 
L 205.23 23.532378 
L 209.213636 23.129358 
L 209.213636 23.129358 
L 212.628182 22.991967 
L 212.628182 22.991967 
L 216.042727 23.047041 
L 216.042727 23.047041 
L 219.457273 23.294431 
L 219.457273 23.294431 
L 223.440909 23.8252 
L 223.440909 23.8252 
L 227.424545 24.614857 
L 227.424545 24.614857 
L 231.408182 25.660512 
L 231.408182 25.660512 
L 235.391818 26.958352 
L 235.391818 26.958352 
L 239.375455 28.503658 
L 239.375455 28.503658 
L 243.359091 30.290839 
L 243.359091 30.290839 
L 247.342727 32.313463 
L 247.342727 32.313463 
L 251.326364 34.564298 
L 251.326364 34.564298 
L 255.879091 37.405838 
L 255.879091 37.405838 
L 260.431818 40.521926 
L 260.431818 40.521926 
L 264.984545 43.898388 
L 264.984545 43.898388 
L 270.106364 47.9892 
L 270.106364 47.9892 
L 275.228182 52.367358 
L 275.228182 52.367358 
L 280.919091 57.539559 
L 280.919091 57.539559 
L 287.179091 63.562926 
L 287.179091 63.562926 
L 294.008182 70.478548 
L 294.008182 70.478548 
L 301.406364 78.305056 
L 301.406364 78.305056 
L 309.942727 87.664928 
L 309.942727 87.664928 
L 321.893636 101.137111 
L 321.893636 101.137111 
L 346.933636 129.460891 
L 346.933636 129.460891 
L 356.608182 140.011718 
L 356.608182 140.011718 
L 365.144545 148.986463 
L 365.144545 148.986463 
L 372.542727 156.456116 
L 372.542727 156.456116 
L 379.940909 163.60143 
L 379.940909 163.60143 
L 386.77 169.884236 
L 386.77 169.884236 
L 393.599091 175.848675 
L 393.599091 175.848675 
L 399.859091 181.025538 
L 399.859091 181.025538 
L 402.704545 183.284866 
L 402.704545 183.284866 
" style="fill:none;stroke:#ff7f0e;stroke-dasharray:5.55,2.4;stroke-dashoffset:0;stroke-opacity:0.3;stroke-width:1.5;"/>
   </g>
   <g id="line2d_10">
    <path clip-path="url(#paa4f1086a5)" d="M 32.795455 225.936356 
L 45.315455 223.833628 
L 45.315455 223.833628 
L 58.404545 221.404624 
L 58.404545 221.404624 
L 72.631818 218.527196 
L 72.631818 218.527196 
L 89.135455 214.947454 
L 89.135455 214.947454 
L 145.475455 202.495169 
L 145.475455 202.495169 
L 157.426364 200.22819 
L 157.426364 200.22819 
L 167.67 198.504923 
L 167.67 198.504923 
L 177.344545 197.100203 
L 177.344545 197.100203 
L 186.45 196.002009 
L 186.45 196.002009 
L 194.986364 195.188094 
L 194.986364 195.188094 
L 203.522727 194.5966 
L 203.522727 194.5966 
L 212.059091 194.237363 
L 212.059091 194.237363 
L 220.026364 194.116993 
L 220.026364 194.116993 
L 227.993636 194.20599 
L 227.993636 194.20599 
L 236.53 194.532134 
L 236.53 194.532134 
L 245.066364 195.091613 
L 245.066364 195.091613 
L 253.602727 195.875111 
L 253.602727 195.875111 
L 262.708182 196.943158 
L 262.708182 196.943158 
L 271.813636 198.231661 
L 271.813636 198.231661 
L 282.057273 199.915631 
L 282.057273 199.915631 
L 292.87 201.922364 
L 292.87 201.922364 
L 305.39 204.477922 
L 305.39 204.477922 
L 321.324545 207.97287 
L 321.324545 207.97287 
L 370.266364 218.872167 
L 370.266364 218.872167 
L 384.493636 221.72309 
L 384.493636 221.72309 
L 397.582727 224.123485 
L 397.582727 224.123485 
L 402.704545 224.998785 
L 402.704545 224.998785 
" style="fill:none;stroke:#2ca02c;stroke-dasharray:5.55,2.4;stroke-dashoffset:0;stroke-opacity:0.5;stroke-width:1.5;"/>
   </g>
   <g id="patch_3">
    <path d="M 14.3 247 
L 14.3 12.320304 
" style="fill:none;stroke:#000000;stroke-linecap:square;stroke-linejoin:miter;stroke-width:0.8;"/>
   </g>
   <g id="patch_4">
    <path d="M 14.3 247 
L 421.2 247 
" style="fill:none;stroke:#000000;stroke-linecap:square;stroke-linejoin:miter;stroke-width:0.8;"/>
   </g>
   <g id="text_9">
    <!-- 34.41 kDa -->
    <g transform="translate(213.358515 18.709342)scale(0.1 -0.1)">
     <defs>
      <path d="M 2419 4116 
L 825 1625 
L 2419 1625 
L 2419 4116 
z
M 2253 4666 
L 3047 4666 
L 3047 1625 
L 3713 1625 
L 3713 1100 
L 3047 1100 
L 3047 0 
L 2419 0 
L 2419 1100 
L 313 1100 
L 313 1709 
L 2253 4666 
z
" id="DejaVuSans-34" transform="scale(0.015625)"/>
      <path d="M 684 794 
L 1344 794 
L 1344 0 
L 684 0 
L 684 794 
z
" id="DejaVuSans-2e" transform="scale(0.015625)"/>
      <path id="DejaVuSans-20" transform="scale(0.015625)"/>
      <path d="M 581 4863 
L 1159 4863 
L 1159 1991 
L 2875 3500 
L 3609 3500 
L 1753 1863 
L 3688 0 
L 2938 0 
L 1159 1709 
L 1159 0 
L 581 0 
L 581 4863 
z
" id="DejaVuSans-6b" transform="scale(0.015625)"/>
      <path d="M 1259 4147 
L 1259 519 
L 2022 519 
Q 2988 519 3436 956 
Q 3884 1394 3884 2338 
Q 3884 3275 3436 3711 
Q 2988 4147 2022 4147 
L 1259 4147 
z
M 628 4666 
L 1925 4666 
Q 3281 4666 3915 4102 
Q 4550 3538 4550 2338 
Q 4550 1131 3912 565 
Q 3275 0 1925 0 
L 628 0 
L 628 4666 
z
" id="DejaVuSans-44" transform="scale(0.015625)"/>
      <path d="M 2194 1759 
Q 1497 1759 1228 1600 
Q 959 1441 959 1056 
Q 959 750 1161 570 
Q 1363 391 1709 391 
Q 2188 391 2477 730 
Q 2766 1069 2766 1631 
L 2766 1759 
L 2194 1759 
z
M 3341 1997 
L 3341 0 
L 2766 0 
L 2766 531 
Q 2569 213 2275 61 
Q 1981 -91 1556 -91 
Q 1019 -91 701 211 
Q 384 513 384 1019 
Q 384 1609 779 1909 
Q 1175 2209 1959 2209 
L 2766 2209 
L 2766 2266 
Q 2766 2663 2505 2880 
Q 2244 3097 1772 3097 
Q 1472 3097 1187 3025 
Q 903 2953 641 2809 
L 641 3341 
Q 956 3463 1253 3523 
Q 1550 3584 1831 3584 
Q 2591 3584 2966 3190 
Q 3341 2797 3341 1997 
z
" id="DejaVuSans-61" transform="scale(0.015625)"/>
     </defs>
     <use xlink:href="#DejaVuSans-33"/>
     <use x="63.623047" xlink:href="#DejaVuSans-34"/>
     <use x="127.246094" xlink:href="#DejaVuSans-2e"/>
     <use x="159.033203" xlink:href="#DejaVuSans-34"/>
     <use x="222.65625" xlink:href="#DejaVuSans-31"/>
     <use x="286.279297" xlink:href="#DejaVuSans-20"/>
     <use x="318.066406" xlink:href="#DejaVuSans-6b"/>
     <use x="375.976562" xlink:href="#DejaVuSans-44"/>
     <use x="452.978516" xlink:href="#DejaVuSans-61"/>
    </g>
   </g>
   <g id="text_10">
    <!-- 34.56 kDa -->
    <g transform="translate(226.314932 183.42085)scale(0.1 -0.1)">
     <defs>
      <path d="M 691 4666 
L 3169 4666 
L 3169 4134 
L 1269 4134 
L 1269 2991 
Q 1406 3038 1543 3061 
Q 1681 3084 1819 3084 
Q 2600 3084 3056 2656 
Q 3513 2228 3513 1497 
Q 3513 744 3044 326 
Q 2575 -91 1722 -91 
Q 1428 -91 1123 -41 
Q 819 9 494 109 
L 494 744 
Q 775 591 1075 516 
Q 1375 441 1709 441 
Q 2250 441 2565 725 
Q 2881 1009 2881 1497 
Q 2881 1984 2565 2268 
Q 2250 2553 1709 2553 
Q 1456 2553 1204 2497 
Q 953 2441 691 2322 
L 691 4666 
z
" id="DejaVuSans-35" transform="scale(0.015625)"/>
     </defs>
     <use xlink:href="#DejaVuSans-33"/>
     <use x="63.623047" xlink:href="#DejaVuSans-34"/>
     <use x="127.246094" xlink:href="#DejaVuSans-2e"/>
     <use x="159.033203" xlink:href="#DejaVuSans-35"/>
     <use x="222.65625" xlink:href="#DejaVuSans-36"/>
     <use x="286.279297" xlink:href="#DejaVuSans-20"/>
     <use x="318.066406" xlink:href="#DejaVuSans-6b"/>
     <use x="375.976562" xlink:href="#DejaVuSans-44"/>
     <use x="452.978516" xlink:href="#DejaVuSans-61"/>
    </g>
   </g>
   <g id="legend_1">
    <g id="patch_5">
     <path d="M 19.2 38.469679 
L 172.43 38.469679 
Q 173.83 38.469679 173.83 37.069679 
L 173.83 17.220304 
Q 173.83 15.820304 172.43 15.820304 
L 19.2 15.820304 
Q 17.8 15.820304 17.8 17.220304 
L 17.8 37.069679 
Q 17.8 38.469679 19.2 38.469679 
z
" style="fill:#ffffff;opacity:0.8;stroke:#cccccc;stroke-linejoin:miter;"/>
    </g>
    <g id="line2d_11">
     <path d="M 20.6 21.48921 
L 34.6 21.48921 
" style="fill:none;stroke:#ff7f0e;stroke-dasharray:5.55,2.4;stroke-dashoffset:0;stroke-opacity:0.3;stroke-width:1.5;"/>
    </g>
    <g id="line2d_12"/>
    <g id="text_11">
     <!-- 1st population : Monomer -->
     <g transform="translate(40.2 23.93921)scale(0.07 -0.07)">
      <defs>
       <path d="M 2834 3397 
L 2834 2853 
Q 2591 2978 2328 3040 
Q 2066 3103 1784 3103 
Q 1356 3103 1142 2972 
Q 928 2841 928 2578 
Q 928 2378 1081 2264 
Q 1234 2150 1697 2047 
L 1894 2003 
Q 2506 1872 2764 1633 
Q 3022 1394 3022 966 
Q 3022 478 2636 193 
Q 2250 -91 1575 -91 
Q 1294 -91 989 -36 
Q 684 19 347 128 
L 347 722 
Q 666 556 975 473 
Q 1284 391 1588 391 
Q 1994 391 2212 530 
Q 2431 669 2431 922 
Q 2431 1156 2273 1281 
Q 2116 1406 1581 1522 
L 1381 1569 
Q 847 1681 609 1914 
Q 372 2147 372 2553 
Q 372 3047 722 3315 
Q 1072 3584 1716 3584 
Q 2034 3584 2315 3537 
Q 2597 3491 2834 3397 
z
" id="DejaVuSans-73" transform="scale(0.015625)"/>
       <path d="M 1172 4494 
L 1172 3500 
L 2356 3500 
L 2356 3053 
L 1172 3053 
L 1172 1153 
Q 1172 725 1289 603 
Q 1406 481 1766 481 
L 2356 481 
L 2356 0 
L 1766 0 
Q 1100 0 847 248 
Q 594 497 594 1153 
L 594 3053 
L 172 3053 
L 172 3500 
L 594 3500 
L 594 4494 
L 1172 4494 
z
" id="DejaVuSans-74" transform="scale(0.015625)"/>
       <path d="M 1159 525 
L 1159 -1331 
L 581 -1331 
L 581 3500 
L 1159 3500 
L 1159 2969 
Q 1341 3281 1617 3432 
Q 1894 3584 2278 3584 
Q 2916 3584 3314 3078 
Q 3713 2572 3713 1747 
Q 3713 922 3314 415 
Q 2916 -91 2278 -91 
Q 1894 -91 1617 61 
Q 1341 213 1159 525 
z
M 3116 1747 
Q 3116 2381 2855 2742 
Q 2594 3103 2138 3103 
Q 1681 3103 1420 2742 
Q 1159 2381 1159 1747 
Q 1159 1113 1420 752 
Q 1681 391 2138 391 
Q 2594 391 2855 752 
Q 3116 1113 3116 1747 
z
" id="DejaVuSans-70" transform="scale(0.015625)"/>
       <path d="M 1959 3097 
Q 1497 3097 1228 2736 
Q 959 2375 959 1747 
Q 959 1119 1226 758 
Q 1494 397 1959 397 
Q 2419 397 2687 759 
Q 2956 1122 2956 1747 
Q 2956 2369 2687 2733 
Q 2419 3097 1959 3097 
z
M 1959 3584 
Q 2709 3584 3137 3096 
Q 3566 2609 3566 1747 
Q 3566 888 3137 398 
Q 2709 -91 1959 -91 
Q 1206 -91 779 398 
Q 353 888 353 1747 
Q 353 2609 779 3096 
Q 1206 3584 1959 3584 
z
" id="DejaVuSans-6f" transform="scale(0.015625)"/>
       <path d="M 544 1381 
L 544 3500 
L 1119 3500 
L 1119 1403 
Q 1119 906 1312 657 
Q 1506 409 1894 409 
Q 2359 409 2629 706 
Q 2900 1003 2900 1516 
L 2900 3500 
L 3475 3500 
L 3475 0 
L 2900 0 
L 2900 538 
Q 2691 219 2414 64 
Q 2138 -91 1772 -91 
Q 1169 -91 856 284 
Q 544 659 544 1381 
z
M 1991 3584 
L 1991 3584 
z
" id="DejaVuSans-75" transform="scale(0.015625)"/>
       <path d="M 603 4863 
L 1178 4863 
L 1178 0 
L 603 0 
L 603 4863 
z
" id="DejaVuSans-6c" transform="scale(0.015625)"/>
       <path d="M 603 3500 
L 1178 3500 
L 1178 0 
L 603 0 
L 603 3500 
z
M 603 4863 
L 1178 4863 
L 1178 4134 
L 603 4134 
L 603 4863 
z
" id="DejaVuSans-69" transform="scale(0.015625)"/>
       <path d="M 3513 2113 
L 3513 0 
L 2938 0 
L 2938 2094 
Q 2938 2591 2744 2837 
Q 2550 3084 2163 3084 
Q 1697 3084 1428 2787 
Q 1159 2491 1159 1978 
L 1159 0 
L 581 0 
L 581 3500 
L 1159 3500 
L 1159 2956 
Q 1366 3272 1645 3428 
Q 1925 3584 2291 3584 
Q 2894 3584 3203 3211 
Q 3513 2838 3513 2113 
z
" id="DejaVuSans-6e" transform="scale(0.015625)"/>
       <path d="M 750 794 
L 1409 794 
L 1409 0 
L 750 0 
L 750 794 
z
M 750 3309 
L 1409 3309 
L 1409 2516 
L 750 2516 
L 750 3309 
z
" id="DejaVuSans-3a" transform="scale(0.015625)"/>
       <path d="M 628 4666 
L 1569 4666 
L 2759 1491 
L 3956 4666 
L 4897 4666 
L 4897 0 
L 4281 0 
L 4281 4097 
L 3078 897 
L 2444 897 
L 1241 4097 
L 1241 0 
L 628 0 
L 628 4666 
z
" id="DejaVuSans-4d" transform="scale(0.015625)"/>
       <path d="M 3597 1894 
L 3597 1613 
L 953 1613 
Q 991 1019 1311 708 
Q 1631 397 2203 397 
Q 2534 397 2845 478 
Q 3156 559 3463 722 
L 3463 178 
Q 3153 47 2828 -22 
Q 2503 -91 2169 -91 
Q 1331 -91 842 396 
Q 353 884 353 1716 
Q 353 2575 817 3079 
Q 1281 3584 2069 3584 
Q 2775 3584 3186 3129 
Q 3597 2675 3597 1894 
z
M 3022 2063 
Q 3016 2534 2758 2815 
Q 2500 3097 2075 3097 
Q 1594 3097 1305 2825 
Q 1016 2553 972 2059 
L 3022 2063 
z
" id="DejaVuSans-65" transform="scale(0.015625)"/>
       <path d="M 2631 2963 
Q 2534 3019 2420 3045 
Q 2306 3072 2169 3072 
Q 1681 3072 1420 2755 
Q 1159 2438 1159 1844 
L 1159 0 
L 581 0 
L 581 3500 
L 1159 3500 
L 1159 2956 
Q 1341 3275 1631 3429 
Q 1922 3584 2338 3584 
Q 2397 3584 2469 3576 
Q 2541 3569 2628 3553 
L 2631 2963 
z
" id="DejaVuSans-72" transform="scale(0.015625)"/>
      </defs>
      <use xlink:href="#DejaVuSans-31"/>
      <use x="63.623047" xlink:href="#DejaVuSans-73"/>
      <use x="115.722656" xlink:href="#DejaVuSans-74"/>
      <use x="154.931641" xlink:href="#DejaVuSans-20"/>
      <use x="186.71875" xlink:href="#DejaVuSans-70"/>
      <use x="250.195312" xlink:href="#DejaVuSans-6f"/>
      <use x="311.376953" xlink:href="#DejaVuSans-70"/>
      <use x="374.853516" xlink:href="#DejaVuSans-75"/>
      <use x="438.232422" xlink:href="#DejaVuSans-6c"/>
      <use x="466.015625" xlink:href="#DejaVuSans-61"/>
      <use x="527.294922" xlink:href="#DejaVuSans-74"/>
      <use x="566.503906" xlink:href="#DejaVuSans-69"/>
      <use x="594.287109" xlink:href="#DejaVuSans-6f"/>
      <use x="655.46875" xlink:href="#DejaVuSans-6e"/>
      <use x="718.847656" xlink:href="#DejaVuSans-20"/>
      <use x="750.634766" xlink:href="#DejaVuSans-3a"/>
      <use x="784.326172" xlink:href="#DejaVuSans-20"/>
      <use x="816.113281" xlink:href="#DejaVuSans-4d"/>
      <use x="902.392578" xlink:href="#DejaVuSans-6f"/>
      <use x="963.574219" xlink:href="#DejaVuSans-6e"/>
      <use x="1026.953125" xlink:href="#DejaVuSans-6f"/>
      <use x="1088.134766" xlink:href="#DejaVuSans-6d"/>
      <use x="1185.546875" xlink:href="#DejaVuSans-65"/>
      <use x="1247.070312" xlink:href="#DejaVuSans-72"/>
     </g>
    </g>
    <g id="line2d_13">
     <path d="M 20.6 31.763898 
L 34.6 31.763898 
" style="fill:none;stroke:#2ca02c;stroke-dasharray:5.55,2.4;stroke-dashoffset:0;stroke-opacity:0.5;stroke-width:1.5;"/>
    </g>
    <g id="line2d_14"/>
    <g id="text_12">
     <!-- 2nd population : Monomer + adducts -->
     <g transform="translate(40.2 34.213898)scale(0.07 -0.07)">
      <defs>
       <path d="M 2906 2969 
L 2906 4863 
L 3481 4863 
L 3481 0 
L 2906 0 
L 2906 525 
Q 2725 213 2448 61 
Q 2172 -91 1784 -91 
Q 1150 -91 751 415 
Q 353 922 353 1747 
Q 353 2572 751 3078 
Q 1150 3584 1784 3584 
Q 2172 3584 2448 3432 
Q 2725 3281 2906 2969 
z
M 947 1747 
Q 947 1113 1208 752 
Q 1469 391 1925 391 
Q 2381 391 2643 752 
Q 2906 1113 2906 1747 
Q 2906 2381 2643 2742 
Q 2381 3103 1925 3103 
Q 1469 3103 1208 2742 
Q 947 2381 947 1747 
z
" id="DejaVuSans-64" transform="scale(0.015625)"/>
       <path d="M 2944 4013 
L 2944 2272 
L 4684 2272 
L 4684 1741 
L 2944 1741 
L 2944 0 
L 2419 0 
L 2419 1741 
L 678 1741 
L 678 2272 
L 2419 2272 
L 2419 4013 
L 2944 4013 
z
" id="DejaVuSans-2b" transform="scale(0.015625)"/>
       <path d="M 3122 3366 
L 3122 2828 
Q 2878 2963 2633 3030 
Q 2388 3097 2138 3097 
Q 1578 3097 1268 2742 
Q 959 2388 959 1747 
Q 959 1106 1268 751 
Q 1578 397 2138 397 
Q 2388 397 2633 464 
Q 2878 531 3122 666 
L 3122 134 
Q 2881 22 2623 -34 
Q 2366 -91 2075 -91 
Q 1284 -91 818 406 
Q 353 903 353 1747 
Q 353 2603 823 3093 
Q 1294 3584 2113 3584 
Q 2378 3584 2631 3529 
Q 2884 3475 3122 3366 
z
" id="DejaVuSans-63" transform="scale(0.015625)"/>
      </defs>
      <use xlink:href="#DejaVuSans-32"/>
      <use x="63.623047" xlink:href="#DejaVuSans-6e"/>
      <use x="127.001953" xlink:href="#DejaVuSans-64"/>
      <use x="190.478516" xlink:href="#DejaVuSans-20"/>
      <use x="222.265625" xlink:href="#DejaVuSans-70"/>
      <use x="285.742188" xlink:href="#DejaVuSans-6f"/>
      <use x="346.923828" xlink:href="#DejaVuSans-70"/>
      <use x="410.400391" xlink:href="#DejaVuSans-75"/>
      <use x="473.779297" xlink:href="#DejaVuSans-6c"/>
      <use x="501.5625" xlink:href="#DejaVuSans-61"/>
      <use x="562.841797" xlink:href="#DejaVuSans-74"/>
      <use x="602.050781" xlink:href="#DejaVuSans-69"/>
      <use x="629.833984" xlink:href="#DejaVuSans-6f"/>
      <use x="691.015625" xlink:href="#DejaVuSans-6e"/>
      <use x="754.394531" xlink:href="#DejaVuSans-20"/>
      <use x="786.181641" xlink:href="#DejaVuSans-3a"/>
      <use x="819.873047" xlink:href="#DejaVuSans-20"/>
      <use x="851.660156" xlink:href="#DejaVuSans-4d"/>
      <use x="937.939453" xlink:href="#DejaVuSans-6f"/>
      <use x="999.121094" xlink:href="#DejaVuSans-6e"/>
      <use x="1062.5" xlink:href="#DejaVuSans-6f"/>
      <use x="1123.681641" xlink:href="#DejaVuSans-6d"/>
      <use x="1221.09375" xlink:href="#DejaVuSans-65"/>
      <use x="1282.617188" xlink:href="#DejaVuSans-72"/>
      <use x="1323.730469" xlink:href="#DejaVuSans-20"/>
      <use x="1355.517578" xlink:href="#DejaVuSans-2b"/>
      <use x="1439.306641" xlink:href="#DejaVuSans-20"/>
      <use x="1471.09375" xlink:href="#DejaVuSans-61"/>
      <use x="1532.373047" xlink:href="#DejaVuSans-64"/>
      <use x="1595.849609" xlink:href="#DejaVuSans-64"/>
      <use x="1659.326172" xlink:href="#DejaVuSans-75"/>
      <use x="1722.705078" xlink:href="#DejaVuSans-63"/>
      <use x="1777.685547" xlink:href="#DejaVuSans-74"/>
      <use x="1816.894531" xlink:href="#DejaVuSans-73"/>
     </g>
    </g>
   </g>
  </g>
 </g>
 <defs>
  <clipPath id="paa4f1086a5">
   <rect height="234.679696" width="406.9" x="14.3" y="12.320304"/>
  </clipPath>
 </defs>
</svg>
