<?xml version="1.0" encoding="utf-8" standalone="no"?>
<!DOCTYPE svg PUBLIC "-//W3C//DTD SVG 1.1//EN"
  "http://www.w3.org/Graphics/SVG/1.1/DTD/svg11.dtd">
<svg height="288pt" version="1.1" viewBox="0 0 432 288" width="432pt" xmlns="http://www.w3.org/2000/svg" xmlns:xlink="http://www.w3.org/1999/xlink">
 <metadata>
  <rdf:RDF xmlns:cc="http://creativecommons.org/ns#" xmlns:dc="http://purl.org/dc/elements/1.1/" xmlns:rdf="http://www.w3.org/1999/02/22-rdf-syntax-ns#">
   <cc:Work>
    <dc:type rdf:resource="http://purl.org/dc/dcmitype/StillImage"/>
    <dc:date>2022-05-18T16:14:54.032686</dc:date>
    <dc:format>image/svg+xml</dc:format>
    <dc:creator>
     <cc:Agent>
      <dc:title>Matplotlib v3.4.2, https://matplotlib.org/</dc:title>
     </cc:Agent>
    </dc:creator>
   </cc:Work>
  </rdf:RDF>
 </metadata>
 <defs>
  <style type="text/css">*{stroke-linecap:butt;stroke-linejoin:round;}</style>
 </defs>
 <g id="figure_1">
  <g id="patch_1">
   <path d="M 0 288 
L 432 288 
L 432 0 
L 0 0 
z
" style="fill:none;"/>
  </g>
  <g id="axes_1">
   <g id="patch_2">
    <path d="M 14.3 247 
L 421.2 247 
L 421.2 22.230156 
L 14.3 22.230156 
z
" style="fill:#ffffff;"/>
   </g>
   <g id="matplotlib.axis_1">
    <g id="xtick_1">
     <g id="line2d_1">
      <defs>
       <path d="M 0 0 
L 0 3.5 
" id="m2324e5a213" style="stroke:#000000;stroke-width:0.8;"/>
      </defs>
      <g>
       <use style="stroke:#000000;stroke-width:0.8;" x="61.25" xlink:href="#m2324e5a213" y="247"/>
      </g>
     </g>
     <g id="text_1">
      <!-- 2600 -->
      <g transform="translate(48.525 261.598438)scale(0.1 -0.1)">
       <defs>
        <path d="M 1228 531 
L 3431 531 
L 3431 0 
L 469 0 
L 469 531 
Q 828 903 1448 1529 
Q 2069 2156 2228 2338 
Q 2531 2678 2651 2914 
Q 2772 3150 2772 3378 
Q 2772 3750 2511 3984 
Q 2250 4219 1831 4219 
Q 1534 4219 1204 4116 
Q 875 4013 500 3803 
L 500 4441 
Q 881 4594 1212 4672 
Q 1544 4750 1819 4750 
Q 2544 4750 2975 4387 
Q 3406 4025 3406 3419 
Q 3406 3131 3298 2873 
Q 3191 2616 2906 2266 
Q 2828 2175 2409 1742 
Q 1991 1309 1228 531 
z
" id="DejaVuSans-32" transform="scale(0.015625)"/>
        <path d="M 2113 2584 
Q 1688 2584 1439 2293 
Q 1191 2003 1191 1497 
Q 1191 994 1439 701 
Q 1688 409 2113 409 
Q 2538 409 2786 701 
Q 3034 994 3034 1497 
Q 3034 2003 2786 2293 
Q 2538 2584 2113 2584 
z
M 3366 4563 
L 3366 3988 
Q 3128 4100 2886 4159 
Q 2644 4219 2406 4219 
Q 1781 4219 1451 3797 
Q 1122 3375 1075 2522 
Q 1259 2794 1537 2939 
Q 1816 3084 2150 3084 
Q 2853 3084 3261 2657 
Q 3669 2231 3669 1497 
Q 3669 778 3244 343 
Q 2819 -91 2113 -91 
Q 1303 -91 875 529 
Q 447 1150 447 2328 
Q 447 3434 972 4092 
Q 1497 4750 2381 4750 
Q 2619 4750 2861 4703 
Q 3103 4656 3366 4563 
z
" id="DejaVuSans-36" transform="scale(0.015625)"/>
        <path d="M 2034 4250 
Q 1547 4250 1301 3770 
Q 1056 3291 1056 2328 
Q 1056 1369 1301 889 
Q 1547 409 2034 409 
Q 2525 409 2770 889 
Q 3016 1369 3016 2328 
Q 3016 3291 2770 3770 
Q 2525 4250 2034 4250 
z
M 2034 4750 
Q 2819 4750 3233 4129 
Q 3647 3509 3647 2328 
Q 3647 1150 3233 529 
Q 2819 -91 2034 -91 
Q 1250 -91 836 529 
Q 422 1150 422 2328 
Q 422 3509 836 4129 
Q 1250 4750 2034 4750 
z
" id="DejaVuSans-30" transform="scale(0.015625)"/>
       </defs>
       <use xlink:href="#DejaVuSans-32"/>
       <use x="63.623047" xlink:href="#DejaVuSans-36"/>
       <use x="127.246094" xlink:href="#DejaVuSans-30"/>
       <use x="190.869141" xlink:href="#DejaVuSans-30"/>
      </g>
     </g>
    </g>
    <g id="xtick_2">
     <g id="line2d_2">
      <g>
       <use style="stroke:#000000;stroke-width:0.8;" x="118.159091" xlink:href="#m2324e5a213" y="247"/>
      </g>
     </g>
     <g id="text_2">
      <!-- 2700 -->
      <g transform="translate(105.434091 261.598438)scale(0.1 -0.1)">
       <defs>
        <path d="M 525 4666 
L 3525 4666 
L 3525 4397 
L 1831 0 
L 1172 0 
L 2766 4134 
L 525 4134 
L 525 4666 
z
" id="DejaVuSans-37" transform="scale(0.015625)"/>
       </defs>
       <use xlink:href="#DejaVuSans-32"/>
       <use x="63.623047" xlink:href="#DejaVuSans-37"/>
       <use x="127.246094" xlink:href="#DejaVuSans-30"/>
       <use x="190.869141" xlink:href="#DejaVuSans-30"/>
      </g>
     </g>
    </g>
    <g id="xtick_3">
     <g id="line2d_3">
      <g>
       <use style="stroke:#000000;stroke-width:0.8;" x="175.068182" xlink:href="#m2324e5a213" y="247"/>
      </g>
     </g>
     <g id="text_3">
      <!-- 2800 -->
      <g transform="translate(162.343182 261.598438)scale(0.1 -0.1)">
       <defs>
        <path d="M 2034 2216 
Q 1584 2216 1326 1975 
Q 1069 1734 1069 1313 
Q 1069 891 1326 650 
Q 1584 409 2034 409 
Q 2484 409 2743 651 
Q 3003 894 3003 1313 
Q 3003 1734 2745 1975 
Q 2488 2216 2034 2216 
z
M 1403 2484 
Q 997 2584 770 2862 
Q 544 3141 544 3541 
Q 544 4100 942 4425 
Q 1341 4750 2034 4750 
Q 2731 4750 3128 4425 
Q 3525 4100 3525 3541 
Q 3525 3141 3298 2862 
Q 3072 2584 2669 2484 
Q 3125 2378 3379 2068 
Q 3634 1759 3634 1313 
Q 3634 634 3220 271 
Q 2806 -91 2034 -91 
Q 1263 -91 848 271 
Q 434 634 434 1313 
Q 434 1759 690 2068 
Q 947 2378 1403 2484 
z
M 1172 3481 
Q 1172 3119 1398 2916 
Q 1625 2713 2034 2713 
Q 2441 2713 2670 2916 
Q 2900 3119 2900 3481 
Q 2900 3844 2670 4047 
Q 2441 4250 2034 4250 
Q 1625 4250 1398 4047 
Q 1172 3844 1172 3481 
z
" id="DejaVuSans-38" transform="scale(0.015625)"/>
       </defs>
       <use xlink:href="#DejaVuSans-32"/>
       <use x="63.623047" xlink:href="#DejaVuSans-38"/>
       <use x="127.246094" xlink:href="#DejaVuSans-30"/>
       <use x="190.869141" xlink:href="#DejaVuSans-30"/>
      </g>
     </g>
    </g>
    <g id="xtick_4">
     <g id="line2d_4">
      <g>
       <use style="stroke:#000000;stroke-width:0.8;" x="231.977273" xlink:href="#m2324e5a213" y="247"/>
      </g>
     </g>
     <g id="text_4">
      <!-- 2900 -->
      <g transform="translate(219.252273 261.598438)scale(0.1 -0.1)">
       <defs>
        <path d="M 703 97 
L 703 672 
Q 941 559 1184 500 
Q 1428 441 1663 441 
Q 2288 441 2617 861 
Q 2947 1281 2994 2138 
Q 2813 1869 2534 1725 
Q 2256 1581 1919 1581 
Q 1219 1581 811 2004 
Q 403 2428 403 3163 
Q 403 3881 828 4315 
Q 1253 4750 1959 4750 
Q 2769 4750 3195 4129 
Q 3622 3509 3622 2328 
Q 3622 1225 3098 567 
Q 2575 -91 1691 -91 
Q 1453 -91 1209 -44 
Q 966 3 703 97 
z
M 1959 2075 
Q 2384 2075 2632 2365 
Q 2881 2656 2881 3163 
Q 2881 3666 2632 3958 
Q 2384 4250 1959 4250 
Q 1534 4250 1286 3958 
Q 1038 3666 1038 3163 
Q 1038 2656 1286 2365 
Q 1534 2075 1959 2075 
z
" id="DejaVuSans-39" transform="scale(0.015625)"/>
       </defs>
       <use xlink:href="#DejaVuSans-32"/>
       <use x="63.623047" xlink:href="#DejaVuSans-39"/>
       <use x="127.246094" xlink:href="#DejaVuSans-30"/>
       <use x="190.869141" xlink:href="#DejaVuSans-30"/>
      </g>
     </g>
    </g>
    <g id="xtick_5">
     <g id="line2d_5">
      <g>
       <use style="stroke:#000000;stroke-width:0.8;" x="288.886364" xlink:href="#m2324e5a213" y="247"/>
      </g>
     </g>
     <g id="text_5">
      <!-- 3000 -->
      <g transform="translate(276.161364 261.598438)scale(0.1 -0.1)">
       <defs>
        <path d="M 2597 2516 
Q 3050 2419 3304 2112 
Q 3559 1806 3559 1356 
Q 3559 666 3084 287 
Q 2609 -91 1734 -91 
Q 1441 -91 1130 -33 
Q 819 25 488 141 
L 488 750 
Q 750 597 1062 519 
Q 1375 441 1716 441 
Q 2309 441 2620 675 
Q 2931 909 2931 1356 
Q 2931 1769 2642 2001 
Q 2353 2234 1838 2234 
L 1294 2234 
L 1294 2753 
L 1863 2753 
Q 2328 2753 2575 2939 
Q 2822 3125 2822 3475 
Q 2822 3834 2567 4026 
Q 2313 4219 1838 4219 
Q 1578 4219 1281 4162 
Q 984 4106 628 3988 
L 628 4550 
Q 988 4650 1302 4700 
Q 1616 4750 1894 4750 
Q 2613 4750 3031 4423 
Q 3450 4097 3450 3541 
Q 3450 3153 3228 2886 
Q 3006 2619 2597 2516 
z
" id="DejaVuSans-33" transform="scale(0.015625)"/>
       </defs>
       <use xlink:href="#DejaVuSans-33"/>
       <use x="63.623047" xlink:href="#DejaVuSans-30"/>
       <use x="127.246094" xlink:href="#DejaVuSans-30"/>
       <use x="190.869141" xlink:href="#DejaVuSans-30"/>
      </g>
     </g>
    </g>
    <g id="xtick_6">
     <g id="line2d_6">
      <g>
       <use style="stroke:#000000;stroke-width:0.8;" x="345.795455" xlink:href="#m2324e5a213" y="247"/>
      </g>
     </g>
     <g id="text_6">
      <!-- 3100 -->
      <g transform="translate(333.070455 261.598438)scale(0.1 -0.1)">
       <defs>
        <path d="M 794 531 
L 1825 531 
L 1825 4091 
L 703 3866 
L 703 4441 
L 1819 4666 
L 2450 4666 
L 2450 531 
L 3481 531 
L 3481 0 
L 794 0 
L 794 531 
z
" id="DejaVuSans-31" transform="scale(0.015625)"/>
       </defs>
       <use xlink:href="#DejaVuSans-33"/>
       <use x="63.623047" xlink:href="#DejaVuSans-31"/>
       <use x="127.246094" xlink:href="#DejaVuSans-30"/>
       <use x="190.869141" xlink:href="#DejaVuSans-30"/>
      </g>
     </g>
    </g>
    <g id="xtick_7">
     <g id="line2d_7">
      <g>
       <use style="stroke:#000000;stroke-width:0.8;" x="402.704545" xlink:href="#m2324e5a213" y="247"/>
      </g>
     </g>
     <g id="text_7">
      <!-- 3200 -->
      <g transform="translate(389.979545 261.598438)scale(0.1 -0.1)">
       <use xlink:href="#DejaVuSans-33"/>
       <use x="63.623047" xlink:href="#DejaVuSans-32"/>
       <use x="127.246094" xlink:href="#DejaVuSans-30"/>
       <use x="190.869141" xlink:href="#DejaVuSans-30"/>
      </g>
     </g>
    </g>
    <g id="text_8">
     <!-- m/z -->
     <g transform="translate(208.571094 275.276563)scale(0.1 -0.1)">
      <defs>
       <path d="M 3328 2828 
Q 3544 3216 3844 3400 
Q 4144 3584 4550 3584 
Q 5097 3584 5394 3201 
Q 5691 2819 5691 2113 
L 5691 0 
L 5113 0 
L 5113 2094 
Q 5113 2597 4934 2840 
Q 4756 3084 4391 3084 
Q 3944 3084 3684 2787 
Q 3425 2491 3425 1978 
L 3425 0 
L 2847 0 
L 2847 2094 
Q 2847 2600 2669 2842 
Q 2491 3084 2119 3084 
Q 1678 3084 1418 2786 
Q 1159 2488 1159 1978 
L 1159 0 
L 581 0 
L 581 3500 
L 1159 3500 
L 1159 2956 
Q 1356 3278 1631 3431 
Q 1906 3584 2284 3584 
Q 2666 3584 2933 3390 
Q 3200 3197 3328 2828 
z
" id="DejaVuSans-6d" transform="scale(0.015625)"/>
       <path d="M 1625 4666 
L 2156 4666 
L 531 -594 
L 0 -594 
L 1625 4666 
z
" id="DejaVuSans-2f" transform="scale(0.015625)"/>
       <path d="M 353 3500 
L 3084 3500 
L 3084 2975 
L 922 459 
L 3084 459 
L 3084 0 
L 275 0 
L 275 525 
L 2438 3041 
L 353 3041 
L 353 3500 
z
" id="DejaVuSans-7a" transform="scale(0.015625)"/>
      </defs>
      <use xlink:href="#DejaVuSans-6d"/>
      <use x="97.412109" xlink:href="#DejaVuSans-2f"/>
      <use x="131.103516" xlink:href="#DejaVuSans-7a"/>
     </g>
    </g>
   </g>
   <g id="matplotlib.axis_2"/>
   <g id="line2d_8">
    <path clip-path="url(#p1c154af941)" d="M 32.795455 236.378495 
L 32.795455 236.17711 
L 32.795455 236.187565 
L 34.502727 236.303388 
L 34.502727 236.353734 
L 34.502727 236.347407 
L 35.071818 236.347131 
L 35.071818 236.457728 
L 35.071818 236.501196 
L 36.21 236.614818 
L 36.21 236.664889 
L 36.21 236.664614 
L 49.299091 236.655811 
L 49.299091 236.64233 
L 49.299091 236.631876 
L 49.299091 236.646732 
L 49.299091 236.638478 
L 52.144545 236.519629 
L 52.144545 236.420312 
L 53.282727 236.305589 
L 53.282727 236.249466 
L 53.282727 236.251116 
L 55.559091 236.1529 
L 55.559091 236.142996 
L 55.559091 236.10448 
L 56.128182 235.993058 
L 56.128182 235.993609 
L 56.128182 235.951791 
L 57.266364 235.835417 
L 57.266364 235.748481 
L 57.835455 235.640911 
L 57.835455 235.576259 
L 58.404545 235.465113 
L 58.404545 235.453007 
L 58.973636 235.336909 
L 58.973636 234.879943 
L 59.542727 234.750364 
L 59.542727 234.274139 
L 60.111818 234.164093 
L 60.111818 233.60561 
L 61.25 233.520324 
L 61.25 233.503817 
L 61.25 233.382767 
L 61.25 233.602859 
L 61.819091 233.718407 
L 61.819091 233.718407 
L 61.819091 233.721158 
L 61.819091 233.674389 
L 61.819091 233.682642 
L 62.388182 233.789937 
L 62.388182 234.015531 
L 62.957273 234.133831 
L 62.957273 234.194356 
L 63.526364 234.309904 
L 63.526364 234.400692 
L 63.526364 234.375932 
L 64.095455 234.375932 
L 64.095455 234.265886 
L 64.095455 233.894481 
L 64.664545 233.781683 
L 64.664545 233.470803 
L 65.233636 233.347002 
L 65.233636 233.148919 
L 65.233636 233.242458 
L 65.802727 233.280974 
L 65.802727 233.137914 
L 66.371818 233.242458 
L 66.371818 233.468052 
L 67.51 233.583601 
L 67.51 233.921992 
L 68.079091 233.921992 
L 68.079091 234.029287 
L 68.079091 234.169596 
L 68.648182 234.290646 
L 68.648182 234.326411 
L 68.648182 234.320909 
L 69.217273 234.320909 
L 69.217273 234.428204 
L 69.217273 234.485978 
L 69.786364 234.485978 
L 69.786364 234.594924 
L 73.200909 234.549254 
L 73.200909 234.51349 
L 73.200909 234.469471 
L 73.200909 234.469471 
L 74.908182 234.386937 
L 74.908182 234.364927 
L 74.908182 234.263135 
L 75.477273 234.263135 
L 75.477273 234.153089 
L 75.477273 234.100817 
L 76.046364 234.100817 
L 76.046364 233.993522 
L 76.046364 233.908236 
L 76.615455 233.792688 
L 76.615455 233.542333 
L 77.184545 233.432287 
L 77.184545 233.209444 
L 78.322727 233.069135 
L 78.322727 232.86555 
L 78.322727 232.868301 
L 78.891818 232.755504 
L 78.891818 232.738997 
L 79.460909 232.623449 
L 79.460909 232.6262 
L 79.460909 232.612444 
L 79.460909 232.612444 
L 80.03 232.623449 
L 80.03 232.507901 
L 80.03 232.488643 
L 80.03 232.488643 
L 80.599091 232.370343 
L 80.599091 232.370343 
L 80.599091 232.301564 
L 81.168182 232.191518 
L 81.168182 232.020947 
L 81.737273 231.905399 
L 81.737273 231.905399 
L 81.737273 231.666048 
L 82.306364 231.558754 
L 82.306364 231.352417 
L 82.875455 231.231367 
L 82.875455 231.234118 
L 82.875455 230.981012 
L 83.444545 230.868215 
L 83.444545 230.681136 
L 83.444545 230.683888 
L 84.013636 230.568339 
L 84.013636 230.295975 
L 84.582727 230.180427 
L 84.582727 230.183178 
L 84.582727 229.880552 
L 85.151818 229.773257 
L 85.151818 229.558667 
L 85.720909 229.44587 
L 85.720909 229.060709 
L 86.29 228.936907 
L 86.29 228.510478 
L 86.859091 228.51323 
L 86.859091 228.405935 
L 86.859091 227.974004 
L 87.428182 227.86946 
L 87.428182 227.31923 
L 87.997273 227.19818 
L 87.997273 226.282046 
L 88.566364 226.144489 
L 88.566364 225.04678 
L 89.135455 224.933982 
L 89.135455 223.555656 
L 89.704545 223.431854 
L 89.704545 222.064532 
L 90.273636 221.899463 
L 90.273636 219.838851 
L 90.842727 219.698543 
L 90.842727 217.093203 
L 91.411818 216.947392 
L 91.411818 212.476772 
L 91.980909 212.270435 
L 91.980909 191.518505 
L 92.55 191.023298 
L 92.55 175.0116 
L 93.119091 174.46137 
L 93.119091 159.550133 
L 93.119091 160.265432 
L 93.688182 160.40299 
L 93.688182 161.641008 
L 93.688182 152.809814 
L 94.257273 152.452164 
L 94.257273 149.783548 
L 94.257273 157.12912 
L 94.826364 157.294189 
L 94.826364 158.009489 
L 94.826364 154.983223 
L 94.826364 155.836079 
L 95.395455 156.02866 
L 95.395455 169.34423 
L 95.964545 169.481787 
L 95.964545 177.487636 
L 96.533636 177.900309 
L 96.533636 186.236296 
L 97.102727 186.346342 
L 97.102727 196.057904 
L 97.671818 196.222973 
L 97.671818 201.422648 
L 98.240909 201.615228 
L 98.240909 207.887852 
L 98.81 208.052921 
L 98.81 212.325458 
L 99.379091 212.537297 
L 99.379091 215.428757 
L 99.948182 215.555309 
L 99.948182 217.318797 
L 100.517273 217.442599 
L 100.517273 218.559566 
L 100.517273 218.548562 
L 101.086364 218.650354 
L 101.086364 220.435851 
L 101.655455 220.573408 
L 101.655455 221.228182 
L 102.224545 221.373993 
L 102.224545 222.39467 
L 102.224545 222.367159 
L 102.793636 222.259864 
L 102.793636 222.213094 
L 102.793636 222.63402 
L 103.362727 222.763325 
L 103.362727 222.815596 
L 103.362727 222.045274 
L 103.931818 222.037021 
L 103.931818 222.138813 
L 103.931818 222.623016 
L 103.931818 222.562491 
L 104.500909 222.452444 
L 104.500909 221.89121 
L 104.500909 222.353403 
L 105.07 222.444191 
L 105.07 222.903633 
L 105.07 222.383666 
L 105.639091 222.243357 
L 105.639091 222.177329 
L 105.639091 223.440108 
L 106.208182 223.561158 
L 106.208182 223.616181 
L 106.777273 223.750988 
L 106.777273 225.404429 
L 107.346364 225.533733 
L 107.346364 226.416853 
L 107.915455 226.551659 
L 107.915455 227.687884 
L 108.484545 227.803433 
L 108.484545 228.997432 
L 109.053636 229.123985 
L 109.053636 229.921819 
L 109.622727 230.037367 
L 109.622727 231.019528 
L 110.191818 231.14333 
L 110.191818 231.743081 
L 110.760909 231.86138 
L 110.760909 232.307067 
L 111.33 232.425366 
L 111.33 232.637205 
L 111.899091 232.637205 
L 111.899091 232.738997 
L 111.899091 233.003108 
L 111.899091 233.003108 
L 112.468182 233.115905 
L 112.468182 233.413029 
L 113.037273 233.531329 
L 113.037273 233.635872 
L 113.606364 233.74867 
L 113.606364 233.842209 
L 114.175455 233.952255 
L 114.175455 233.985269 
L 115.313636 234.117324 
L 115.313636 234.301651 
L 115.313636 234.301651 
L 115.882727 234.408946 
L 115.882727 234.507987 
L 116.451818 234.630689 
L 116.451818 234.626562 
L 116.451818 234.64582 
L 116.451818 234.638392 
L 117.020909 234.743486 
L 117.020909 234.820793 
L 118.159091 234.845829 
L 118.159091 234.925612 
L 118.159091 235.042261 
L 118.159091 235.039785 
L 118.728182 235.153957 
L 118.728182 235.159185 
L 119.297273 235.271707 
L 119.297273 235.26813 
L 119.297273 235.284087 
L 119.866364 235.278585 
L 119.866364 235.389456 
L 119.866364 235.407889 
L 121.004545 235.524537 
L 121.004545 235.666497 
L 124.419091 235.736926 
L 124.419091 235.763337 
L 124.419091 235.815059 
L 126.126364 235.928131 
L 126.126364 235.92428 
L 126.126364 235.94849 
L 132.386364 235.938035 
L 132.386364 235.885764 
L 132.386364 235.630457 
L 132.955455 235.522887 
L 132.955455 235.437601 
L 133.524545 235.322603 
L 133.524545 235.299768 
L 133.524545 235.322053 
L 135.800909 235.320952 
L 135.800909 235.429623 
L 135.800909 235.44613 
L 135.800909 235.437601 
L 137.508182 235.45851 
L 137.508182 235.335258 
L 137.508182 235.090131 
L 138.077273 234.969355 
L 138.077273 234.750639 
L 138.646364 234.640318 
L 138.646364 234.312655 
L 139.784545 234.194356 
L 139.784545 234.136582 
L 139.784545 234.194356 
L 140.353636 234.309904 
L 140.353636 234.425453 
L 140.353636 234.408946 
L 141.491818 234.507987 
L 141.491818 234.720376 
L 141.491818 234.703594 
L 142.060909 234.696166 
L 142.060909 234.80181 
L 142.060909 234.947071 
L 142.63 235.066746 
L 142.63 235.090681 
L 143.199091 235.201552 
L 143.199091 235.293166 
L 144.906364 235.421369 
L 144.906364 235.432649 
L 144.906364 235.417793 
L 144.906364 235.427422 
L 149.459091 235.357543 
L 149.459091 235.353141 
L 149.459091 235.266755 
L 149.459091 235.26868 
L 150.028182 235.158359 
L 150.028182 235.106362 
L 150.028182 235.108563 
L 151.166364 235.003745 
L 151.166364 234.998792 
L 151.166364 234.840601 
L 151.735455 234.736058 
L 151.735455 234.549254 
L 152.304545 234.436457 
L 152.304545 233.503817 
L 152.873636 233.358006 
L 152.873636 231.853127 
L 153.442727 231.743081 
L 153.442727 230.326238 
L 154.011818 230.196934 
L 154.011818 229.998851 
L 154.011818 230.161169 
L 154.580909 230.048372 
L 154.580909 229.242285 
L 154.580909 229.247787 
L 155.15 229.335824 
L 155.15 230.150164 
L 155.15 230.144662 
L 155.719091 230.034616 
L 155.719091 229.97134 
L 155.719091 230.279468 
L 156.288182 230.417026 
L 156.288182 231.272634 
L 156.857273 231.272634 
L 156.857273 231.38268 
L 156.857273 231.888892 
L 157.426364 232.020947 
L 157.426364 232.543666 
L 157.426364 232.543666 
L 157.995455 232.656463 
L 157.995455 233.129661 
L 158.564545 233.250711 
L 158.564545 233.278223 
L 158.564545 233.225951 
L 158.564545 233.225951 
L 159.133636 233.220449 
L 159.133636 233.330495 
L 159.133636 233.451545 
L 159.133636 233.451545 
L 160.271818 233.355255 
L 160.271818 233.550587 
L 160.271818 233.600107 
L 160.271818 233.591854 
L 161.41 233.594605 
L 161.41 233.699149 
L 161.41 233.756923 
L 161.41 233.721158 
L 162.548182 233.781683 
L 162.548182 233.831204 
L 162.548182 234.007278 
L 163.117273 234.007278 
L 163.117273 234.10907 
L 163.117273 234.235623 
L 163.686364 234.351172 
L 163.686364 234.351172 
L 163.686364 234.364927 
L 163.686364 234.315407 
L 165.962727 234.2989 
L 165.962727 234.205361 
L 165.962727 234.065052 
L 165.962727 234.067803 
L 167.67 234.158591 
L 167.67 234.172347 
L 167.67 234.246628 
L 167.67 234.219116 
L 168.808182 234.334665 
L 168.808182 234.334665 
L 168.808182 234.37043 
L 168.808182 234.367679 
L 169.377273 234.367679 
L 169.377273 234.474973 
L 169.377273 234.485978 
L 172.222727 234.422702 
L 172.222727 234.392439 
L 172.222727 234.296149 
L 172.222727 234.296149 
L 173.360909 234.183351 
L 173.360909 234.13108 
L 173.360909 234.139333 
L 174.499091 234.026536 
L 174.499091 233.883476 
L 175.068182 233.759674 
L 175.068182 233.567094 
L 175.068182 233.567094 
L 175.637273 233.567094 
L 175.637273 233.457048 
L 175.637273 233.225951 
L 176.206364 233.110403 
L 176.206364 233.113154 
L 176.206364 233.049877 
L 176.775455 232.93708 
L 176.775455 232.860048 
L 177.913636 232.7445 
L 177.913636 232.628951 
L 177.913636 232.631702 
L 178.482727 232.634454 
L 178.482727 232.527159 
L 178.482727 232.48314 
L 178.482727 232.48314 
L 179.051818 232.367592 
L 179.051818 231.963173 
L 179.620909 231.963173 
L 179.620909 231.858629 
L 179.620909 231.522989 
L 180.19 231.399187 
L 180.19 231.113067 
L 180.759091 230.994768 
L 180.759091 230.595851 
L 181.328182 230.477551 
L 181.328182 230.290473 
L 181.897273 230.183178 
L 181.897273 229.046953 
L 182.466364 228.928653 
L 182.466364 226.524148 
L 183.035455 226.400346 
L 183.035455 223.907803 
L 183.604545 223.750988 
L 183.604545 222.914638 
L 183.604545 222.950403 
L 184.173636 222.834854 
L 184.173636 221.503297 
L 184.742727 221.440021 
L 184.742727 221.577579 
L 184.742727 222.422182 
L 185.311818 222.446942 
L 185.311818 222.32314 
L 185.311818 222.158071 
L 185.311818 222.353403 
L 185.880909 222.468951 
L 185.880909 223.979333 
L 186.45 223.976582 
L 186.45 224.075623 
L 186.45 224.777167 
L 187.019091 224.917476 
L 187.019091 225.605263 
L 187.019091 225.558494 
L 187.588182 225.440194 
L 187.588182 224.42502 
L 188.157273 224.292964 
L 188.157273 223.585919 
L 188.726364 223.459366 
L 188.726364 222.303882 
L 188.726364 222.39467 
L 189.295455 222.499214 
L 189.295455 222.766076 
L 189.295455 222.435938 
L 189.864545 222.303882 
L 189.864545 221.968242 
L 189.864545 222.639523 
L 190.433636 222.799089 
L 190.433636 223.239274 
L 190.433636 223.145734 
L 191.002727 223.137481 
L 191.002727 223.250278 
L 191.002727 224.422268 
L 191.571818 224.565328 
L 191.571818 225.093549 
L 192.140909 225.228356 
L 192.140909 226.381088 
L 192.71 226.491134 
L 192.71 226.93682 
L 193.279091 227.049617 
L 193.279091 227.764917 
L 193.848182 227.877714 
L 193.848182 227.877714 
L 193.848182 228.081299 
L 194.417273 228.196847 
L 194.417273 228.312396 
L 194.417273 228.249119 
L 194.986364 228.22711 
L 194.986364 228.348161 
L 194.986364 228.532488 
L 195.555455 228.414188 
L 195.555455 228.403184 
L 195.555455 228.422442 
L 196.124545 228.535239 
L 196.124545 228.590262 
L 196.124545 228.573755 
L 197.262727 228.612271 
L 197.262727 228.672796 
L 197.262727 228.785594 
L 197.262727 228.782842 
L 198.400909 228.890137 
L 198.400909 228.931405 
L 198.400909 228.851621 
L 199.539091 228.749829 
L 199.539091 228.749829 
L 199.539091 228.590262 
L 200.108182 228.477465 
L 200.108182 228.246368 
L 200.677273 228.141824 
L 200.677273 227.79793 
L 201.246364 227.698889 
L 201.246364 227.170668 
L 201.815455 227.060622 
L 201.815455 226.403097 
L 202.384545 226.287549 
L 202.384545 226.163747 
L 202.384545 226.205014 
L 202.953636 226.092217 
L 202.953636 225.657535 
L 204.091818 225.552991 
L 204.091818 225.23936 
L 204.091818 225.242111 
L 205.23 225.129314 
L 205.23 224.76066 
L 205.799091 224.634107 
L 205.799091 224.328729 
L 206.368182 224.204928 
L 206.368182 223.649195 
L 206.937273 223.539149 
L 206.937273 222.999923 
L 207.506364 222.906384 
L 207.506364 222.347901 
L 208.075455 222.232352 
L 208.075455 221.60509 
L 208.644545 221.492293 
L 208.644545 220.804505 
L 209.213636 220.686206 
L 209.213636 219.891123 
L 209.782727 219.775575 
L 209.782727 219.054773 
L 210.351818 218.933723 
L 210.351818 218.036847 
L 210.920909 217.896539 
L 210.920909 217.120714 
L 211.49 216.996912 
L 211.49 216.036761 
L 212.059091 215.940471 
L 212.059091 214.804245 
L 212.628182 214.685946 
L 212.628182 213.497449 
L 213.197273 213.370896 
L 213.197273 211.80274 
L 213.766364 211.670685 
L 213.766364 209.538543 
L 214.335455 209.373474 
L 214.335455 207.145042 
L 214.904545 206.979972 
L 214.904545 204.118776 
L 215.473636 203.953707 
L 215.473636 200.624814 
L 216.042727 200.432234 
L 216.042727 196.553111 
L 216.611818 196.333019 
L 216.611818 191.105832 
L 217.180909 190.940763 
L 217.180909 182.989938 
L 217.75 182.687311 
L 217.75 145.161614 
L 218.319091 143.97862 
L 218.319091 111.735132 
L 218.888182 110.854764 
L 218.888182 65.598334 
L 219.457273 65.213173 
L 219.457273 57.31737 
L 220.026364 56.519536 
L 220.026364 32.446967 
L 220.026364 36.133509 
L 220.595455 36.711251 
L 220.595455 47.688342 
L 220.595455 43.314012 
L 221.164545 42.791294 
L 221.164545 37.839222 
L 221.164545 55.033915 
L 221.733636 55.914283 
L 221.733636 68.184415 
L 222.302727 68.26695 
L 222.302727 95.558366 
L 222.871818 96.218642 
L 222.871818 109.396654 
L 223.440909 109.836838 
L 223.440909 133.661804 
L 224.01 133.964431 
L 224.01 145.766868 
L 224.579091 146.17954 
L 224.579091 161.558473 
L 225.148182 161.751054 
L 225.148182 171.985335 
L 225.717273 172.287961 
L 225.717273 180.403856 
L 226.286364 180.623948 
L 226.286364 185.741088 
L 226.855455 185.906157 
L 226.855455 189.5927 
L 227.424545 189.757769 
L 227.424545 192.508919 
L 227.993636 192.729011 
L 227.993636 195.452651 
L 227.993636 195.425139 
L 228.562727 195.425139 
L 228.562727 195.507674 
L 228.562727 197.653571 
L 229.131818 197.81864 
L 229.131818 198.203801 
L 229.131818 196.415553 
L 229.700909 196.277996 
L 229.700909 196.085415 
L 229.700909 196.773203 
L 229.700909 196.663157 
L 230.27 196.553111 
L 230.27 192.591454 
L 230.27 192.646477 
L 230.839091 192.784034 
L 230.839091 193.746937 
L 230.839091 192.839057 
L 231.408182 192.7015 
L 231.408182 190.445556 
L 231.408182 191.986201 
L 231.977273 192.233804 
L 231.977273 193.829472 
L 231.977273 192.811546 
L 232.546364 192.646477 
L 232.546364 192.453896 
L 232.546364 196.498088 
L 233.115455 196.608134 
L 233.115455 198.038732 
L 233.684545 198.148778 
L 233.684545 203.65108 
L 234.253636 203.816149 
L 234.253636 206.01707 
L 234.822727 206.237162 
L 234.822727 210.795819 
L 235.391818 210.914118 
L 235.391818 213.632255 
L 235.960909 213.838591 
L 235.960909 216.834595 
L 236.53 216.952894 
L 236.53 219.318884 
L 237.099091 219.461944 
L 237.099091 221.396003 
L 237.668182 221.517053 
L 237.668182 223.131979 
L 238.237273 223.272287 
L 238.237273 224.301218 
L 238.806364 224.436024 
L 238.806364 225.264121 
L 239.375455 225.387922 
L 239.375455 226.009682 
L 239.944545 226.130733 
L 239.944545 226.868041 
L 240.513636 226.986341 
L 240.513636 227.074378 
L 240.513636 227.060622 
L 241.082727 227.181673 
L 241.082727 227.555829 
L 241.082727 227.547576 
L 241.651818 227.432027 
L 241.651818 227.377004 
L 241.651818 227.495304 
L 242.220909 227.599848 
L 242.220909 227.830944 
L 242.220909 227.753912 
L 242.79 227.643866 
L 242.79 227.619106 
L 242.79 227.951995 
L 243.359091 228.070294 
L 243.359091 228.188594 
L 243.359091 227.918981 
L 243.928182 227.808935 
L 243.928182 227.996013 
L 243.928182 228.224359 
L 245.066364 228.345409 
L 245.066364 228.879133 
L 245.635455 228.99193 
L 245.635455 229.165252 
L 246.204545 229.269796 
L 246.204545 229.932823 
L 246.773636 230.051123 
L 246.773636 230.359252 
L 247.342727 230.483054 
L 247.342727 231.003021 
L 247.911818 231.113067 
L 247.911818 231.536744 
L 248.480909 231.657795 
L 248.480909 232.158504 
L 249.05 232.276804 
L 249.05 232.568426 
L 249.619091 232.683974 
L 249.619091 233.011361 
L 250.188182 233.011361 
L 250.188182 233.118656 
L 250.188182 233.305734 
L 250.757273 233.41578 
L 250.757273 233.567094 
L 251.326364 233.685393 
L 251.326364 233.778932 
L 251.326364 233.778932 
L 251.895455 233.77343 
L 251.895455 233.886227 
L 251.895455 233.927494 
L 252.464545 233.927494 
L 252.464545 234.03754 
L 252.464545 234.062301 
L 252.464545 234.05955 
L 253.033636 234.05955 
L 253.033636 234.166845 
L 253.033636 234.202609 
L 254.171818 234.315407 
L 254.171818 234.378683 
L 255.31 234.49148 
L 255.31 234.49148 
L 255.31 234.532748 
L 255.31 234.529996 
L 257.017273 234.62271 
L 257.017273 234.638117 
L 257.017273 234.637566 
L 257.017273 234.685712 
L 257.586364 234.675532 
L 257.586364 234.78998 
L 257.586364 234.799334 
L 258.724545 234.910481 
L 258.724545 234.939093 
L 258.724545 234.937442 
L 259.862727 235.054366 
L 259.862727 235.111865 
L 261.000909 235.17184 
L 261.000909 235.218609 
L 261.000909 235.222736 
L 261.000909 235.221911 
L 262.708182 235.332782 
L 262.708182 235.359193 
L 262.708182 235.350114 
L 264.415455 235.393032 
L 264.415455 235.45906 
L 264.415455 235.461261 
L 266.691818 235.527839 
L 266.691818 235.563604 
L 266.691818 235.581761 
L 266.691818 235.581211 
L 268.968182 235.708865 
L 268.968182 235.724821 
L 268.968182 235.707764 
L 268.968182 235.720694 
L 272.951818 235.693183 
L 272.951818 235.631007 
L 272.951818 235.601295 
L 274.09 235.485746 
L 274.09 235.422745 
L 278.642727 235.478043 
L 278.642727 235.492899 
L 278.642727 235.501428 
L 278.642727 235.457409 
L 279.211818 235.345162 
L 279.211818 235.263453 
L 279.780909 235.151756 
L 279.780909 235.114616 
L 280.35 235.00402 
L 280.35 234.934691 
L 280.35 234.951748 
L 283.195455 235.063445 
L 283.195455 235.121494 
L 283.195455 235.120668 
L 283.764545 235.230164 
L 284.902727 235.357543 
L 284.902727 235.379277 
L 286.040909 235.489048 
L 286.040909 235.509956 
L 291.731818 235.527564 
L 291.731818 235.498677 
L 291.731818 235.48327 
L 293.439091 235.403762 
L 293.439091 235.379277 
L 293.439091 235.382578 
L 293.439091 235.336359 
L 294.577273 235.222736 
L 294.577273 235.224387 
L 294.577273 235.216409 
L 294.577273 235.216959 
L 295.146364 235.109939 
L 295.146364 234.799609 
L 295.715455 234.672781 
L 295.715455 234.246628 
L 296.284545 234.13108 
L 296.284545 233.704651 
L 296.853636 233.580849 
L 296.853636 233.495564 
L 296.853636 233.503817 
L 297.422727 233.503817 
L 297.422727 233.396522 
L 297.422727 233.157172 
L 297.991818 233.099398 
L 297.991818 233.24796 
L 297.991818 233.363508 
L 299.13 233.256214 
L 299.13 233.46255 
L 299.13 233.638624 
L 300.268182 233.765176 
L 300.268182 234.205361 
L 300.837273 234.320909 
L 300.837273 234.337416 
L 301.406364 234.452964 
L 301.406364 234.618859 
L 303.682727 234.730555 
L 303.682727 234.80071 
L 303.682727 234.793006 
L 305.959091 234.829046 
L 305.959091 234.902777 
L 305.959091 234.968255 
L 305.959091 234.963853 
L 309.942727 234.847754 
L 309.942727 234.810064 
L 309.942727 234.811164 
L 311.65 234.919559 
L 311.65 234.919284 
L 311.65 234.975683 
L 311.65 234.970731 
L 312.788182 235.083528 
L 312.788182 235.113515 
L 312.788182 235.111865 
L 319.617273 235.029055 
L 319.617273 235.015299 
L 319.617273 234.943494 
L 320.755455 234.833723 
L 320.755455 234.797133 
L 323.600909 234.683786 
L 323.600909 234.689838 
L 323.600909 234.633715 
L 324.17 234.516241 
L 324.17 234.474973 
L 324.17 234.480476 
L 325.308182 234.364927 
L 325.308182 234.254881 
L 325.308182 234.260384 
L 326.446364 234.208112 
L 326.446364 234.15584 
L 326.446364 234.05955 
L 326.446364 234.073305 
L 327.015455 234.073305 
L 327.015455 233.968762 
L 327.015455 233.94125 
L 327.584545 233.822951 
L 327.584545 233.413029 
L 328.153636 233.305734 
L 328.153636 232.901315 
L 328.722727 232.780265 
L 328.722727 232.210776 
L 329.291818 232.103481 
L 329.291818 231.963173 
L 329.860909 231.858629 
L 329.860909 231.476219 
L 330.43 231.456961 
L 330.43 231.572509 
L 330.43 231.655044 
L 330.999091 231.660546 
L 330.999091 231.5505 
L 330.999091 231.517486 
L 330.999091 231.531242 
L 331.568182 231.655044 
L 331.568182 231.910901 
L 331.568182 231.910901 
L 332.706364 232.026449 
L 332.706364 232.403357 
L 333.844545 232.389601 
L 333.844545 232.307067 
L 333.844545 232.208025 
L 333.844545 232.213527 
L 334.413636 232.108984 
L 334.413636 231.902647 
L 334.982727 231.781597 
L 334.982727 231.759588 
L 334.982727 231.817362 
L 334.982727 231.817362 
L 336.120909 231.732076 
L 336.120909 231.715569 
L 336.120909 231.682555 
L 336.120909 231.913652 
L 336.69 232.0292 
L 336.69 232.053961 
L 336.69 231.985182 
L 337.259091 231.97968 
L 337.259091 232.084223 
L 337.259091 232.298813 
L 337.828182 232.425366 
L 337.828182 232.496896 
L 337.828182 232.494145 
L 338.397273 232.609693 
L 338.397273 232.887559 
L 339.535455 232.975596 
L 339.535455 232.994854 
L 339.535455 233.206693 
L 339.535455 233.206693 
L 340.104545 233.322241 
L 340.104545 233.322241 
L 340.104545 233.349753 
L 340.673636 233.468052 
L 340.673636 233.479057 
L 342.380909 233.448794 
L 342.380909 233.396522 
L 342.380909 233.388269 
L 342.380909 233.418531 
L 342.380909 233.41578 
L 343.519091 233.531329 
L 343.519091 233.539582 
L 343.519091 233.539582 
L 344.657273 233.635872 
L 344.657273 233.644126 
L 344.657273 233.688144 
L 344.657273 233.685393 
L 348.071818 233.545084 
L 348.071818 233.435038 
L 348.071818 233.43779 
L 349.21 233.316739 
L 349.21 233.316739 
L 349.21 233.24796 
L 349.21 233.24796 
L 351.486364 233.121407 
L 351.486364 233.077389 
L 351.486364 233.096647 
L 353.762727 233.058131 
L 353.762727 232.989352 
L 353.762727 232.994854 
L 353.762727 232.928827 
L 354.331818 232.805025 
L 354.331818 232.783016 
L 354.900909 232.67297 
L 354.900909 232.606942 
L 354.900909 232.606942 
L 355.47 232.494145 
L 355.47 232.450126 
L 356.608182 232.323573 
L 356.608182 232.326325 
L 356.608182 232.232786 
L 357.177273 232.119988 
L 357.177273 232.084223 
L 357.746364 231.974177 
L 357.746364 231.919154 
L 358.315455 231.803606 
L 358.315455 231.707316 
L 358.315455 231.710067 
L 358.884545 231.594519 
L 358.884545 231.542247 
L 358.884545 231.553251 
L 359.453636 231.556002 
L 359.453636 231.448708 
L 359.453636 231.319403 
L 359.453636 231.322155 
L 360.022727 231.209357 
L 360.022727 231.058044 
L 360.591818 230.942496 
L 360.591818 230.76092 
L 361.160909 230.648123 
L 361.160909 230.494058 
L 361.73 230.373008 
L 361.73 230.133657 
L 362.299091 230.023611 
L 362.299091 230.023611 
L 362.299091 229.654957 
L 362.868182 229.544911 
L 362.868182 229.140492 
L 363.437273 229.041451 
L 363.437273 228.477465 
L 364.006364 228.359165 
L 364.006364 227.808935 
L 364.575455 227.696138 
L 364.575455 227.082631 
L 365.144545 226.972585 
L 365.144545 226.160996 
L 365.713636 226.045447 
L 365.713636 224.697384 
L 366.282727 224.579084 
L 366.282727 220.204754 
L 366.851818 219.981911 
L 366.851818 212.229168 
L 367.420909 212.102615 
L 367.420909 204.311356 
L 367.99 204.00873 
L 367.99 199.029147 
L 368.559091 199.029147 
L 368.559091 198.946612 
L 368.559091 193.389288 
L 369.128182 193.196707 
L 369.128182 191.353436 
L 369.128182 193.196707 
L 369.697273 193.361776 
L 369.697273 193.746937 
L 369.697273 191.546017 
L 370.266364 191.353436 
L 370.266364 191.24339 
L 370.266364 195.672743 
L 370.835455 195.782789 
L 370.835455 197.158364 
L 370.835455 197.158364 
L 371.404545 197.295922 
L 371.404545 202.853246 
L 371.973636 202.990804 
L 371.973636 205.494351 
L 372.542727 205.631909 
L 372.542727 210.479436 
L 373.111818 210.672017 
L 373.111818 212.966477 
L 373.680909 213.11779 
L 373.680909 216.815337 
L 374.25 216.950143 
L 374.25 218.889704 
L 374.819091 218.996999 
L 374.819091 221.495044 
L 375.388182 221.624348 
L 375.388182 222.870619 
L 375.957273 222.994421 
L 375.957273 224.017849 
L 376.526364 224.127895 
L 376.526364 224.702886 
L 377.095455 224.812932 
L 377.095455 225.297134 
L 377.664545 225.40718 
L 377.664545 225.770332 
L 378.233636 225.874876 
L 378.233636 226.284798 
L 378.802727 226.38659 
L 378.802727 226.216019 
L 378.802727 225.822604 
L 379.371818 225.682295 
L 379.371818 225.470457 
L 379.371818 225.486964 
L 379.940909 225.376918 
L 379.940909 224.147153 
L 380.51 224.0206 
L 380.51 223.880292 
L 380.51 223.962826 
L 381.079091 223.858283 
L 381.079091 222.724808 
L 381.648182 222.713804 
L 381.648182 222.818348 
L 381.648182 223.365827 
L 382.217273 223.27779 
L 382.217273 222.818348 
L 382.217273 222.845859 
L 382.786364 222.961407 
L 382.786364 224.199425 
L 383.355455 224.323227 
L 383.355455 224.518559 
L 383.924545 224.656116 
L 383.924545 226.116977 
L 384.493636 226.238028 
L 384.493636 226.796512 
L 385.062727 226.931318 
L 385.062727 228.177589 
L 385.631818 228.284884 
L 385.631818 228.931405 
L 386.200909 229.049704 
L 386.200909 230.012607 
L 386.77 230.133657 
L 386.77 230.683888 
L 387.339091 230.810441 
L 387.339091 231.443205 
L 387.908182 231.5505 
L 387.908182 231.960422 
L 388.477273 232.064965 
L 388.477273 232.414361 
L 389.046364 232.52991 
L 389.046364 232.741748 
L 389.615455 232.857297 
L 389.615455 233.038873 
L 390.184545 233.038873 
L 390.184545 233.148919 
L 390.184545 233.245209 
L 390.753636 233.245209 
L 390.753636 233.349753 
L 390.753636 233.473555 
L 394.168182 233.611112 
L 394.168182 233.611112 
L 394.168182 233.652379 
L 394.168182 233.652379 
L 395.306364 233.767928 
L 395.306364 233.767928 
L 395.306364 233.894481 
L 395.306364 233.886227 
L 395.875455 233.886227 
L 395.875455 233.993522 
L 395.875455 234.021034 
L 396.444545 234.133831 
L 396.444545 234.276891 
L 397.013636 234.392439 
L 397.013636 234.458466 
L 397.582727 234.582819 
L 397.582727 234.678283 
L 398.151818 234.794107 
L 398.151818 234.870864 
L 398.720909 234.988613 
L 398.720909 235.034557 
L 399.29 235.139376 
L 399.29 235.177067 
L 399.859091 235.289589 
L 399.859091 235.296467 
L 400.428182 235.41009 
L 400.428182 235.435675 
L 400.428182 235.43485 
L 401.566364 235.556726 
L 401.566364 235.596618 
L 402.704545 235.66182 
L 402.704545 235.66182 
" style="fill:none;stroke:#1f77b4;stroke-linecap:square;stroke-width:1.5;"/>
   </g>
   <g id="line2d_9">
    <path clip-path="url(#p1c154af941)" d="M 32.795455 180.361384 
L 39.055455 175.215405 
L 39.055455 175.215405 
L 45.884545 169.305072 
L 45.884545 169.305072 
L 52.713636 163.100008 
L 52.713636 163.100008 
L 60.111818 156.068273 
L 60.111818 156.068273 
L 68.079091 148.171126 
L 68.079091 148.171126 
L 76.615455 139.390248 
L 76.615455 139.390248 
L 86.859091 128.515176 
L 86.859091 128.515176 
L 102.224545 111.817649 
L 102.224545 111.817649 
L 118.728182 93.958829 
L 118.728182 93.958829 
L 127.833636 84.422255 
L 127.833636 84.422255 
L 135.231818 76.96607 
L 135.231818 76.96607 
L 142.060909 70.388307 
L 142.060909 70.388307 
L 148.320909 64.668825 
L 148.320909 64.668825 
L 154.011818 59.76613 
L 154.011818 59.76613 
L 159.133636 55.623589 
L 159.133636 55.623589 
L 164.255455 51.760551 
L 164.255455 51.760551 
L 168.808182 48.578985 
L 168.808182 48.578985 
L 173.360909 45.649797 
L 173.360909 45.649797 
L 177.913636 42.986342 
L 177.913636 42.986342 
L 182.466364 40.600886 
L 182.466364 40.600886 
L 186.45 38.750406 
L 186.45 38.750406 
L 190.433636 37.127912 
L 190.433636 37.127912 
L 194.417273 35.739254 
L 194.417273 35.739254 
L 198.400909 34.589468 
L 198.400909 34.589468 
L 202.384545 33.682738 
L 202.384545 33.682738 
L 206.368182 33.022377 
L 206.368182 33.022377 
L 210.351818 32.610804 
L 210.351818 32.610804 
L 214.335455 32.449528 
L 214.335455 32.449528 
L 218.319091 32.539141 
L 218.319091 32.539141 
L 222.302727 32.879315 
L 222.302727 32.879315 
L 226.286364 33.468801 
L 226.286364 33.468801 
L 230.27 34.305439 
L 230.27 34.305439 
L 234.253636 35.38617 
L 234.253636 35.38617 
L 238.237273 36.707056 
L 238.237273 36.707056 
L 242.220909 38.263302 
L 242.220909 38.263302 
L 246.204545 40.049287 
L 246.204545 40.049287 
L 250.188182 42.058596 
L 250.188182 42.058596 
L 254.740909 44.619177 
L 254.740909 44.619177 
L 259.293636 47.450225 
L 259.293636 47.450225 
L 263.846364 50.538778 
L 263.846364 50.538778 
L 268.968182 54.303754 
L 268.968182 54.303754 
L 274.09 58.355621 
L 274.09 58.355621 
L 279.780909 63.166692 
L 279.780909 63.166692 
L 285.471818 68.271595 
L 285.471818 68.271595 
L 291.731818 74.186076 
L 291.731818 74.186076 
L 298.560909 80.942944 
L 298.560909 80.942944 
L 306.528182 89.148811 
L 306.528182 89.148811 
L 316.202727 99.44766 
L 316.202727 99.44766 
L 333.275455 118.028229 
L 333.275455 118.028229 
L 348.071818 133.991249 
L 348.071818 133.991249 
L 357.746364 144.110679 
L 357.746364 144.110679 
L 366.282727 152.722511 
L 366.282727 152.722511 
L 374.25 160.432104 
L 374.25 160.432104 
L 381.648182 167.268589 
L 381.648182 167.268589 
L 388.477273 173.279065 
L 388.477273 173.279065 
L 395.306364 178.98428 
L 395.306364 178.98428 
L 401.566364 183.935583 
L 401.566364 183.935583 
L 402.704545 184.806657 
L 402.704545 184.806657 
" style="fill:none;stroke:#ff7f0e;stroke-dasharray:5.55,2.4;stroke-dashoffset:0;stroke-opacity:0.3;stroke-width:1.5;"/>
   </g>
   <g id="line2d_10">
    <path clip-path="url(#p1c154af941)" d="M 32.795455 226.821464 
L 45.315455 224.807039 
L 45.315455 224.807039 
L 58.404545 222.480134 
L 58.404545 222.480134 
L 72.631818 219.723778 
L 72.631818 219.723778 
L 89.135455 216.294845 
L 89.135455 216.294845 
L 145.475455 204.369021 
L 145.475455 204.369021 
L 157.426364 202.198335 
L 157.426364 202.198335 
L 168.239091 200.463294 
L 168.239091 200.463294 
L 177.913636 199.13167 
L 177.913636 199.13167 
L 187.019091 198.094245 
L 187.019091 198.094245 
L 196.124545 197.285715 
L 196.124545 197.285715 
L 204.660909 196.749126 
L 204.660909 196.749126 
L 213.197273 196.435996 
L 213.197273 196.435996 
L 221.733636 196.351575 
L 221.733636 196.351575 
L 230.27 196.497283 
L 230.27 196.497283 
L 238.806364 196.870672 
L 238.806364 196.870672 
L 247.342727 197.465488 
L 247.342727 197.465488 
L 256.448182 198.332825 
L 256.448182 198.332825 
L 265.553636 199.42463 
L 265.553636 199.42463 
L 275.228182 200.808172 
L 275.228182 200.808172 
L 285.471818 202.493471 
L 285.471818 202.493471 
L 296.853636 204.587452 
L 296.853636 204.587452 
L 310.511818 207.333254 
L 310.511818 207.333254 
L 329.860909 211.4786 
L 329.860909 211.4786 
L 362.868182 218.565151 
L 362.868182 218.565151 
L 378.233636 221.621954 
L 378.233636 221.621954 
L 391.891818 224.121886 
L 391.891818 224.121886 
L 402.704545 225.932409 
L 402.704545 225.932409 
" style="fill:none;stroke:#2ca02c;stroke-dasharray:5.55,2.4;stroke-dashoffset:0;stroke-opacity:0.5;stroke-width:1.5;"/>
   </g>
   <g id="patch_3">
    <path d="M 14.3 247 
L 14.3 22.230156 
" style="fill:none;stroke:#000000;stroke-linecap:square;stroke-linejoin:miter;stroke-width:0.8;"/>
   </g>
   <g id="patch_4">
    <path d="M 14.3 247 
L 421.2 247 
" style="fill:none;stroke:#000000;stroke-linecap:square;stroke-linejoin:miter;stroke-width:0.8;"/>
   </g>
   <g id="text_9">
    <!-- 12 + -->
    <g transform="translate(214.904545 18.105493)scale(0.1 -0.1)">
     <defs>
      <path id="DejaVuSans-20" transform="scale(0.015625)"/>
      <path d="M 2944 4013 
L 2944 2272 
L 4684 2272 
L 4684 1741 
L 2944 1741 
L 2944 0 
L 2419 0 
L 2419 1741 
L 678 1741 
L 678 2272 
L 2419 2272 
L 2419 4013 
L 2944 4013 
z
" id="DejaVuSans-2b" transform="scale(0.015625)"/>
     </defs>
     <use xlink:href="#DejaVuSans-31"/>
     <use x="63.623047" xlink:href="#DejaVuSans-32"/>
     <use x="127.246094" xlink:href="#DejaVuSans-20"/>
     <use x="159.033203" xlink:href="#DejaVuSans-2b"/>
    </g>
   </g>
   <g id="text_10">
    <!-- 34.44 kDa -->
    <g transform="translate(214.904545 28.349403)scale(0.1 -0.1)">
     <defs>
      <path d="M 2419 4116 
L 825 1625 
L 2419 1625 
L 2419 4116 
z
M 2253 4666 
L 3047 4666 
L 3047 1625 
L 3713 1625 
L 3713 1100 
L 3047 1100 
L 3047 0 
L 2419 0 
L 2419 1100 
L 313 1100 
L 313 1709 
L 2253 4666 
z
" id="DejaVuSans-34" transform="scale(0.015625)"/>
      <path d="M 684 794 
L 1344 794 
L 1344 0 
L 684 0 
L 684 794 
z
" id="DejaVuSans-2e" transform="scale(0.015625)"/>
      <path d="M 581 4863 
L 1159 4863 
L 1159 1991 
L 2875 3500 
L 3609 3500 
L 1753 1863 
L 3688 0 
L 2938 0 
L 1159 1709 
L 1159 0 
L 581 0 
L 581 4863 
z
" id="DejaVuSans-6b" transform="scale(0.015625)"/>
      <path d="M 1259 4147 
L 1259 519 
L 2022 519 
Q 2988 519 3436 956 
Q 3884 1394 3884 2338 
Q 3884 3275 3436 3711 
Q 2988 4147 2022 4147 
L 1259 4147 
z
M 628 4666 
L 1925 4666 
Q 3281 4666 3915 4102 
Q 4550 3538 4550 2338 
Q 4550 1131 3912 565 
Q 3275 0 1925 0 
L 628 0 
L 628 4666 
z
" id="DejaVuSans-44" transform="scale(0.015625)"/>
      <path d="M 2194 1759 
Q 1497 1759 1228 1600 
Q 959 1441 959 1056 
Q 959 750 1161 570 
Q 1363 391 1709 391 
Q 2188 391 2477 730 
Q 2766 1069 2766 1631 
L 2766 1759 
L 2194 1759 
z
M 3341 1997 
L 3341 0 
L 2766 0 
L 2766 531 
Q 2569 213 2275 61 
Q 1981 -91 1556 -91 
Q 1019 -91 701 211 
Q 384 513 384 1019 
Q 384 1609 779 1909 
Q 1175 2209 1959 2209 
L 2766 2209 
L 2766 2266 
Q 2766 2663 2505 2880 
Q 2244 3097 1772 3097 
Q 1472 3097 1187 3025 
Q 903 2953 641 2809 
L 641 3341 
Q 956 3463 1253 3523 
Q 1550 3584 1831 3584 
Q 2591 3584 2966 3190 
Q 3341 2797 3341 1997 
z
" id="DejaVuSans-61" transform="scale(0.015625)"/>
     </defs>
     <use xlink:href="#DejaVuSans-33"/>
     <use x="63.623047" xlink:href="#DejaVuSans-34"/>
     <use x="127.246094" xlink:href="#DejaVuSans-2e"/>
     <use x="159.033203" xlink:href="#DejaVuSans-34"/>
     <use x="222.65625" xlink:href="#DejaVuSans-34"/>
     <use x="286.279297" xlink:href="#DejaVuSans-20"/>
     <use x="318.066406" xlink:href="#DejaVuSans-6b"/>
     <use x="375.976562" xlink:href="#DejaVuSans-44"/>
     <use x="452.978516" xlink:href="#DejaVuSans-61"/>
    </g>
   </g>
   <g id="text_11">
    <!-- 34.56 kDa -->
    <g transform="translate(226.286364 186.105616)scale(0.1 -0.1)">
     <defs>
      <path d="M 691 4666 
L 3169 4666 
L 3169 4134 
L 1269 4134 
L 1269 2991 
Q 1406 3038 1543 3061 
Q 1681 3084 1819 3084 
Q 2600 3084 3056 2656 
Q 3513 2228 3513 1497 
Q 3513 744 3044 326 
Q 2575 -91 1722 -91 
Q 1428 -91 1123 -41 
Q 819 9 494 109 
L 494 744 
Q 775 591 1075 516 
Q 1375 441 1709 441 
Q 2250 441 2565 725 
Q 2881 1009 2881 1497 
Q 2881 1984 2565 2268 
Q 2250 2553 1709 2553 
Q 1456 2553 1204 2497 
Q 953 2441 691 2322 
L 691 4666 
z
" id="DejaVuSans-35" transform="scale(0.015625)"/>
     </defs>
     <use xlink:href="#DejaVuSans-33"/>
     <use x="63.623047" xlink:href="#DejaVuSans-34"/>
     <use x="127.246094" xlink:href="#DejaVuSans-2e"/>
     <use x="159.033203" xlink:href="#DejaVuSans-35"/>
     <use x="222.65625" xlink:href="#DejaVuSans-36"/>
     <use x="286.279297" xlink:href="#DejaVuSans-20"/>
     <use x="318.066406" xlink:href="#DejaVuSans-6b"/>
     <use x="375.976562" xlink:href="#DejaVuSans-44"/>
     <use x="452.978516" xlink:href="#DejaVuSans-61"/>
    </g>
   </g>
   <g id="legend_1">
    <g id="patch_5">
     <path d="M 19.2 48.379531 
L 172.43 48.379531 
Q 173.83 48.379531 173.83 46.979531 
L 173.83 27.130156 
Q 173.83 25.730156 172.43 25.730156 
L 19.2 25.730156 
Q 17.8 25.730156 17.8 27.130156 
L 17.8 46.979531 
Q 17.8 48.379531 19.2 48.379531 
z
" style="fill:#ffffff;opacity:0.8;stroke:#cccccc;stroke-linejoin:miter;"/>
    </g>
    <g id="line2d_11">
     <path d="M 20.6 31.399062 
L 34.6 31.399062 
" style="fill:none;stroke:#ff7f0e;stroke-dasharray:5.55,2.4;stroke-dashoffset:0;stroke-opacity:0.3;stroke-width:1.5;"/>
    </g>
    <g id="line2d_12"/>
    <g id="text_12">
     <!-- 1st population : Monomer -->
     <g transform="translate(40.2 33.849062)scale(0.07 -0.07)">
      <defs>
       <path d="M 2834 3397 
L 2834 2853 
Q 2591 2978 2328 3040 
Q 2066 3103 1784 3103 
Q 1356 3103 1142 2972 
Q 928 2841 928 2578 
Q 928 2378 1081 2264 
Q 1234 2150 1697 2047 
L 1894 2003 
Q 2506 1872 2764 1633 
Q 3022 1394 3022 966 
Q 3022 478 2636 193 
Q 2250 -91 1575 -91 
Q 1294 -91 989 -36 
Q 684 19 347 128 
L 347 722 
Q 666 556 975 473 
Q 1284 391 1588 391 
Q 1994 391 2212 530 
Q 2431 669 2431 922 
Q 2431 1156 2273 1281 
Q 2116 1406 1581 1522 
L 1381 1569 
Q 847 1681 609 1914 
Q 372 2147 372 2553 
Q 372 3047 722 3315 
Q 1072 3584 1716 3584 
Q 2034 3584 2315 3537 
Q 2597 3491 2834 3397 
z
" id="DejaVuSans-73" transform="scale(0.015625)"/>
       <path d="M 1172 4494 
L 1172 3500 
L 2356 3500 
L 2356 3053 
L 1172 3053 
L 1172 1153 
Q 1172 725 1289 603 
Q 1406 481 1766 481 
L 2356 481 
L 2356 0 
L 1766 0 
Q 1100 0 847 248 
Q 594 497 594 1153 
L 594 3053 
L 172 3053 
L 172 3500 
L 594 3500 
L 594 4494 
L 1172 4494 
z
" id="DejaVuSans-74" transform="scale(0.015625)"/>
       <path d="M 1159 525 
L 1159 -1331 
L 581 -1331 
L 581 3500 
L 1159 3500 
L 1159 2969 
Q 1341 3281 1617 3432 
Q 1894 3584 2278 3584 
Q 2916 3584 3314 3078 
Q 3713 2572 3713 1747 
Q 3713 922 3314 415 
Q 2916 -91 2278 -91 
Q 1894 -91 1617 61 
Q 1341 213 1159 525 
z
M 3116 1747 
Q 3116 2381 2855 2742 
Q 2594 3103 2138 3103 
Q 1681 3103 1420 2742 
Q 1159 2381 1159 1747 
Q 1159 1113 1420 752 
Q 1681 391 2138 391 
Q 2594 391 2855 752 
Q 3116 1113 3116 1747 
z
" id="DejaVuSans-70" transform="scale(0.015625)"/>
       <path d="M 1959 3097 
Q 1497 3097 1228 2736 
Q 959 2375 959 1747 
Q 959 1119 1226 758 
Q 1494 397 1959 397 
Q 2419 397 2687 759 
Q 2956 1122 2956 1747 
Q 2956 2369 2687 2733 
Q 2419 3097 1959 3097 
z
M 1959 3584 
Q 2709 3584 3137 3096 
Q 3566 2609 3566 1747 
Q 3566 888 3137 398 
Q 2709 -91 1959 -91 
Q 1206 -91 779 398 
Q 353 888 353 1747 
Q 353 2609 779 3096 
Q 1206 3584 1959 3584 
z
" id="DejaVuSans-6f" transform="scale(0.015625)"/>
       <path d="M 544 1381 
L 544 3500 
L 1119 3500 
L 1119 1403 
Q 1119 906 1312 657 
Q 1506 409 1894 409 
Q 2359 409 2629 706 
Q 2900 1003 2900 1516 
L 2900 3500 
L 3475 3500 
L 3475 0 
L 2900 0 
L 2900 538 
Q 2691 219 2414 64 
Q 2138 -91 1772 -91 
Q 1169 -91 856 284 
Q 544 659 544 1381 
z
M 1991 3584 
L 1991 3584 
z
" id="DejaVuSans-75" transform="scale(0.015625)"/>
       <path d="M 603 4863 
L 1178 4863 
L 1178 0 
L 603 0 
L 603 4863 
z
" id="DejaVuSans-6c" transform="scale(0.015625)"/>
       <path d="M 603 3500 
L 1178 3500 
L 1178 0 
L 603 0 
L 603 3500 
z
M 603 4863 
L 1178 4863 
L 1178 4134 
L 603 4134 
L 603 4863 
z
" id="DejaVuSans-69" transform="scale(0.015625)"/>
       <path d="M 3513 2113 
L 3513 0 
L 2938 0 
L 2938 2094 
Q 2938 2591 2744 2837 
Q 2550 3084 2163 3084 
Q 1697 3084 1428 2787 
Q 1159 2491 1159 1978 
L 1159 0 
L 581 0 
L 581 3500 
L 1159 3500 
L 1159 2956 
Q 1366 3272 1645 3428 
Q 1925 3584 2291 3584 
Q 2894 3584 3203 3211 
Q 3513 2838 3513 2113 
z
" id="DejaVuSans-6e" transform="scale(0.015625)"/>
       <path d="M 750 794 
L 1409 794 
L 1409 0 
L 750 0 
L 750 794 
z
M 750 3309 
L 1409 3309 
L 1409 2516 
L 750 2516 
L 750 3309 
z
" id="DejaVuSans-3a" transform="scale(0.015625)"/>
       <path d="M 628 4666 
L 1569 4666 
L 2759 1491 
L 3956 4666 
L 4897 4666 
L 4897 0 
L 4281 0 
L 4281 4097 
L 3078 897 
L 2444 897 
L 1241 4097 
L 1241 0 
L 628 0 
L 628 4666 
z
" id="DejaVuSans-4d" transform="scale(0.015625)"/>
       <path d="M 3597 1894 
L 3597 1613 
L 953 1613 
Q 991 1019 1311 708 
Q 1631 397 2203 397 
Q 2534 397 2845 478 
Q 3156 559 3463 722 
L 3463 178 
Q 3153 47 2828 -22 
Q 2503 -91 2169 -91 
Q 1331 -91 842 396 
Q 353 884 353 1716 
Q 353 2575 817 3079 
Q 1281 3584 2069 3584 
Q 2775 3584 3186 3129 
Q 3597 2675 3597 1894 
z
M 3022 2063 
Q 3016 2534 2758 2815 
Q 2500 3097 2075 3097 
Q 1594 3097 1305 2825 
Q 1016 2553 972 2059 
L 3022 2063 
z
" id="DejaVuSans-65" transform="scale(0.015625)"/>
       <path d="M 2631 2963 
Q 2534 3019 2420 3045 
Q 2306 3072 2169 3072 
Q 1681 3072 1420 2755 
Q 1159 2438 1159 1844 
L 1159 0 
L 581 0 
L 581 3500 
L 1159 3500 
L 1159 2956 
Q 1341 3275 1631 3429 
Q 1922 3584 2338 3584 
Q 2397 3584 2469 3576 
Q 2541 3569 2628 3553 
L 2631 2963 
z
" id="DejaVuSans-72" transform="scale(0.015625)"/>
      </defs>
      <use xlink:href="#DejaVuSans-31"/>
      <use x="63.623047" xlink:href="#DejaVuSans-73"/>
      <use x="115.722656" xlink:href="#DejaVuSans-74"/>
      <use x="154.931641" xlink:href="#DejaVuSans-20"/>
      <use x="186.71875" xlink:href="#DejaVuSans-70"/>
      <use x="250.195312" xlink:href="#DejaVuSans-6f"/>
      <use x="311.376953" xlink:href="#DejaVuSans-70"/>
      <use x="374.853516" xlink:href="#DejaVuSans-75"/>
      <use x="438.232422" xlink:href="#DejaVuSans-6c"/>
      <use x="466.015625" xlink:href="#DejaVuSans-61"/>
      <use x="527.294922" xlink:href="#DejaVuSans-74"/>
      <use x="566.503906" xlink:href="#DejaVuSans-69"/>
      <use x="594.287109" xlink:href="#DejaVuSans-6f"/>
      <use x="655.46875" xlink:href="#DejaVuSans-6e"/>
      <use x="718.847656" xlink:href="#DejaVuSans-20"/>
      <use x="750.634766" xlink:href="#DejaVuSans-3a"/>
      <use x="784.326172" xlink:href="#DejaVuSans-20"/>
      <use x="816.113281" xlink:href="#DejaVuSans-4d"/>
      <use x="902.392578" xlink:href="#DejaVuSans-6f"/>
      <use x="963.574219" xlink:href="#DejaVuSans-6e"/>
      <use x="1026.953125" xlink:href="#DejaVuSans-6f"/>
      <use x="1088.134766" xlink:href="#DejaVuSans-6d"/>
      <use x="1185.546875" xlink:href="#DejaVuSans-65"/>
      <use x="1247.070312" xlink:href="#DejaVuSans-72"/>
     </g>
    </g>
    <g id="line2d_13">
     <path d="M 20.6 41.673749 
L 34.6 41.673749 
" style="fill:none;stroke:#2ca02c;stroke-dasharray:5.55,2.4;stroke-dashoffset:0;stroke-opacity:0.5;stroke-width:1.5;"/>
    </g>
    <g id="line2d_14"/>
    <g id="text_13">
     <!-- 2nd population : Monomer + adducts -->
     <g transform="translate(40.2 44.123749)scale(0.07 -0.07)">
      <defs>
       <path d="M 2906 2969 
L 2906 4863 
L 3481 4863 
L 3481 0 
L 2906 0 
L 2906 525 
Q 2725 213 2448 61 
Q 2172 -91 1784 -91 
Q 1150 -91 751 415 
Q 353 922 353 1747 
Q 353 2572 751 3078 
Q 1150 3584 1784 3584 
Q 2172 3584 2448 3432 
Q 2725 3281 2906 2969 
z
M 947 1747 
Q 947 1113 1208 752 
Q 1469 391 1925 391 
Q 2381 391 2643 752 
Q 2906 1113 2906 1747 
Q 2906 2381 2643 2742 
Q 2381 3103 1925 3103 
Q 1469 3103 1208 2742 
Q 947 2381 947 1747 
z
" id="DejaVuSans-64" transform="scale(0.015625)"/>
       <path d="M 3122 3366 
L 3122 2828 
Q 2878 2963 2633 3030 
Q 2388 3097 2138 3097 
Q 1578 3097 1268 2742 
Q 959 2388 959 1747 
Q 959 1106 1268 751 
Q 1578 397 2138 397 
Q 2388 397 2633 464 
Q 2878 531 3122 666 
L 3122 134 
Q 2881 22 2623 -34 
Q 2366 -91 2075 -91 
Q 1284 -91 818 406 
Q 353 903 353 1747 
Q 353 2603 823 3093 
Q 1294 3584 2113 3584 
Q 2378 3584 2631 3529 
Q 2884 3475 3122 3366 
z
" id="DejaVuSans-63" transform="scale(0.015625)"/>
      </defs>
      <use xlink:href="#DejaVuSans-32"/>
      <use x="63.623047" xlink:href="#DejaVuSans-6e"/>
      <use x="127.001953" xlink:href="#DejaVuSans-64"/>
      <use x="190.478516" xlink:href="#DejaVuSans-20"/>
      <use x="222.265625" xlink:href="#DejaVuSans-70"/>
      <use x="285.742188" xlink:href="#DejaVuSans-6f"/>
      <use x="346.923828" xlink:href="#DejaVuSans-70"/>
      <use x="410.400391" xlink:href="#DejaVuSans-75"/>
      <use x="473.779297" xlink:href="#DejaVuSans-6c"/>
      <use x="501.5625" xlink:href="#DejaVuSans-61"/>
      <use x="562.841797" xlink:href="#DejaVuSans-74"/>
      <use x="602.050781" xlink:href="#DejaVuSans-69"/>
      <use x="629.833984" xlink:href="#DejaVuSans-6f"/>
      <use x="691.015625" xlink:href="#DejaVuSans-6e"/>
      <use x="754.394531" xlink:href="#DejaVuSans-20"/>
      <use x="786.181641" xlink:href="#DejaVuSans-3a"/>
      <use x="819.873047" xlink:href="#DejaVuSans-20"/>
      <use x="851.660156" xlink:href="#DejaVuSans-4d"/>
      <use x="937.939453" xlink:href="#DejaVuSans-6f"/>
      <use x="999.121094" xlink:href="#DejaVuSans-6e"/>
      <use x="1062.5" xlink:href="#DejaVuSans-6f"/>
      <use x="1123.681641" xlink:href="#DejaVuSans-6d"/>
      <use x="1221.09375" xlink:href="#DejaVuSans-65"/>
      <use x="1282.617188" xlink:href="#DejaVuSans-72"/>
      <use x="1323.730469" xlink:href="#DejaVuSans-20"/>
      <use x="1355.517578" xlink:href="#DejaVuSans-2b"/>
      <use x="1439.306641" xlink:href="#DejaVuSans-20"/>
      <use x="1471.09375" xlink:href="#DejaVuSans-61"/>
      <use x="1532.373047" xlink:href="#DejaVuSans-64"/>
      <use x="1595.849609" xlink:href="#DejaVuSans-64"/>
      <use x="1659.326172" xlink:href="#DejaVuSans-75"/>
      <use x="1722.705078" xlink:href="#DejaVuSans-63"/>
      <use x="1777.685547" xlink:href="#DejaVuSans-74"/>
      <use x="1816.894531" xlink:href="#DejaVuSans-73"/>
     </g>
    </g>
   </g>
  </g>
 </g>
 <defs>
  <clipPath id="p1c154af941">
   <rect height="224.769844" width="406.9" x="14.3" y="22.230156"/>
  </clipPath>
 </defs>
</svg>
