<?xml version="1.0" encoding="utf-8" standalone="no"?>
<!DOCTYPE svg PUBLIC "-//W3C//DTD SVG 1.1//EN"
  "http://www.w3.org/Graphics/SVG/1.1/DTD/svg11.dtd">
<svg height="288pt" version="1.1" viewBox="0 0 432 288" width="432pt" xmlns="http://www.w3.org/2000/svg" xmlns:xlink="http://www.w3.org/1999/xlink">
 <metadata>
  <rdf:RDF xmlns:cc="http://creativecommons.org/ns#" xmlns:dc="http://purl.org/dc/elements/1.1/" xmlns:rdf="http://www.w3.org/1999/02/22-rdf-syntax-ns#">
   <cc:Work>
    <dc:type rdf:resource="http://purl.org/dc/dcmitype/StillImage"/>
    <dc:date>2022-05-08T11:37:22.510435</dc:date>
    <dc:format>image/svg+xml</dc:format>
    <dc:creator>
     <cc:Agent>
      <dc:title>Matplotlib v3.4.2, https://matplotlib.org/</dc:title>
     </cc:Agent>
    </dc:creator>
   </cc:Work>
  </rdf:RDF>
 </metadata>
 <defs>
  <style type="text/css">*{stroke-linecap:butt;stroke-linejoin:round;}</style>
 </defs>
 <g id="figure_1">
  <g id="patch_1">
   <path d="M 0 288 
L 432 288 
L 432 0 
L 0 0 
z
" style="fill:none;"/>
  </g>
  <g id="axes_1">
   <g id="patch_2">
    <path d="M 54 252 
L 388.8 252 
L 388.8 34.56 
L 54 34.56 
z
" style="fill:#ffffff;"/>
   </g>
   <g id="matplotlib.axis_1">
    <g id="xtick_1">
     <g id="line2d_1">
      <defs>
       <path d="M 0 0 
L 0 3.5 
" id="m56dca0c8cc" style="stroke:#000000;stroke-width:0.8;"/>
      </defs>
      <g>
       <use style="stroke:#000000;stroke-width:0.8;" x="103.036364" xlink:href="#m56dca0c8cc" y="252"/>
      </g>
     </g>
     <g id="text_1">
      <!-- 2600 -->
      <g transform="translate(90.311364 266.598437)scale(0.1 -0.1)">
       <defs>
        <path d="M 1228 531 
L 3431 531 
L 3431 0 
L 469 0 
L 469 531 
Q 828 903 1448 1529 
Q 2069 2156 2228 2338 
Q 2531 2678 2651 2914 
Q 2772 3150 2772 3378 
Q 2772 3750 2511 3984 
Q 2250 4219 1831 4219 
Q 1534 4219 1204 4116 
Q 875 4013 500 3803 
L 500 4441 
Q 881 4594 1212 4672 
Q 1544 4750 1819 4750 
Q 2544 4750 2975 4387 
Q 3406 4025 3406 3419 
Q 3406 3131 3298 2873 
Q 3191 2616 2906 2266 
Q 2828 2175 2409 1742 
Q 1991 1309 1228 531 
z
" id="DejaVuSans-32" transform="scale(0.015625)"/>
        <path d="M 2113 2584 
Q 1688 2584 1439 2293 
Q 1191 2003 1191 1497 
Q 1191 994 1439 701 
Q 1688 409 2113 409 
Q 2538 409 2786 701 
Q 3034 994 3034 1497 
Q 3034 2003 2786 2293 
Q 2538 2584 2113 2584 
z
M 3366 4563 
L 3366 3988 
Q 3128 4100 2886 4159 
Q 2644 4219 2406 4219 
Q 1781 4219 1451 3797 
Q 1122 3375 1075 2522 
Q 1259 2794 1537 2939 
Q 1816 3084 2150 3084 
Q 2853 3084 3261 2657 
Q 3669 2231 3669 1497 
Q 3669 778 3244 343 
Q 2819 -91 2113 -91 
Q 1303 -91 875 529 
Q 447 1150 447 2328 
Q 447 3434 972 4092 
Q 1497 4750 2381 4750 
Q 2619 4750 2861 4703 
Q 3103 4656 3366 4563 
z
" id="DejaVuSans-36" transform="scale(0.015625)"/>
        <path d="M 2034 4250 
Q 1547 4250 1301 3770 
Q 1056 3291 1056 2328 
Q 1056 1369 1301 889 
Q 1547 409 2034 409 
Q 2525 409 2770 889 
Q 3016 1369 3016 2328 
Q 3016 3291 2770 3770 
Q 2525 4250 2034 4250 
z
M 2034 4750 
Q 2819 4750 3233 4129 
Q 3647 3509 3647 2328 
Q 3647 1150 3233 529 
Q 2819 -91 2034 -91 
Q 1250 -91 836 529 
Q 422 1150 422 2328 
Q 422 3509 836 4129 
Q 1250 4750 2034 4750 
z
" id="DejaVuSans-30" transform="scale(0.015625)"/>
       </defs>
       <use xlink:href="#DejaVuSans-32"/>
       <use x="63.623047" xlink:href="#DejaVuSans-36"/>
       <use x="127.246094" xlink:href="#DejaVuSans-30"/>
       <use x="190.869141" xlink:href="#DejaVuSans-30"/>
      </g>
     </g>
    </g>
    <g id="xtick_2">
     <g id="line2d_2">
      <g>
       <use style="stroke:#000000;stroke-width:0.8;" x="170.672727" xlink:href="#m56dca0c8cc" y="252"/>
      </g>
     </g>
     <g id="text_2">
      <!-- 2800 -->
      <g transform="translate(157.947727 266.598437)scale(0.1 -0.1)">
       <defs>
        <path d="M 2034 2216 
Q 1584 2216 1326 1975 
Q 1069 1734 1069 1313 
Q 1069 891 1326 650 
Q 1584 409 2034 409 
Q 2484 409 2743 651 
Q 3003 894 3003 1313 
Q 3003 1734 2745 1975 
Q 2488 2216 2034 2216 
z
M 1403 2484 
Q 997 2584 770 2862 
Q 544 3141 544 3541 
Q 544 4100 942 4425 
Q 1341 4750 2034 4750 
Q 2731 4750 3128 4425 
Q 3525 4100 3525 3541 
Q 3525 3141 3298 2862 
Q 3072 2584 2669 2484 
Q 3125 2378 3379 2068 
Q 3634 1759 3634 1313 
Q 3634 634 3220 271 
Q 2806 -91 2034 -91 
Q 1263 -91 848 271 
Q 434 634 434 1313 
Q 434 1759 690 2068 
Q 947 2378 1403 2484 
z
M 1172 3481 
Q 1172 3119 1398 2916 
Q 1625 2713 2034 2713 
Q 2441 2713 2670 2916 
Q 2900 3119 2900 3481 
Q 2900 3844 2670 4047 
Q 2441 4250 2034 4250 
Q 1625 4250 1398 4047 
Q 1172 3844 1172 3481 
z
" id="DejaVuSans-38" transform="scale(0.015625)"/>
       </defs>
       <use xlink:href="#DejaVuSans-32"/>
       <use x="63.623047" xlink:href="#DejaVuSans-38"/>
       <use x="127.246094" xlink:href="#DejaVuSans-30"/>
       <use x="190.869141" xlink:href="#DejaVuSans-30"/>
      </g>
     </g>
    </g>
    <g id="xtick_3">
     <g id="line2d_3">
      <g>
       <use style="stroke:#000000;stroke-width:0.8;" x="238.309091" xlink:href="#m56dca0c8cc" y="252"/>
      </g>
     </g>
     <g id="text_3">
      <!-- 3000 -->
      <g transform="translate(225.584091 266.598437)scale(0.1 -0.1)">
       <defs>
        <path d="M 2597 2516 
Q 3050 2419 3304 2112 
Q 3559 1806 3559 1356 
Q 3559 666 3084 287 
Q 2609 -91 1734 -91 
Q 1441 -91 1130 -33 
Q 819 25 488 141 
L 488 750 
Q 750 597 1062 519 
Q 1375 441 1716 441 
Q 2309 441 2620 675 
Q 2931 909 2931 1356 
Q 2931 1769 2642 2001 
Q 2353 2234 1838 2234 
L 1294 2234 
L 1294 2753 
L 1863 2753 
Q 2328 2753 2575 2939 
Q 2822 3125 2822 3475 
Q 2822 3834 2567 4026 
Q 2313 4219 1838 4219 
Q 1578 4219 1281 4162 
Q 984 4106 628 3988 
L 628 4550 
Q 988 4650 1302 4700 
Q 1616 4750 1894 4750 
Q 2613 4750 3031 4423 
Q 3450 4097 3450 3541 
Q 3450 3153 3228 2886 
Q 3006 2619 2597 2516 
z
" id="DejaVuSans-33" transform="scale(0.015625)"/>
       </defs>
       <use xlink:href="#DejaVuSans-33"/>
       <use x="63.623047" xlink:href="#DejaVuSans-30"/>
       <use x="127.246094" xlink:href="#DejaVuSans-30"/>
       <use x="190.869141" xlink:href="#DejaVuSans-30"/>
      </g>
     </g>
    </g>
    <g id="xtick_4">
     <g id="line2d_4">
      <g>
       <use style="stroke:#000000;stroke-width:0.8;" x="305.945455" xlink:href="#m56dca0c8cc" y="252"/>
      </g>
     </g>
     <g id="text_4">
      <!-- 3200 -->
      <g transform="translate(293.220455 266.598437)scale(0.1 -0.1)">
       <use xlink:href="#DejaVuSans-33"/>
       <use x="63.623047" xlink:href="#DejaVuSans-32"/>
       <use x="127.246094" xlink:href="#DejaVuSans-30"/>
       <use x="190.869141" xlink:href="#DejaVuSans-30"/>
      </g>
     </g>
    </g>
    <g id="xtick_5">
     <g id="line2d_5">
      <g>
       <use style="stroke:#000000;stroke-width:0.8;" x="373.581818" xlink:href="#m56dca0c8cc" y="252"/>
      </g>
     </g>
     <g id="text_5">
      <!-- 3400 -->
      <g transform="translate(360.856818 266.598437)scale(0.1 -0.1)">
       <defs>
        <path d="M 2419 4116 
L 825 1625 
L 2419 1625 
L 2419 4116 
z
M 2253 4666 
L 3047 4666 
L 3047 1625 
L 3713 1625 
L 3713 1100 
L 3047 1100 
L 3047 0 
L 2419 0 
L 2419 1100 
L 313 1100 
L 313 1709 
L 2253 4666 
z
" id="DejaVuSans-34" transform="scale(0.015625)"/>
       </defs>
       <use xlink:href="#DejaVuSans-33"/>
       <use x="63.623047" xlink:href="#DejaVuSans-34"/>
       <use x="127.246094" xlink:href="#DejaVuSans-30"/>
       <use x="190.869141" xlink:href="#DejaVuSans-30"/>
      </g>
     </g>
    </g>
    <g id="text_6">
     <!-- m/z -->
     <g transform="translate(212.221094 280.276563)scale(0.1 -0.1)">
      <defs>
       <path d="M 3328 2828 
Q 3544 3216 3844 3400 
Q 4144 3584 4550 3584 
Q 5097 3584 5394 3201 
Q 5691 2819 5691 2113 
L 5691 0 
L 5113 0 
L 5113 2094 
Q 5113 2597 4934 2840 
Q 4756 3084 4391 3084 
Q 3944 3084 3684 2787 
Q 3425 2491 3425 1978 
L 3425 0 
L 2847 0 
L 2847 2094 
Q 2847 2600 2669 2842 
Q 2491 3084 2119 3084 
Q 1678 3084 1418 2786 
Q 1159 2488 1159 1978 
L 1159 0 
L 581 0 
L 581 3500 
L 1159 3500 
L 1159 2956 
Q 1356 3278 1631 3431 
Q 1906 3584 2284 3584 
Q 2666 3584 2933 3390 
Q 3200 3197 3328 2828 
z
" id="DejaVuSans-6d" transform="scale(0.015625)"/>
       <path d="M 1625 4666 
L 2156 4666 
L 531 -594 
L 0 -594 
L 1625 4666 
z
" id="DejaVuSans-2f" transform="scale(0.015625)"/>
       <path d="M 353 3500 
L 3084 3500 
L 3084 2975 
L 922 459 
L 3084 459 
L 3084 0 
L 275 0 
L 275 525 
L 2438 3041 
L 353 3041 
L 353 3500 
z
" id="DejaVuSans-7a" transform="scale(0.015625)"/>
      </defs>
      <use xlink:href="#DejaVuSans-6d"/>
      <use x="97.412109" xlink:href="#DejaVuSans-2f"/>
      <use x="131.103516" xlink:href="#DejaVuSans-7a"/>
     </g>
    </g>
   </g>
   <g id="matplotlib.axis_2">
    <g id="ytick_1">
     <g id="line2d_6">
      <defs>
       <path d="M 0 0 
L -3.5 0 
" id="ma4dad5b720" style="stroke:#000000;stroke-width:0.8;"/>
      </defs>
      <g>
       <use style="stroke:#000000;stroke-width:0.8;" x="54" xlink:href="#ma4dad5b720" y="242.488713"/>
      </g>
     </g>
     <g id="text_7">
      <!-- 0 -->
      <g transform="translate(40.6375 246.287932)scale(0.1 -0.1)">
       <use xlink:href="#DejaVuSans-30"/>
      </g>
     </g>
    </g>
    <g id="ytick_2">
     <g id="line2d_7">
      <g>
       <use style="stroke:#000000;stroke-width:0.8;" x="54" xlink:href="#ma4dad5b720" y="202.879698"/>
      </g>
     </g>
     <g id="text_8">
      <!-- 20 -->
      <g transform="translate(34.275 206.678916)scale(0.1 -0.1)">
       <use xlink:href="#DejaVuSans-32"/>
       <use x="63.623047" xlink:href="#DejaVuSans-30"/>
      </g>
     </g>
    </g>
    <g id="ytick_3">
     <g id="line2d_8">
      <g>
       <use style="stroke:#000000;stroke-width:0.8;" x="54" xlink:href="#ma4dad5b720" y="163.270682"/>
      </g>
     </g>
     <g id="text_9">
      <!-- 40 -->
      <g transform="translate(34.275 167.069901)scale(0.1 -0.1)">
       <use xlink:href="#DejaVuSans-34"/>
       <use x="63.623047" xlink:href="#DejaVuSans-30"/>
      </g>
     </g>
    </g>
    <g id="ytick_4">
     <g id="line2d_9">
      <g>
       <use style="stroke:#000000;stroke-width:0.8;" x="54" xlink:href="#ma4dad5b720" y="123.661667"/>
      </g>
     </g>
     <g id="text_10">
      <!-- 60 -->
      <g transform="translate(34.275 127.460886)scale(0.1 -0.1)">
       <use xlink:href="#DejaVuSans-36"/>
       <use x="63.623047" xlink:href="#DejaVuSans-30"/>
      </g>
     </g>
    </g>
    <g id="ytick_5">
     <g id="line2d_10">
      <g>
       <use style="stroke:#000000;stroke-width:0.8;" x="54" xlink:href="#ma4dad5b720" y="84.052652"/>
      </g>
     </g>
     <g id="text_11">
      <!-- 80 -->
      <g transform="translate(34.275 87.85187)scale(0.1 -0.1)">
       <use xlink:href="#DejaVuSans-38"/>
       <use x="63.623047" xlink:href="#DejaVuSans-30"/>
      </g>
     </g>
    </g>
    <g id="ytick_6">
     <g id="line2d_11">
      <g>
       <use style="stroke:#000000;stroke-width:0.8;" x="54" xlink:href="#ma4dad5b720" y="44.443636"/>
      </g>
     </g>
     <g id="text_12">
      <!-- 100 -->
      <g transform="translate(27.9125 48.242855)scale(0.1 -0.1)">
       <defs>
        <path d="M 794 531 
L 1825 531 
L 1825 4091 
L 703 3866 
L 703 4441 
L 1819 4666 
L 2450 4666 
L 2450 531 
L 3481 531 
L 3481 0 
L 794 0 
L 794 531 
z
" id="DejaVuSans-31" transform="scale(0.015625)"/>
       </defs>
       <use xlink:href="#DejaVuSans-31"/>
       <use x="63.623047" xlink:href="#DejaVuSans-30"/>
       <use x="127.246094" xlink:href="#DejaVuSans-30"/>
      </g>
     </g>
    </g>
    <g id="text_13">
     <!-- Abundance (%) -->
     <g transform="translate(21.832812 181.68625)rotate(-90)scale(0.1 -0.1)">
      <defs>
       <path d="M 2188 4044 
L 1331 1722 
L 3047 1722 
L 2188 4044 
z
M 1831 4666 
L 2547 4666 
L 4325 0 
L 3669 0 
L 3244 1197 
L 1141 1197 
L 716 0 
L 50 0 
L 1831 4666 
z
" id="DejaVuSans-41" transform="scale(0.015625)"/>
       <path d="M 3116 1747 
Q 3116 2381 2855 2742 
Q 2594 3103 2138 3103 
Q 1681 3103 1420 2742 
Q 1159 2381 1159 1747 
Q 1159 1113 1420 752 
Q 1681 391 2138 391 
Q 2594 391 2855 752 
Q 3116 1113 3116 1747 
z
M 1159 2969 
Q 1341 3281 1617 3432 
Q 1894 3584 2278 3584 
Q 2916 3584 3314 3078 
Q 3713 2572 3713 1747 
Q 3713 922 3314 415 
Q 2916 -91 2278 -91 
Q 1894 -91 1617 61 
Q 1341 213 1159 525 
L 1159 0 
L 581 0 
L 581 4863 
L 1159 4863 
L 1159 2969 
z
" id="DejaVuSans-62" transform="scale(0.015625)"/>
       <path d="M 544 1381 
L 544 3500 
L 1119 3500 
L 1119 1403 
Q 1119 906 1312 657 
Q 1506 409 1894 409 
Q 2359 409 2629 706 
Q 2900 1003 2900 1516 
L 2900 3500 
L 3475 3500 
L 3475 0 
L 2900 0 
L 2900 538 
Q 2691 219 2414 64 
Q 2138 -91 1772 -91 
Q 1169 -91 856 284 
Q 544 659 544 1381 
z
M 1991 3584 
L 1991 3584 
z
" id="DejaVuSans-75" transform="scale(0.015625)"/>
       <path d="M 3513 2113 
L 3513 0 
L 2938 0 
L 2938 2094 
Q 2938 2591 2744 2837 
Q 2550 3084 2163 3084 
Q 1697 3084 1428 2787 
Q 1159 2491 1159 1978 
L 1159 0 
L 581 0 
L 581 3500 
L 1159 3500 
L 1159 2956 
Q 1366 3272 1645 3428 
Q 1925 3584 2291 3584 
Q 2894 3584 3203 3211 
Q 3513 2838 3513 2113 
z
" id="DejaVuSans-6e" transform="scale(0.015625)"/>
       <path d="M 2906 2969 
L 2906 4863 
L 3481 4863 
L 3481 0 
L 2906 0 
L 2906 525 
Q 2725 213 2448 61 
Q 2172 -91 1784 -91 
Q 1150 -91 751 415 
Q 353 922 353 1747 
Q 353 2572 751 3078 
Q 1150 3584 1784 3584 
Q 2172 3584 2448 3432 
Q 2725 3281 2906 2969 
z
M 947 1747 
Q 947 1113 1208 752 
Q 1469 391 1925 391 
Q 2381 391 2643 752 
Q 2906 1113 2906 1747 
Q 2906 2381 2643 2742 
Q 2381 3103 1925 3103 
Q 1469 3103 1208 2742 
Q 947 2381 947 1747 
z
" id="DejaVuSans-64" transform="scale(0.015625)"/>
       <path d="M 2194 1759 
Q 1497 1759 1228 1600 
Q 959 1441 959 1056 
Q 959 750 1161 570 
Q 1363 391 1709 391 
Q 2188 391 2477 730 
Q 2766 1069 2766 1631 
L 2766 1759 
L 2194 1759 
z
M 3341 1997 
L 3341 0 
L 2766 0 
L 2766 531 
Q 2569 213 2275 61 
Q 1981 -91 1556 -91 
Q 1019 -91 701 211 
Q 384 513 384 1019 
Q 384 1609 779 1909 
Q 1175 2209 1959 2209 
L 2766 2209 
L 2766 2266 
Q 2766 2663 2505 2880 
Q 2244 3097 1772 3097 
Q 1472 3097 1187 3025 
Q 903 2953 641 2809 
L 641 3341 
Q 956 3463 1253 3523 
Q 1550 3584 1831 3584 
Q 2591 3584 2966 3190 
Q 3341 2797 3341 1997 
z
" id="DejaVuSans-61" transform="scale(0.015625)"/>
       <path d="M 3122 3366 
L 3122 2828 
Q 2878 2963 2633 3030 
Q 2388 3097 2138 3097 
Q 1578 3097 1268 2742 
Q 959 2388 959 1747 
Q 959 1106 1268 751 
Q 1578 397 2138 397 
Q 2388 397 2633 464 
Q 2878 531 3122 666 
L 3122 134 
Q 2881 22 2623 -34 
Q 2366 -91 2075 -91 
Q 1284 -91 818 406 
Q 353 903 353 1747 
Q 353 2603 823 3093 
Q 1294 3584 2113 3584 
Q 2378 3584 2631 3529 
Q 2884 3475 3122 3366 
z
" id="DejaVuSans-63" transform="scale(0.015625)"/>
       <path d="M 3597 1894 
L 3597 1613 
L 953 1613 
Q 991 1019 1311 708 
Q 1631 397 2203 397 
Q 2534 397 2845 478 
Q 3156 559 3463 722 
L 3463 178 
Q 3153 47 2828 -22 
Q 2503 -91 2169 -91 
Q 1331 -91 842 396 
Q 353 884 353 1716 
Q 353 2575 817 3079 
Q 1281 3584 2069 3584 
Q 2775 3584 3186 3129 
Q 3597 2675 3597 1894 
z
M 3022 2063 
Q 3016 2534 2758 2815 
Q 2500 3097 2075 3097 
Q 1594 3097 1305 2825 
Q 1016 2553 972 2059 
L 3022 2063 
z
" id="DejaVuSans-65" transform="scale(0.015625)"/>
       <path id="DejaVuSans-20" transform="scale(0.015625)"/>
       <path d="M 1984 4856 
Q 1566 4138 1362 3434 
Q 1159 2731 1159 2009 
Q 1159 1288 1364 580 
Q 1569 -128 1984 -844 
L 1484 -844 
Q 1016 -109 783 600 
Q 550 1309 550 2009 
Q 550 2706 781 3412 
Q 1013 4119 1484 4856 
L 1984 4856 
z
" id="DejaVuSans-28" transform="scale(0.015625)"/>
       <path d="M 4653 2053 
Q 4381 2053 4226 1822 
Q 4072 1591 4072 1178 
Q 4072 772 4226 539 
Q 4381 306 4653 306 
Q 4919 306 5073 539 
Q 5228 772 5228 1178 
Q 5228 1588 5073 1820 
Q 4919 2053 4653 2053 
z
M 4653 2450 
Q 5147 2450 5437 2106 
Q 5728 1763 5728 1178 
Q 5728 594 5436 251 
Q 5144 -91 4653 -91 
Q 4153 -91 3862 251 
Q 3572 594 3572 1178 
Q 3572 1766 3864 2108 
Q 4156 2450 4653 2450 
z
M 1428 4353 
Q 1159 4353 1004 4120 
Q 850 3888 850 3481 
Q 850 3069 1003 2837 
Q 1156 2606 1428 2606 
Q 1700 2606 1854 2837 
Q 2009 3069 2009 3481 
Q 2009 3884 1853 4118 
Q 1697 4353 1428 4353 
z
M 4250 4750 
L 4750 4750 
L 1831 -91 
L 1331 -91 
L 4250 4750 
z
M 1428 4750 
Q 1922 4750 2215 4408 
Q 2509 4066 2509 3481 
Q 2509 2891 2217 2550 
Q 1925 2209 1428 2209 
Q 931 2209 642 2551 
Q 353 2894 353 3481 
Q 353 4063 643 4406 
Q 934 4750 1428 4750 
z
" id="DejaVuSans-25" transform="scale(0.015625)"/>
       <path d="M 513 4856 
L 1013 4856 
Q 1481 4119 1714 3412 
Q 1947 2706 1947 2009 
Q 1947 1309 1714 600 
Q 1481 -109 1013 -844 
L 513 -844 
Q 928 -128 1133 580 
Q 1338 1288 1338 2009 
Q 1338 2731 1133 3434 
Q 928 4138 513 4856 
z
" id="DejaVuSans-29" transform="scale(0.015625)"/>
      </defs>
      <use xlink:href="#DejaVuSans-41"/>
      <use x="68.408203" xlink:href="#DejaVuSans-62"/>
      <use x="131.884766" xlink:href="#DejaVuSans-75"/>
      <use x="195.263672" xlink:href="#DejaVuSans-6e"/>
      <use x="258.642578" xlink:href="#DejaVuSans-64"/>
      <use x="322.119141" xlink:href="#DejaVuSans-61"/>
      <use x="383.398438" xlink:href="#DejaVuSans-6e"/>
      <use x="446.777344" xlink:href="#DejaVuSans-63"/>
      <use x="501.757812" xlink:href="#DejaVuSans-65"/>
      <use x="563.28125" xlink:href="#DejaVuSans-20"/>
      <use x="595.068359" xlink:href="#DejaVuSans-28"/>
      <use x="634.082031" xlink:href="#DejaVuSans-25"/>
      <use x="729.101562" xlink:href="#DejaVuSans-29"/>
     </g>
    </g>
   </g>
   <g id="line2d_12">
    <path clip-path="url(#p1f1e8e819e)" d="M 69.218182 242.06787 
L 69.218182 242.00546 
L 69.218182 242.075038 
L 69.218182 242.009888 
L 70.232727 241.999346 
L 70.232727 241.907207 
L 70.232727 241.845852 
L 71.247273 241.895189 
L 71.247273 241.903412 
L 71.247273 241.921544 
L 71.247273 241.776695 
L 71.247273 241.787026 
L 72.261818 241.82034 
L 72.261818 241.865671 
L 72.261818 241.863563 
L 72.261818 241.894978 
L 72.938182 241.914165 
L 72.938182 241.992388 
L 72.938182 242.011996 
L 72.938182 242.008201 
L 77.672727 241.997448 
L 77.672727 241.932719 
L 77.672727 241.891816 
L 77.672727 241.902569 
L 80.716364 241.940099 
L 80.716364 241.818653 
L 81.054545 241.695099 
L 81.054545 241.547719 
L 81.054545 241.557629 
L 81.730909 241.614135 
L 81.730909 241.647237 
L 81.730909 241.851544 
L 81.730909 241.851544 
L 82.407273 241.843322 
L 82.407273 241.750551 
L 82.407273 241.72546 
L 83.421818 241.750551 
L 83.421818 241.814858 
L 83.421818 241.863773 
L 83.421818 241.859346 
L 84.774545 241.841213 
L 84.774545 241.787237 
L 84.774545 241.761725 
L 85.450909 241.701213 
L 85.450909 241.661153 
L 85.450909 241.665792 
L 85.450909 241.377991 
L 85.789091 241.250641 
L 85.789091 240.989196 
L 85.789091 241.003322 
L 86.127273 240.959256 
L 86.127273 241.10537 
L 86.127273 241.129617 
L 86.465455 241.236093 
L 86.465455 241.23293 
L 86.465455 241.292388 
L 86.465455 241.285219 
L 86.803636 241.276364 
L 86.803636 241.386635 
L 86.803636 241.381997 
L 86.803636 241.557418 
L 89.170909 241.507659 
L 89.170909 241.487629 
L 89.170909 241.347207 
L 90.523636 241.475611 
L 90.523636 241.464858 
L 90.523636 241.492689 
L 91.2 241.442509 
L 91.2 241.39275 
L 91.2 241.373774 
L 91.2 241.416997 
L 91.2 241.374617 
L 91.538182 241.26287 
L 91.538182 241.22281 
L 91.538182 241.284165 
L 91.538182 241.269617 
L 91.876364 241.169256 
L 91.876364 241.070792 
L 91.876364 241.097991 
L 92.552727 240.986033 
L 92.552727 240.988141 
L 92.552727 240.966635 
L 92.552727 241.061726 
L 92.552727 240.982659 
L 92.890909 240.884828 
L 92.890909 240.887569 
L 92.890909 240.819888 
L 93.229091 240.82284 
L 93.229091 240.723111 
L 93.229091 240.594075 
L 93.229091 240.617901 
L 93.567273 240.500461 
L 93.567273 240.27275 
L 93.567273 240.274859 
L 93.905455 240.175762 
L 93.905455 237.662511 
L 94.243636 237.512812 
L 94.243636 235.657391 
L 94.581818 235.602572 
L 94.581818 235.754379 
L 94.581818 237.011005 
L 94.92 237.177571 
L 94.92 237.704679 
L 94.92 237.519137 
L 95.258182 237.519137 
L 95.258182 237.592932 
L 95.258182 237.816426 
L 95.596364 237.770041 
L 95.596364 237.894438 
L 95.596364 238.615522 
L 95.934545 238.735703 
L 95.934545 239.212209 
L 96.272727 239.347148 
L 96.272727 239.834196 
L 96.610909 239.958594 
L 96.610909 240.403051 
L 96.949091 240.515009 
L 96.949091 240.729015 
L 96.949091 240.716786 
L 97.963636 240.67778 
L 97.963636 240.633925 
L 97.963636 240.596395 
L 97.963636 240.659226 
L 98.978182 240.656696 
L 98.978182 240.711726 
L 98.978182 240.754105 
L 98.978182 240.68031 
L 98.978182 240.691063 
L 99.654545 240.722901 
L 99.654545 240.786786 
L 99.654545 240.954196 
L 100.669091 240.882087 
L 100.669091 240.99784 
L 100.669091 241.055611 
L 100.669091 240.989828 
L 100.669091 240.994888 
L 101.683636 241.11528 
L 101.683636 241.216695 
L 101.683636 241.034316 
L 102.021818 240.895792 
L 102.021818 240.549798 
L 102.36 240.441846 
L 102.36 240.423714 
L 102.36 240.578895 
L 102.36 240.570883 
L 102.698182 240.675672 
L 102.698182 240.72522 
L 102.698182 240.724376 
L 103.036364 240.854045 
L 103.036364 240.865431 
L 103.036364 240.861003 
L 103.712727 241.025039 
L 103.712727 241.056244 
L 103.712727 241.0204 
L 103.712727 241.05287 
L 104.389091 241.043804 
L 104.389091 240.946394 
L 104.389091 240.958834 
L 104.389091 240.905702 
L 104.727273 240.91287 
L 104.727273 240.806184 
L 104.727273 239.897449 
L 105.065455 239.804678 
L 105.065455 239.229076 
L 105.065455 239.231184 
L 105.403636 239.231184 
L 105.403636 239.336606 
L 105.403636 239.463112 
L 105.741818 239.589618 
L 105.741818 239.589618 
L 105.741818 239.692931 
L 105.741818 239.690823 
L 106.08 239.804678 
L 106.08 240.281184 
L 106.418182 240.38028 
L 106.418182 240.47031 
L 106.418182 240.445642 
L 106.756364 240.587117 
L 106.756364 240.676093 
L 106.756364 240.661334 
L 107.094545 240.637298 
L 107.094545 240.758322 
L 107.094545 240.79269 
L 107.094545 240.756003 
L 107.094545 240.784045 
L 108.109091 240.68516 
L 108.109091 240.654166 
L 108.109091 240.749467 
L 108.109091 240.695069 
L 109.123636 240.556334 
L 109.123636 240.564136 
L 109.123636 240.544527 
L 109.123636 240.572148 
L 109.123636 240.563292 
L 109.461818 240.576997 
L 109.461818 240.467358 
L 109.461818 240.319136 
L 110.138182 240.239015 
L 110.138182 240.39525 
L 110.138182 240.451545 
L 110.138182 240.416967 
L 110.814545 240.471575 
L 110.814545 240.329678 
L 110.814545 240.291726 
L 110.814545 240.298051 
L 111.152727 240.317027 
L 111.152727 240.209497 
L 111.152727 240.135702 
L 111.152727 240.228473 
L 111.152727 240.139919 
L 111.829091 240.01763 
L 111.829091 239.867931 
L 112.167273 239.751967 
L 112.167273 239.332389 
L 112.167273 239.349257 
L 112.505455 239.239618 
L 112.505455 239.117329 
L 112.505455 239.245943 
L 112.505455 239.140522 
L 112.843636 239.140522 
L 112.843636 239.231184 
L 112.843636 239.353474 
L 112.843636 239.245943 
L 113.52 239.205883 
L 113.52 239.184799 
L 113.52 239.011907 
L 113.858182 238.902269 
L 113.858182 238.826365 
L 114.196364 238.839016 
L 114.196364 238.744136 
L 114.196364 238.63239 
L 114.196364 238.710402 
L 114.534545 238.617631 
L 114.534545 238.548052 
L 114.534545 238.573353 
L 114.872727 238.461607 
L 114.872727 238.467932 
L 114.872727 238.265522 
L 114.872727 238.476366 
L 114.872727 238.280281 
L 115.210909 238.288715 
L 115.210909 238.181185 
L 115.210909 237.915522 
L 115.210909 237.940824 
L 115.549091 237.945041 
L 115.549091 237.845944 
L 115.549091 237.656185 
L 115.549091 237.72998 
L 115.887273 237.744739 
L 115.887273 237.628776 
L 115.887273 237.531788 
L 115.887273 237.645643 
L 115.887273 237.561306 
L 116.225455 237.453776 
L 116.225455 237.226065 
L 116.225455 237.242932 
L 116.563636 237.2598 
L 116.563636 237.15227 
L 116.563636 236.827571 
L 116.901818 236.739017 
L 116.901818 236.604077 
L 116.901818 236.65468 
L 117.24 236.500764 
L 117.24 236.504981 
L 117.24 236.144439 
L 117.578182 236.053776 
L 117.578182 235.701668 
L 117.916364 235.752271 
L 117.916364 235.627873 
L 117.916364 235.507692 
L 118.254545 235.514018 
L 118.254545 235.404379 
L 118.254545 234.967934 
L 118.592727 234.86462 
L 118.592727 234.6095 
L 118.930909 234.523054 
L 118.930909 234.52938 
L 118.930909 233.395043 
L 119.269091 233.257995 
L 119.269091 231.997152 
L 119.269091 231.997152 
L 119.607273 231.87908 
L 119.607273 231.037815 
L 119.945455 231.0589 
L 119.945455 230.949261 
L 119.945455 229.728479 
L 120.283636 229.572455 
L 120.283636 227.824564 
L 120.621818 227.683299 
L 120.621818 225.024565 
L 120.96 224.879084 
L 120.96 218.916436 
L 121.298182 218.684509 
L 121.298182 184.548984 
L 121.636364 183.283925 
L 121.636364 155.895385 
L 121.974545 155.600204 
L 121.974545 153.555025 
L 121.974545 163.23273 
L 122.312727 163.633333 
L 122.312727 171.961642 
L 122.650909 172.130316 
L 122.650909 185.033924 
L 122.989091 185.265851 
L 122.989091 194.564039 
L 123.327273 194.922473 
L 123.327273 206.476684 
L 123.665455 206.645358 
L 123.665455 215.795956 
L 124.003636 216.048968 
L 124.003636 221.383302 
L 124.341818 221.651073 
L 124.341818 226.137818 
L 124.68 226.262215 
L 124.68 229.026371 
L 125.018182 229.157093 
L 125.018182 230.57396 
L 125.018182 230.569743 
L 125.356364 230.687815 
L 125.356364 230.670948 
L 125.356364 231.626068 
L 125.694545 231.626068 
L 125.694545 231.682996 
L 125.694545 232.199562 
L 126.032727 232.085706 
L 126.032727 230.740526 
L 126.032727 230.793237 
L 126.370909 230.683599 
L 126.370909 230.845948 
L 126.370909 231.248659 
L 126.370909 231.24655 
L 126.709091 231.227574 
L 126.709091 231.324562 
L 126.709091 232.574863 
L 127.047273 232.682393 
L 127.047273 233.239019 
L 127.385455 233.388718 
L 127.385455 233.92426 
L 127.385455 233.774561 
L 127.723636 233.64173 
L 127.723636 233.099862 
L 127.723636 233.198959 
L 128.061818 233.091429 
L 128.061818 232.543236 
L 128.061818 233.165224 
L 128.061818 232.568537 
L 128.4 232.566429 
L 128.4 232.652875 
L 128.4 233.0092 
L 128.4 232.950164 
L 128.738182 232.848959 
L 128.738182 232.760405 
L 128.738182 233.329682 
L 129.076364 233.494139 
L 129.076364 233.72185 
L 129.076364 233.23691 
L 129.414545 233.167332 
L 129.414545 233.319139 
L 129.414545 233.698657 
L 129.752727 233.816729 
L 129.752727 233.804079 
L 129.752727 234.622151 
L 130.090909 234.725464 
L 130.090909 235.813415 
L 130.429091 235.935704 
L 130.429091 236.760101 
L 130.767273 236.854981 
L 130.767273 236.682089 
L 130.767273 236.625162 
L 130.767273 236.698957 
L 131.105455 236.833897 
L 131.105455 237.293535 
L 131.443636 237.403173 
L 131.443636 238.096848 
L 131.781818 238.212811 
L 131.781818 238.212811 
L 131.781818 238.45739 
L 131.781818 238.448956 
L 132.12 238.562811 
L 132.12 238.697751 
L 132.458182 238.817932 
L 132.458182 239.032992 
L 132.796364 239.138413 
L 132.796364 239.136305 
L 132.796364 239.378775 
L 133.472727 239.479979 
L 133.472727 239.832088 
L 134.149091 239.943835 
L 134.149091 239.939618 
L 134.149091 240.053473 
L 134.149091 239.931184 
L 134.825455 239.941726 
L 134.825455 240.026064 
L 134.825455 240.074557 
L 135.501818 240.173654 
L 135.501818 240.173654 
L 135.501818 240.310702 
L 135.84 240.423925 
L 135.84 240.46778 
L 135.84 240.429196 
L 136.178182 240.530401 
L 136.178182 240.67778 
L 136.178182 240.670611 
L 136.516364 240.719527 
L 136.516364 240.576786 
L 136.516364 240.55781 
L 137.530909 240.423081 
L 137.530909 240.304377 
L 137.869091 240.417599 
L 137.869091 240.415491 
L 137.869091 240.445009 
L 138.207273 240.564346 
L 138.207273 240.608202 
L 138.883636 240.584166 
L 138.883636 240.523021 
L 138.883636 240.467569 
L 138.883636 240.47031 
L 139.898182 240.398413 
L 139.898182 240.369738 
L 139.898182 240.363413 
L 139.898182 240.428563 
L 139.898182 240.427509 
L 140.574545 240.451124 
L 140.574545 240.323353 
L 140.912727 240.217931 
L 140.912727 240.220039 
L 140.912727 240.19263 
L 140.912727 240.23269 
L 141.250909 240.112509 
L 141.250909 240.061907 
L 141.589091 239.935401 
L 141.589091 239.606485 
L 141.927273 239.498955 
L 141.927273 239.442028 
L 141.927273 239.496847 
L 142.265455 239.49263 
L 142.265455 239.602269 
L 142.265455 239.610702 
L 142.265455 239.5601 
L 142.265455 239.562208 
L 142.941818 239.608594 
L 142.941818 239.642329 
L 142.941818 239.722449 
L 142.941818 239.659196 
L 143.28 239.638112 
L 143.28 239.756184 
L 143.28 239.770943 
L 143.28 239.756184 
L 143.618182 239.654979 
L 143.618182 239.5601 
L 143.618182 239.633895 
L 143.956364 239.657088 
L 143.956364 239.549558 
L 143.956364 239.431486 
L 143.956364 239.433594 
L 144.294545 239.296546 
L 144.294545 239.313413 
L 144.294545 238.037812 
L 144.632727 237.934498 
L 144.632727 237.234499 
L 144.970909 237.12486 
L 144.970909 237.289318 
L 144.970909 237.426366 
L 145.309091 237.337812 
L 145.309091 237.21974 
L 145.309091 237.377872 
L 145.647273 237.47486 
L 145.647273 237.976667 
L 145.647273 237.951366 
L 145.985455 238.048354 
L 145.985455 238.042028 
L 145.985455 238.069438 
L 145.985455 238.063113 
L 146.323636 238.054679 
L 146.323636 238.162209 
L 146.323636 238.455281 
L 146.323636 238.448956 
L 146.661818 238.554378 
L 146.661818 238.706185 
L 146.661818 238.588112 
L 147.338182 238.573353 
L 147.338182 238.653474 
L 147.338182 238.84745 
L 147.338182 238.845341 
L 147.676364 238.822149 
L 147.676364 238.948654 
L 148.014545 239.058293 
L 148.014545 239.10257 
L 148.014545 239.005582 
L 148.014545 239.039317 
L 148.352727 238.933895 
L 148.352727 238.453173 
L 148.690909 238.314016 
L 148.690909 237.536005 
L 149.367273 237.479077 
L 149.367273 237.6098 
L 149.367273 237.637209 
L 149.367273 237.588715 
L 149.367273 237.588715 
L 149.705455 237.546547 
L 149.705455 237.68992 
L 149.705455 237.79745 
L 150.043636 237.909197 
L 150.043636 237.957691 
L 150.043636 237.900763 
L 150.043636 237.917631 
L 150.381818 237.805884 
L 150.381818 237.664619 
L 150.381818 237.816426 
L 150.381818 237.668836 
L 150.72 237.538113 
L 150.72 237.508595 
L 150.72 237.611908 
L 150.72 237.592932 
L 151.058182 237.611908 
L 151.058182 237.510703 
L 151.396364 237.382089 
L 151.396364 237.384197 
L 151.396364 237.272451 
L 151.734545 237.135402 
L 151.734545 237.143836 
L 151.734545 236.741126 
L 152.072727 236.625162 
L 152.072727 236.283596 
L 152.072727 236.378475 
L 152.749091 236.243535 
L 152.749091 235.998957 
L 152.749091 236.04956 
L 153.087273 235.948355 
L 153.087273 235.948355 
L 153.087273 235.587813 
L 153.087273 235.608897 
L 153.425455 235.530885 
L 153.425455 235.665825 
L 153.425455 235.73962 
L 153.425455 235.676367 
L 153.763636 235.731186 
L 153.763636 235.602572 
L 153.763636 235.414921 
L 154.101818 235.301066 
L 154.101818 235.305283 
L 154.101818 234.98691 
L 154.101818 235.3095 
L 154.101818 235.060705 
L 154.44 234.946849 
L 154.44 234.946849 
L 154.44 234.63691 
L 154.778182 234.510404 
L 154.778182 234.514621 
L 154.778182 234.008597 
L 155.116364 233.850464 
L 155.116364 233.395043 
L 155.454545 233.279079 
L 155.454545 233.283296 
L 155.454545 232.853176 
L 155.454545 232.886911 
L 155.792727 232.758296 
L 155.792727 232.534802 
L 155.792727 232.562212 
L 156.130909 232.583296 
L 156.130909 232.471549 
L 156.130909 232.17426 
L 156.130909 232.566429 
L 156.130909 232.218538 
L 156.469091 232.123658 
L 156.469091 232.148959 
L 156.469091 231.554381 
L 156.469091 231.602875 
L 156.807273 231.499562 
L 156.807273 231.516429 
L 156.807273 230.447454 
L 157.145455 230.348358 
L 157.145455 229.01372 
L 157.483636 228.923057 
L 157.483636 225.882697 
L 157.821818 225.728782 
L 157.821818 224.529084 
L 157.821818 224.579686 
L 158.16 224.476373 
L 158.16 224.505891 
L 158.16 224.077879 
L 158.16 224.174867 
L 158.498182 224.014626 
L 158.498182 222.492338 
L 158.498182 222.500772 
L 158.836364 222.35529 
L 158.836364 220.265833 
L 159.174545 220.160411 
L 159.174545 218.768846 
L 159.174545 218.78993 
L 159.512727 218.684509 
L 159.512727 218.684509 
L 159.512727 217.124268 
L 159.512727 217.124268 
L 159.850909 217.124268 
L 159.850909 217.018847 
L 159.850909 214.804992 
L 160.189091 214.826077 
L 160.189091 214.762824 
L 160.189091 211.515838 
L 160.527273 211.326079 
L 160.527273 201.922469 
L 160.865455 201.606204 
L 160.865455 149.549003 
L 161.203636 147.883341 
L 161.203636 111.681553 
L 161.541818 111.006854 
L 161.541818 106.874326 
L 161.541818 119.314079 
L 161.88 119.883356 
L 161.88 128.591182 
L 162.218182 128.654435 
L 162.218182 148.558039 
L 162.556364 148.937557 
L 162.556364 161.946587 
L 162.894545 162.558032 
L 162.894545 177.94959 
L 163.232727 178.244771 
L 163.232727 191.2538 
L 163.570909 191.654402 
L 163.570909 200.889337 
L 163.909091 201.058012 
L 163.909091 209.196562 
L 164.247273 209.365236 
L 164.247273 214.2568 
L 164.585455 214.383306 
L 164.585455 218.663424 
L 164.923636 218.768846 
L 164.923636 222.079085 
L 165.261818 222.171856 
L 165.261818 223.744747 
L 165.261818 223.721554 
L 165.6 223.898662 
L 165.6 224.039927 
L 165.6 222.82547 
L 165.6 222.829687 
L 165.938182 222.764326 
L 165.938182 222.876073 
L 165.938182 222.802277 
L 165.938182 223.365229 
L 166.276364 223.230289 
L 166.276364 223.143844 
L 166.276364 225.359806 
L 166.614545 225.357698 
L 166.614545 225.461011 
L 166.614545 226.523661 
L 166.952727 226.643842 
L 166.952727 227.341733 
L 166.952727 226.976974 
L 167.290909 226.890528 
L 167.290909 226.042938 
L 167.290909 226.298059 
L 167.629091 226.222155 
L 167.629091 224.706192 
L 167.967273 224.613421 
L 167.967273 224.704084 
L 167.967273 224.973963 
L 167.967273 224.855891 
L 168.305455 224.95077 
L 168.305455 226.059806 
L 168.643636 226.21583 
L 168.643636 227.495648 
L 168.981818 227.681191 
L 168.981818 229.656792 
L 169.32 229.757997 
L 169.32 231.096851 
L 169.658182 231.202273 
L 169.658182 232.688718 
L 169.996364 232.821549 
L 169.996364 233.890525 
L 170.334545 233.888416 
L 170.334545 233.995946 
L 170.334545 234.468235 
L 170.334545 234.398657 
L 170.672727 234.371247 
L 170.672727 234.476669 
L 170.672727 235.075464 
L 171.010909 235.007994 
L 171.010909 235.157693 
L 171.010909 235.395945 
L 171.010909 235.117632 
L 171.010909 235.381186 
L 171.349091 235.37697 
L 171.349091 235.482391 
L 171.349091 235.741728 
L 171.687273 235.853475 
L 171.687273 236.005283 
L 171.687273 235.800765 
L 171.687273 235.956789 
L 172.025455 235.956789 
L 172.025455 235.861909 
L 172.025455 235.058596 
L 172.025455 235.077572 
L 172.363636 234.883596 
L 172.363636 234.896247 
L 172.363636 234.708596 
L 172.363636 234.906789 
L 172.701818 235.024861 
L 172.701818 235.442331 
L 173.04 235.442331 
L 173.04 235.545644 
L 173.04 235.644741 
L 173.04 235.629982 
L 173.378182 235.575162 
L 173.378182 235.716427 
L 173.378182 236.232993 
L 173.716364 236.220343 
L 173.716364 236.338415 
L 173.716364 236.507089 
L 173.716364 236.403776 
L 174.054545 236.515523 
L 174.054545 236.513415 
L 174.054545 236.576668 
L 174.730909 236.462812 
L 174.730909 236.43962 
L 175.069091 236.464921 
L 175.069091 236.34474 
L 175.069091 235.613114 
L 175.069091 235.621548 
L 175.407273 235.505584 
L 175.407273 235.41703 
L 175.407273 235.606789 
L 175.407273 235.41703 
L 175.745455 235.53721 
L 175.745455 235.726969 
L 175.745455 235.716427 
L 176.421818 235.861909 
L 176.421818 236.405885 
L 176.76 236.395343 
L 176.76 236.494439 
L 176.76 236.886607 
L 176.76 236.880282 
L 177.098182 236.989921 
L 177.098182 236.983595 
L 177.098182 237.086908 
L 177.098182 237.051065 
L 177.436364 237.053174 
L 177.436364 236.945643 
L 177.436364 236.922451 
L 177.436364 237.015222 
L 177.436364 236.928776 
L 177.774545 236.956186 
L 177.774545 236.848656 
L 177.774545 236.500764 
L 177.774545 236.509198 
L 178.112727 236.367933 
L 178.112727 236.370041 
L 178.112727 234.092934 
L 178.450909 233.879982 
L 178.450909 232.277574 
L 178.789091 232.144742 
L 178.789091 231.898056 
L 178.789091 231.999261 
L 179.127273 232.100465 
L 179.127273 232.458899 
L 179.127273 232.34926 
L 179.465455 232.482092 
L 179.465455 233.536308 
L 179.803636 233.534199 
L 179.803636 233.631187 
L 179.803636 234.32697 
L 180.141818 234.442934 
L 180.141818 234.440826 
L 180.141818 235.796548 
L 180.48 235.920945 
L 180.48 236.490222 
L 180.818182 236.441728 
L 180.818182 236.58721 
L 180.818182 236.652571 
L 180.818182 236.551367 
L 180.818182 236.589318 
L 181.156364 236.488114 
L 181.156364 236.188716 
L 181.156364 236.281487 
L 181.494545 236.429077 
L 181.494545 236.424861 
L 181.494545 236.490222 
L 181.494545 236.475463 
L 181.832727 236.437511 
L 181.832727 236.555583 
L 181.832727 236.7348 
L 181.832727 236.618836 
L 182.170909 236.7348 
L 182.170909 236.781186 
L 182.170909 236.62727 
L 182.170909 236.675764 
L 183.185455 236.564017 
L 183.185455 236.504981 
L 183.185455 236.521849 
L 183.523636 236.62727 
L 183.523636 236.620945 
L 183.523636 236.65468 
L 183.523636 236.450162 
L 183.861818 236.395343 
L 183.861818 236.545041 
L 183.861818 236.5598 
L 183.861818 236.256186 
L 184.2 236.142331 
L 184.2 236.005283 
L 184.2 236.110704 
L 184.538182 236.032692 
L 184.538182 235.891427 
L 184.538182 236.041126 
L 184.538182 235.988415 
L 184.876364 235.880885 
L 184.876364 235.882993 
L 184.876364 235.577271 
L 184.876364 235.59203 
L 185.214545 235.49715 
L 185.214545 235.427572 
L 185.552727 235.427572 
L 185.552727 235.330584 
L 185.552727 235.151367 
L 185.890909 235.031187 
L 185.890909 234.56944 
L 186.229091 234.464018 
L 186.229091 233.793537 
L 186.229091 233.80197 
L 186.567273 233.688115 
L 186.567273 233.532091 
L 186.567273 233.664922 
L 186.905455 233.559501 
L 186.905455 233.483597 
L 186.905455 233.563718 
L 186.905455 233.500465 
L 187.243636 233.462513 
L 187.243636 233.563718 
L 187.243636 233.662814 
L 187.243636 233.629079 
L 187.581818 233.658597 
L 187.581818 233.536308 
L 187.581818 233.333898 
L 187.581818 233.561609 
L 187.581818 233.346549 
L 187.92 233.234802 
L 187.92 232.777272 
L 187.92 232.832091 
L 188.258182 232.722453 
L 188.258182 232.277574 
L 188.258182 232.319742 
L 188.596364 232.222754 
L 188.596364 231.737815 
L 188.934545 231.598658 
L 188.934545 231.257092 
L 188.934545 231.27396 
L 189.272727 231.136912 
L 189.272727 230.968237 
L 189.272727 230.972454 
L 189.610909 230.972454 
L 189.610909 230.902876 
L 189.610909 230.521249 
L 189.610909 230.658297 
L 189.949091 230.538117 
L 189.949091 230.015225 
L 190.287273 229.859201 
L 190.287273 229.47125 
L 190.287273 229.481792 
L 190.625455 229.353178 
L 190.625455 229.359503 
L 190.625455 228.640527 
L 190.963636 228.509805 
L 190.963636 228.526672 
L 190.963636 227.284805 
L 191.301818 227.141432 
L 191.301818 226.156794 
L 191.64 226.053481 
L 191.64 226.055589 
L 191.64 225.2333 
L 191.978182 225.250168 
L 191.978182 225.140529 
L 191.978182 224.176975 
L 192.316364 224.052578 
L 192.316364 224.06312 
L 192.316364 224.088421 
L 192.316364 223.639325 
L 192.654545 223.52547 
L 192.654545 222.795952 
L 192.992727 222.857097 
L 192.992727 222.728482 
L 192.992727 221.737519 
L 193.330909 221.646856 
L 193.330909 220.476676 
L 193.669091 220.371255 
L 193.669091 217.820051 
L 194.007273 217.630292 
L 194.007273 215.374269 
L 194.007273 215.374269 
L 194.345455 215.437522 
L 194.345455 215.332101 
L 194.345455 214.193547 
L 194.345455 214.193547 
L 194.683636 214.045957 
L 194.683636 211.494753 
L 195.021818 211.4315 
L 195.021818 207.615237 
L 195.36 207.362225 
L 195.36 203.061023 
L 195.698182 202.892348 
L 195.698182 192.645366 
L 196.036364 192.413438 
L 196.036364 139.976719 
L 196.374545 137.657443 
L 196.374545 74.109283 
L 196.712727 73.329163 
L 196.712727 62.196639 
L 196.712727 65.148445 
L 197.050909 65.591216 
L 197.050909 78.115305 
L 197.050909 78.094221 
L 197.389091 78.199643 
L 197.389091 78.030968 
L 197.389091 77.946631 
L 197.389091 91.4406 
L 197.727273 92.136382 
L 197.727273 108.624325 
L 198.065455 108.919506 
L 198.065455 133.862264 
L 198.403636 134.452625 
L 198.403636 148.579124 
L 198.741818 149.021895 
L 198.741818 167.47068 
L 199.08 167.765861 
L 199.08 177.464651 
L 199.418182 177.823084 
L 199.418182 187.036935 
L 199.756364 187.142356 
L 199.756364 193.889341 
L 200.094545 194.058015 
L 200.094545 197.030905 
L 200.094545 196.946568 
L 200.432727 196.820062 
L 200.432727 196.862231 
L 200.432727 189.904403 
L 200.770909 189.651391 
L 200.770909 185.392357 
L 201.109091 185.30802 
L 201.109091 184.759828 
L 201.109091 185.076092 
L 201.447273 185.033924 
L 201.447273 185.139345 
L 201.447273 185.561032 
L 201.447273 185.202598 
L 201.785455 185.329104 
L 201.785455 191.612234 
L 202.123636 191.717655 
L 202.123636 196.018858 
L 202.461818 196.208617 
L 202.461818 200.594157 
L 202.8 200.762831 
L 202.8 201.774879 
L 202.8 200.994759 
L 203.138182 200.868253 
L 203.138182 200.256807 
L 203.138182 200.931506 
L 203.138182 200.931506 
L 203.476364 201.163433 
L 203.476364 201.163433 
L 203.476364 201.205602 
L 203.476364 200.826084 
L 203.476364 200.910421 
L 203.814545 200.973674 
L 203.814545 200.973674 
L 203.814545 202.091144 
L 204.152727 202.196565 
L 204.152727 204.684516 
L 204.490909 204.958612 
L 204.490909 207.38331 
L 204.829091 207.425478 
L 204.829091 211.241741 
L 205.167273 211.389332 
L 205.167273 213.877282 
L 205.505455 214.067041 
L 205.505455 217.482702 
L 205.843636 217.609208 
L 205.843636 217.609208 
L 205.843636 219.654388 
L 206.181818 219.801978 
L 206.181818 222.703181 
L 206.52 222.886615 
L 206.52 224.659807 
L 206.858182 224.76312 
L 206.858182 225.454686 
L 207.196364 225.560107 
L 207.196364 226.435107 
L 207.534545 226.561613 
L 207.534545 227.196251 
L 207.534545 227.194143 
L 207.872727 227.257396 
L 207.872727 227.780287 
L 208.210909 227.885708 
L 208.210909 228.667937 
L 208.210909 228.66372 
L 208.549091 228.769142 
L 208.549091 229.654683 
L 208.887273 229.82125 
L 208.887273 230.207093 
L 208.887273 229.798057 
L 208.887273 230.204984 
L 209.225455 230.314623 
L 209.225455 231.170647 
L 209.225455 231.113719 
L 209.563636 231.252875 
L 209.563636 231.742032 
L 209.901818 231.860104 
L 209.901818 231.857996 
L 209.901818 232.032995 
L 210.24 232.151068 
L 210.24 232.372453 
L 210.24 232.355586 
L 210.578182 232.345043 
L 210.578182 232.454682 
L 210.578182 232.69926 
L 210.578182 232.393537 
L 210.916364 232.494742 
L 210.916364 232.492634 
L 210.916364 232.722453 
L 210.916364 232.711911 
L 211.254545 232.690826 
L 211.254545 232.777272 
L 211.254545 233.255886 
L 211.254545 233.188417 
L 211.592727 233.198959 
L 211.592727 233.11673 
L 211.592727 232.950164 
L 211.592727 233.028176 
L 211.930909 233.0092 
L 211.930909 233.110405 
L 211.930909 233.255886 
L 212.269091 233.198959 
L 212.269091 233.342332 
L 212.269091 233.74926 
L 212.269091 233.717633 
L 212.607273 233.827272 
L 212.607273 234.160404 
L 212.945455 234.137211 
L 212.945455 234.24685 
L 212.945455 234.493536 
L 212.945455 234.426066 
L 213.283636 234.537813 
L 213.283636 234.518838 
L 213.283636 234.594741 
L 213.283636 234.459801 
L 213.283636 234.586307 
L 213.621818 234.548356 
L 213.621818 234.64956 
L 213.621818 234.75709 
L 213.621818 234.577874 
L 213.96 234.546247 
L 213.96 234.67697 
L 213.96 234.86462 
L 214.298182 234.843536 
L 214.298182 234.957392 
L 214.298182 235.176668 
L 214.298182 234.938416 
L 214.298182 235.170343 
L 214.636364 235.166126 
L 214.636364 235.246247 
L 214.636364 235.611006 
L 214.636364 235.611006 
L 214.974545 235.741728 
L 214.974545 235.73962 
L 214.974545 235.786006 
L 214.974545 235.67215 
L 215.312727 235.665825 
L 215.312727 235.773355 
L 215.312727 235.832391 
L 215.312727 235.830283 
L 215.650909 235.958897 
L 215.650909 235.956789 
L 215.650909 235.99474 
L 215.650909 235.912511 
L 215.650909 235.963114 
L 216.327273 235.933596 
L 216.327273 236.051668 
L 216.327273 236.146548 
L 216.327273 236.091728 
L 216.665455 236.083295 
L 216.665455 236.178174 
L 216.665455 236.319439 
L 216.665455 236.142331 
L 216.665455 236.30468 
L 217.341818 236.287812 
L 217.341818 236.370041 
L 217.341818 236.342632 
L 217.341818 236.397451 
L 217.68 236.450162 
L 217.68 236.30468 
L 217.68 235.758596 
L 218.018182 235.646849 
L 218.018182 234.459801 
L 218.356364 234.459801 
L 218.356364 234.362814 
L 218.356364 234.126669 
L 218.356364 234.208898 
L 218.694545 234.324862 
L 218.694545 234.390223 
L 218.694545 234.225765 
L 219.032727 234.208898 
L 219.032727 234.32697 
L 219.032727 234.571548 
L 219.370909 234.71703 
L 219.370909 234.670645 
L 219.370909 234.957392 
L 219.709091 234.845645 
L 219.709091 234.826669 
L 219.709091 235.033295 
L 219.709091 234.953175 
L 220.047273 235.086006 
L 220.047273 235.079681 
L 220.047273 235.210403 
L 220.047273 235.123958 
L 220.385455 235.218837 
L 220.385455 235.395945 
L 220.385455 235.355885 
L 220.723636 235.379078 
L 220.723636 235.284199 
L 220.723636 234.75709 
L 221.061818 234.639018 
L 221.061818 234.64956 
L 221.061818 231.351972 
L 221.4 231.238116 
L 221.4 229.823358 
L 221.738182 229.661009 
L 221.738182 229.597756 
L 221.738182 230.255587 
L 222.076364 230.390526 
L 222.076364 230.390526 
L 222.076364 230.860707 
L 222.414545 230.974562 
L 222.414545 232.326068 
L 222.752727 232.452574 
L 222.752727 232.94173 
L 223.090909 233.104079 
L 223.090909 233.78932 
L 223.090909 233.770344 
L 223.429091 233.76191 
L 223.429091 233.873657 
L 223.429091 234.236308 
L 223.429091 234.221549 
L 223.767273 234.312211 
L 223.767273 234.491428 
L 223.767273 234.316428 
L 224.105455 234.289018 
L 224.105455 234.404982 
L 224.105455 235.007994 
L 224.105455 235.005885 
L 224.443636 235.003777 
L 224.443636 235.104982 
L 224.443636 235.301066 
L 224.443636 235.290524 
L 225.12 235.400162 
L 225.12 235.393837 
L 225.12 235.568837 
L 225.12 235.49715 
L 225.458182 235.454982 
L 225.458182 235.598355 
L 225.458182 235.608897 
L 225.458182 235.501367 
L 225.458182 235.53721 
L 226.134545 235.398054 
L 226.134545 235.408596 
L 226.134545 234.948958 
L 226.472727 234.879379 
L 226.472727 235.048054 
L 226.472727 235.102873 
L 226.810909 234.982693 
L 226.810909 234.904681 
L 226.810909 234.904681 
L 227.149091 234.936307 
L 227.149091 234.801367 
L 227.149091 234.71703 
L 227.149091 234.826669 
L 227.149091 234.75709 
L 227.487273 234.799259 
L 227.487273 234.672753 
L 227.487273 234.603175 
L 227.487273 234.820343 
L 227.487273 234.816127 
L 227.825455 234.837211 
L 227.825455 234.727572 
L 227.825455 234.261609 
L 228.163636 234.329079 
L 228.163636 234.189922 
L 228.163636 233.673356 
L 228.163636 233.683898 
L 228.501818 233.565826 
L 228.501818 233.239019 
L 228.84 233.120947 
L 228.84 233.167332 
L 228.84 232.76673 
L 229.178182 232.650766 
L 229.178182 231.754682 
L 229.516364 231.613417 
L 229.516364 231.254984 
L 230.192727 231.229683 
L 230.192727 231.187514 
L 230.192727 230.947153 
L 230.530909 230.843839 
L 230.530909 230.860707 
L 230.530909 230.658297 
L 230.869091 230.544442 
L 230.869091 230.301972 
L 230.869091 230.384201 
L 231.207273 230.295647 
L 231.207273 229.764322 
L 231.545455 229.608298 
L 231.545455 229.190828 
L 231.545455 229.625165 
L 231.545455 229.199262 
L 231.883636 229.104383 
L 231.883636 229.108599 
L 231.883636 228.94625 
L 231.883636 228.965226 
L 232.221818 229.026371 
L 232.221818 228.923057 
L 232.221818 228.467636 
L 232.56 228.332696 
L 232.56 228.353781 
L 232.56 227.025468 
L 232.898182 226.869444 
L 232.898182 226.089324 
L 232.898182 226.101974 
L 233.236364 225.981794 
L 233.236364 226.00077 
L 233.236364 225.722457 
L 233.574545 225.564324 
L 233.574545 225.5833 
L 233.574545 225.627577 
L 233.574545 224.912818 
L 233.912727 224.796855 
L 233.912727 223.869144 
L 233.912727 223.873361 
L 234.250909 223.896554 
L 234.250909 223.784807 
L 234.250909 222.911916 
L 234.250909 222.926675 
L 234.589091 222.819145 
L 234.589091 222.496555 
L 234.589091 222.836012 
L 234.589091 222.509205 
L 234.927273 222.551374 
L 234.927273 222.437519 
L 234.927273 221.741736 
L 234.927273 221.800772 
L 235.265455 221.665832 
L 235.265455 220.244749 
L 235.603636 220.118243 
L 235.603636 220.118243 
L 235.603636 219.106195 
L 235.941818 219.000773 
L 235.941818 217.461618 
L 236.28 217.271859 
L 236.28 215.648366 
L 236.618182 215.52186 
L 236.618182 212.06403 
L 236.956364 211.874271 
L 236.956364 208.226683 
L 237.294545 208.058008 
L 237.294545 205.675479 
L 237.632727 205.548973 
L 237.632727 202.428493 
L 237.970909 202.259818 
L 237.970909 197.937531 
L 238.309091 197.789941 
L 238.309091 192.076089 
L 238.647273 191.801993 
L 238.647273 177.232723 
L 238.985455 176.515856 
L 238.985455 99.958667 
L 239.323636 97.997825 
L 239.323636 53.699656 
L 239.661818 52.94062 
L 239.661818 44.443636 
L 239.661818 52.076162 
L 240 52.540018 
L 240 58.169533 
L 240 57.579172 
L 240.338182 57.705678 
L 240.338182 57.705678 
L 240.338182 77.250848 
L 240.676364 77.883378 
L 240.676364 92.431563 
L 241.014545 93.085177 
L 241.014545 120.05203 
L 241.352727 120.473717 
L 241.352727 133.271903 
L 241.690909 133.820095 
L 241.690909 150.539966 
L 242.029091 150.835147 
L 242.029091 164.329115 
L 242.367273 164.687549 
L 242.367273 174.070074 
L 242.705455 174.217664 
L 242.705455 184.317057 
L 243.043636 184.570069 
L 243.043636 191.148378 
L 243.381818 191.2538 
L 243.381818 196.777894 
L 243.72 196.967652 
L 243.72 201.036927 
L 244.058182 201.184518 
L 244.058182 201.289939 
L 244.058182 200.446566 
L 244.396364 200.383313 
L 244.396364 200.530904 
L 244.396364 201.606204 
L 244.734545 201.8803 
L 244.734545 205.148371 
L 245.072727 205.317046 
L 245.072727 206.961623 
L 245.410909 207.130298 
L 245.410909 209.23873 
L 245.410909 209.217646 
L 245.749091 209.217646 
L 245.749091 209.112224 
L 245.749091 205.064034 
L 246.087273 204.979696 
L 246.087273 202.576083 
L 246.425455 202.386324 
L 246.425455 200.193554 
L 246.425455 200.277892 
L 246.763636 200.467651 
L 246.763636 200.889337 
L 246.763636 200.277892 
L 246.763636 200.277892 
L 247.101818 200.17247 
L 247.101818 200.341145 
L 247.101818 203.398372 
L 247.44 203.503794 
L 247.44 205.33813 
L 247.778182 205.591142 
L 247.778182 209.09114 
L 248.116364 209.196562 
L 248.116364 209.196562 
L 248.116364 211.621259 
L 248.454545 211.768849 
L 248.454545 214.741739 
L 248.792727 214.88933 
L 248.792727 217.440533 
L 249.130909 217.524871 
L 249.130909 219.464629 
L 249.469091 219.591135 
L 249.469091 221.629989 
L 249.807273 221.796555 
L 249.807273 223.523361 
L 250.145455 223.668843 
L 250.145455 225.547457 
L 250.483636 225.692939 
L 250.483636 225.671854 
L 250.483636 226.639625 
L 250.821818 226.734504 
L 250.821818 227.322757 
L 251.16 227.415528 
L 251.16 227.415528 
L 251.16 228.214624 
L 251.16 228.142937 
L 251.498182 228.239925 
L 251.498182 229.169744 
L 251.836364 229.283599 
L 251.836364 229.987816 
L 252.174545 230.105888 
L 252.174545 230.736309 
L 252.174545 230.734201 
L 252.512727 230.757394 
L 252.512727 230.698358 
L 252.512727 230.590828 
L 252.512727 230.658297 
L 252.850909 230.77637 
L 252.850909 230.81643 
L 252.850909 230.5339 
L 252.850909 230.552876 
L 253.189091 230.603478 
L 253.189091 230.485406 
L 253.189091 230.415828 
L 253.189091 230.576069 
L 253.189091 230.559201 
L 253.865455 230.554984 
L 253.865455 230.504382 
L 253.865455 230.42637 
L 253.865455 230.913418 
L 253.865455 230.909201 
L 254.203636 230.970345 
L 254.203636 231.442634 
L 254.541818 231.554381 
L 254.541818 231.507996 
L 254.541818 231.902273 
L 254.88 231.872755 
L 254.88 231.997152 
L 254.88 232.471549 
L 254.88 231.995044 
L 254.88 232.471549 
L 255.218182 232.602272 
L 255.218182 233.314922 
L 255.556364 233.274862 
L 255.556364 233.405585 
L 255.556364 233.441428 
L 255.556364 233.373959 
L 255.556364 233.424561 
L 255.894545 233.41191 
L 255.894545 233.517332 
L 255.894545 233.603778 
L 255.894545 233.47938 
L 255.894545 233.58691 
L 256.232727 233.688115 
L 256.232727 234.185705 
L 256.232727 234.185705 
L 256.570909 234.124561 
L 256.570909 234.276368 
L 256.570909 234.248958 
L 256.570909 234.527271 
L 256.909091 234.64956 
L 256.909091 234.639018 
L 256.909091 234.828777 
L 257.247273 234.93209 
L 257.247273 234.915223 
L 257.247273 235.003777 
L 257.585455 234.997452 
L 257.585455 235.100765 
L 257.585455 235.355885 
L 257.923636 235.480283 
L 257.923636 235.783897 
L 258.261818 235.809198 
L 258.261818 235.697451 
L 258.261818 235.59203 
L 258.261818 235.741728 
L 258.261818 235.600463 
L 258.6 235.488717 
L 258.6 235.408596 
L 258.6 235.535102 
L 258.6 235.419138 
L 258.938182 235.52456 
L 258.938182 235.581488 
L 258.938182 235.499259 
L 258.938182 235.532994 
L 259.614545 235.663716 
L 259.614545 235.800765 
L 259.614545 235.701668 
L 259.952727 235.701668 
L 259.952727 235.798656 
L 259.952727 235.861909 
L 259.952727 235.849259 
L 260.290909 235.845042 
L 260.290909 235.952572 
L 260.290909 236.140222 
L 260.629091 236.254078 
L 260.629091 236.249861 
L 260.629091 236.300463 
L 260.629091 236.171849 
L 260.629091 236.186608 
L 260.967273 236.100162 
L 260.967273 235.969439 
L 260.967273 236.020042 
L 261.643636 235.94203 
L 261.643636 235.935704 
L 261.643636 235.769138 
L 261.643636 235.939921 
L 262.32 236.10227 
L 262.32 236.10227 
L 262.32 236.16974 
L 262.32 236.051668 
L 262.658182 236.04956 
L 262.658182 236.148656 
L 262.658182 236.243535 
L 262.658182 236.085403 
L 262.658182 236.203475 
L 262.996364 236.342632 
L 262.996364 236.445945 
L 262.996364 236.334198 
L 262.996364 236.437511 
L 263.334545 236.391126 
L 263.334545 236.498656 
L 263.334545 236.585101 
L 263.334545 236.538716 
L 263.672727 236.646246 
L 263.672727 236.770644 
L 263.672727 236.635704 
L 263.672727 236.65468 
L 264.010909 236.673656 
L 264.010909 236.5598 
L 264.010909 236.496547 
L 264.010909 236.58721 
L 264.349091 236.58721 
L 264.349091 236.477571 
L 264.349091 236.359499 
L 264.687273 236.241427 
L 264.687273 236.011608 
L 265.025455 236.020042 
L 265.025455 235.918837 
L 265.025455 235.370644 
L 265.025455 235.391729 
L 265.701818 235.511909 
L 265.701818 235.543536 
L 265.701818 235.463415 
L 265.701818 235.499259 
L 266.04 235.480283 
L 266.04 235.581488 
L 266.04 235.634198 
L 266.04 235.566729 
L 266.04 235.621548 
L 266.378182 235.741728 
L 266.378182 236.093837 
L 266.378182 236.081186 
L 267.054545 236.148656 
L 267.054545 236.123355 
L 267.054545 236.340523 
L 267.392727 236.467029 
L 267.392727 236.705282 
L 267.392727 236.599861 
L 267.730909 236.701065 
L 267.730909 236.88239 
L 267.730909 236.808595 
L 268.069091 236.808595 
L 268.069091 236.711607 
L 268.069091 236.665222 
L 268.069091 236.871848 
L 268.069091 236.857089 
L 268.407273 236.850764 
L 268.407273 236.956186 
L 268.407273 236.975162 
L 268.407273 236.903475 
L 268.407273 236.930884 
L 269.083636 236.956186 
L 269.083636 237.034198 
L 269.083636 237.120643 
L 269.083636 237.008896 
L 269.083636 237.0848 
L 270.098182 237.175463 
L 270.098182 237.095342 
L 270.098182 237.051065 
L 270.098182 237.129077 
L 270.774545 237.133294 
L 270.774545 237.177571 
L 270.774545 237.194439 
L 270.774545 237.129077 
L 270.774545 237.167029 
L 271.112727 237.188113 
L 271.112727 237.070041 
L 271.112727 236.954077 
L 271.112727 236.966728 
L 272.127273 236.859198 
L 272.127273 236.863415 
L 272.127273 236.798053 
L 272.127273 236.880282 
L 272.127273 236.825463 
L 272.465455 236.717933 
L 272.465455 236.644138 
L 272.465455 236.652571 
L 272.803636 236.665222 
L 272.803636 236.5598 
L 272.803636 236.418535 
L 272.803636 236.448053 
L 273.141818 236.511306 
L 273.141818 236.378475 
L 273.141818 236.33209 
L 273.48 236.241427 
L 273.48 236.091728 
L 273.818182 235.965222 
L 273.818182 235.864018 
L 273.818182 235.971548 
L 273.818182 235.920945 
L 274.156364 235.920945 
L 274.156364 235.813415 
L 274.156364 235.676367 
L 274.156364 235.733295 
L 274.494545 235.733295 
L 274.494545 235.629982 
L 274.494545 235.410705 
L 275.170909 235.381186 
L 275.170909 235.313717 
L 275.170909 235.229379 
L 275.170909 235.368536 
L 275.170909 235.364319 
L 275.509091 235.246247 
L 275.509091 235.263114 
L 275.509091 235.136608 
L 275.847273 235.043837 
L 275.847273 234.786608 
L 276.185455 234.691729 
L 276.185455 234.432392 
L 276.523636 234.320645 
L 276.523636 234.095043 
L 276.523636 234.175163 
L 276.861818 234.19203 
L 276.861818 234.076067 
L 276.861818 233.827272 
L 276.861818 233.833597 
L 277.2 233.704983 
L 277.2 233.726067 
L 277.2 233.473055 
L 277.538182 233.336007 
L 277.538182 233.097754 
L 277.538182 233.127272 
L 277.876364 232.996549 
L 277.876364 232.633899 
L 277.876364 233.036609 
L 277.876364 232.636007 
L 278.214545 232.488417 
L 278.214545 232.509501 
L 278.214545 232.210104 
L 278.214545 232.224863 
L 278.552727 232.260706 
L 278.552727 232.153176 
L 278.552727 231.872755 
L 278.552727 231.876971 
L 278.890909 231.769441 
L 278.890909 231.440526 
L 279.229091 231.330887 
L 279.229091 231.335104 
L 279.229091 230.654081 
L 279.567273 230.544442 
L 279.567273 229.173961 
L 279.905455 229.062214 
L 279.905455 227.797154 
L 280.243636 227.685407 
L 280.243636 226.924263 
L 280.243636 226.936914 
L 280.581818 226.936914 
L 280.581818 226.827275 
L 280.581818 226.226372 
L 280.92 226.074565 
L 280.92 225.338722 
L 280.92 225.361915 
L 281.258182 225.229083 
L 281.258182 223.991433 
L 281.596364 223.850168 
L 281.596364 220.286917 
L 281.934545 220.139327 
L 281.934545 209.323068 
L 282.272727 209.09114 
L 282.272727 204.304998 
L 282.610909 204.178492 
L 282.610909 203.039938 
L 282.610909 203.335119 
L 282.949091 203.229697 
L 282.949091 201.268855 
L 282.949091 201.311024 
L 283.287273 201.374277 
L 283.287273 203.6303 
L 283.625455 203.6303 
L 283.625455 203.651384 
L 283.625455 205.000781 
L 283.963636 204.979696 
L 283.963636 205.000781 
L 283.963636 206.371262 
L 283.963636 206.097166 
L 284.301818 205.97066 
L 284.301818 203.883311 
L 284.64 203.651384 
L 284.64 191.338137 
L 284.978182 191.148378 
L 284.978182 187.542959 
L 284.978182 187.585127 
L 285.316364 187.753802 
L 285.316364 187.753802 
L 285.316364 188.238741 
L 285.316364 187.479706 
L 285.316364 188.238741 
L 285.654545 188.344163 
L 285.654545 190.094162 
L 285.992727 190.283921 
L 285.992727 194.458618 
L 286.330909 194.627292 
L 286.330909 197.811026 
L 286.669091 197.937531 
L 286.669091 202.386324 
L 287.007273 202.554999 
L 287.007273 205.401383 
L 287.345455 205.527889 
L 287.345455 209.597164 
L 287.683636 209.72367 
L 287.683636 212.021861 
L 288.021818 212.169452 
L 288.021818 215.058004 
L 288.36 215.226679 
L 288.36 216.997762 
L 288.698182 216.976678 
L 288.698182 217.061015 
L 288.698182 218.136316 
L 289.036364 218.241738 
L 289.036364 218.536918 
L 289.036364 218.452581 
L 289.374545 218.600171 
L 289.374545 218.558003 
L 289.374545 219.317038 
L 289.374545 219.295954 
L 289.712727 219.169448 
L 289.712727 219.106195 
L 289.712727 219.485713 
L 289.712727 219.42246 
L 290.050909 219.401376 
L 290.050909 219.506797 
L 290.050909 219.759809 
L 290.389091 219.759809 
L 290.389091 219.823062 
L 290.389091 220.497761 
L 290.727273 220.624267 
L 290.727273 220.624267 
L 290.727273 221.256796 
L 290.727273 221.256796 
L 291.065455 221.362218 
L 291.065455 221.362218 
L 291.065455 222.498663 
L 291.403636 222.633603 
L 291.403636 223.681494 
L 291.403636 223.630891 
L 291.741818 223.630891 
L 291.741818 223.721554 
L 291.741818 223.82065 
L 291.741818 223.407398 
L 292.08 223.331494 
L 292.08 222.669446 
L 292.08 222.734808 
L 292.418182 222.873964 
L 292.418182 222.859205 
L 292.418182 222.928783 
L 292.418182 222.848663 
L 292.418182 222.907699 
L 292.756364 222.783302 
L 292.756364 222.424868 
L 292.756364 222.623061 
L 293.094545 222.730591 
L 293.094545 222.954085 
L 293.094545 222.494446 
L 293.094545 222.555591 
L 293.432727 222.696856 
L 293.432727 222.684205 
L 293.432727 223.091133 
L 293.770909 223.021554 
L 293.770909 223.13541 
L 293.770909 223.814325 
L 294.109091 223.896554 
L 294.109091 224.501674 
L 294.109091 224.457397 
L 294.447273 224.537517 
L 294.447273 225.378782 
L 294.785455 225.490529 
L 294.785455 226.401372 
L 295.123636 226.532095 
L 295.123636 227.198359 
L 295.123636 227.179384 
L 295.461818 227.31854 
L 295.461818 228.104985 
L 295.8 228.043841 
L 295.8 228.170347 
L 295.8 228.159805 
L 295.8 228.676371 
L 296.138182 228.783901 
L 296.138182 229.33631 
L 296.476364 229.469141 
L 296.476364 229.819141 
L 296.814545 229.812816 
L 296.814545 229.918238 
L 296.814545 230.323057 
L 297.152727 230.441129 
L 297.152727 230.894442 
L 297.490909 230.972454 
L 297.490909 231.362514 
L 297.490909 231.35408 
L 297.829091 231.455285 
L 297.829091 231.786309 
L 297.829091 231.729381 
L 298.167273 231.682996 
L 298.167273 231.796851 
L 298.167273 232.117333 
L 298.167273 232.083598 
L 298.505455 232.199562 
L 298.505455 232.553778 
L 298.843636 232.654983 
L 298.843636 232.654983 
L 298.843636 232.937513 
L 299.181818 232.90167 
L 299.181818 233.02185 
L 299.181818 233.198959 
L 299.52 233.308597 
L 299.52 233.382392 
L 299.52 233.342332 
L 299.858182 233.443537 
L 299.858182 233.660705 
L 299.858182 233.624862 
L 300.196364 233.616428 
L 300.196364 233.715525 
L 300.196364 233.68179 
L 300.196364 233.848356 
L 300.534545 233.991729 
L 300.534545 233.972753 
L 300.534545 234.017031 
L 300.534545 234.006488 
L 300.872727 234.054982 
L 300.872727 233.926368 
L 301.549091 233.915826 
L 301.549091 233.970645 
L 301.549091 234.337512 
L 301.887273 234.333295 
L 301.887273 234.4345 
L 301.887273 234.489319 
L 301.887273 234.383898 
L 301.887273 234.485103 
L 302.225455 234.485103 
L 302.225455 234.579982 
L 302.225455 234.601066 
L 302.563636 234.628476 
L 302.563636 234.535705 
L 302.563636 234.504078 
L 302.563636 234.620042 
L 302.563636 234.611609 
L 302.901818 234.738115 
L 302.901818 234.807693 
L 302.901818 234.725464 
L 302.901818 234.767633 
L 303.24 234.740223 
L 303.24 234.843536 
L 303.24 235.041729 
L 303.24 235.031187 
L 303.578182 235.136608 
L 303.578182 235.237813 
L 303.578182 235.132391 
L 303.578182 235.227271 
L 303.916364 235.341126 
L 303.916364 235.629982 
L 304.254545 235.583596 
L 304.254545 235.691126 
L 304.254545 235.587813 
L 304.254545 235.817632 
L 304.592727 235.842933 
L 304.592727 235.731186 
L 304.592727 235.657391 
L 304.592727 235.821849 
L 304.930909 235.948355 
L 304.930909 236.011608 
L 304.930909 235.895644 
L 305.269091 235.895644 
L 305.269091 235.986307 
L 305.269091 236.315222 
L 305.269091 236.302572 
L 305.607273 236.292029 
L 305.607273 236.397451 
L 305.607273 236.521849 
L 305.607273 236.382692 
L 305.607273 236.515523 
L 306.283636 236.532391 
L 306.283636 236.435403 
L 306.283636 236.410102 
L 306.283636 236.441728 
L 306.96 236.403776 
L 306.96 236.538716 
L 306.96 236.599861 
L 306.96 236.530282 
L 306.96 236.574559 
L 307.298182 236.570342 
L 307.298182 236.639921 
L 307.298182 236.715824 
L 307.298182 236.652571 
L 307.636364 236.745342 
L 307.636364 236.739017 
L 307.636364 236.791728 
L 307.636364 236.791728 
L 308.312727 236.86974 
L 308.312727 236.692632 
L 308.312727 236.553475 
L 308.650909 236.661005 
L 308.650909 236.747451 
L 308.989091 236.745342 
L 308.989091 236.840222 
L 308.989091 236.86974 
L 308.989091 236.814921 
L 308.989091 236.82968 
L 309.327273 236.711607 
L 309.327273 236.715824 
L 309.327273 236.58721 
L 310.003636 236.572451 
L 310.003636 236.823354 
L 310.003636 236.570342 
L 310.003636 236.770644 
L 310.68 236.962511 
L 310.68 237.076366 
L 310.68 237.025764 
L 311.356364 236.903475 
L 311.356364 236.791728 
L 311.356364 236.793836 
L 311.694545 236.817029 
L 311.694545 236.703174 
L 311.694545 236.445945 
L 311.694545 236.450162 
L 312.032727 236.471246 
L 312.032727 236.359499 
L 312.032727 236.292029 
L 312.032727 236.329981 
L 312.709091 236.192933 
L 312.709091 236.180282 
L 312.709091 236.270945 
L 313.047273 236.268837 
L 313.047273 236.367933 
L 313.047273 236.616728 
L 313.047273 236.585101 
L 313.385455 236.580885 
L 313.385455 236.663113 
L 313.385455 236.812812 
L 313.385455 236.791728 
L 314.061818 236.890824 
L 314.061818 236.890824 
L 314.061818 236.989921 
L 314.4 237.110101 
L 314.4 237.099559 
L 314.4 237.213414 
L 314.4 237.211306 
L 314.738182 237.32727 
L 314.738182 237.308294 
L 314.738182 237.348354 
L 314.738182 237.325161 
L 315.076364 237.325161 
L 315.076364 237.428475 
L 315.076364 237.529679 
L 315.414545 237.441125 
L 315.414545 237.443234 
L 315.414545 237.411607 
L 315.414545 237.455884 
L 315.414545 237.411607 
L 316.090909 237.521246 
L 316.090909 237.67727 
L 316.429091 237.700462 
L 316.429091 237.590824 
L 316.429091 237.548655 
L 316.429091 237.679378 
L 316.429091 237.630884 
L 317.443636 237.64986 
L 317.443636 237.736306 
L 317.443636 237.715221 
L 317.443636 237.807992 
L 318.12 237.926065 
L 318.12 237.748956 
L 318.458182 237.618233 
L 318.458182 237.62245 
L 318.458182 237.508595 
L 318.458182 237.508595 
L 319.472727 237.342029 
L 319.472727 237.323053 
L 319.472727 237.346246 
L 319.810909 237.377872 
L 319.810909 237.261908 
L 319.810909 237.23239 
L 320.149091 237.280884 
L 320.149091 237.143836 
L 320.149091 237.059499 
L 320.149091 237.137511 
L 320.487273 237.143836 
L 320.487273 237.040523 
L 320.487273 236.945643 
L 320.487273 236.983595 
L 321.163636 236.954077 
L 321.163636 236.93721 
L 321.163636 236.781186 
L 321.163636 236.785403 
L 321.501818 236.787511 
L 321.501818 236.69474 
L 321.501818 236.663113 
L 321.501818 236.800162 
L 321.84 236.688415 
L 321.84 236.690523 
L 321.84 236.572451 
L 321.84 236.633595 
L 322.178182 236.538716 
L 322.178182 236.405885 
L 322.854545 236.306788 
L 322.854545 236.079078 
L 323.192727 235.986307 
L 323.192727 235.872451 
L 323.192727 235.918837 
L 323.530909 235.918837 
L 323.530909 235.809198 
L 323.530909 235.653174 
L 323.530909 235.743837 
L 324.207273 235.750162 
L 324.207273 235.661608 
L 324.207273 235.476066 
L 324.545455 235.317933 
L 324.545455 234.7845 
L 324.883636 234.634801 
L 324.883636 233.785103 
L 325.221818 233.785103 
L 325.221818 233.675464 
L 325.221818 233.023959 
L 325.56 233.038718 
L 325.56 232.943838 
L 325.56 232.825766 
L 325.56 232.964923 
L 325.56 232.855284 
L 325.898182 232.882694 
L 325.898182 232.775164 
L 325.898182 232.614923 
L 325.898182 232.69926 
L 326.236364 232.800465 
L 326.236364 232.916429 
L 326.236364 232.728778 
L 326.574545 232.638116 
L 326.574545 232.479983 
L 326.574545 232.515827 
L 326.912727 232.640224 
L 326.912727 232.690826 
L 326.912727 232.427272 
L 326.912727 232.439923 
L 327.250909 232.45679 
L 327.250909 232.34926 
L 327.250909 232.33661 
L 327.589091 232.256489 
L 327.589091 232.089923 
L 327.589091 232.096248 
L 328.265455 232.104682 
L 328.265455 232.165827 
L 328.265455 232.258598 
L 328.265455 232.12155 
L 328.265455 232.123658 
L 328.603636 232.028779 
L 328.603636 231.73149 
L 328.603636 231.733598 
L 328.941818 231.733598 
L 328.941818 231.640827 
L 328.941818 231.320345 
L 328.941818 231.343538 
L 329.28 231.360405 
L 329.28 231.269743 
L 329.28 231.050466 
L 329.618182 230.934502 
L 329.618182 230.409502 
L 329.618182 230.413719 
L 329.956364 230.415828 
L 329.956364 230.348358 
L 329.956364 229.981491 
L 329.956364 229.983599 
L 330.294545 230.015225 
L 330.294545 229.916129 
L 330.294545 229.36372 
L 330.632727 229.22878 
L 330.632727 228.067034 
L 330.970909 227.921552 
L 330.970909 225.513722 
L 331.309091 225.370348 
L 331.309091 214.151378 
L 331.647273 213.856198 
L 331.647273 207.762828 
L 331.647273 207.762828 
L 331.985455 207.720659 
L 331.985455 205.253793 
L 331.985455 205.253793 
L 332.323636 205.148371 
L 332.323636 204.199576 
L 332.661818 204.030902 
L 332.661818 203.862227 
L 332.661818 204.874275 
L 333 204.937528 
L 333 206.518852 
L 333.338182 206.518852 
L 333.338182 206.60319 
L 333.338182 209.491742 
L 333.676364 209.660417 
L 333.676364 211.199573 
L 334.014545 211.347163 
L 334.014545 214.024872 
L 334.352727 214.172463 
L 334.352727 215.627281 
L 334.690909 215.774871 
L 334.690909 218.199569 
L 335.029091 218.178485 
L 335.029091 218.283906 
L 335.029091 219.548966 
L 335.367273 219.612219 
L 335.367273 221.600471 
L 335.705455 221.726977 
L 335.705455 223.013121 
L 336.043636 223.160711 
L 336.043636 224.623963 
L 336.381818 224.752578 
L 336.381818 225.950167 
L 336.72 226.053481 
L 336.72 226.047155 
L 336.72 226.346553 
L 336.72 226.281191 
L 337.058182 226.186312 
L 337.058182 226.331794 
L 337.058182 226.584806 
L 337.396364 226.696552 
L 337.396364 227.5336 
L 337.734545 227.639022 
L 337.734545 228.404383 
L 338.072727 228.524564 
L 338.072727 228.509805 
L 338.072727 228.760708 
L 338.410909 228.781792 
L 338.410909 228.66372 
L 338.410909 228.587817 
L 338.749091 228.436009 
L 338.749091 227.474564 
L 338.749091 227.478781 
L 339.087273 227.3586 
L 339.087273 227.375468 
L 339.087273 226.667034 
L 339.425455 226.534203 
L 339.425455 226.546854 
L 339.425455 225.827878 
L 339.425455 225.895348 
L 339.763636 225.958601 
L 339.763636 225.813119 
L 339.763636 225.589625 
L 340.101818 225.44836 
L 340.101818 225.414625 
L 340.101818 225.545348 
L 340.101818 225.511613 
L 340.44 225.359806 
L 340.44 225.323963 
L 340.44 225.43571 
L 340.778182 225.526372 
L 340.778182 226.00077 
L 340.778182 225.996553 
L 341.116364 225.977577 
L 341.116364 226.08089 
L 341.116364 226.409806 
L 341.116364 226.371854 
L 341.454545 226.340227 
L 341.454545 226.422456 
L 341.454545 227.145649 
L 341.792727 227.27848 
L 341.792727 227.421853 
L 341.792727 227.263721 
L 342.130909 227.364926 
L 342.130909 228.136612 
L 342.469091 228.071251 
L 342.469091 228.208299 
L 342.469091 228.573058 
L 342.807273 228.733298 
L 342.807273 229.32366 
L 342.807273 229.321551 
L 343.145455 229.254081 
L 343.145455 229.37637 
L 343.145455 229.814924 
L 343.145455 229.772756 
L 343.483636 229.884503 
L 343.483636 230.363117 
L 343.821818 230.479081 
L 343.821818 231.210707 
L 344.16 231.326671 
L 344.16 231.830586 
L 344.16 231.817935 
L 344.498182 231.803176 
L 344.498182 231.923357 
L 344.498182 232.039321 
L 344.498182 231.990827 
L 344.836364 231.984501 
L 344.836364 232.079381 
L 344.836364 232.435706 
L 345.174545 232.541128 
L 345.174545 232.878477 
L 345.512727 233.011308 
L 345.512727 233.247453 
L 345.850909 233.247453 
L 345.850909 233.300163 
L 345.850909 233.578477 
L 346.189091 233.713416 
L 346.189091 233.795645 
L 346.527273 233.901067 
L 346.527273 233.757693 
L 346.865455 233.65438 
L 346.865455 233.629079 
L 346.865455 233.844139 
L 346.865455 233.844139 
L 347.541818 233.778778 
L 347.541818 233.888416 
L 347.541818 234.105585 
L 347.541818 233.943235 
L 347.88 233.890525 
L 347.88 234.023356 
L 347.88 234.097151 
L 347.88 233.991729 
L 347.88 234.090826 
L 348.556364 234.187814 
L 348.556364 234.122452 
L 348.556364 234.284801 
L 348.894545 234.284801 
L 348.894545 234.36703 
L 348.894545 234.476669 
L 348.894545 234.356488 
L 348.894545 234.375464 
L 349.232727 234.482994 
L 349.232727 234.605283 
L 349.570909 234.544139 
L 349.570909 234.695946 
L 349.570909 234.818235 
L 349.570909 234.782392 
L 350.585455 234.908898 
L 350.585455 234.885705 
L 350.585455 235.176668 
L 350.923636 235.164018 
L 350.923636 235.265223 
L 350.923636 235.454982 
L 350.923636 235.454982 
L 351.6 235.433897 
L 351.6 235.402271 
L 351.6 235.391729 
L 351.6 235.560403 
L 351.6 235.543536 
L 351.938182 235.655283 
L 351.938182 235.651066 
L 351.938182 235.950463 
L 352.276364 235.948355 
L 352.276364 236.051668 
L 352.276364 236.275162 
L 352.952727 236.399559 
L 352.952727 236.441728 
L 352.952727 236.313114 
L 353.290909 236.270945 
L 353.290909 236.399559 
L 353.290909 236.49233 
L 353.290909 236.393234 
L 353.290909 236.418535 
L 353.629091 236.534499 
L 353.629091 236.69474 
L 353.967273 236.692632 
L 353.967273 236.798053 
L 353.967273 236.867631 
L 353.967273 236.77486 
L 353.967273 236.867631 
L 354.305455 236.989921 
L 354.305455 236.983595 
L 354.305455 237.114318 
L 354.305455 237.082692 
L 354.981818 237.196547 
L 354.981818 237.377872 
L 354.981818 237.310402 
L 355.32 237.238716 
L 355.32 237.401065 
L 355.32 237.464318 
L 355.32 237.365222 
L 355.32 237.4348 
L 355.658182 237.44745 
L 355.658182 237.344137 
L 355.658182 237.297752 
L 355.658182 237.417932 
L 355.658182 237.396848 
L 357.349091 237.531788 
L 357.349091 237.778474 
L 357.687273 237.776366 
L 357.687273 237.877571 
L 357.687273 237.896547 
L 357.687273 237.843836 
L 358.025455 237.748956 
L 358.025455 237.658294 
L 359.716364 237.662511 
L 359.716364 237.595041 
L 359.716364 237.521246 
L 359.716364 237.603474 
L 359.716364 237.533896 
L 360.054545 237.647752 
L 360.054545 237.696245 
L 360.054545 237.654077 
L 360.392727 237.544438 
L 360.392727 237.559197 
L 360.392727 237.455884 
L 360.730909 237.344137 
L 360.730909 237.295643 
L 360.730909 237.365222 
L 360.730909 237.306185 
L 361.069091 237.29986 
L 361.069091 237.409499 
L 361.069091 237.386306 
L 361.069091 237.584499 
L 361.407273 237.72998 
L 361.407273 237.696245 
L 361.407273 237.875462 
L 361.745455 237.909197 
L 361.745455 237.780583 
L 361.745455 237.744739 
L 362.76 237.875462 
L 362.76 237.974559 
L 362.76 237.79745 
L 362.76 237.966125 
L 363.098182 237.964016 
L 363.098182 238.071546 
L 363.098182 238.246546 
L 363.436364 238.379378 
L 363.436364 238.413113 
L 363.436364 238.326667 
L 364.112727 238.330884 
L 364.112727 238.419438 
L 364.112727 238.417329 
L 364.112727 238.453173 
L 365.465455 238.666124 
L 365.465455 238.674558 
L 365.465455 238.562811 
L 366.141818 238.45739 
L 366.141818 238.467932 
L 366.141818 238.436305 
L 366.141818 238.451064 
L 367.494545 238.554378 
L 367.494545 238.579679 
L 367.494545 238.516426 
L 367.494545 238.545944 
L 367.832727 238.560703 
L 367.832727 238.446847 
L 367.832727 238.366727 
L 367.832727 238.379378 
L 368.509091 238.316125 
L 368.509091 238.451064 
L 368.509091 238.484799 
L 368.509091 238.411004 
L 368.509091 238.453173 
L 368.847273 238.49745 
L 368.847273 238.364619 
L 368.847273 238.335101 
L 368.847273 238.360402 
L 369.185455 238.343534 
L 369.185455 238.438414 
L 369.185455 238.472149 
L 369.185455 238.42998 
L 369.185455 238.453173 
L 369.523636 238.567028 
L 369.523636 238.592329 
L 369.523636 238.586004 
L 370.2 238.507992 
L 370.2 238.495341 
L 370.2 238.461607 
L 370.2 238.541727 
L 370.2 238.516426 
L 370.876364 238.552269 
L 370.876364 238.573353 
L 370.876364 238.6851 
L 370.876364 238.666124 
L 372.229091 238.756787 
L 372.229091 238.763112 
L 372.229091 238.912811 
L 372.229091 238.773655 
L 372.567273 238.664016 
L 372.567273 238.642932 
L 372.567273 238.693534 
L 372.905455 238.720944 
L 372.905455 238.619739 
L 372.905455 238.596546 
L 372.905455 238.678775 
L 373.581818 238.649257 
L 373.581818 238.649257 
" style="fill:none;stroke:#1f77b4;stroke-linecap:square;stroke-width:1.5;"/>
   </g>
   <g id="line2d_13">
    <path clip-path="url(#p1f1e8e819e)" d="M 69.218182 215.686226 
L 73.276364 212.32334 
L 73.276364 212.32334 
L 77.334545 208.660517 
L 77.334545 208.660517 
L 81.392727 204.689259 
L 81.392727 204.689259 
L 85.450909 200.403575 
L 85.450909 200.403575 
L 89.509091 195.800363 
L 89.509091 195.800363 
L 93.905455 190.455503 
L 93.905455 190.455503 
L 98.301818 184.743257 
L 98.301818 184.743257 
L 102.698182 178.674103 
L 102.698182 178.674103 
L 107.432727 171.757839 
L 107.432727 171.757839 
L 112.505455 163.94191 
L 112.505455 163.94191 
L 117.916364 155.193584 
L 117.916364 155.193584 
L 124.003636 144.930948 
L 124.003636 144.930948 
L 131.781818 131.360771 
L 131.781818 131.360771 
L 150.72 98.103883 
L 150.72 98.103883 
L 156.469091 88.566916 
L 156.469091 88.566916 
L 161.203636 81.119552 
L 161.203636 81.119552 
L 165.6 74.620007 
L 165.6 74.620007 
L 169.32 69.488182 
L 169.32 69.488182 
L 173.04 64.737985 
L 173.04 64.737985 
L 176.421818 60.784136 
L 176.421818 60.784136 
L 179.465455 57.546269 
L 179.465455 57.546269 
L 182.509091 54.631501 
L 182.509091 54.631501 
L 185.214545 52.325605 
L 185.214545 52.325605 
L 187.92 50.299155 
L 187.92 50.299155 
L 190.625455 48.561642 
L 190.625455 48.561642 
L 192.992727 47.284811 
L 192.992727 47.284811 
L 195.36 46.240124 
L 195.36 46.240124 
L 197.727273 45.43139 
L 197.727273 45.43139 
L 200.094545 44.861565 
L 200.094545 44.861565 
L 202.461818 44.532737 
L 202.461818 44.532737 
L 204.829091 44.446112 
L 204.829091 44.446112 
L 207.196364 44.602009 
L 207.196364 44.602009 
L 209.563636 44.999856 
L 209.563636 44.999856 
L 211.930909 45.638192 
L 211.930909 45.638192 
L 214.298182 46.51468 
L 214.298182 46.51468 
L 216.665455 47.626119 
L 216.665455 47.626119 
L 219.032727 48.968462 
L 219.032727 48.968462 
L 221.738182 50.779029 
L 221.738182 50.779029 
L 224.443636 52.87628 
L 224.443636 52.87628 
L 227.149091 55.250408 
L 227.149091 55.250408 
L 230.192727 58.238504 
L 230.192727 58.238504 
L 233.236364 61.545695 
L 233.236364 61.545695 
L 236.618182 65.571453 
L 236.618182 65.571453 
L 240 69.939556 
L 240 69.939556 
L 243.72 75.104028 
L 243.72 75.104028 
L 247.778182 81.119552 
L 247.778182 81.119552 
L 252.512727 88.566916 
L 252.512727 88.566916 
L 257.923636 97.530623 
L 257.923636 97.530623 
L 264.687273 109.209714 
L 264.687273 109.209714 
L 290.050909 153.511334 
L 290.050909 153.511334 
L 295.8 162.870357 
L 295.8 162.870357 
L 301.210909 171.249411 
L 301.210909 171.249411 
L 305.945455 178.19289 
L 305.945455 178.19289 
L 310.68 184.743257 
L 310.68 184.743257 
L 315.076364 190.455503 
L 315.076364 190.455503 
L 319.472727 195.800363 
L 319.472727 195.800363 
L 323.530909 200.403575 
L 323.530909 200.403575 
L 327.589091 204.689259 
L 327.589091 204.689259 
L 331.647273 208.660517 
L 331.647273 208.660517 
L 335.705455 212.32334 
L 335.705455 212.32334 
L 339.763636 215.686226 
L 339.763636 215.686226 
L 343.821818 218.75979 
L 343.821818 218.75979 
L 347.88 221.556387 
L 347.88 221.556387 
L 351.938182 224.089743 
L 351.938182 224.089743 
L 355.996364 226.374613 
L 355.996364 226.374613 
L 360.392727 228.587416 
L 360.392727 228.587416 
L 364.789091 230.546915 
L 364.789091 230.546915 
L 369.185455 232.273458 
L 369.185455 232.273458 
L 373.581818 233.787219 
L 373.581818 233.787219 
" style="fill:none;stroke:#ff7f0e;stroke-dasharray:5.55,2.4;stroke-dashoffset:0;stroke-opacity:0.3;stroke-width:1.5;"/>
   </g>
   <g id="line2d_14">
    <path clip-path="url(#p1f1e8e819e)" d="M 69.218182 231.371499 
L 73.614545 229.522044 
L 73.614545 229.522044 
L 78.010909 227.428676 
L 78.010909 227.428676 
L 82.069091 225.262286 
L 82.069091 225.262286 
L 86.127273 222.855068 
L 86.127273 222.855068 
L 90.185455 220.19188 
L 90.185455 220.19188 
L 94.243636 217.258438 
L 94.243636 217.258438 
L 98.301818 214.041657 
L 98.301818 214.041657 
L 102.36 210.530006 
L 102.36 210.530006 
L 106.418182 206.71388 
L 106.418182 206.71388 
L 110.476364 202.585986 
L 110.476364 202.585986 
L 114.534545 198.141731 
L 114.534545 198.141731 
L 118.592727 193.379598 
L 118.592727 193.379598 
L 122.989091 187.864231 
L 122.989091 187.864231 
L 127.385455 181.985609 
L 127.385455 181.985609 
L 132.12 175.263749 
L 132.12 175.263749 
L 136.854545 168.160198 
L 136.854545 168.160198 
L 141.927273 160.163109 
L 141.927273 160.163109 
L 147.676364 150.681151 
L 147.676364 150.681151 
L 154.44 139.079437 
L 154.44 139.079437 
L 164.585455 121.167138 
L 164.585455 121.167138 
L 175.745455 101.570149 
L 175.745455 101.570149 
L 181.832727 91.32217 
L 181.832727 91.32217 
L 186.905455 83.203774 
L 186.905455 83.203774 
L 191.301818 76.572625 
L 191.301818 76.572625 
L 195.36 70.851647 
L 195.36 70.851647 
L 199.08 65.993339 
L 199.08 65.993339 
L 202.461818 61.932048 
L 202.461818 61.932048 
L 205.505455 58.590546 
L 205.505455 58.590546 
L 208.549091 55.566106 
L 208.549091 55.566106 
L 211.592727 52.87628 
L 211.592727 52.87628 
L 214.298182 50.779029 
L 214.298182 50.779029 
L 217.003636 48.968462 
L 217.003636 48.968462 
L 219.370909 47.626119 
L 219.370909 47.626119 
L 221.738182 46.51468 
L 221.738182 46.51468 
L 224.105455 45.638192 
L 224.105455 45.638192 
L 226.472727 44.999856 
L 226.472727 44.999856 
L 228.84 44.602009 
L 228.84 44.602009 
L 231.207273 44.446112 
L 231.207273 44.446112 
L 233.574545 44.532737 
L 233.574545 44.532737 
L 235.941818 44.861565 
L 235.941818 44.861565 
L 238.309091 45.43139 
L 238.309091 45.43139 
L 240.676364 46.240124 
L 240.676364 46.240124 
L 243.043636 47.284811 
L 243.043636 47.284811 
L 245.410909 48.561642 
L 245.410909 48.561642 
L 248.116364 50.299155 
L 248.116364 50.299155 
L 250.821818 52.325605 
L 250.821818 52.325605 
L 253.527273 54.631501 
L 253.527273 54.631501 
L 256.570909 57.546269 
L 256.570909 57.546269 
L 259.614545 60.784136 
L 259.614545 60.784136 
L 262.996364 64.737985 
L 262.996364 64.737985 
L 266.378182 69.039963 
L 266.378182 69.039963 
L 270.098182 74.138794 
L 270.098182 74.138794 
L 274.156364 80.091598 
L 274.156364 80.091598 
L 278.552727 86.936389 
L 278.552727 86.936389 
L 283.625455 95.251546 
L 283.625455 95.251546 
L 289.712727 105.664817 
L 289.712727 105.664817 
L 299.181818 122.368302 
L 299.181818 122.368302 
L 311.356364 143.768012 
L 311.356364 143.768012 
L 318.12 155.193584 
L 318.12 155.193584 
L 323.869091 164.475191 
L 323.869091 164.475191 
L 328.941818 172.264395 
L 328.941818 172.264395 
L 333.676364 179.153297 
L 333.676364 179.153297 
L 338.410909 185.645623 
L 338.410909 185.645623 
L 342.807273 191.301888 
L 342.807273 191.301888 
L 347.203636 196.589652 
L 347.203636 196.589652 
L 351.261818 201.139861 
L 351.261818 201.139861 
L 355.32 205.372842 
L 355.32 205.372842 
L 359.378182 209.292206 
L 359.378182 209.292206 
L 363.436364 212.904388 
L 363.436364 212.904388 
L 367.494545 216.218265 
L 367.494545 216.218265 
L 371.552727 219.244768 
L 371.552727 219.244768 
L 373.581818 220.654139 
L 373.581818 220.654139 
" style="fill:none;stroke:#2ca02c;stroke-dasharray:5.55,2.4;stroke-dashoffset:0;stroke-opacity:0.3;stroke-width:1.5;"/>
   </g>
   <g id="patch_3">
    <path d="M 54 252 
L 54 34.56 
" style="fill:none;stroke:#000000;stroke-linecap:square;stroke-linejoin:miter;stroke-width:0.8;"/>
   </g>
   <g id="patch_4">
    <path d="M 54 252 
L 388.8 252 
" style="fill:none;stroke:#000000;stroke-linecap:square;stroke-linejoin:miter;stroke-width:0.8;"/>
   </g>
   <g id="text_14">
    <!-- 2900.0 $\pm$ 200 Da -->
    <g transform="translate(201.109091 40.482735)scale(0.1 -0.1)">
     <defs>
      <path d="M 703 97 
L 703 672 
Q 941 559 1184 500 
Q 1428 441 1663 441 
Q 2288 441 2617 861 
Q 2947 1281 2994 2138 
Q 2813 1869 2534 1725 
Q 2256 1581 1919 1581 
Q 1219 1581 811 2004 
Q 403 2428 403 3163 
Q 403 3881 828 4315 
Q 1253 4750 1959 4750 
Q 2769 4750 3195 4129 
Q 3622 3509 3622 2328 
Q 3622 1225 3098 567 
Q 2575 -91 1691 -91 
Q 1453 -91 1209 -44 
Q 966 3 703 97 
z
M 1959 2075 
Q 2384 2075 2632 2365 
Q 2881 2656 2881 3163 
Q 2881 3666 2632 3958 
Q 2384 4250 1959 4250 
Q 1534 4250 1286 3958 
Q 1038 3666 1038 3163 
Q 1038 2656 1286 2365 
Q 1534 2075 1959 2075 
z
" id="DejaVuSans-39" transform="scale(0.015625)"/>
      <path d="M 684 794 
L 1344 794 
L 1344 0 
L 684 0 
L 684 794 
z
" id="DejaVuSans-2e" transform="scale(0.015625)"/>
      <path d="M 2944 4013 
L 2944 2803 
L 4684 2803 
L 4684 2272 
L 2944 2272 
L 2944 1063 
L 2419 1063 
L 2419 2272 
L 678 2272 
L 678 2803 
L 2419 2803 
L 2419 4013 
L 2944 4013 
z
M 678 531 
L 4684 531 
L 4684 0 
L 678 0 
L 678 531 
z
" id="DejaVuSans-b1" transform="scale(0.015625)"/>
      <path d="M 1259 4147 
L 1259 519 
L 2022 519 
Q 2988 519 3436 956 
Q 3884 1394 3884 2338 
Q 3884 3275 3436 3711 
Q 2988 4147 2022 4147 
L 1259 4147 
z
M 628 4666 
L 1925 4666 
Q 3281 4666 3915 4102 
Q 4550 3538 4550 2338 
Q 4550 1131 3912 565 
Q 3275 0 1925 0 
L 628 0 
L 628 4666 
z
" id="DejaVuSans-44" transform="scale(0.015625)"/>
     </defs>
     <use transform="translate(0 0.78125)" xlink:href="#DejaVuSans-32"/>
     <use transform="translate(61.873047 0.78125)" xlink:href="#DejaVuSans-39"/>
     <use transform="translate(125.496094 0.78125)" xlink:href="#DejaVuSans-30"/>
     <use transform="translate(189.119141 0.78125)" xlink:href="#DejaVuSans-30"/>
     <use transform="translate(252.742188 0.78125)" xlink:href="#DejaVuSans-2e"/>
     <use transform="translate(284.529297 0.78125)" xlink:href="#DejaVuSans-30"/>
     <use transform="translate(348.152344 0.78125)" xlink:href="#DejaVuSans-20"/>
     <use transform="translate(379.939453 0.78125)" xlink:href="#DejaVuSans-b1"/>
     <use transform="translate(463.728516 0.78125)" xlink:href="#DejaVuSans-20"/>
     <use transform="translate(495.515625 0.78125)" xlink:href="#DejaVuSans-32"/>
     <use transform="translate(559.138672 0.78125)" xlink:href="#DejaVuSans-30"/>
     <use transform="translate(622.761719 0.78125)" xlink:href="#DejaVuSans-30"/>
     <use transform="translate(686.384766 0.78125)" xlink:href="#DejaVuSans-20"/>
     <use transform="translate(718.171875 0.78125)" xlink:href="#DejaVuSans-44"/>
     <use transform="translate(795.173828 0.78125)" xlink:href="#DejaVuSans-61"/>
    </g>
   </g>
   <g id="text_15">
    <!-- 2980.0 $\pm$ 200 Da -->
    <g transform="translate(231.545455 99.896258)scale(0.1 -0.1)">
     <use transform="translate(0 0.78125)" xlink:href="#DejaVuSans-32"/>
     <use transform="translate(61.873047 0.78125)" xlink:href="#DejaVuSans-39"/>
     <use transform="translate(125.496094 0.78125)" xlink:href="#DejaVuSans-38"/>
     <use transform="translate(189.119141 0.78125)" xlink:href="#DejaVuSans-30"/>
     <use transform="translate(252.742188 0.78125)" xlink:href="#DejaVuSans-2e"/>
     <use transform="translate(284.529297 0.78125)" xlink:href="#DejaVuSans-30"/>
     <use transform="translate(348.152344 0.78125)" xlink:href="#DejaVuSans-20"/>
     <use transform="translate(379.939453 0.78125)" xlink:href="#DejaVuSans-b1"/>
     <use transform="translate(463.728516 0.78125)" xlink:href="#DejaVuSans-20"/>
     <use transform="translate(495.515625 0.78125)" xlink:href="#DejaVuSans-32"/>
     <use transform="translate(559.138672 0.78125)" xlink:href="#DejaVuSans-30"/>
     <use transform="translate(622.761719 0.78125)" xlink:href="#DejaVuSans-30"/>
     <use transform="translate(686.384766 0.78125)" xlink:href="#DejaVuSans-20"/>
     <use transform="translate(718.171875 0.78125)" xlink:href="#DejaVuSans-44"/>
     <use transform="translate(795.173828 0.78125)" xlink:href="#DejaVuSans-61"/>
    </g>
   </g>
   <g id="legend_1">
    <g id="patch_5">
     <path d="M 233.092656 60.709375 
L 383.9 60.709375 
Q 385.3 60.709375 385.3 59.309375 
L 385.3 39.46 
Q 385.3 38.06 383.9 38.06 
L 233.092656 38.06 
Q 231.692656 38.06 231.692656 39.46 
L 231.692656 59.309375 
Q 231.692656 60.709375 233.092656 60.709375 
z
" style="fill:#ffffff;opacity:0.8;stroke:#cccccc;stroke-linejoin:miter;"/>
    </g>
    <g id="line2d_15">
     <path d="M 234.492656 43.728906 
L 248.492656 43.728906 
" style="fill:none;stroke:#ff7f0e;stroke-dasharray:5.55,2.4;stroke-dashoffset:0;stroke-opacity:0.3;stroke-width:1.5;"/>
    </g>
    <g id="line2d_16"/>
    <g id="text_16">
     <!-- 1st population : monoide hydrolyzed -->
     <g transform="translate(254.092656 46.178906)scale(0.07 -0.07)">
      <defs>
       <path d="M 2834 3397 
L 2834 2853 
Q 2591 2978 2328 3040 
Q 2066 3103 1784 3103 
Q 1356 3103 1142 2972 
Q 928 2841 928 2578 
Q 928 2378 1081 2264 
Q 1234 2150 1697 2047 
L 1894 2003 
Q 2506 1872 2764 1633 
Q 3022 1394 3022 966 
Q 3022 478 2636 193 
Q 2250 -91 1575 -91 
Q 1294 -91 989 -36 
Q 684 19 347 128 
L 347 722 
Q 666 556 975 473 
Q 1284 391 1588 391 
Q 1994 391 2212 530 
Q 2431 669 2431 922 
Q 2431 1156 2273 1281 
Q 2116 1406 1581 1522 
L 1381 1569 
Q 847 1681 609 1914 
Q 372 2147 372 2553 
Q 372 3047 722 3315 
Q 1072 3584 1716 3584 
Q 2034 3584 2315 3537 
Q 2597 3491 2834 3397 
z
" id="DejaVuSans-73" transform="scale(0.015625)"/>
       <path d="M 1172 4494 
L 1172 3500 
L 2356 3500 
L 2356 3053 
L 1172 3053 
L 1172 1153 
Q 1172 725 1289 603 
Q 1406 481 1766 481 
L 2356 481 
L 2356 0 
L 1766 0 
Q 1100 0 847 248 
Q 594 497 594 1153 
L 594 3053 
L 172 3053 
L 172 3500 
L 594 3500 
L 594 4494 
L 1172 4494 
z
" id="DejaVuSans-74" transform="scale(0.015625)"/>
       <path d="M 1159 525 
L 1159 -1331 
L 581 -1331 
L 581 3500 
L 1159 3500 
L 1159 2969 
Q 1341 3281 1617 3432 
Q 1894 3584 2278 3584 
Q 2916 3584 3314 3078 
Q 3713 2572 3713 1747 
Q 3713 922 3314 415 
Q 2916 -91 2278 -91 
Q 1894 -91 1617 61 
Q 1341 213 1159 525 
z
M 3116 1747 
Q 3116 2381 2855 2742 
Q 2594 3103 2138 3103 
Q 1681 3103 1420 2742 
Q 1159 2381 1159 1747 
Q 1159 1113 1420 752 
Q 1681 391 2138 391 
Q 2594 391 2855 752 
Q 3116 1113 3116 1747 
z
" id="DejaVuSans-70" transform="scale(0.015625)"/>
       <path d="M 1959 3097 
Q 1497 3097 1228 2736 
Q 959 2375 959 1747 
Q 959 1119 1226 758 
Q 1494 397 1959 397 
Q 2419 397 2687 759 
Q 2956 1122 2956 1747 
Q 2956 2369 2687 2733 
Q 2419 3097 1959 3097 
z
M 1959 3584 
Q 2709 3584 3137 3096 
Q 3566 2609 3566 1747 
Q 3566 888 3137 398 
Q 2709 -91 1959 -91 
Q 1206 -91 779 398 
Q 353 888 353 1747 
Q 353 2609 779 3096 
Q 1206 3584 1959 3584 
z
" id="DejaVuSans-6f" transform="scale(0.015625)"/>
       <path d="M 603 4863 
L 1178 4863 
L 1178 0 
L 603 0 
L 603 4863 
z
" id="DejaVuSans-6c" transform="scale(0.015625)"/>
       <path d="M 603 3500 
L 1178 3500 
L 1178 0 
L 603 0 
L 603 3500 
z
M 603 4863 
L 1178 4863 
L 1178 4134 
L 603 4134 
L 603 4863 
z
" id="DejaVuSans-69" transform="scale(0.015625)"/>
       <path d="M 750 794 
L 1409 794 
L 1409 0 
L 750 0 
L 750 794 
z
M 750 3309 
L 1409 3309 
L 1409 2516 
L 750 2516 
L 750 3309 
z
" id="DejaVuSans-3a" transform="scale(0.015625)"/>
       <path d="M 3513 2113 
L 3513 0 
L 2938 0 
L 2938 2094 
Q 2938 2591 2744 2837 
Q 2550 3084 2163 3084 
Q 1697 3084 1428 2787 
Q 1159 2491 1159 1978 
L 1159 0 
L 581 0 
L 581 4863 
L 1159 4863 
L 1159 2956 
Q 1366 3272 1645 3428 
Q 1925 3584 2291 3584 
Q 2894 3584 3203 3211 
Q 3513 2838 3513 2113 
z
" id="DejaVuSans-68" transform="scale(0.015625)"/>
       <path d="M 2059 -325 
Q 1816 -950 1584 -1140 
Q 1353 -1331 966 -1331 
L 506 -1331 
L 506 -850 
L 844 -850 
Q 1081 -850 1212 -737 
Q 1344 -625 1503 -206 
L 1606 56 
L 191 3500 
L 800 3500 
L 1894 763 
L 2988 3500 
L 3597 3500 
L 2059 -325 
z
" id="DejaVuSans-79" transform="scale(0.015625)"/>
       <path d="M 2631 2963 
Q 2534 3019 2420 3045 
Q 2306 3072 2169 3072 
Q 1681 3072 1420 2755 
Q 1159 2438 1159 1844 
L 1159 0 
L 581 0 
L 581 3500 
L 1159 3500 
L 1159 2956 
Q 1341 3275 1631 3429 
Q 1922 3584 2338 3584 
Q 2397 3584 2469 3576 
Q 2541 3569 2628 3553 
L 2631 2963 
z
" id="DejaVuSans-72" transform="scale(0.015625)"/>
      </defs>
      <use xlink:href="#DejaVuSans-31"/>
      <use x="63.623047" xlink:href="#DejaVuSans-73"/>
      <use x="115.722656" xlink:href="#DejaVuSans-74"/>
      <use x="154.931641" xlink:href="#DejaVuSans-20"/>
      <use x="186.71875" xlink:href="#DejaVuSans-70"/>
      <use x="250.195312" xlink:href="#DejaVuSans-6f"/>
      <use x="311.376953" xlink:href="#DejaVuSans-70"/>
      <use x="374.853516" xlink:href="#DejaVuSans-75"/>
      <use x="438.232422" xlink:href="#DejaVuSans-6c"/>
      <use x="466.015625" xlink:href="#DejaVuSans-61"/>
      <use x="527.294922" xlink:href="#DejaVuSans-74"/>
      <use x="566.503906" xlink:href="#DejaVuSans-69"/>
      <use x="594.287109" xlink:href="#DejaVuSans-6f"/>
      <use x="655.46875" xlink:href="#DejaVuSans-6e"/>
      <use x="718.847656" xlink:href="#DejaVuSans-20"/>
      <use x="750.634766" xlink:href="#DejaVuSans-3a"/>
      <use x="784.326172" xlink:href="#DejaVuSans-20"/>
      <use x="816.113281" xlink:href="#DejaVuSans-6d"/>
      <use x="913.525391" xlink:href="#DejaVuSans-6f"/>
      <use x="974.707031" xlink:href="#DejaVuSans-6e"/>
      <use x="1038.085938" xlink:href="#DejaVuSans-6f"/>
      <use x="1099.267578" xlink:href="#DejaVuSans-69"/>
      <use x="1127.050781" xlink:href="#DejaVuSans-64"/>
      <use x="1190.527344" xlink:href="#DejaVuSans-65"/>
      <use x="1252.050781" xlink:href="#DejaVuSans-20"/>
      <use x="1283.837891" xlink:href="#DejaVuSans-68"/>
      <use x="1347.216797" xlink:href="#DejaVuSans-79"/>
      <use x="1406.396484" xlink:href="#DejaVuSans-64"/>
      <use x="1469.873047" xlink:href="#DejaVuSans-72"/>
      <use x="1508.736328" xlink:href="#DejaVuSans-6f"/>
      <use x="1569.917969" xlink:href="#DejaVuSans-6c"/>
      <use x="1597.701172" xlink:href="#DejaVuSans-79"/>
      <use x="1656.880859" xlink:href="#DejaVuSans-7a"/>
      <use x="1709.371094" xlink:href="#DejaVuSans-65"/>
      <use x="1770.894531" xlink:href="#DejaVuSans-64"/>
     </g>
    </g>
    <g id="line2d_17">
     <path d="M 234.492656 54.003594 
L 248.492656 54.003594 
" style="fill:none;stroke:#2ca02c;stroke-dasharray:5.55,2.4;stroke-dashoffset:0;stroke-opacity:0.3;stroke-width:1.5;"/>
    </g>
    <g id="line2d_18"/>
    <g id="text_17">
     <!-- 2nd population : monoide -->
     <g transform="translate(254.092656 56.453594)scale(0.07 -0.07)">
      <use xlink:href="#DejaVuSans-32"/>
      <use x="63.623047" xlink:href="#DejaVuSans-6e"/>
      <use x="127.001953" xlink:href="#DejaVuSans-64"/>
      <use x="190.478516" xlink:href="#DejaVuSans-20"/>
      <use x="222.265625" xlink:href="#DejaVuSans-70"/>
      <use x="285.742188" xlink:href="#DejaVuSans-6f"/>
      <use x="346.923828" xlink:href="#DejaVuSans-70"/>
      <use x="410.400391" xlink:href="#DejaVuSans-75"/>
      <use x="473.779297" xlink:href="#DejaVuSans-6c"/>
      <use x="501.5625" xlink:href="#DejaVuSans-61"/>
      <use x="562.841797" xlink:href="#DejaVuSans-74"/>
      <use x="602.050781" xlink:href="#DejaVuSans-69"/>
      <use x="629.833984" xlink:href="#DejaVuSans-6f"/>
      <use x="691.015625" xlink:href="#DejaVuSans-6e"/>
      <use x="754.394531" xlink:href="#DejaVuSans-20"/>
      <use x="786.181641" xlink:href="#DejaVuSans-3a"/>
      <use x="819.873047" xlink:href="#DejaVuSans-20"/>
      <use x="851.660156" xlink:href="#DejaVuSans-6d"/>
      <use x="949.072266" xlink:href="#DejaVuSans-6f"/>
      <use x="1010.253906" xlink:href="#DejaVuSans-6e"/>
      <use x="1073.632812" xlink:href="#DejaVuSans-6f"/>
      <use x="1134.814453" xlink:href="#DejaVuSans-69"/>
      <use x="1162.597656" xlink:href="#DejaVuSans-64"/>
      <use x="1226.074219" xlink:href="#DejaVuSans-65"/>
     </g>
    </g>
   </g>
  </g>
 </g>
 <defs>
  <clipPath id="p1f1e8e819e">
   <rect height="217.44" width="334.8" x="54" y="34.56"/>
  </clipPath>
 </defs>
</svg>
