<?xml version="1.0" encoding="utf-8" standalone="no"?>
<!DOCTYPE svg PUBLIC "-//W3C//DTD SVG 1.1//EN"
  "http://www.w3.org/Graphics/SVG/1.1/DTD/svg11.dtd">
<svg height="288pt" version="1.1" viewBox="0 0 432 288" width="432pt" xmlns="http://www.w3.org/2000/svg" xmlns:xlink="http://www.w3.org/1999/xlink">
 <metadata>
  <rdf:RDF xmlns:cc="http://creativecommons.org/ns#" xmlns:dc="http://purl.org/dc/elements/1.1/" xmlns:rdf="http://www.w3.org/1999/02/22-rdf-syntax-ns#">
   <cc:Work>
    <dc:type rdf:resource="http://purl.org/dc/dcmitype/StillImage"/>
    <dc:date>2022-05-18T12:10:11.849848</dc:date>
    <dc:format>image/svg+xml</dc:format>
    <dc:creator>
     <cc:Agent>
      <dc:title>Matplotlib v3.4.2, https://matplotlib.org/</dc:title>
     </cc:Agent>
    </dc:creator>
   </cc:Work>
  </rdf:RDF>
 </metadata>
 <defs>
  <style type="text/css">*{stroke-linecap:butt;stroke-linejoin:round;}</style>
 </defs>
 <g id="figure_1">
  <g id="patch_1">
   <path d="M 0 288 
L 432 288 
L 432 0 
L 0 0 
z
" style="fill:none;"/>
  </g>
  <g id="axes_1">
   <g id="patch_2">
    <path d="M 54 252 
L 388.8 252 
L 388.8 34.56 
L 54 34.56 
z
" style="fill:#ffffff;"/>
   </g>
   <g id="matplotlib.axis_1">
    <g id="xtick_1">
     <g id="line2d_1">
      <defs>
       <path d="M 0 0 
L 0 3.5 
" id="mf39c5f0b3a" style="stroke:#000000;stroke-width:0.8;"/>
      </defs>
      <g>
       <use style="stroke:#000000;stroke-width:0.8;" x="88.240909" xlink:href="#mf39c5f0b3a" y="252"/>
      </g>
     </g>
     <g id="text_1">
      <!-- 1400 -->
      <g transform="translate(75.515909 266.598437)scale(0.1 -0.1)">
       <defs>
        <path d="M 794 531 
L 1825 531 
L 1825 4091 
L 703 3866 
L 703 4441 
L 1819 4666 
L 2450 4666 
L 2450 531 
L 3481 531 
L 3481 0 
L 794 0 
L 794 531 
z
" id="DejaVuSans-31" transform="scale(0.015625)"/>
        <path d="M 2419 4116 
L 825 1625 
L 2419 1625 
L 2419 4116 
z
M 2253 4666 
L 3047 4666 
L 3047 1625 
L 3713 1625 
L 3713 1100 
L 3047 1100 
L 3047 0 
L 2419 0 
L 2419 1100 
L 313 1100 
L 313 1709 
L 2253 4666 
z
" id="DejaVuSans-34" transform="scale(0.015625)"/>
        <path d="M 2034 4250 
Q 1547 4250 1301 3770 
Q 1056 3291 1056 2328 
Q 1056 1369 1301 889 
Q 1547 409 2034 409 
Q 2525 409 2770 889 
Q 3016 1369 3016 2328 
Q 3016 3291 2770 3770 
Q 2525 4250 2034 4250 
z
M 2034 4750 
Q 2819 4750 3233 4129 
Q 3647 3509 3647 2328 
Q 3647 1150 3233 529 
Q 2819 -91 2034 -91 
Q 1250 -91 836 529 
Q 422 1150 422 2328 
Q 422 3509 836 4129 
Q 1250 4750 2034 4750 
z
" id="DejaVuSans-30" transform="scale(0.015625)"/>
       </defs>
       <use xlink:href="#DejaVuSans-31"/>
       <use x="63.623047" xlink:href="#DejaVuSans-34"/>
       <use x="127.246094" xlink:href="#DejaVuSans-30"/>
       <use x="190.869141" xlink:href="#DejaVuSans-30"/>
      </g>
     </g>
    </g>
    <g id="xtick_2">
     <g id="line2d_2">
      <g>
       <use style="stroke:#000000;stroke-width:0.8;" x="135.797727" xlink:href="#mf39c5f0b3a" y="252"/>
      </g>
     </g>
     <g id="text_2">
      <!-- 1450 -->
      <g transform="translate(123.072727 266.598437)scale(0.1 -0.1)">
       <defs>
        <path d="M 691 4666 
L 3169 4666 
L 3169 4134 
L 1269 4134 
L 1269 2991 
Q 1406 3038 1543 3061 
Q 1681 3084 1819 3084 
Q 2600 3084 3056 2656 
Q 3513 2228 3513 1497 
Q 3513 744 3044 326 
Q 2575 -91 1722 -91 
Q 1428 -91 1123 -41 
Q 819 9 494 109 
L 494 744 
Q 775 591 1075 516 
Q 1375 441 1709 441 
Q 2250 441 2565 725 
Q 2881 1009 2881 1497 
Q 2881 1984 2565 2268 
Q 2250 2553 1709 2553 
Q 1456 2553 1204 2497 
Q 953 2441 691 2322 
L 691 4666 
z
" id="DejaVuSans-35" transform="scale(0.015625)"/>
       </defs>
       <use xlink:href="#DejaVuSans-31"/>
       <use x="63.623047" xlink:href="#DejaVuSans-34"/>
       <use x="127.246094" xlink:href="#DejaVuSans-35"/>
       <use x="190.869141" xlink:href="#DejaVuSans-30"/>
      </g>
     </g>
    </g>
    <g id="xtick_3">
     <g id="line2d_3">
      <g>
       <use style="stroke:#000000;stroke-width:0.8;" x="183.354545" xlink:href="#mf39c5f0b3a" y="252"/>
      </g>
     </g>
     <g id="text_3">
      <!-- 1500 -->
      <g transform="translate(170.629545 266.598437)scale(0.1 -0.1)">
       <use xlink:href="#DejaVuSans-31"/>
       <use x="63.623047" xlink:href="#DejaVuSans-35"/>
       <use x="127.246094" xlink:href="#DejaVuSans-30"/>
       <use x="190.869141" xlink:href="#DejaVuSans-30"/>
      </g>
     </g>
    </g>
    <g id="xtick_4">
     <g id="line2d_4">
      <g>
       <use style="stroke:#000000;stroke-width:0.8;" x="230.911364" xlink:href="#mf39c5f0b3a" y="252"/>
      </g>
     </g>
     <g id="text_4">
      <!-- 1550 -->
      <g transform="translate(218.186364 266.598437)scale(0.1 -0.1)">
       <use xlink:href="#DejaVuSans-31"/>
       <use x="63.623047" xlink:href="#DejaVuSans-35"/>
       <use x="127.246094" xlink:href="#DejaVuSans-35"/>
       <use x="190.869141" xlink:href="#DejaVuSans-30"/>
      </g>
     </g>
    </g>
    <g id="xtick_5">
     <g id="line2d_5">
      <g>
       <use style="stroke:#000000;stroke-width:0.8;" x="278.468182" xlink:href="#mf39c5f0b3a" y="252"/>
      </g>
     </g>
     <g id="text_5">
      <!-- 1600 -->
      <g transform="translate(265.743182 266.598437)scale(0.1 -0.1)">
       <defs>
        <path d="M 2113 2584 
Q 1688 2584 1439 2293 
Q 1191 2003 1191 1497 
Q 1191 994 1439 701 
Q 1688 409 2113 409 
Q 2538 409 2786 701 
Q 3034 994 3034 1497 
Q 3034 2003 2786 2293 
Q 2538 2584 2113 2584 
z
M 3366 4563 
L 3366 3988 
Q 3128 4100 2886 4159 
Q 2644 4219 2406 4219 
Q 1781 4219 1451 3797 
Q 1122 3375 1075 2522 
Q 1259 2794 1537 2939 
Q 1816 3084 2150 3084 
Q 2853 3084 3261 2657 
Q 3669 2231 3669 1497 
Q 3669 778 3244 343 
Q 2819 -91 2113 -91 
Q 1303 -91 875 529 
Q 447 1150 447 2328 
Q 447 3434 972 4092 
Q 1497 4750 2381 4750 
Q 2619 4750 2861 4703 
Q 3103 4656 3366 4563 
z
" id="DejaVuSans-36" transform="scale(0.015625)"/>
       </defs>
       <use xlink:href="#DejaVuSans-31"/>
       <use x="63.623047" xlink:href="#DejaVuSans-36"/>
       <use x="127.246094" xlink:href="#DejaVuSans-30"/>
       <use x="190.869141" xlink:href="#DejaVuSans-30"/>
      </g>
     </g>
    </g>
    <g id="xtick_6">
     <g id="line2d_6">
      <g>
       <use style="stroke:#000000;stroke-width:0.8;" x="326.025" xlink:href="#mf39c5f0b3a" y="252"/>
      </g>
     </g>
     <g id="text_6">
      <!-- 1650 -->
      <g transform="translate(313.3 266.598437)scale(0.1 -0.1)">
       <use xlink:href="#DejaVuSans-31"/>
       <use x="63.623047" xlink:href="#DejaVuSans-36"/>
       <use x="127.246094" xlink:href="#DejaVuSans-35"/>
       <use x="190.869141" xlink:href="#DejaVuSans-30"/>
      </g>
     </g>
    </g>
    <g id="xtick_7">
     <g id="line2d_7">
      <g>
       <use style="stroke:#000000;stroke-width:0.8;" x="373.581818" xlink:href="#mf39c5f0b3a" y="252"/>
      </g>
     </g>
     <g id="text_7">
      <!-- 1700 -->
      <g transform="translate(360.856818 266.598437)scale(0.1 -0.1)">
       <defs>
        <path d="M 525 4666 
L 3525 4666 
L 3525 4397 
L 1831 0 
L 1172 0 
L 2766 4134 
L 525 4134 
L 525 4666 
z
" id="DejaVuSans-37" transform="scale(0.015625)"/>
       </defs>
       <use xlink:href="#DejaVuSans-31"/>
       <use x="63.623047" xlink:href="#DejaVuSans-37"/>
       <use x="127.246094" xlink:href="#DejaVuSans-30"/>
       <use x="190.869141" xlink:href="#DejaVuSans-30"/>
      </g>
     </g>
    </g>
    <g id="text_8">
     <!-- m/z -->
     <g transform="translate(212.221094 280.276563)scale(0.1 -0.1)">
      <defs>
       <path d="M 3328 2828 
Q 3544 3216 3844 3400 
Q 4144 3584 4550 3584 
Q 5097 3584 5394 3201 
Q 5691 2819 5691 2113 
L 5691 0 
L 5113 0 
L 5113 2094 
Q 5113 2597 4934 2840 
Q 4756 3084 4391 3084 
Q 3944 3084 3684 2787 
Q 3425 2491 3425 1978 
L 3425 0 
L 2847 0 
L 2847 2094 
Q 2847 2600 2669 2842 
Q 2491 3084 2119 3084 
Q 1678 3084 1418 2786 
Q 1159 2488 1159 1978 
L 1159 0 
L 581 0 
L 581 3500 
L 1159 3500 
L 1159 2956 
Q 1356 3278 1631 3431 
Q 1906 3584 2284 3584 
Q 2666 3584 2933 3390 
Q 3200 3197 3328 2828 
z
" id="DejaVuSans-6d" transform="scale(0.015625)"/>
       <path d="M 1625 4666 
L 2156 4666 
L 531 -594 
L 0 -594 
L 1625 4666 
z
" id="DejaVuSans-2f" transform="scale(0.015625)"/>
       <path d="M 353 3500 
L 3084 3500 
L 3084 2975 
L 922 459 
L 3084 459 
L 3084 0 
L 275 0 
L 275 525 
L 2438 3041 
L 353 3041 
L 353 3500 
z
" id="DejaVuSans-7a" transform="scale(0.015625)"/>
      </defs>
      <use xlink:href="#DejaVuSans-6d"/>
      <use x="97.412109" xlink:href="#DejaVuSans-2f"/>
      <use x="131.103516" xlink:href="#DejaVuSans-7a"/>
     </g>
    </g>
   </g>
   <g id="matplotlib.axis_2">
    <g id="ytick_1">
     <g id="line2d_8">
      <defs>
       <path d="M 0 0 
L -3.5 0 
" id="m61b589b5e5" style="stroke:#000000;stroke-width:0.8;"/>
      </defs>
      <g>
       <use style="stroke:#000000;stroke-width:0.8;" x="54" xlink:href="#m61b589b5e5" y="242.535349"/>
      </g>
     </g>
     <g id="text_9">
      <!-- 0 -->
      <g transform="translate(40.6375 246.334568)scale(0.1 -0.1)">
       <use xlink:href="#DejaVuSans-30"/>
      </g>
     </g>
    </g>
    <g id="ytick_2">
     <g id="line2d_9">
      <g>
       <use style="stroke:#000000;stroke-width:0.8;" x="54" xlink:href="#m61b589b5e5" y="202.917006"/>
      </g>
     </g>
     <g id="text_10">
      <!-- 20 -->
      <g transform="translate(34.275 206.716225)scale(0.1 -0.1)">
       <defs>
        <path d="M 1228 531 
L 3431 531 
L 3431 0 
L 469 0 
L 469 531 
Q 828 903 1448 1529 
Q 2069 2156 2228 2338 
Q 2531 2678 2651 2914 
Q 2772 3150 2772 3378 
Q 2772 3750 2511 3984 
Q 2250 4219 1831 4219 
Q 1534 4219 1204 4116 
Q 875 4013 500 3803 
L 500 4441 
Q 881 4594 1212 4672 
Q 1544 4750 1819 4750 
Q 2544 4750 2975 4387 
Q 3406 4025 3406 3419 
Q 3406 3131 3298 2873 
Q 3191 2616 2906 2266 
Q 2828 2175 2409 1742 
Q 1991 1309 1228 531 
z
" id="DejaVuSans-32" transform="scale(0.015625)"/>
       </defs>
       <use xlink:href="#DejaVuSans-32"/>
       <use x="63.623047" xlink:href="#DejaVuSans-30"/>
      </g>
     </g>
    </g>
    <g id="ytick_3">
     <g id="line2d_10">
      <g>
       <use style="stroke:#000000;stroke-width:0.8;" x="54" xlink:href="#m61b589b5e5" y="163.298664"/>
      </g>
     </g>
     <g id="text_11">
      <!-- 40 -->
      <g transform="translate(34.275 167.097883)scale(0.1 -0.1)">
       <use xlink:href="#DejaVuSans-34"/>
       <use x="63.623047" xlink:href="#DejaVuSans-30"/>
      </g>
     </g>
    </g>
    <g id="ytick_4">
     <g id="line2d_11">
      <g>
       <use style="stroke:#000000;stroke-width:0.8;" x="54" xlink:href="#m61b589b5e5" y="123.680321"/>
      </g>
     </g>
     <g id="text_12">
      <!-- 60 -->
      <g transform="translate(34.275 127.47954)scale(0.1 -0.1)">
       <use xlink:href="#DejaVuSans-36"/>
       <use x="63.623047" xlink:href="#DejaVuSans-30"/>
      </g>
     </g>
    </g>
    <g id="ytick_5">
     <g id="line2d_12">
      <g>
       <use style="stroke:#000000;stroke-width:0.8;" x="54" xlink:href="#m61b589b5e5" y="84.061979"/>
      </g>
     </g>
     <g id="text_13">
      <!-- 80 -->
      <g transform="translate(34.275 87.861198)scale(0.1 -0.1)">
       <defs>
        <path d="M 2034 2216 
Q 1584 2216 1326 1975 
Q 1069 1734 1069 1313 
Q 1069 891 1326 650 
Q 1584 409 2034 409 
Q 2484 409 2743 651 
Q 3003 894 3003 1313 
Q 3003 1734 2745 1975 
Q 2488 2216 2034 2216 
z
M 1403 2484 
Q 997 2584 770 2862 
Q 544 3141 544 3541 
Q 544 4100 942 4425 
Q 1341 4750 2034 4750 
Q 2731 4750 3128 4425 
Q 3525 4100 3525 3541 
Q 3525 3141 3298 2862 
Q 3072 2584 2669 2484 
Q 3125 2378 3379 2068 
Q 3634 1759 3634 1313 
Q 3634 634 3220 271 
Q 2806 -91 2034 -91 
Q 1263 -91 848 271 
Q 434 634 434 1313 
Q 434 1759 690 2068 
Q 947 2378 1403 2484 
z
M 1172 3481 
Q 1172 3119 1398 2916 
Q 1625 2713 2034 2713 
Q 2441 2713 2670 2916 
Q 2900 3119 2900 3481 
Q 2900 3844 2670 4047 
Q 2441 4250 2034 4250 
Q 1625 4250 1398 4047 
Q 1172 3844 1172 3481 
z
" id="DejaVuSans-38" transform="scale(0.015625)"/>
       </defs>
       <use xlink:href="#DejaVuSans-38"/>
       <use x="63.623047" xlink:href="#DejaVuSans-30"/>
      </g>
     </g>
    </g>
    <g id="ytick_6">
     <g id="line2d_13">
      <g>
       <use style="stroke:#000000;stroke-width:0.8;" x="54" xlink:href="#m61b589b5e5" y="44.443636"/>
      </g>
     </g>
     <g id="text_14">
      <!-- 100 -->
      <g transform="translate(27.9125 48.242855)scale(0.1 -0.1)">
       <use xlink:href="#DejaVuSans-31"/>
       <use x="63.623047" xlink:href="#DejaVuSans-30"/>
       <use x="127.246094" xlink:href="#DejaVuSans-30"/>
      </g>
     </g>
    </g>
    <g id="text_15">
     <!-- Abundance (%) -->
     <g transform="translate(21.832812 181.68625)rotate(-90)scale(0.1 -0.1)">
      <defs>
       <path d="M 2188 4044 
L 1331 1722 
L 3047 1722 
L 2188 4044 
z
M 1831 4666 
L 2547 4666 
L 4325 0 
L 3669 0 
L 3244 1197 
L 1141 1197 
L 716 0 
L 50 0 
L 1831 4666 
z
" id="DejaVuSans-41" transform="scale(0.015625)"/>
       <path d="M 3116 1747 
Q 3116 2381 2855 2742 
Q 2594 3103 2138 3103 
Q 1681 3103 1420 2742 
Q 1159 2381 1159 1747 
Q 1159 1113 1420 752 
Q 1681 391 2138 391 
Q 2594 391 2855 752 
Q 3116 1113 3116 1747 
z
M 1159 2969 
Q 1341 3281 1617 3432 
Q 1894 3584 2278 3584 
Q 2916 3584 3314 3078 
Q 3713 2572 3713 1747 
Q 3713 922 3314 415 
Q 2916 -91 2278 -91 
Q 1894 -91 1617 61 
Q 1341 213 1159 525 
L 1159 0 
L 581 0 
L 581 4863 
L 1159 4863 
L 1159 2969 
z
" id="DejaVuSans-62" transform="scale(0.015625)"/>
       <path d="M 544 1381 
L 544 3500 
L 1119 3500 
L 1119 1403 
Q 1119 906 1312 657 
Q 1506 409 1894 409 
Q 2359 409 2629 706 
Q 2900 1003 2900 1516 
L 2900 3500 
L 3475 3500 
L 3475 0 
L 2900 0 
L 2900 538 
Q 2691 219 2414 64 
Q 2138 -91 1772 -91 
Q 1169 -91 856 284 
Q 544 659 544 1381 
z
M 1991 3584 
L 1991 3584 
z
" id="DejaVuSans-75" transform="scale(0.015625)"/>
       <path d="M 3513 2113 
L 3513 0 
L 2938 0 
L 2938 2094 
Q 2938 2591 2744 2837 
Q 2550 3084 2163 3084 
Q 1697 3084 1428 2787 
Q 1159 2491 1159 1978 
L 1159 0 
L 581 0 
L 581 3500 
L 1159 3500 
L 1159 2956 
Q 1366 3272 1645 3428 
Q 1925 3584 2291 3584 
Q 2894 3584 3203 3211 
Q 3513 2838 3513 2113 
z
" id="DejaVuSans-6e" transform="scale(0.015625)"/>
       <path d="M 2906 2969 
L 2906 4863 
L 3481 4863 
L 3481 0 
L 2906 0 
L 2906 525 
Q 2725 213 2448 61 
Q 2172 -91 1784 -91 
Q 1150 -91 751 415 
Q 353 922 353 1747 
Q 353 2572 751 3078 
Q 1150 3584 1784 3584 
Q 2172 3584 2448 3432 
Q 2725 3281 2906 2969 
z
M 947 1747 
Q 947 1113 1208 752 
Q 1469 391 1925 391 
Q 2381 391 2643 752 
Q 2906 1113 2906 1747 
Q 2906 2381 2643 2742 
Q 2381 3103 1925 3103 
Q 1469 3103 1208 2742 
Q 947 2381 947 1747 
z
" id="DejaVuSans-64" transform="scale(0.015625)"/>
       <path d="M 2194 1759 
Q 1497 1759 1228 1600 
Q 959 1441 959 1056 
Q 959 750 1161 570 
Q 1363 391 1709 391 
Q 2188 391 2477 730 
Q 2766 1069 2766 1631 
L 2766 1759 
L 2194 1759 
z
M 3341 1997 
L 3341 0 
L 2766 0 
L 2766 531 
Q 2569 213 2275 61 
Q 1981 -91 1556 -91 
Q 1019 -91 701 211 
Q 384 513 384 1019 
Q 384 1609 779 1909 
Q 1175 2209 1959 2209 
L 2766 2209 
L 2766 2266 
Q 2766 2663 2505 2880 
Q 2244 3097 1772 3097 
Q 1472 3097 1187 3025 
Q 903 2953 641 2809 
L 641 3341 
Q 956 3463 1253 3523 
Q 1550 3584 1831 3584 
Q 2591 3584 2966 3190 
Q 3341 2797 3341 1997 
z
" id="DejaVuSans-61" transform="scale(0.015625)"/>
       <path d="M 3122 3366 
L 3122 2828 
Q 2878 2963 2633 3030 
Q 2388 3097 2138 3097 
Q 1578 3097 1268 2742 
Q 959 2388 959 1747 
Q 959 1106 1268 751 
Q 1578 397 2138 397 
Q 2388 397 2633 464 
Q 2878 531 3122 666 
L 3122 134 
Q 2881 22 2623 -34 
Q 2366 -91 2075 -91 
Q 1284 -91 818 406 
Q 353 903 353 1747 
Q 353 2603 823 3093 
Q 1294 3584 2113 3584 
Q 2378 3584 2631 3529 
Q 2884 3475 3122 3366 
z
" id="DejaVuSans-63" transform="scale(0.015625)"/>
       <path d="M 3597 1894 
L 3597 1613 
L 953 1613 
Q 991 1019 1311 708 
Q 1631 397 2203 397 
Q 2534 397 2845 478 
Q 3156 559 3463 722 
L 3463 178 
Q 3153 47 2828 -22 
Q 2503 -91 2169 -91 
Q 1331 -91 842 396 
Q 353 884 353 1716 
Q 353 2575 817 3079 
Q 1281 3584 2069 3584 
Q 2775 3584 3186 3129 
Q 3597 2675 3597 1894 
z
M 3022 2063 
Q 3016 2534 2758 2815 
Q 2500 3097 2075 3097 
Q 1594 3097 1305 2825 
Q 1016 2553 972 2059 
L 3022 2063 
z
" id="DejaVuSans-65" transform="scale(0.015625)"/>
       <path id="DejaVuSans-20" transform="scale(0.015625)"/>
       <path d="M 1984 4856 
Q 1566 4138 1362 3434 
Q 1159 2731 1159 2009 
Q 1159 1288 1364 580 
Q 1569 -128 1984 -844 
L 1484 -844 
Q 1016 -109 783 600 
Q 550 1309 550 2009 
Q 550 2706 781 3412 
Q 1013 4119 1484 4856 
L 1984 4856 
z
" id="DejaVuSans-28" transform="scale(0.015625)"/>
       <path d="M 4653 2053 
Q 4381 2053 4226 1822 
Q 4072 1591 4072 1178 
Q 4072 772 4226 539 
Q 4381 306 4653 306 
Q 4919 306 5073 539 
Q 5228 772 5228 1178 
Q 5228 1588 5073 1820 
Q 4919 2053 4653 2053 
z
M 4653 2450 
Q 5147 2450 5437 2106 
Q 5728 1763 5728 1178 
Q 5728 594 5436 251 
Q 5144 -91 4653 -91 
Q 4153 -91 3862 251 
Q 3572 594 3572 1178 
Q 3572 1766 3864 2108 
Q 4156 2450 4653 2450 
z
M 1428 4353 
Q 1159 4353 1004 4120 
Q 850 3888 850 3481 
Q 850 3069 1003 2837 
Q 1156 2606 1428 2606 
Q 1700 2606 1854 2837 
Q 2009 3069 2009 3481 
Q 2009 3884 1853 4118 
Q 1697 4353 1428 4353 
z
M 4250 4750 
L 4750 4750 
L 1831 -91 
L 1331 -91 
L 4250 4750 
z
M 1428 4750 
Q 1922 4750 2215 4408 
Q 2509 4066 2509 3481 
Q 2509 2891 2217 2550 
Q 1925 2209 1428 2209 
Q 931 2209 642 2551 
Q 353 2894 353 3481 
Q 353 4063 643 4406 
Q 934 4750 1428 4750 
z
" id="DejaVuSans-25" transform="scale(0.015625)"/>
       <path d="M 513 4856 
L 1013 4856 
Q 1481 4119 1714 3412 
Q 1947 2706 1947 2009 
Q 1947 1309 1714 600 
Q 1481 -109 1013 -844 
L 513 -844 
Q 928 -128 1133 580 
Q 1338 1288 1338 2009 
Q 1338 2731 1133 3434 
Q 928 4138 513 4856 
z
" id="DejaVuSans-29" transform="scale(0.015625)"/>
      </defs>
      <use xlink:href="#DejaVuSans-41"/>
      <use x="68.408203" xlink:href="#DejaVuSans-62"/>
      <use x="131.884766" xlink:href="#DejaVuSans-75"/>
      <use x="195.263672" xlink:href="#DejaVuSans-6e"/>
      <use x="258.642578" xlink:href="#DejaVuSans-64"/>
      <use x="322.119141" xlink:href="#DejaVuSans-61"/>
      <use x="383.398438" xlink:href="#DejaVuSans-6e"/>
      <use x="446.777344" xlink:href="#DejaVuSans-63"/>
      <use x="501.757812" xlink:href="#DejaVuSans-65"/>
      <use x="563.28125" xlink:href="#DejaVuSans-20"/>
      <use x="595.068359" xlink:href="#DejaVuSans-28"/>
      <use x="634.082031" xlink:href="#DejaVuSans-25"/>
      <use x="729.101562" xlink:href="#DejaVuSans-29"/>
     </g>
    </g>
   </g>
   <g id="line2d_14">
    <path clip-path="url(#p4ac0b2d953)" d="M 69.218182 241.945795 
L 69.218182 242.116364 
L 69.218182 241.856725 
L 69.218182 242.086436 
L 70.169318 241.992645 
L 70.169318 241.894668 
L 70.169318 241.995763 
L 70.169318 241.922102 
L 71.120455 241.818514 
L 71.120455 241.674576 
L 71.120455 241.841137 
L 71.120455 241.767565 
L 72.071591 241.648033 
L 72.071591 241.614365 
L 72.071591 241.777185 
L 72.071591 241.675467 
L 73.022727 241.578737 
L 73.022727 241.773088 
L 73.022727 241.826886 
L 73.022727 241.809785 
L 73.973864 241.746901 
L 73.973864 241.915689 
L 73.973864 241.972159 
L 73.973864 241.965212 
L 75.876136 242.052322 
L 75.876136 241.858328 
L 75.876136 241.713678 
L 75.876136 241.723476 
L 76.827273 241.725435 
L 76.827273 241.645005 
L 76.827273 241.012252 
L 76.827273 241.244724 
L 77.778409 241.246506 
L 77.778409 241.157436 
L 77.778409 240.598967 
L 77.778409 241.336467 
L 77.778409 241.336467 
L 78.729545 241.237599 
L 78.729545 241.078164 
L 78.729545 241.720626 
L 78.729545 241.719557 
L 79.680682 241.639305 
L 79.680682 241.525295 
L 79.680682 241.850044 
L 80.631818 241.871599 
L 80.631818 241.768723 
L 80.631818 241.667718 
L 80.631818 242.00084 
L 80.631818 241.943568 
L 81.582955 241.943746 
L 81.582955 241.838911 
L 81.582955 241.667629 
L 81.582955 241.71448 
L 82.534091 241.656228 
L 82.534091 241.802303 
L 82.534091 241.953989 
L 83.485227 242.053836 
L 83.485227 241.918984 
L 83.485227 241.723832 
L 83.485227 241.77576 
L 84.436364 241.666115 
L 84.436364 241.666115 
L 84.436364 241.604567 
L 84.436364 241.879616 
L 84.436364 241.858239 
L 85.3875 241.956216 
L 85.3875 242.001909 
L 85.3875 241.902952 
L 86.338636 241.79776 
L 86.338636 241.669321 
L 86.338636 241.817177 
L 86.338636 241.801234 
L 88.240909 241.705929 
L 88.240909 241.540437 
L 88.240909 241.640195 
L 90.143182 241.560923 
L 90.143182 241.703702 
L 90.143182 241.756343 
L 91.094318 241.758569 
L 91.094318 241.651864 
L 91.094318 241.59566 
L 91.094318 241.729978 
L 91.094318 241.698447 
L 92.045455 241.807736 
L 92.045455 241.651151 
L 92.045455 241.241162 
L 92.045455 241.337357 
L 92.996591 241.252741 
L 92.996591 238.493352 
L 92.996591 238.907527 
L 93.947727 238.928904 
L 93.947727 238.862992 
L 93.947727 234.977758 
L 93.947727 237.81642 
L 94.898864 237.67658 
L 94.898864 234.600101 
L 94.898864 238.584203 
L 94.898864 238.45238 
L 95.85 238.4025 
L 95.85 237.050417 
L 95.85 240.307708 
L 95.85 240.244468 
L 96.801136 240.158961 
L 96.801136 240.158961 
L 96.801136 239.857904 
L 96.801136 241.369422 
L 96.801136 241.307964 
L 97.752273 241.216222 
L 97.752273 241.029175 
L 97.752273 241.547563 
L 98.703409 241.573393 
L 98.703409 241.460274 
L 98.703409 241.410395 
L 98.703409 241.775938 
L 99.654545 241.788497 
L 99.654545 241.67039 
L 99.654545 241.64545 
L 99.654545 241.962629 
L 100.605682 241.863405 
L 100.605682 241.766942 
L 100.605682 241.956038 
L 100.605682 241.906693 
L 101.556818 241.906693 
L 101.556818 241.79589 
L 101.556818 241.759995 
L 101.556818 241.97973 
L 101.556818 241.883267 
L 102.507955 241.769347 
L 102.507955 241.777007 
L 102.507955 241.754027 
L 102.507955 241.867769 
L 102.507955 241.840514 
L 104.410227 241.916669 
L 104.410227 241.882911 
L 104.410227 241.511044 
L 104.410227 241.573393 
L 105.361364 241.470962 
L 105.361364 241.64554 
L 105.361364 241.750464 
L 105.361364 241.649993 
L 106.3125 241.661572 
L 106.3125 241.545781 
L 106.3125 241.427318 
L 106.3125 241.611693 
L 106.3125 241.565377 
L 107.263636 241.462946 
L 107.263636 241.515497 
L 107.263636 241.125371 
L 108.214773 241.051443 
L 108.214773 240.800265 
L 108.214773 240.803828 
L 109.165909 240.7299 
L 109.165909 240.907149 
L 109.165909 240.924072 
L 109.165909 238.75878 
L 109.165909 239.055384 
L 110.117045 239.065181 
L 110.117045 238.962751 
L 110.117045 227.313283 
L 110.117045 229.638011 
L 111.068182 229.673639 
L 111.068182 229.575662 
L 111.068182 221.336685 
L 111.068182 233.218625 
L 111.068182 233.209718 
L 112.019318 233.209718 
L 112.019318 233.111741 
L 112.019318 229.540034 
L 112.019318 238.003467 
L 112.019318 237.984762 
L 112.970455 237.872534 
L 112.970455 236.732438 
L 112.970455 240.432406 
L 112.970455 240.378073 
L 113.921591 240.435969 
L 113.921591 240.329085 
L 113.921591 239.977258 
L 113.921591 241.207315 
L 113.921591 241.125371 
L 114.872727 241.014924 
L 114.872727 241.014924 
L 114.872727 240.415483 
L 114.872727 240.669332 
L 115.823864 240.694272 
L 115.823864 240.573137 
L 115.823864 240.468034 
L 115.823864 241.139622 
L 116.775 241.229583 
L 116.775 241.071929 
L 116.775 241.017596 
L 116.775 241.309746 
L 116.775 241.289259 
L 117.726136 241.389018 
L 117.726136 241.37922 
L 117.726136 241.738707 
L 117.726136 241.725435 
L 118.677273 241.740934 
L 118.677273 241.625053 
L 118.677273 241.551125 
L 118.677273 241.680811 
L 119.628409 241.568049 
L 119.628409 241.429099 
L 119.628409 241.657208 
L 119.628409 241.600114 
L 120.579545 241.496793 
L 120.579545 241.496793 
L 120.579545 241.469181 
L 120.579545 241.643758 
L 121.530682 241.54489 
L 121.530682 241.429099 
L 121.530682 241.643758 
L 121.530682 241.611693 
L 122.481818 241.649459 
L 122.481818 241.524404 
L 122.481818 241.308855 
L 122.481818 241.625053 
L 122.481818 241.612584 
L 123.432955 241.5057 
L 123.432955 241.486104 
L 123.432955 241.813882 
L 123.432955 241.779679 
L 125.335227 241.667184 
L 125.335227 241.460274 
L 126.286364 241.486995 
L 126.286364 241.364078 
L 126.286364 235.45072 
L 126.286364 235.60392 
L 127.2375 235.52643 
L 127.2375 231.633179 
L 127.2375 237.76654 
L 128.188636 237.694394 
L 128.188636 235.816798 
L 128.188636 239.935395 
L 128.188636 239.920253 
L 129.139773 239.921144 
L 129.139773 239.819604 
L 129.139773 239.130202 
L 129.139773 240.989984 
L 129.139773 240.891117 
L 130.090909 240.892898 
L 130.090909 240.794921 
L 130.090909 239.312796 
L 130.090909 240.067219 
L 131.042045 240.162524 
L 131.042045 239.997744 
L 131.042045 238.781048 
L 131.042045 240.296129 
L 131.042045 240.276533 
L 131.993182 240.304145 
L 131.993182 240.237343 
L 131.993182 239.524782 
L 131.993182 241.094196 
L 132.944318 240.991766 
L 132.944318 240.786905 
L 132.944318 241.70869 
L 132.944318 241.663354 
L 133.895455 241.709937 
L 133.895455 241.60813 
L 133.895455 241.06035 
L 133.895455 241.430881 
L 134.846591 241.434444 
L 134.846591 241.344483 
L 134.846591 240.953466 
L 134.846591 241.544 
L 134.846591 241.48076 
L 135.797727 241.485214 
L 135.797727 241.381002 
L 135.797727 241.068366 
L 135.797727 241.458493 
L 135.797727 241.373876 
L 136.748864 241.287478 
L 136.748864 241.064803 
L 136.748864 241.487886 
L 136.748864 241.429099 
L 137.7 241.49323 
L 137.7 241.330232 
L 137.7 241.220676 
L 137.7 241.541328 
L 137.7 241.488776 
L 138.651136 241.503028 
L 138.651136 241.397034 
L 138.651136 241.31509 
L 138.651136 241.737549 
L 138.651136 241.725792 
L 139.602273 241.60813 
L 139.602273 241.610802 
L 139.602273 241.53153 
L 139.602273 241.763112 
L 139.602273 241.742626 
L 140.553409 241.646341 
L 140.553409 241.613474 
L 140.553409 241.862336 
L 140.553409 241.752602 
L 141.504545 241.78529 
L 141.504545 241.652131 
L 141.504545 241.583191 
L 141.504545 241.704949 
L 141.504545 241.615256 
L 142.455682 241.514607 
L 142.455682 241.478979 
L 142.455682 241.576956 
L 142.455682 241.571611 
L 143.406818 241.571611 
L 143.406818 241.469181 
L 143.406818 241.068366 
L 143.406818 241.082617 
L 144.357955 240.981968 
L 144.357955 240.766418 
L 144.357955 241.205534 
L 144.357955 241.178813 
L 145.309091 241.115573 
L 145.309091 240.777998 
L 145.309091 240.821642 
L 146.260227 240.876865 
L 146.260227 240.738807 
L 146.260227 240.200824 
L 146.260227 240.251594 
L 147.211364 240.116207 
L 147.211364 127.18968 
L 147.211364 127.18968 
L 148.1625 127.01154 
L 148.1625 44.443636 
L 148.1625 155.157665 
L 149.113636 155.228921 
L 149.113636 155.086409 
L 149.113636 121.400129 
L 149.113636 204.573709 
L 150.064773 204.698407 
L 150.064773 194.214866 
L 150.064773 229.246103 
L 151.015909 229.246103 
L 151.015909 229.148126 
L 151.015909 224.543206 
L 151.015909 236.218504 
L 151.967045 236.218504 
L 151.967045 236.123199 
L 151.967045 233.979283 
L 151.967045 239.130202 
L 152.918182 239.15247 
L 152.918182 239.055384 
L 152.918182 238.167355 
L 152.918182 240.833221 
L 152.918182 240.83144 
L 153.869318 240.835893 
L 153.869318 240.734353 
L 153.869318 240.446657 
L 153.869318 241.478088 
L 153.869318 241.397925 
L 154.820455 241.287478 
L 154.820455 240.850144 
L 154.820455 241.319543 
L 154.820455 241.283915 
L 155.771591 241.181485 
L 155.771591 240.853707 
L 155.771591 241.291041 
L 155.771591 241.127152 
L 156.722727 241.142294 
L 156.722727 241.069257 
L 156.722727 240.79403 
L 156.722727 241.322215 
L 156.722727 241.313308 
L 157.673864 241.364078 
L 157.673864 241.219785 
L 157.673864 241.157436 
L 157.673864 241.397034 
L 157.673864 241.36586 
L 158.625 241.247397 
L 158.625 241.046098 
L 158.625 241.273227 
L 158.625 241.169015 
L 159.576136 241.04788 
L 159.576136 240.305927 
L 159.576136 240.329085 
L 160.527273 240.410138 
L 160.527273 240.243578 
L 160.527273 240.223982 
L 160.527273 241.164561 
L 160.527273 241.152982 
L 161.478409 241.045208 
L 161.478409 240.8448 
L 161.478409 241.199299 
L 161.478409 241.170796 
L 162.429545 241.038082 
L 162.429545 230.270408 
L 162.429545 230.50199 
L 163.380682 230.41292 
L 163.380682 222.227386 
L 163.380682 233.236439 
L 164.331818 233.307695 
L 164.331818 233.138462 
L 164.331818 228.854195 
L 164.331818 237.095843 
L 165.282955 236.998757 
L 165.282955 235.064156 
L 165.282955 239.726971 
L 165.282955 239.71183 
L 166.234091 239.734988 
L 166.234091 239.628104 
L 166.234091 238.704448 
L 166.234091 240.754839 
L 166.234091 240.748604 
L 167.185227 240.62836 
L 167.185227 240.109972 
L 167.185227 241.230473 
L 167.185227 241.158327 
L 168.136364 241.06124 
L 168.136364 211.904171 
L 168.136364 212.126846 
L 169.0875 212.019962 
L 169.0875 190.812391 
L 169.0875 219.51075 
L 169.0875 219.475122 
L 170.038636 219.475122 
L 170.038636 219.386052 
L 170.038636 210.176213 
L 170.038636 231.508481 
L 170.038636 231.490667 
L 170.989773 231.561923 
L 170.989773 231.410504 
L 170.989773 227.856611 
L 170.989773 237.087827 
L 170.989773 236.982724 
L 171.940909 236.890982 
L 171.940909 236.895436 
L 171.940909 234.940349 
L 171.940909 238.968986 
L 171.940909 238.928904 
L 172.892045 238.926232 
L 172.892045 239.02599 
L 172.892045 240.276533 
L 172.892045 238.098772 
L 172.892045 240.223091 
L 173.843182 240.231108 
L 173.843182 240.126896 
L 173.843182 239.548831 
L 173.843182 240.957028 
L 174.794318 241.06035 
L 174.794318 241.689273 
L 175.745455 241.691143 
L 175.745455 241.5823 
L 175.745455 241.312418 
L 175.745455 241.542218 
L 176.696591 241.459383 
L 176.696591 241.030956 
L 176.696591 241.185048 
L 177.647727 241.046989 
L 177.647727 240.487629 
L 177.647727 240.673786 
L 178.598864 240.60253 
L 178.598864 240.74237 
L 178.598864 241.475416 
L 179.55 241.606349 
L 179.55 241.518169 
L 179.55 241.759015 
L 180.501136 241.643758 
L 180.501136 241.492339 
L 180.501136 241.739241 
L 180.501136 241.709314 
L 181.452273 241.624163 
L 181.452273 241.274118 
L 181.452273 241.418411 
L 182.403409 241.425537 
L 182.403409 241.321325 
L 182.403409 241.041645 
L 182.403409 241.477197 
L 183.354545 241.364078 
L 183.354545 237.264186 
L 183.354545 237.67747 
L 184.305682 237.58751 
L 184.305682 234.643746 
L 184.305682 238.88526 
L 184.305682 238.871009 
L 185.256818 238.888823 
L 185.256818 238.782829 
L 185.256818 237.200946 
L 185.256818 240.218638 
L 185.256818 240.17054 
L 186.207955 240.060984 
L 186.207955 239.450854 
L 186.207955 241.174359 
L 186.207955 241.109338 
L 187.159091 241.004235 
L 187.159091 241.013142 
L 187.159091 240.525929 
L 187.159091 241.216222 
L 187.159091 241.198408 
L 188.110227 241.083508 
L 188.110227 240.774435 
L 188.110227 241.321325 
L 188.110227 241.190392 
L 189.061364 241.079945 
L 189.061364 233.93653 
L 189.061364 234.358722 
L 190.0125 234.263417 
L 190.0125 229.148126 
L 190.0125 236.443851 
L 190.0125 236.437616 
L 190.963636 236.449195 
L 190.963636 236.369032 
L 190.963636 234.246493 
L 190.963636 239.653934 
L 190.963636 239.601383 
L 191.914773 239.505187 
L 191.914773 238.795299 
L 191.914773 241.042536 
L 191.914773 241.01047 
L 192.865909 240.907149 
L 192.865909 239.882844 
L 192.865909 240.635486 
L 193.817045 240.635486 
L 193.817045 240.59006 
L 193.817045 239.940739 
L 193.817045 241.145857 
L 193.817045 241.111119 
L 194.768182 240.998001 
L 194.768182 240.623016 
L 194.768182 241.360515 
L 194.768182 241.343592 
L 195.719318 241.346264 
L 195.719318 241.258976 
L 195.719318 241.041645 
L 195.719318 241.652309 
L 195.719318 241.639305 
L 196.670455 241.700941 
L 196.670455 241.553797 
L 196.670455 241.400597 
L 196.670455 241.684908 
L 196.670455 241.683394 
L 197.621591 241.578737 
L 197.621591 241.341811 
L 197.621591 241.618819 
L 198.572727 241.639305 
L 198.572727 241.526186 
L 198.572727 241.295494 
L 198.572727 241.542218 
L 198.572727 241.4674 
L 199.523864 241.369422 
L 199.523864 241.140513 
L 199.523864 241.487886 
L 199.523864 241.469181 
L 200.475 241.418411 
L 200.475 241.566267 
L 200.475 241.786805 
L 200.475 241.778076 
L 201.426136 241.703168 
L 201.426136 241.217113 
L 201.426136 241.374767 
L 202.377273 241.270555 
L 202.377273 240.606092 
L 202.377273 241.180594 
L 203.328409 241.101322 
L 203.328409 240.655081 
L 203.328409 241.396143 
L 203.328409 241.308855 
L 204.279545 241.191282 
L 204.279545 239.131984 
L 204.279545 239.637011 
L 205.230682 239.533689 
L 205.230682 238.488898 
L 205.230682 240.586497 
L 205.230682 240.580262 
L 206.181818 240.456455 
L 206.181818 239.821386 
L 206.181818 240.918728 
L 206.181818 240.872412 
L 207.132955 240.777107 
L 207.132955 240.333538 
L 207.132955 240.910712 
L 208.084091 240.827877 
L 208.084091 240.629251 
L 208.084091 241.293713 
L 209.035227 241.318653 
L 209.035227 241.242943 
L 209.035227 241.091524 
L 209.035227 241.523514 
L 209.035227 241.498574 
L 209.986364 241.381892 
L 209.986364 238.054237 
L 209.986364 238.187842 
L 210.9375 238.098772 
L 210.9375 235.524648 
L 210.9375 238.993925 
L 210.9375 238.979674 
L 211.888636 238.874571 
L 211.888636 237.668563 
L 211.888636 239.881953 
L 211.888636 239.791993 
L 212.839773 239.827621 
L 212.839773 239.731425 
L 212.839773 239.327938 
L 212.839773 240.817188 
L 213.790909 240.923182 
L 213.790909 241.564486 
L 213.790909 241.529749 
L 214.742045 241.421974 
L 214.742045 241.071038 
L 214.742045 241.131606 
L 215.693182 241.132496 
L 215.693182 241.037191 
L 215.693182 240.987312 
L 215.693182 241.336467 
L 215.693182 241.299948 
L 216.644318 241.348936 
L 216.644318 241.224238 
L 216.644318 241.179703 
L 216.644318 241.348046 
L 216.644318 241.313308 
L 217.595455 241.20108 
L 217.595455 241.21355 
L 217.595455 241.077273 
L 217.595455 241.288369 
L 218.546591 241.363188 
L 218.546591 241.206424 
L 218.546591 241.139622 
L 218.546591 241.487886 
L 219.497727 241.502137 
L 219.497727 241.412176 
L 219.497727 241.18861 
L 219.497727 241.474525 
L 219.497727 241.474525 
L 220.448864 241.373876 
L 220.448864 241.383674 
L 220.448864 241.144075 
L 220.448864 241.482541 
L 220.448864 241.466509 
L 221.4 241.492339 
L 221.4 241.398816 
L 221.4 241.217113 
L 221.4 241.59566 
L 221.4 241.552016 
L 222.351136 241.55647 
L 222.351136 241.474525 
L 222.351136 241.019377 
L 222.351136 241.118245 
L 223.302273 240.982859 
L 223.302273 240.860833 
L 223.302273 241.4674 
L 223.302273 241.429099 
L 224.253409 241.334685 
L 224.253409 241.106666 
L 224.253409 241.373876 
L 224.253409 241.356062 
L 225.204545 241.237599 
L 225.204545 239.971914 
L 225.204545 240.352243 
L 226.155682 240.372729 
L 226.155682 240.282768 
L 226.155682 239.283403 
L 226.155682 240.740588 
L 226.155682 240.660425 
L 227.106818 240.545525 
L 227.106818 239.383161 
L 227.106818 240.491192 
L 228.057955 240.367385 
L 228.057955 239.571099 
L 228.057955 240.878647 
L 228.057955 240.81897 
L 229.009091 240.83233 
L 229.009091 240.719211 
L 229.009091 240.215966 
L 229.009091 241.154764 
L 229.009091 241.13784 
L 229.960227 241.018487 
L 229.960227 240.809172 
L 229.960227 241.319543 
L 229.960227 241.304401 
L 230.911364 241.326669 
L 230.911364 241.25185 
L 230.911364 239.498952 
L 230.911364 239.895314 
L 231.8625 239.896204 
L 231.8625 239.820495 
L 231.8625 238.544122 
L 231.8625 240.445766 
L 231.8625 240.419045 
L 232.813636 240.42528 
L 232.813636 240.341555 
L 232.813636 239.710048 
L 232.813636 241.182375 
L 232.813636 241.160108 
L 233.764773 241.169015 
L 233.764773 241.067475 
L 233.764773 240.728118 
L 233.764773 241.363188 
L 233.764773 241.247397 
L 234.715909 241.119136 
L 234.715909 240.90804 
L 234.715909 241.370313 
L 235.667045 241.31509 
L 235.667045 241.466509 
L 235.667045 241.617037 
L 235.667045 241.520842 
L 236.618182 241.563595 
L 236.618182 241.420192 
L 236.618182 241.372985 
L 236.618182 241.67805 
L 238.520455 241.766229 
L 238.520455 241.602786 
L 238.520455 240.003979 
L 238.520455 240.172321 
L 239.471591 240.085033 
L 239.471591 239.082105 
L 239.471591 240.78156 
L 239.471591 240.7682 
L 240.422727 240.633704 
L 240.422727 239.914909 
L 240.422727 240.988203 
L 240.422727 240.953466 
L 241.373864 240.953466 
L 241.373864 240.854598 
L 241.373864 240.503662 
L 241.373864 241.283025 
L 241.373864 241.270555 
L 242.325 241.281243 
L 242.325 241.17525 
L 242.325 240.708523 
L 242.325 241.079945 
L 243.276136 241.004235 
L 243.276136 240.721883 
L 243.276136 241.144075 
L 243.276136 240.924963 
L 244.227273 240.779779 
L 244.227273 184.087605 
L 245.178409 183.989628 
L 245.178409 141.975302 
L 245.178409 197.724225 
L 245.178409 197.697504 
L 246.129545 197.563899 
L 246.129545 176.40977 
L 246.129545 218.379561 
L 247.080682 218.397375 
L 247.080682 218.290491 
L 247.080682 210.799703 
L 247.080682 232.880159 
L 248.031818 233.022671 
L 248.031818 232.844531 
L 248.031818 229.931942 
L 248.031818 237.95715 
L 248.031818 237.923304 
L 248.982955 237.983871 
L 248.982955 237.870752 
L 248.982955 237.005882 
L 248.982955 240.516132 
L 248.982955 240.498318 
L 249.934091 240.548197 
L 249.934091 240.411029 
L 249.934091 240.166977 
L 249.934091 241.419302 
L 250.885227 241.307964 
L 250.885227 241.104885 
L 250.885227 241.566267 
L 250.885227 241.509262 
L 251.836364 241.509262 
L 251.836364 241.401488 
L 251.836364 241.083508 
L 251.836364 241.406832 
L 251.836364 241.397925 
L 252.7875 241.500355 
L 252.7875 241.692123 
L 252.7875 241.645183 
L 253.738636 241.513716 
L 253.738636 241.139622 
L 253.738636 241.173468 
L 254.689773 241.288369 
L 254.689773 241.282134 
L 254.689773 241.514607 
L 254.689773 241.496793 
L 255.640909 241.529749 
L 255.640909 241.420192 
L 255.640909 241.110229 
L 256.592045 241.120917 
L 256.592045 241.00958 
L 256.592045 240.769091 
L 256.592045 241.18861 
L 256.592045 241.18772 
L 257.543182 241.228692 
L 257.543182 241.102212 
L 257.543182 240.518804 
L 257.543182 240.521476 
L 258.494318 240.410138 
L 258.494318 239.400084 
L 258.494318 239.485592 
L 259.445455 239.56041 
L 259.445455 239.43215 
L 259.445455 231.267992 
L 259.445455 232.238855 
L 260.396591 232.256669 
L 260.396591 232.185413 
L 260.396591 225.968326 
L 260.396591 234.872656 
L 261.347727 234.878 
L 261.347727 234.795165 
L 261.347727 230.751386 
L 261.347727 237.378195 
L 262.298864 237.265967 
L 262.298864 235.487239 
L 262.298864 239.691343 
L 262.298864 239.67442 
L 263.25 239.580006 
L 263.25 238.829146 
L 263.25 240.721883 
L 263.25 240.712086 
L 264.201136 240.723665 
L 264.201136 240.627469 
L 264.201136 240.103738 
L 264.201136 240.830549 
L 264.201136 240.689818 
L 265.152273 240.614109 
L 265.152273 226.199908 
L 266.103409 226.101931 
L 266.103409 215.057249 
L 266.103409 229.272824 
L 267.054545 229.299545 
L 267.054545 229.272824 
L 267.054545 224.47195 
L 267.054545 235.716149 
L 268.005682 235.613718 
L 268.005682 235.61639 
L 268.005682 233.548185 
L 268.005682 238.828255 
L 268.005682 238.687524 
L 268.956818 238.718699 
L 268.956818 238.636754 
L 268.956818 237.28289 
L 268.956818 239.78843 
L 269.907955 239.886407 
L 269.907955 239.731425 
L 269.907955 238.967204 
L 269.907955 240.707632 
L 269.907955 240.642611 
L 270.859091 240.530383 
L 270.859091 240.105519 
L 270.859091 240.977514 
L 270.859091 240.93387 
L 271.810227 240.943668 
L 271.810227 240.852816 
L 271.810227 240.618562 
L 271.810227 241.08618 
L 271.810227 241.033629 
L 272.761364 241.083508 
L 272.761364 240.954356 
L 272.761364 240.852816 
L 272.761364 241.329341 
L 273.7125 241.387236 
L 273.7125 241.275008 
L 273.7125 241.160999 
L 273.7125 241.481651 
L 273.7125 241.390799 
L 274.663636 241.301729 
L 274.663636 240.874193 
L 274.663636 241.134278 
L 275.614773 241.196627 
L 275.614773 241.065694 
L 275.614773 240.8065 
L 275.614773 241.320434 
L 275.614773 241.291041 
L 276.565909 241.192173 
L 276.565909 240.758402 
L 276.565909 240.955247 
L 277.517045 240.853707 
L 277.517045 240.516132 
L 277.517045 240.973061 
L 277.517045 240.97217 
L 278.468182 240.836784 
L 278.468182 240.744151 
L 278.468182 241.310636 
L 279.419318 241.370313 
L 279.419318 241.232255 
L 279.419318 241.147638 
L 279.419318 241.602786 
L 279.419318 241.602786 
L 280.370455 241.60813 
L 280.370455 241.527076 
L 280.370455 237.941118 
L 280.370455 238.16023 
L 281.321591 238.022171 
L 281.321591 235.15857 
L 281.321591 238.705338 
L 281.321591 238.619831 
L 282.272727 238.537887 
L 282.272727 236.637133 
L 282.272727 239.514985 
L 282.272727 239.453526 
L 283.223864 239.348424 
L 283.223864 238.49157 
L 283.223864 240.422608 
L 284.175 240.337101 
L 284.175 239.524782 
L 284.175 240.484957 
L 285.126136 240.517913 
L 285.126136 240.427952 
L 285.126136 240.1073 
L 285.126136 240.998001 
L 285.126136 240.975733 
L 286.077273 240.866177 
L 286.077273 230.7692 
L 286.077273 230.822642 
L 287.028409 230.822642 
L 287.028409 230.742479 
L 287.028409 223.385296 
L 287.028409 233.565999 
L 287.028409 233.548185 
L 287.979545 233.574906 
L 287.979545 233.557092 
L 287.979545 229.905221 
L 287.979545 237.49844 
L 287.979545 237.476172 
L 288.930682 237.406698 
L 288.930682 236.01097 
L 288.930682 239.906893 
L 288.930682 239.779523 
L 289.881818 239.734097 
L 289.881818 238.445254 
L 289.881818 240.016449 
L 289.881818 240.007542 
L 290.832955 239.908674 
L 290.832955 239.39474 
L 290.832955 240.849254 
L 290.832955 240.740588 
L 291.784091 240.645283 
L 291.784091 240.300582 
L 291.784091 240.905368 
L 291.784091 240.854598 
L 292.735227 240.735244 
L 292.735227 240.6533 
L 292.735227 241.254522 
L 292.735227 241.242943 
L 293.686364 241.342701 
L 293.686364 241.205534 
L 293.686364 240.826095 
L 293.686364 240.834112 
L 294.6375 240.834112 
L 294.6375 240.733463 
L 294.6375 240.312161 
L 294.6375 240.753949 
L 294.6375 240.680021 
L 295.588636 240.57759 
L 295.588636 240.271189 
L 295.588636 240.649737 
L 295.588636 240.619453 
L 296.539773 240.550869 
L 296.539773 240.169649 
L 296.539773 240.702288 
L 296.539773 240.441313 
L 297.490909 240.46358 
L 297.490909 240.351352 
L 297.490909 239.881063 
L 297.490909 240.003088 
L 298.442045 240.090377 
L 298.442045 239.953209 
L 298.442045 239.640574 
L 298.442045 240.306817 
L 298.442045 240.255157 
L 299.393182 240.192808 
L 299.393182 239.525673 
L 299.393182 240.362041 
L 300.344318 240.269408 
L 300.344318 239.822276 
L 300.344318 241.023831 
L 300.344318 240.973061 
L 301.295455 240.849254 
L 301.295455 237.105641 
L 301.295455 237.607996 
L 302.246591 237.616903 
L 302.246591 237.535849 
L 302.246591 234.918081 
L 302.246591 238.646552 
L 302.246591 238.571733 
L 303.197727 238.533433 
L 303.197727 237.073576 
L 303.197727 239.657497 
L 303.197727 239.617415 
L 304.148864 239.50875 
L 304.148864 238.855867 
L 304.148864 240.289003 
L 304.148864 240.128677 
L 305.1 240.143819 
L 305.1 240.05564 
L 305.1 239.220163 
L 305.1 239.767944 
L 306.051136 239.760818 
L 306.051136 239.863249 
L 306.051136 240.409248 
L 306.051136 239.52211 
L 306.051136 240.366494 
L 307.002273 240.237343 
L 307.002273 234.58585 
L 307.002273 234.77646 
L 307.953409 234.683827 
L 307.953409 229.869593 
L 307.953409 235.637767 
L 307.953409 235.607483 
L 308.904545 235.709023 
L 308.904545 238.590438 
L 308.904545 233.59272 
L 308.904545 238.58064 
L 309.855682 238.49157 
L 309.855682 237.812857 
L 309.855682 240.280096 
L 309.855682 240.27208 
L 310.806818 240.301473 
L 310.806818 240.19637 
L 310.806818 239.728753 
L 310.806818 240.687146 
L 310.806818 240.574027 
L 311.757955 240.496536 
L 311.757955 240.029809 
L 311.757955 240.549088 
L 312.709091 240.57759 
L 312.709091 240.489411 
L 312.709091 240.230217 
L 312.709091 240.796702 
L 312.709091 240.795812 
L 313.660227 240.794921 
L 313.660227 240.887554 
L 313.660227 241.185048 
L 313.660227 240.739697 
L 313.660227 241.147638 
L 314.611364 241.051443 
L 314.611364 239.842762 
L 314.611364 239.851669 
L 315.5625 239.754583 
L 315.5625 238.651006 
L 315.5625 238.942265 
L 316.513636 239.043804 
L 316.513636 238.862992 
L 316.513636 238.706229 
L 316.513636 239.88997 
L 317.464773 239.881953 
L 317.464773 239.989728 
L 317.464773 240.075235 
L 317.464773 239.401866 
L 317.464773 239.842762 
L 318.415909 239.748348 
L 318.415909 239.769725 
L 318.415909 239.008176 
L 318.415909 239.620087 
L 319.367045 239.563083 
L 319.367045 239.67442 
L 319.367045 240.049405 
L 319.367045 239.324375 
L 319.367045 239.982602 
L 320.318182 239.910456 
L 320.318182 239.49628 
L 320.318182 240.052968 
L 320.318182 240.037826 
L 321.269318 239.937177 
L 321.269318 239.619197 
L 321.269318 240.427062 
L 321.269318 240.42528 
L 322.220455 240.50099 
L 322.220455 240.418155 
L 322.220455 237.176006 
L 322.220455 237.606214 
L 323.171591 237.523379 
L 323.171591 234.900267 
L 323.171591 238.225251 
L 323.171591 238.191404 
L 324.122727 238.240393 
L 324.122727 238.141525 
L 324.122727 236.842884 
L 324.122727 239.804462 
L 324.122727 239.8009 
L 325.073864 239.904221 
L 325.073864 239.73766 
L 325.073864 238.998379 
L 325.073864 240.269408 
L 325.073864 240.087705 
L 326.025 239.969242 
L 326.025 239.130202 
L 326.025 239.710048 
L 326.976136 239.793774 
L 326.976136 240.574027 
L 326.976136 239.735878 
L 326.976136 240.362931 
L 327.927273 240.248922 
L 327.927273 233.706729 
L 327.927273 233.728106 
L 328.878409 233.686243 
L 328.878409 229.237196 
L 328.878409 235.723274 
L 329.829545 235.872021 
L 329.829545 233.989081 
L 329.829545 238.769469 
L 330.780682 238.691087 
L 330.780682 238.064925 
L 330.780682 240.485848 
L 330.780682 240.464471 
L 331.731818 240.504553 
L 331.731818 240.427062 
L 331.731818 240.175884 
L 331.731818 241.194845 
L 331.731818 241.138731 
L 332.682955 241.195736 
L 332.682955 241.051443 
L 332.682955 240.906258 
L 332.682955 241.218894 
L 332.682955 241.107557 
L 333.634091 241.014033 
L 333.634091 240.816298 
L 333.634091 240.894679 
L 334.585227 241.005126 
L 334.585227 241.180594 
L 334.585227 241.078164 
L 335.536364 240.987312 
L 335.536364 240.331757 
L 335.536364 240.353134 
L 336.4875 240.362041 
L 336.4875 240.265845 
L 336.4875 239.952319 
L 336.4875 240.64083 
L 337.438636 240.537509 
L 337.438636 240.435078 
L 337.438636 240.867958 
L 337.438636 240.859051 
L 338.389773 240.937433 
L 338.389773 240.762856 
L 338.389773 240.504553 
L 338.389773 240.892007 
L 338.389773 240.812735 
L 339.340909 240.735244 
L 339.340909 240.203496 
L 339.340909 240.614109 
L 340.292045 240.595404 
L 340.292045 240.704069 
L 340.292045 241.320434 
L 340.292045 240.64083 
L 340.292045 241.319543 
L 341.243182 241.332013 
L 341.243182 241.263429 
L 341.243182 240.538399 
L 341.243182 240.580262 
L 342.194318 240.484067 
L 342.194318 240.011105 
L 342.194318 241.020268 
L 342.194318 241.006017 
L 343.145455 240.930307 
L 343.145455 239.806244 
L 343.145455 240.29702 
L 344.096591 240.207059 
L 344.096591 239.194333 
L 344.096591 240.509006 
L 344.096591 240.419936 
L 345.047727 240.307708 
L 345.047727 239.855232 
L 345.047727 240.823423 
L 345.047727 240.769981 
L 345.998864 240.685365 
L 345.998864 240.582044 
L 345.998864 241.211769 
L 345.998864 241.199299 
L 347.901136 241.131606 
L 347.901136 241.116464 
L 347.901136 240.978405 
L 347.901136 241.250959 
L 348.852273 241.337357 
L 348.852273 241.334685 
L 348.852273 241.565377 
L 348.852273 241.478088 
L 349.803409 241.40505 
L 349.803409 241.579628 
L 349.803409 241.596551 
L 349.803409 241.492339 
L 350.754545 241.492339 
L 350.754545 241.599223 
L 350.754545 241.637523 
L 350.754545 241.624163 
L 351.705682 241.51906 
L 351.705682 241.454039 
L 351.705682 241.677516 
L 351.705682 241.656673 
L 352.656818 241.534202 
L 352.656818 241.458493 
L 352.656818 241.598332 
L 352.656818 241.570721 
L 353.607955 241.583191 
L 353.607955 241.481651 
L 353.607955 241.286587 
L 353.607955 241.394362 
L 354.559091 241.308855 
L 354.559091 241.065694 
L 354.559091 241.132496 
L 355.510227 241.023831 
L 355.510227 240.9597 
L 355.510227 241.179703 
L 355.510227 241.163671 
L 356.461364 241.07371 
L 356.461364 240.951684 
L 356.461364 241.200189 
L 356.461364 241.158327 
L 357.4125 241.158327 
L 357.4125 241.106666 
L 357.4125 240.722774 
L 357.4125 240.751277 
L 358.363636 240.651518 
L 358.363636 240.432406 
L 358.363636 241.158327 
L 358.363636 241.138731 
L 359.314773 241.152092 
L 359.314773 241.055896 
L 359.314773 241.003345 
L 359.314773 241.332013 
L 359.314773 241.18772 
L 360.265909 241.049661 
L 360.265909 240.956138 
L 360.265909 241.346264 
L 362.168182 241.242052 
L 362.168182 241.063022 
L 362.168182 241.278571 
L 362.168182 241.258976 
L 363.119318 241.273227 
L 363.119318 241.178813 
L 363.119318 241.00958 
L 363.119318 241.279462 
L 363.119318 241.263429 
L 364.070455 241.120917 
L 364.070455 241.106666 
L 364.070455 241.538656 
L 365.021591 241.490558 
L 365.021591 241.634851 
L 365.021591 241.725435 
L 365.021591 241.611693 
L 365.972727 241.504809 
L 365.972727 241.338248 
L 365.972727 241.349827 
L 366.923864 241.241162 
L 366.923864 241.241162 
L 366.923864 241.209096 
L 366.923864 241.39169 
L 366.923864 241.325778 
L 367.875 241.434444 
L 367.875 241.486104 
L 367.875 241.395253 
L 367.875 241.431772 
L 368.826136 241.300839 
L 368.826136 241.223348 
L 368.826136 241.266992 
L 369.777273 241.369422 
L 369.777273 241.367641 
L 369.777273 241.672706 
L 370.728409 241.703079 
L 370.728409 241.583191 
L 370.728409 241.532421 
L 370.728409 241.654179 
L 370.728409 241.589425 
L 371.679545 241.479869 
L 371.679545 241.502137 
L 371.679545 241.163671 
L 371.679545 241.199299 
L 372.630682 241.222457 
L 372.630682 241.112901 
L 372.630682 241.095978 
L 372.630682 241.372985 
L 372.630682 241.339139 
L 373.581818 241.398816 
L 373.581818 241.398816 
" style="fill:none;stroke:#1f77b4;stroke-linecap:square;stroke-width:1.5;"/>
   </g>
   <g id="patch_3">
    <path d="M 54 252 
L 54 34.56 
" style="fill:none;stroke:#000000;stroke-linecap:square;stroke-linejoin:miter;stroke-width:0.8;"/>
   </g>
   <g id="patch_4">
    <path d="M 54 252 
L 388.8 252 
" style="fill:none;stroke:#000000;stroke-linecap:square;stroke-linejoin:miter;stroke-width:0.8;"/>
   </g>
   <g id="text_16">
    <!-- 1472.96 Da -->
    <g transform="translate(129.100234 40.481802)scale(0.1 -0.1)">
     <defs>
      <path d="M 684 794 
L 1344 794 
L 1344 0 
L 684 0 
L 684 794 
z
" id="DejaVuSans-2e" transform="scale(0.015625)"/>
      <path d="M 703 97 
L 703 672 
Q 941 559 1184 500 
Q 1428 441 1663 441 
Q 2288 441 2617 861 
Q 2947 1281 2994 2138 
Q 2813 1869 2534 1725 
Q 2256 1581 1919 1581 
Q 1219 1581 811 2004 
Q 403 2428 403 3163 
Q 403 3881 828 4315 
Q 1253 4750 1959 4750 
Q 2769 4750 3195 4129 
Q 3622 3509 3622 2328 
Q 3622 1225 3098 567 
Q 2575 -91 1691 -91 
Q 1453 -91 1209 -44 
Q 966 3 703 97 
z
M 1959 2075 
Q 2384 2075 2632 2365 
Q 2881 2656 2881 3163 
Q 2881 3666 2632 3958 
Q 2384 4250 1959 4250 
Q 1534 4250 1286 3958 
Q 1038 3666 1038 3163 
Q 1038 2656 1286 2365 
Q 1534 2075 1959 2075 
z
" id="DejaVuSans-39" transform="scale(0.015625)"/>
      <path d="M 1259 4147 
L 1259 519 
L 2022 519 
Q 2988 519 3436 956 
Q 3884 1394 3884 2338 
Q 3884 3275 3436 3711 
Q 2988 4147 2022 4147 
L 1259 4147 
z
M 628 4666 
L 1925 4666 
Q 3281 4666 3915 4102 
Q 4550 3538 4550 2338 
Q 4550 1131 3912 565 
Q 3275 0 1925 0 
L 628 0 
L 628 4666 
z
" id="DejaVuSans-44" transform="scale(0.015625)"/>
     </defs>
     <use xlink:href="#DejaVuSans-31"/>
     <use x="63.623047" xlink:href="#DejaVuSans-34"/>
     <use x="127.246094" xlink:href="#DejaVuSans-37"/>
     <use x="190.869141" xlink:href="#DejaVuSans-32"/>
     <use x="254.492188" xlink:href="#DejaVuSans-2e"/>
     <use x="286.279297" xlink:href="#DejaVuSans-39"/>
     <use x="349.902344" xlink:href="#DejaVuSans-36"/>
     <use x="413.525391" xlink:href="#DejaVuSans-20"/>
     <use x="445.3125" xlink:href="#DejaVuSans-44"/>
     <use x="522.314453" xlink:href="#DejaVuSans-61"/>
    </g>
   </g>
   <g id="text_17">
    <!-- 1560.1 Da -->
    <g transform="translate(240.514241 123.680321)scale(0.1 -0.1)">
     <use xlink:href="#DejaVuSans-31"/>
     <use x="63.623047" xlink:href="#DejaVuSans-35"/>
     <use x="127.246094" xlink:href="#DejaVuSans-36"/>
     <use x="190.869141" xlink:href="#DejaVuSans-30"/>
     <use x="254.492188" xlink:href="#DejaVuSans-2e"/>
     <use x="286.279297" xlink:href="#DejaVuSans-31"/>
     <use x="349.902344" xlink:href="#DejaVuSans-20"/>
     <use x="381.689453" xlink:href="#DejaVuSans-44"/>
     <use x="458.691406" xlink:href="#DejaVuSans-61"/>
    </g>
   </g>
  </g>
 </g>
 <defs>
  <clipPath id="p4ac0b2d953">
   <rect height="217.44" width="334.8" x="54" y="34.56"/>
  </clipPath>
 </defs>
</svg>
