<?xml version="1.0" encoding="utf-8" standalone="no"?>
<!DOCTYPE svg PUBLIC "-//W3C//DTD SVG 1.1//EN"
  "http://www.w3.org/Graphics/SVG/1.1/DTD/svg11.dtd">
<svg height="288pt" version="1.1" viewBox="0 0 432 288" width="432pt" xmlns="http://www.w3.org/2000/svg" xmlns:xlink="http://www.w3.org/1999/xlink">
 <metadata>
  <rdf:RDF xmlns:cc="http://creativecommons.org/ns#" xmlns:dc="http://purl.org/dc/elements/1.1/" xmlns:rdf="http://www.w3.org/1999/02/22-rdf-syntax-ns#">
   <cc:Work>
    <dc:type rdf:resource="http://purl.org/dc/dcmitype/StillImage"/>
    <dc:date>2022-05-08T22:03:26.099661</dc:date>
    <dc:format>image/svg+xml</dc:format>
    <dc:creator>
     <cc:Agent>
      <dc:title>Matplotlib v3.4.2, https://matplotlib.org/</dc:title>
     </cc:Agent>
    </dc:creator>
   </cc:Work>
  </rdf:RDF>
 </metadata>
 <defs>
  <style type="text/css">*{stroke-linecap:butt;stroke-linejoin:round;}</style>
 </defs>
 <g id="figure_1">
  <g id="patch_1">
   <path d="M 0 288 
L 432 288 
L 432 0 
L 0 0 
z
" style="fill:none;"/>
  </g>
  <g id="axes_1">
   <g id="patch_2">
    <path d="M 54 252 
L 388.8 252 
L 388.8 34.56 
L 54 34.56 
z
" style="fill:#ffffff;"/>
   </g>
   <g id="matplotlib.axis_1">
    <g id="xtick_1">
     <g id="line2d_1">
      <defs>
       <path d="M 0 0 
L 0 3.5 
" id="mee34a9c3d8" style="stroke:#000000;stroke-width:0.8;"/>
      </defs>
      <g>
       <use style="stroke:#000000;stroke-width:0.8;" x="88.240909" xlink:href="#mee34a9c3d8" y="252"/>
      </g>
     </g>
     <g id="text_1">
      <!-- 1400 -->
      <g transform="translate(75.515909 266.598437)scale(0.1 -0.1)">
       <defs>
        <path d="M 794 531 
L 1825 531 
L 1825 4091 
L 703 3866 
L 703 4441 
L 1819 4666 
L 2450 4666 
L 2450 531 
L 3481 531 
L 3481 0 
L 794 0 
L 794 531 
z
" id="DejaVuSans-31" transform="scale(0.015625)"/>
        <path d="M 2419 4116 
L 825 1625 
L 2419 1625 
L 2419 4116 
z
M 2253 4666 
L 3047 4666 
L 3047 1625 
L 3713 1625 
L 3713 1100 
L 3047 1100 
L 3047 0 
L 2419 0 
L 2419 1100 
L 313 1100 
L 313 1709 
L 2253 4666 
z
" id="DejaVuSans-34" transform="scale(0.015625)"/>
        <path d="M 2034 4250 
Q 1547 4250 1301 3770 
Q 1056 3291 1056 2328 
Q 1056 1369 1301 889 
Q 1547 409 2034 409 
Q 2525 409 2770 889 
Q 3016 1369 3016 2328 
Q 3016 3291 2770 3770 
Q 2525 4250 2034 4250 
z
M 2034 4750 
Q 2819 4750 3233 4129 
Q 3647 3509 3647 2328 
Q 3647 1150 3233 529 
Q 2819 -91 2034 -91 
Q 1250 -91 836 529 
Q 422 1150 422 2328 
Q 422 3509 836 4129 
Q 1250 4750 2034 4750 
z
" id="DejaVuSans-30" transform="scale(0.015625)"/>
       </defs>
       <use xlink:href="#DejaVuSans-31"/>
       <use x="63.623047" xlink:href="#DejaVuSans-34"/>
       <use x="127.246094" xlink:href="#DejaVuSans-30"/>
       <use x="190.869141" xlink:href="#DejaVuSans-30"/>
      </g>
     </g>
    </g>
    <g id="xtick_2">
     <g id="line2d_2">
      <g>
       <use style="stroke:#000000;stroke-width:0.8;" x="135.797727" xlink:href="#mee34a9c3d8" y="252"/>
      </g>
     </g>
     <g id="text_2">
      <!-- 1450 -->
      <g transform="translate(123.072727 266.598437)scale(0.1 -0.1)">
       <defs>
        <path d="M 691 4666 
L 3169 4666 
L 3169 4134 
L 1269 4134 
L 1269 2991 
Q 1406 3038 1543 3061 
Q 1681 3084 1819 3084 
Q 2600 3084 3056 2656 
Q 3513 2228 3513 1497 
Q 3513 744 3044 326 
Q 2575 -91 1722 -91 
Q 1428 -91 1123 -41 
Q 819 9 494 109 
L 494 744 
Q 775 591 1075 516 
Q 1375 441 1709 441 
Q 2250 441 2565 725 
Q 2881 1009 2881 1497 
Q 2881 1984 2565 2268 
Q 2250 2553 1709 2553 
Q 1456 2553 1204 2497 
Q 953 2441 691 2322 
L 691 4666 
z
" id="DejaVuSans-35" transform="scale(0.015625)"/>
       </defs>
       <use xlink:href="#DejaVuSans-31"/>
       <use x="63.623047" xlink:href="#DejaVuSans-34"/>
       <use x="127.246094" xlink:href="#DejaVuSans-35"/>
       <use x="190.869141" xlink:href="#DejaVuSans-30"/>
      </g>
     </g>
    </g>
    <g id="xtick_3">
     <g id="line2d_3">
      <g>
       <use style="stroke:#000000;stroke-width:0.8;" x="183.354545" xlink:href="#mee34a9c3d8" y="252"/>
      </g>
     </g>
     <g id="text_3">
      <!-- 1500 -->
      <g transform="translate(170.629545 266.598437)scale(0.1 -0.1)">
       <use xlink:href="#DejaVuSans-31"/>
       <use x="63.623047" xlink:href="#DejaVuSans-35"/>
       <use x="127.246094" xlink:href="#DejaVuSans-30"/>
       <use x="190.869141" xlink:href="#DejaVuSans-30"/>
      </g>
     </g>
    </g>
    <g id="xtick_4">
     <g id="line2d_4">
      <g>
       <use style="stroke:#000000;stroke-width:0.8;" x="230.911364" xlink:href="#mee34a9c3d8" y="252"/>
      </g>
     </g>
     <g id="text_4">
      <!-- 1550 -->
      <g transform="translate(218.186364 266.598437)scale(0.1 -0.1)">
       <use xlink:href="#DejaVuSans-31"/>
       <use x="63.623047" xlink:href="#DejaVuSans-35"/>
       <use x="127.246094" xlink:href="#DejaVuSans-35"/>
       <use x="190.869141" xlink:href="#DejaVuSans-30"/>
      </g>
     </g>
    </g>
    <g id="xtick_5">
     <g id="line2d_5">
      <g>
       <use style="stroke:#000000;stroke-width:0.8;" x="278.468182" xlink:href="#mee34a9c3d8" y="252"/>
      </g>
     </g>
     <g id="text_5">
      <!-- 1600 -->
      <g transform="translate(265.743182 266.598437)scale(0.1 -0.1)">
       <defs>
        <path d="M 2113 2584 
Q 1688 2584 1439 2293 
Q 1191 2003 1191 1497 
Q 1191 994 1439 701 
Q 1688 409 2113 409 
Q 2538 409 2786 701 
Q 3034 994 3034 1497 
Q 3034 2003 2786 2293 
Q 2538 2584 2113 2584 
z
M 3366 4563 
L 3366 3988 
Q 3128 4100 2886 4159 
Q 2644 4219 2406 4219 
Q 1781 4219 1451 3797 
Q 1122 3375 1075 2522 
Q 1259 2794 1537 2939 
Q 1816 3084 2150 3084 
Q 2853 3084 3261 2657 
Q 3669 2231 3669 1497 
Q 3669 778 3244 343 
Q 2819 -91 2113 -91 
Q 1303 -91 875 529 
Q 447 1150 447 2328 
Q 447 3434 972 4092 
Q 1497 4750 2381 4750 
Q 2619 4750 2861 4703 
Q 3103 4656 3366 4563 
z
" id="DejaVuSans-36" transform="scale(0.015625)"/>
       </defs>
       <use xlink:href="#DejaVuSans-31"/>
       <use x="63.623047" xlink:href="#DejaVuSans-36"/>
       <use x="127.246094" xlink:href="#DejaVuSans-30"/>
       <use x="190.869141" xlink:href="#DejaVuSans-30"/>
      </g>
     </g>
    </g>
    <g id="xtick_6">
     <g id="line2d_6">
      <g>
       <use style="stroke:#000000;stroke-width:0.8;" x="326.025" xlink:href="#mee34a9c3d8" y="252"/>
      </g>
     </g>
     <g id="text_6">
      <!-- 1650 -->
      <g transform="translate(313.3 266.598437)scale(0.1 -0.1)">
       <use xlink:href="#DejaVuSans-31"/>
       <use x="63.623047" xlink:href="#DejaVuSans-36"/>
       <use x="127.246094" xlink:href="#DejaVuSans-35"/>
       <use x="190.869141" xlink:href="#DejaVuSans-30"/>
      </g>
     </g>
    </g>
    <g id="xtick_7">
     <g id="line2d_7">
      <g>
       <use style="stroke:#000000;stroke-width:0.8;" x="373.581818" xlink:href="#mee34a9c3d8" y="252"/>
      </g>
     </g>
     <g id="text_7">
      <!-- 1700 -->
      <g transform="translate(360.856818 266.598437)scale(0.1 -0.1)">
       <defs>
        <path d="M 525 4666 
L 3525 4666 
L 3525 4397 
L 1831 0 
L 1172 0 
L 2766 4134 
L 525 4134 
L 525 4666 
z
" id="DejaVuSans-37" transform="scale(0.015625)"/>
       </defs>
       <use xlink:href="#DejaVuSans-31"/>
       <use x="63.623047" xlink:href="#DejaVuSans-37"/>
       <use x="127.246094" xlink:href="#DejaVuSans-30"/>
       <use x="190.869141" xlink:href="#DejaVuSans-30"/>
      </g>
     </g>
    </g>
    <g id="text_8">
     <!-- m/z -->
     <g transform="translate(212.221094 280.276563)scale(0.1 -0.1)">
      <defs>
       <path d="M 3328 2828 
Q 3544 3216 3844 3400 
Q 4144 3584 4550 3584 
Q 5097 3584 5394 3201 
Q 5691 2819 5691 2113 
L 5691 0 
L 5113 0 
L 5113 2094 
Q 5113 2597 4934 2840 
Q 4756 3084 4391 3084 
Q 3944 3084 3684 2787 
Q 3425 2491 3425 1978 
L 3425 0 
L 2847 0 
L 2847 2094 
Q 2847 2600 2669 2842 
Q 2491 3084 2119 3084 
Q 1678 3084 1418 2786 
Q 1159 2488 1159 1978 
L 1159 0 
L 581 0 
L 581 3500 
L 1159 3500 
L 1159 2956 
Q 1356 3278 1631 3431 
Q 1906 3584 2284 3584 
Q 2666 3584 2933 3390 
Q 3200 3197 3328 2828 
z
" id="DejaVuSans-6d" transform="scale(0.015625)"/>
       <path d="M 1625 4666 
L 2156 4666 
L 531 -594 
L 0 -594 
L 1625 4666 
z
" id="DejaVuSans-2f" transform="scale(0.015625)"/>
       <path d="M 353 3500 
L 3084 3500 
L 3084 2975 
L 922 459 
L 3084 459 
L 3084 0 
L 275 0 
L 275 525 
L 2438 3041 
L 353 3041 
L 353 3500 
z
" id="DejaVuSans-7a" transform="scale(0.015625)"/>
      </defs>
      <use xlink:href="#DejaVuSans-6d"/>
      <use x="97.412109" xlink:href="#DejaVuSans-2f"/>
      <use x="131.103516" xlink:href="#DejaVuSans-7a"/>
     </g>
    </g>
   </g>
   <g id="matplotlib.axis_2">
    <g id="ytick_1">
     <g id="line2d_8">
      <defs>
       <path d="M 0 0 
L -3.5 0 
" id="m2307b86e1a" style="stroke:#000000;stroke-width:0.8;"/>
      </defs>
      <g>
       <use style="stroke:#000000;stroke-width:0.8;" x="54" xlink:href="#m2307b86e1a" y="242.122949"/>
      </g>
     </g>
     <g id="text_9">
      <!-- 0 -->
      <g transform="translate(40.6375 245.922168)scale(0.1 -0.1)">
       <use xlink:href="#DejaVuSans-30"/>
      </g>
     </g>
    </g>
    <g id="ytick_2">
     <g id="line2d_9">
      <g>
       <use style="stroke:#000000;stroke-width:0.8;" x="54" xlink:href="#m2307b86e1a" y="202.587086"/>
      </g>
     </g>
     <g id="text_10">
      <!-- 20 -->
      <g transform="translate(34.275 206.386305)scale(0.1 -0.1)">
       <defs>
        <path d="M 1228 531 
L 3431 531 
L 3431 0 
L 469 0 
L 469 531 
Q 828 903 1448 1529 
Q 2069 2156 2228 2338 
Q 2531 2678 2651 2914 
Q 2772 3150 2772 3378 
Q 2772 3750 2511 3984 
Q 2250 4219 1831 4219 
Q 1534 4219 1204 4116 
Q 875 4013 500 3803 
L 500 4441 
Q 881 4594 1212 4672 
Q 1544 4750 1819 4750 
Q 2544 4750 2975 4387 
Q 3406 4025 3406 3419 
Q 3406 3131 3298 2873 
Q 3191 2616 2906 2266 
Q 2828 2175 2409 1742 
Q 1991 1309 1228 531 
z
" id="DejaVuSans-32" transform="scale(0.015625)"/>
       </defs>
       <use xlink:href="#DejaVuSans-32"/>
       <use x="63.623047" xlink:href="#DejaVuSans-30"/>
      </g>
     </g>
    </g>
    <g id="ytick_3">
     <g id="line2d_10">
      <g>
       <use style="stroke:#000000;stroke-width:0.8;" x="54" xlink:href="#m2307b86e1a" y="163.051224"/>
      </g>
     </g>
     <g id="text_11">
      <!-- 40 -->
      <g transform="translate(34.275 166.850443)scale(0.1 -0.1)">
       <use xlink:href="#DejaVuSans-34"/>
       <use x="63.623047" xlink:href="#DejaVuSans-30"/>
      </g>
     </g>
    </g>
    <g id="ytick_4">
     <g id="line2d_11">
      <g>
       <use style="stroke:#000000;stroke-width:0.8;" x="54" xlink:href="#m2307b86e1a" y="123.515361"/>
      </g>
     </g>
     <g id="text_12">
      <!-- 60 -->
      <g transform="translate(34.275 127.31458)scale(0.1 -0.1)">
       <use xlink:href="#DejaVuSans-36"/>
       <use x="63.623047" xlink:href="#DejaVuSans-30"/>
      </g>
     </g>
    </g>
    <g id="ytick_5">
     <g id="line2d_12">
      <g>
       <use style="stroke:#000000;stroke-width:0.8;" x="54" xlink:href="#m2307b86e1a" y="83.979499"/>
      </g>
     </g>
     <g id="text_13">
      <!-- 80 -->
      <g transform="translate(34.275 87.778718)scale(0.1 -0.1)">
       <defs>
        <path d="M 2034 2216 
Q 1584 2216 1326 1975 
Q 1069 1734 1069 1313 
Q 1069 891 1326 650 
Q 1584 409 2034 409 
Q 2484 409 2743 651 
Q 3003 894 3003 1313 
Q 3003 1734 2745 1975 
Q 2488 2216 2034 2216 
z
M 1403 2484 
Q 997 2584 770 2862 
Q 544 3141 544 3541 
Q 544 4100 942 4425 
Q 1341 4750 2034 4750 
Q 2731 4750 3128 4425 
Q 3525 4100 3525 3541 
Q 3525 3141 3298 2862 
Q 3072 2584 2669 2484 
Q 3125 2378 3379 2068 
Q 3634 1759 3634 1313 
Q 3634 634 3220 271 
Q 2806 -91 2034 -91 
Q 1263 -91 848 271 
Q 434 634 434 1313 
Q 434 1759 690 2068 
Q 947 2378 1403 2484 
z
M 1172 3481 
Q 1172 3119 1398 2916 
Q 1625 2713 2034 2713 
Q 2441 2713 2670 2916 
Q 2900 3119 2900 3481 
Q 2900 3844 2670 4047 
Q 2441 4250 2034 4250 
Q 1625 4250 1398 4047 
Q 1172 3844 1172 3481 
z
" id="DejaVuSans-38" transform="scale(0.015625)"/>
       </defs>
       <use xlink:href="#DejaVuSans-38"/>
       <use x="63.623047" xlink:href="#DejaVuSans-30"/>
      </g>
     </g>
    </g>
    <g id="ytick_6">
     <g id="line2d_13">
      <g>
       <use style="stroke:#000000;stroke-width:0.8;" x="54" xlink:href="#m2307b86e1a" y="44.443636"/>
      </g>
     </g>
     <g id="text_14">
      <!-- 100 -->
      <g transform="translate(27.9125 48.242855)scale(0.1 -0.1)">
       <use xlink:href="#DejaVuSans-31"/>
       <use x="63.623047" xlink:href="#DejaVuSans-30"/>
       <use x="127.246094" xlink:href="#DejaVuSans-30"/>
      </g>
     </g>
    </g>
    <g id="text_15">
     <!-- Abundance (%) -->
     <g transform="translate(21.832812 181.68625)rotate(-90)scale(0.1 -0.1)">
      <defs>
       <path d="M 2188 4044 
L 1331 1722 
L 3047 1722 
L 2188 4044 
z
M 1831 4666 
L 2547 4666 
L 4325 0 
L 3669 0 
L 3244 1197 
L 1141 1197 
L 716 0 
L 50 0 
L 1831 4666 
z
" id="DejaVuSans-41" transform="scale(0.015625)"/>
       <path d="M 3116 1747 
Q 3116 2381 2855 2742 
Q 2594 3103 2138 3103 
Q 1681 3103 1420 2742 
Q 1159 2381 1159 1747 
Q 1159 1113 1420 752 
Q 1681 391 2138 391 
Q 2594 391 2855 752 
Q 3116 1113 3116 1747 
z
M 1159 2969 
Q 1341 3281 1617 3432 
Q 1894 3584 2278 3584 
Q 2916 3584 3314 3078 
Q 3713 2572 3713 1747 
Q 3713 922 3314 415 
Q 2916 -91 2278 -91 
Q 1894 -91 1617 61 
Q 1341 213 1159 525 
L 1159 0 
L 581 0 
L 581 4863 
L 1159 4863 
L 1159 2969 
z
" id="DejaVuSans-62" transform="scale(0.015625)"/>
       <path d="M 544 1381 
L 544 3500 
L 1119 3500 
L 1119 1403 
Q 1119 906 1312 657 
Q 1506 409 1894 409 
Q 2359 409 2629 706 
Q 2900 1003 2900 1516 
L 2900 3500 
L 3475 3500 
L 3475 0 
L 2900 0 
L 2900 538 
Q 2691 219 2414 64 
Q 2138 -91 1772 -91 
Q 1169 -91 856 284 
Q 544 659 544 1381 
z
M 1991 3584 
L 1991 3584 
z
" id="DejaVuSans-75" transform="scale(0.015625)"/>
       <path d="M 3513 2113 
L 3513 0 
L 2938 0 
L 2938 2094 
Q 2938 2591 2744 2837 
Q 2550 3084 2163 3084 
Q 1697 3084 1428 2787 
Q 1159 2491 1159 1978 
L 1159 0 
L 581 0 
L 581 3500 
L 1159 3500 
L 1159 2956 
Q 1366 3272 1645 3428 
Q 1925 3584 2291 3584 
Q 2894 3584 3203 3211 
Q 3513 2838 3513 2113 
z
" id="DejaVuSans-6e" transform="scale(0.015625)"/>
       <path d="M 2906 2969 
L 2906 4863 
L 3481 4863 
L 3481 0 
L 2906 0 
L 2906 525 
Q 2725 213 2448 61 
Q 2172 -91 1784 -91 
Q 1150 -91 751 415 
Q 353 922 353 1747 
Q 353 2572 751 3078 
Q 1150 3584 1784 3584 
Q 2172 3584 2448 3432 
Q 2725 3281 2906 2969 
z
M 947 1747 
Q 947 1113 1208 752 
Q 1469 391 1925 391 
Q 2381 391 2643 752 
Q 2906 1113 2906 1747 
Q 2906 2381 2643 2742 
Q 2381 3103 1925 3103 
Q 1469 3103 1208 2742 
Q 947 2381 947 1747 
z
" id="DejaVuSans-64" transform="scale(0.015625)"/>
       <path d="M 2194 1759 
Q 1497 1759 1228 1600 
Q 959 1441 959 1056 
Q 959 750 1161 570 
Q 1363 391 1709 391 
Q 2188 391 2477 730 
Q 2766 1069 2766 1631 
L 2766 1759 
L 2194 1759 
z
M 3341 1997 
L 3341 0 
L 2766 0 
L 2766 531 
Q 2569 213 2275 61 
Q 1981 -91 1556 -91 
Q 1019 -91 701 211 
Q 384 513 384 1019 
Q 384 1609 779 1909 
Q 1175 2209 1959 2209 
L 2766 2209 
L 2766 2266 
Q 2766 2663 2505 2880 
Q 2244 3097 1772 3097 
Q 1472 3097 1187 3025 
Q 903 2953 641 2809 
L 641 3341 
Q 956 3463 1253 3523 
Q 1550 3584 1831 3584 
Q 2591 3584 2966 3190 
Q 3341 2797 3341 1997 
z
" id="DejaVuSans-61" transform="scale(0.015625)"/>
       <path d="M 3122 3366 
L 3122 2828 
Q 2878 2963 2633 3030 
Q 2388 3097 2138 3097 
Q 1578 3097 1268 2742 
Q 959 2388 959 1747 
Q 959 1106 1268 751 
Q 1578 397 2138 397 
Q 2388 397 2633 464 
Q 2878 531 3122 666 
L 3122 134 
Q 2881 22 2623 -34 
Q 2366 -91 2075 -91 
Q 1284 -91 818 406 
Q 353 903 353 1747 
Q 353 2603 823 3093 
Q 1294 3584 2113 3584 
Q 2378 3584 2631 3529 
Q 2884 3475 3122 3366 
z
" id="DejaVuSans-63" transform="scale(0.015625)"/>
       <path d="M 3597 1894 
L 3597 1613 
L 953 1613 
Q 991 1019 1311 708 
Q 1631 397 2203 397 
Q 2534 397 2845 478 
Q 3156 559 3463 722 
L 3463 178 
Q 3153 47 2828 -22 
Q 2503 -91 2169 -91 
Q 1331 -91 842 396 
Q 353 884 353 1716 
Q 353 2575 817 3079 
Q 1281 3584 2069 3584 
Q 2775 3584 3186 3129 
Q 3597 2675 3597 1894 
z
M 3022 2063 
Q 3016 2534 2758 2815 
Q 2500 3097 2075 3097 
Q 1594 3097 1305 2825 
Q 1016 2553 972 2059 
L 3022 2063 
z
" id="DejaVuSans-65" transform="scale(0.015625)"/>
       <path id="DejaVuSans-20" transform="scale(0.015625)"/>
       <path d="M 1984 4856 
Q 1566 4138 1362 3434 
Q 1159 2731 1159 2009 
Q 1159 1288 1364 580 
Q 1569 -128 1984 -844 
L 1484 -844 
Q 1016 -109 783 600 
Q 550 1309 550 2009 
Q 550 2706 781 3412 
Q 1013 4119 1484 4856 
L 1984 4856 
z
" id="DejaVuSans-28" transform="scale(0.015625)"/>
       <path d="M 4653 2053 
Q 4381 2053 4226 1822 
Q 4072 1591 4072 1178 
Q 4072 772 4226 539 
Q 4381 306 4653 306 
Q 4919 306 5073 539 
Q 5228 772 5228 1178 
Q 5228 1588 5073 1820 
Q 4919 2053 4653 2053 
z
M 4653 2450 
Q 5147 2450 5437 2106 
Q 5728 1763 5728 1178 
Q 5728 594 5436 251 
Q 5144 -91 4653 -91 
Q 4153 -91 3862 251 
Q 3572 594 3572 1178 
Q 3572 1766 3864 2108 
Q 4156 2450 4653 2450 
z
M 1428 4353 
Q 1159 4353 1004 4120 
Q 850 3888 850 3481 
Q 850 3069 1003 2837 
Q 1156 2606 1428 2606 
Q 1700 2606 1854 2837 
Q 2009 3069 2009 3481 
Q 2009 3884 1853 4118 
Q 1697 4353 1428 4353 
z
M 4250 4750 
L 4750 4750 
L 1831 -91 
L 1331 -91 
L 4250 4750 
z
M 1428 4750 
Q 1922 4750 2215 4408 
Q 2509 4066 2509 3481 
Q 2509 2891 2217 2550 
Q 1925 2209 1428 2209 
Q 931 2209 642 2551 
Q 353 2894 353 3481 
Q 353 4063 643 4406 
Q 934 4750 1428 4750 
z
" id="DejaVuSans-25" transform="scale(0.015625)"/>
       <path d="M 513 4856 
L 1013 4856 
Q 1481 4119 1714 3412 
Q 1947 2706 1947 2009 
Q 1947 1309 1714 600 
Q 1481 -109 1013 -844 
L 513 -844 
Q 928 -128 1133 580 
Q 1338 1288 1338 2009 
Q 1338 2731 1133 3434 
Q 928 4138 513 4856 
z
" id="DejaVuSans-29" transform="scale(0.015625)"/>
      </defs>
      <use xlink:href="#DejaVuSans-41"/>
      <use x="68.408203" xlink:href="#DejaVuSans-62"/>
      <use x="131.884766" xlink:href="#DejaVuSans-75"/>
      <use x="195.263672" xlink:href="#DejaVuSans-6e"/>
      <use x="258.642578" xlink:href="#DejaVuSans-64"/>
      <use x="322.119141" xlink:href="#DejaVuSans-61"/>
      <use x="383.398438" xlink:href="#DejaVuSans-6e"/>
      <use x="446.777344" xlink:href="#DejaVuSans-63"/>
      <use x="501.757812" xlink:href="#DejaVuSans-65"/>
      <use x="563.28125" xlink:href="#DejaVuSans-20"/>
      <use x="595.068359" xlink:href="#DejaVuSans-28"/>
      <use x="634.082031" xlink:href="#DejaVuSans-25"/>
      <use x="729.101562" xlink:href="#DejaVuSans-29"/>
     </g>
    </g>
   </g>
   <g id="line2d_14">
    <path clip-path="url(#p470da85bd6)" d="M 69.218182 241.534622 
L 69.218182 241.704836 
L 69.218182 241.445737 
L 69.218182 241.674971 
L 70.169318 241.581375 
L 70.169318 241.483602 
L 70.169318 241.584486 
L 70.169318 241.510978 
L 71.120455 241.398806 
L 71.120455 241.40405 
L 71.120455 241.263968 
L 71.120455 241.430182 
L 71.120455 241.356764 
L 72.071591 241.237481 
L 72.071591 241.203882 
L 72.071591 241.366363 
L 72.071591 241.264857 
L 73.022727 241.168328 
L 73.022727 241.362275 
L 73.022727 241.415961 
L 73.022727 241.398895 
L 73.973864 241.336143 
L 73.973864 241.504579 
L 73.973864 241.560932 
L 73.973864 241.553999 
L 75.876136 241.640928 
L 75.876136 241.447337 
L 75.876136 241.302989 
L 75.876136 241.312766 
L 76.827273 241.314721 
L 76.827273 241.234459 
L 76.827273 240.603022 
L 76.827273 240.835011 
L 77.778409 240.836789 
L 77.778409 240.747904 
L 77.778409 240.190598 
L 77.778409 240.926562 
L 77.778409 240.926562 
L 78.729545 240.8279 
L 78.729545 240.668797 
L 78.729545 241.309922 
L 78.729545 241.308855 
L 79.680682 241.22877 
L 79.680682 241.114998 
L 79.680682 241.439071 
L 80.631818 241.460581 
L 80.631818 241.357919 
L 80.631818 241.257124 
L 80.631818 241.589552 
L 80.631818 241.5324 
L 81.582955 241.532577 
L 81.582955 241.42796 
L 81.582955 241.257035 
L 81.582955 241.303789 
L 82.534091 241.245658 
L 82.534091 241.391429 
L 82.534091 241.542799 
L 83.485227 241.642439 
L 83.485227 241.507868 
L 83.485227 241.313121 
L 83.485227 241.364941 
L 84.436364 241.255524 
L 84.436364 241.255524 
L 84.436364 241.194105 
L 84.436364 241.468581 
L 84.436364 241.447248 
L 85.3875 241.545021 
L 85.3875 241.590619 
L 85.3875 241.491868 
L 86.338636 241.386896 
L 86.338636 241.258724 
L 86.338636 241.406272 
L 86.338636 241.390362 
L 88.240909 241.295256 
L 88.240909 241.130108 
L 88.240909 241.229659 
L 90.143182 241.150552 
L 90.143182 241.293033 
L 90.143182 241.345564 
L 91.094318 241.347786 
L 91.094318 241.241303 
L 91.094318 241.185216 
L 91.094318 241.319254 
L 91.094318 241.287789 
L 92.045455 241.396851 
L 92.045455 241.240592 
L 92.045455 240.831456 
L 92.045455 240.927451 
L 92.996591 240.843011 
L 92.996591 238.089366 
L 92.996591 238.50268 
L 93.947727 238.524012 
L 93.947727 238.458237 
L 93.947727 234.581092 
L 93.947727 237.413844 
L 94.898864 237.274295 
L 94.898864 234.204221 
L 94.898864 238.180029 
L 94.898864 238.04848 
L 95.85 237.998704 
L 95.85 236.649436 
L 95.85 239.899945 
L 95.85 239.836837 
L 96.801136 239.751508 
L 96.801136 239.751508 
L 96.801136 239.451078 
L 96.801136 240.95945 
L 96.801136 240.898119 
L 97.752273 240.806568 
L 97.752273 240.619911 
L 97.752273 241.137219 
L 98.703409 241.162995 
L 98.703409 241.050112 
L 98.703409 241.000337 
L 98.703409 241.365119 
L 99.654545 241.377652 
L 99.654545 241.259791 
L 99.654545 241.234903 
L 99.654545 241.551421 
L 100.605682 241.452404 
L 100.605682 241.356142 
L 100.605682 241.544844 
L 100.605682 241.495601 
L 101.556818 241.495601 
L 101.556818 241.385029 
L 101.556818 241.349209 
L 101.556818 241.568487 
L 101.556818 241.472225 
L 102.507955 241.358541 
L 102.507955 241.366186 
L 102.507955 241.343253 
L 102.507955 241.456759 
L 102.507955 241.42956 
L 104.410227 241.505557 
L 104.410227 241.471869 
L 104.410227 241.100776 
L 104.410227 241.162995 
L 105.361364 241.060778 
L 105.361364 241.234992 
L 105.361364 241.339698 
L 105.361364 241.239436 
L 106.3125 241.250991 
L 106.3125 241.135441 
L 106.3125 241.017225 
L 106.3125 241.201216 
L 106.3125 241.154996 
L 107.263636 241.052778 
L 107.263636 241.10522 
L 107.263636 240.715906 
L 108.214773 240.642132 
L 108.214773 240.391477 
L 108.214773 240.395033 
L 109.165909 240.321258 
L 109.165909 240.498139 
L 109.165909 240.515027 
L 109.165909 238.354243 
L 109.165909 238.650228 
L 110.117045 238.660005 
L 110.117045 238.557788 
L 110.117045 226.932574 
L 110.117045 229.252461 
L 111.068182 229.288015 
L 111.068182 229.190242 
L 111.068182 220.968418 
L 111.068182 232.825621 
L 111.068182 232.816733 
L 112.019318 232.816733 
L 112.019318 232.71896 
L 112.019318 229.154688 
L 112.019318 237.600501 
L 112.019318 237.581836 
L 112.970455 237.469841 
L 112.970455 236.332118 
L 112.970455 240.024384 
L 112.970455 239.970164 
L 113.921591 240.027939 
L 113.921591 239.921278 
L 113.921591 239.570184 
L 113.921591 240.79768 
L 113.921591 240.715906 
L 114.872727 240.605689 
L 114.872727 240.605689 
L 114.872727 240.007496 
L 114.872727 240.260817 
L 115.823864 240.285705 
L 115.823864 240.164821 
L 115.823864 240.059938 
L 115.823864 240.730127 
L 116.775 240.819901 
L 116.775 240.662575 
L 116.775 240.608356 
L 116.775 240.899897 
L 116.775 240.879454 
L 117.726136 240.979004 
L 117.726136 240.969227 
L 117.726136 241.327965 
L 117.726136 241.314721 
L 118.677273 241.330187 
L 118.677273 241.214548 
L 118.677273 241.140774 
L 118.677273 241.27019 
L 119.628409 241.157662 
L 119.628409 241.019002 
L 119.628409 241.246636 
L 119.628409 241.189661 
L 120.579545 241.086555 
L 120.579545 241.086555 
L 120.579545 241.059 
L 120.579545 241.233214 
L 121.530682 241.134552 
L 121.530682 241.019002 
L 121.530682 241.233214 
L 121.530682 241.201216 
L 122.481818 241.238903 
L 122.481818 241.114109 
L 122.481818 240.899008 
L 122.481818 241.214548 
L 122.481818 241.202105 
L 123.432955 241.095443 
L 123.432955 241.075888 
L 123.432955 241.402984 
L 123.432955 241.368852 
L 125.335227 241.256591 
L 125.335227 241.050112 
L 126.286364 241.076777 
L 126.286364 240.954117 
L 126.286364 235.053069 
L 126.286364 235.205951 
L 127.2375 235.128621 
L 127.2375 231.243476 
L 127.2375 237.364068 
L 128.188636 237.292072 
L 128.188636 235.418385 
L 128.188636 239.528408 
L 128.188636 239.513297 
L 129.139773 239.514186 
L 129.139773 239.412858 
L 129.139773 238.724891 
L 129.139773 240.580801 
L 129.139773 240.482139 
L 130.090909 240.483917 
L 130.090909 240.386144 
L 130.090909 238.907105 
L 130.090909 239.659957 
L 131.042045 239.755064 
L 131.042045 239.590627 
L 131.042045 238.376464 
L 131.042045 239.88839 
L 131.042045 239.868836 
L 131.993182 239.89639 
L 131.993182 239.829727 
L 131.993182 239.11865 
L 131.993182 240.684796 
L 132.944318 240.582579 
L 132.944318 240.378144 
L 132.944318 241.298011 
L 132.944318 241.252769 
L 133.895455 241.299255 
L 133.895455 241.19766 
L 133.895455 240.65102 
L 133.895455 241.02078 
L 134.846591 241.024335 
L 134.846591 240.934562 
L 134.846591 240.544359 
L 134.846591 241.133663 
L 134.846591 241.070555 
L 135.797727 241.075 
L 135.797727 240.971005 
L 135.797727 240.65902 
L 135.797727 241.048334 
L 135.797727 240.963894 
L 136.748864 240.877676 
L 136.748864 240.655464 
L 136.748864 241.077666 
L 136.748864 241.019002 
L 137.7 241.082999 
L 137.7 240.92034 
L 137.7 240.811012 
L 137.7 241.130997 
L 137.7 241.078555 
L 138.651136 241.092777 
L 138.651136 240.987004 
L 138.651136 240.90523 
L 138.651136 241.32681 
L 138.651136 241.315077 
L 139.602273 241.19766 
L 139.602273 241.200327 
L 139.602273 241.12122 
L 139.602273 241.35232 
L 139.602273 241.331876 
L 140.553409 241.235792 
L 140.553409 241.202993 
L 140.553409 241.451337 
L 140.553409 241.341831 
L 141.504545 241.374452 
L 141.504545 241.241569 
L 141.504545 241.172773 
L 141.504545 241.294278 
L 141.504545 241.204771 
L 142.455682 241.104332 
L 142.455682 241.068778 
L 142.455682 241.166551 
L 142.455682 241.161218 
L 143.406818 241.161218 
L 143.406818 241.059 
L 143.406818 240.65902 
L 143.406818 240.673241 
L 144.357955 240.572802 
L 144.357955 240.357701 
L 144.357955 240.795902 
L 144.357955 240.769237 
L 145.309091 240.706129 
L 145.309091 240.369256 
L 145.309091 240.412809 
L 146.260227 240.467918 
L 146.260227 240.330147 
L 146.260227 239.793284 
L 146.260227 239.843948 
L 147.211364 239.708844 
L 147.211364 127.017414 
L 147.211364 127.017414 
L 148.1625 126.839645 
L 148.1625 44.443636 
L 148.1625 154.927173 
L 149.113636 154.998281 
L 149.113636 154.856065 
L 149.113636 121.239916 
L 149.113636 204.24034 
L 150.064773 204.364778 
L 150.064773 193.903063 
L 150.064773 228.861369 
L 151.015909 228.861369 
L 151.015909 228.763596 
L 151.015909 224.168263 
L 151.015909 235.819254 
L 151.967045 235.819254 
L 151.967045 235.724148 
L 151.967045 233.584696 
L 151.967045 238.724891 
L 152.918182 238.747112 
L 152.918182 238.650228 
L 152.918182 237.764049 
L 152.918182 240.424364 
L 152.918182 240.422587 
L 153.869318 240.427031 
L 153.869318 240.325703 
L 153.869318 240.038605 
L 153.869318 241.067889 
L 153.869318 240.987893 
L 154.820455 240.877676 
L 154.820455 240.441253 
L 154.820455 240.909674 
L 154.820455 240.87412 
L 155.771591 240.771903 
L 155.771591 240.444808 
L 155.771591 240.881231 
L 155.771591 240.717684 
L 156.722727 240.732794 
L 156.722727 240.659909 
L 156.722727 240.385255 
L 156.722727 240.912341 
L 156.722727 240.903452 
L 157.673864 240.954117 
L 157.673864 240.810124 
L 157.673864 240.747904 
L 157.673864 240.987004 
L 157.673864 240.955894 
L 158.625 240.837678 
L 158.625 240.636799 
L 158.625 240.863454 
L 158.625 240.759459 
L 159.576136 240.638576 
L 159.576136 239.898168 
L 159.576136 239.921278 
L 160.527273 240.002163 
L 160.527273 239.835949 
L 160.527273 239.816394 
L 160.527273 240.755015 
L 160.527273 240.74346 
L 161.478409 240.63591 
L 161.478409 240.435919 
L 161.478409 240.78968 
L 161.478409 240.761237 
L 162.429545 240.628799 
L 162.429545 229.883542 
L 162.429545 230.114642 
L 163.380682 230.025757 
L 163.380682 221.857264 
L 163.380682 232.843398 
L 164.331818 232.914506 
L 164.331818 232.745625 
L 164.331818 228.470277 
L 164.331818 236.694767 
L 165.282955 236.597883 
L 165.282955 234.66731 
L 165.282955 239.320418 
L 165.282955 239.305308 
L 166.234091 239.328418 
L 166.234091 239.221756 
L 166.234091 238.300023 
L 166.234091 240.346146 
L 166.234091 240.339924 
L 167.185227 240.21993 
L 167.185227 239.702622 
L 167.185227 240.82079 
L 167.185227 240.748793 
L 168.136364 240.651909 
L 168.136364 211.555541 
L 168.136364 211.777752 
L 169.0875 211.671091 
L 169.0875 190.507672 
L 169.0875 219.146284 
L 169.0875 219.11073 
L 170.038636 219.11073 
L 170.038636 219.021846 
L 170.038636 209.83118 
L 170.038636 231.119037 
L 170.038636 231.101261 
L 170.989773 231.172368 
L 170.989773 231.021264 
L 170.989773 227.47477 
L 170.989773 236.686768 
L 170.989773 236.581884 
L 171.940909 236.490333 
L 171.940909 236.494777 
L 171.940909 234.54376 
L 171.940909 238.56401 
L 171.940909 238.524012 
L 172.892045 238.521346 
L 172.892045 238.620896 
L 172.892045 239.868836 
L 172.892045 237.695608 
L 172.892045 239.815505 
L 173.843182 239.823505 
L 173.843182 239.71951 
L 173.843182 239.142649 
L 173.843182 240.547914 
L 174.794318 240.65102 
L 174.794318 241.278634 
L 175.745455 241.280501 
L 175.745455 241.171884 
L 175.745455 240.902564 
L 175.745455 241.131886 
L 176.696591 241.049223 
L 176.696591 240.621688 
L 176.696591 240.775459 
L 177.647727 240.637687 
L 177.647727 240.079492 
L 177.647727 240.265261 
L 178.598864 240.194153 
L 178.598864 240.333702 
L 178.598864 241.065222 
L 179.55 241.195883 
L 179.55 241.107887 
L 179.55 241.348231 
L 180.501136 241.233214 
L 180.501136 241.08211 
L 180.501136 241.328498 
L 180.501136 241.298633 
L 181.452273 241.21366 
L 181.452273 240.864343 
L 181.452273 241.008336 
L 182.403409 241.015447 
L 182.403409 240.911452 
L 182.403409 240.632354 
L 182.403409 241.067 
L 183.354545 240.954117 
L 183.354545 236.862759 
L 183.354545 237.275184 
L 184.305682 237.18541 
L 184.305682 234.247775 
L 184.305682 238.480459 
L 184.305682 238.466237 
L 185.256818 238.484014 
L 185.256818 238.378241 
L 185.256818 236.799651 
L 185.256818 239.811061 
L 185.256818 239.763063 
L 186.207955 239.653735 
L 186.207955 239.044876 
L 186.207955 240.764792 
L 186.207955 240.699907 
L 187.159091 240.595023 
L 187.159091 240.603911 
L 187.159091 240.117713 
L 187.159091 240.806568 
L 187.159091 240.788791 
L 188.110227 240.67413 
L 188.110227 240.365701 
L 188.110227 240.911452 
L 188.110227 240.780792 
L 189.061364 240.670575 
L 189.061364 233.542031 
L 189.061364 233.963344 
L 190.0125 233.868238 
L 190.0125 228.763596 
L 190.0125 236.044132 
L 190.0125 236.03791 
L 190.963636 236.049465 
L 190.963636 235.969469 
L 190.963636 233.85135 
L 190.963636 239.247533 
L 190.963636 239.195091 
L 191.914773 239.099095 
L 191.914773 238.390685 
L 191.914773 240.633243 
L 191.914773 240.601245 
L 192.865909 240.498139 
L 192.865909 239.475966 
L 192.865909 240.227041 
L 193.817045 240.227041 
L 193.817045 240.18171 
L 193.817045 239.533741 
L 193.817045 240.736349 
L 193.817045 240.701684 
L 194.768182 240.588801 
L 194.768182 240.214597 
L 194.768182 240.950561 
L 194.768182 240.933673 
L 195.719318 240.93634 
L 195.719318 240.849233 
L 195.719318 240.632354 
L 195.719318 241.241747 
L 195.719318 241.22877 
L 196.670455 241.290278 
L 196.670455 241.143441 
L 196.670455 240.990559 
L 196.670455 241.274279 
L 196.670455 241.272768 
L 197.621591 241.168328 
L 197.621591 240.931895 
L 197.621591 241.208326 
L 198.572727 241.22877 
L 198.572727 241.115887 
L 198.572727 240.885675 
L 198.572727 241.131886 
L 198.572727 241.057223 
L 199.523864 240.95945 
L 199.523864 240.731016 
L 199.523864 241.077666 
L 199.523864 241.059 
L 200.475 241.008336 
L 200.475 241.155885 
L 200.475 241.375963 
L 200.475 241.367252 
L 201.426136 241.2925 
L 201.426136 240.807457 
L 201.426136 240.964783 
L 202.377273 240.860788 
L 202.377273 240.197709 
L 202.377273 240.771014 
L 203.328409 240.691907 
L 203.328409 240.246595 
L 203.328409 240.986115 
L 203.328409 240.899008 
L 204.279545 240.78168 
L 204.279545 238.726669 
L 204.279545 239.230645 
L 205.230682 239.127538 
L 205.230682 238.084922 
L 205.230682 240.178154 
L 205.230682 240.171932 
L 206.181818 240.048383 
L 206.181818 239.414636 
L 206.181818 240.509694 
L 206.181818 240.463474 
L 207.132955 240.368367 
L 207.132955 239.925722 
L 207.132955 240.501694 
L 208.084091 240.419031 
L 208.084091 240.220819 
L 208.084091 240.883898 
L 209.035227 240.908785 
L 209.035227 240.833234 
L 209.035227 240.68213 
L 209.035227 241.11322 
L 209.035227 241.088332 
L 209.986364 240.971893 
L 209.986364 237.651165 
L 209.986364 237.784492 
L 210.9375 237.695608 
L 210.9375 235.126843 
L 210.9375 238.588898 
L 210.9375 238.574676 
L 211.888636 238.469792 
L 211.888636 237.266295 
L 211.888636 239.475077 
L 211.888636 239.385304 
L 212.839773 239.420858 
L 212.839773 239.324862 
L 212.839773 238.922215 
L 212.839773 240.408365 
L 213.790909 240.514138 
L 213.790909 241.154107 
L 213.790909 241.119442 
L 214.742045 241.011892 
L 214.742045 240.661686 
L 214.742045 240.722128 
L 215.693182 240.723017 
L 215.693182 240.62791 
L 215.693182 240.578135 
L 215.693182 240.926562 
L 215.693182 240.89012 
L 216.644318 240.939006 
L 216.644318 240.795013 
L 216.644318 240.770125 
L 216.644318 240.938117 
L 216.644318 240.903452 
L 217.595455 240.791458 
L 217.595455 240.803902 
L 217.595455 240.667908 
L 217.595455 240.878565 
L 218.546591 240.953228 
L 218.546591 240.796791 
L 218.546591 240.730127 
L 218.546591 241.077666 
L 219.497727 241.091888 
L 219.497727 241.002114 
L 219.497727 240.779014 
L 219.497727 241.064333 
L 219.497727 241.064333 
L 220.448864 240.963894 
L 220.448864 240.973671 
L 220.448864 240.734572 
L 220.448864 241.072333 
L 220.448864 241.056334 
L 221.4 241.08211 
L 221.4 240.988782 
L 221.4 240.807457 
L 221.4 241.185216 
L 221.4 241.141663 
L 222.351136 241.146107 
L 222.351136 241.064333 
L 222.351136 240.610133 
L 222.351136 240.708795 
L 223.302273 240.573691 
L 223.302273 240.451919 
L 223.302273 241.057223 
L 223.302273 241.019002 
L 224.253409 240.924785 
L 224.253409 240.69724 
L 224.253409 240.963894 
L 224.253409 240.946117 
L 225.204545 240.8279 
L 225.204545 239.564851 
L 225.204545 239.944388 
L 226.155682 239.964831 
L 226.155682 239.875058 
L 226.155682 238.877773 
L 226.155682 240.331925 
L 226.155682 240.251928 
L 227.106818 240.137267 
L 227.106818 238.977323 
L 227.106818 240.083048 
L 228.057955 239.959498 
L 228.057955 239.16487 
L 228.057955 240.469696 
L 228.057955 240.410143 
L 229.009091 240.423476 
L 229.009091 240.310592 
L 229.009091 239.808394 
L 229.009091 240.745238 
L 229.009091 240.72835 
L 229.960227 240.609244 
L 229.960227 240.400366 
L 229.960227 240.909674 
L 229.960227 240.894564 
L 230.911364 240.916785 
L 230.911364 240.842122 
L 230.911364 239.092873 
L 230.911364 239.48841 
L 231.8625 239.489299 
L 231.8625 239.413747 
L 231.8625 238.140031 
L 231.8625 240.037717 
L 231.8625 240.011051 
L 232.813636 240.017273 
L 232.813636 239.933722 
L 232.813636 239.30353 
L 232.813636 240.772792 
L 232.813636 240.750571 
L 233.764773 240.759459 
L 233.764773 240.658131 
L 233.764773 240.319481 
L 233.764773 240.953228 
L 233.764773 240.837678 
L 234.715909 240.709684 
L 234.715909 240.499028 
L 234.715909 240.960339 
L 235.667045 240.90523 
L 235.667045 241.056334 
L 235.667045 241.206549 
L 235.667045 241.110553 
L 236.618182 241.153218 
L 236.618182 241.010114 
L 236.618182 240.963005 
L 236.618182 241.267435 
L 238.520455 241.35543 
L 238.520455 241.192327 
L 238.520455 239.596849 
L 238.520455 239.764841 
L 239.471591 239.677734 
L 239.471591 238.676894 
L 239.471591 240.372811 
L 239.471591 240.359479 
L 240.422727 240.225263 
L 240.422727 239.507964 
L 240.422727 240.579024 
L 240.422727 240.544359 
L 241.373864 240.544359 
L 241.373864 240.445697 
L 241.373864 240.095492 
L 241.373864 240.873232 
L 241.373864 240.860788 
L 242.325 240.871454 
L 242.325 240.765681 
L 242.325 240.299926 
L 242.325 240.670575 
L 243.276136 240.595023 
L 243.276136 240.313259 
L 243.276136 240.734572 
L 243.276136 240.515916 
L 244.227273 240.371034 
L 244.227273 183.796886 
L 245.178409 183.699112 
L 245.178409 141.772255 
L 245.178409 197.405115 
L 245.178409 197.37845 
L 246.129545 197.245123 
L 246.129545 176.135034 
L 246.129545 218.01745 
L 247.080682 218.035227 
L 247.080682 217.928565 
L 247.080682 210.453372 
L 247.080682 232.48786 
L 248.031818 232.630075 
L 248.031818 232.452306 
L 248.031818 229.54578 
L 248.031818 237.554281 
L 248.031818 237.520505 
L 248.982955 237.580947 
L 248.982955 237.468063 
L 248.982955 236.604994 
L 248.982955 240.107935 
L 248.982955 240.090158 
L 249.934091 240.139934 
L 249.934091 240.003052 
L 249.934091 239.759508 
L 249.934091 241.009225 
L 250.885227 240.898119 
L 250.885227 240.695462 
L 250.885227 241.155885 
L 250.885227 241.098998 
L 251.836364 241.098998 
L 251.836364 240.991448 
L 251.836364 240.67413 
L 251.836364 240.996781 
L 251.836364 240.987893 
L 252.7875 241.11322 
L 252.7875 241.281479 
L 252.7875 241.234636 
L 253.738636 241.103443 
L 253.738636 240.730127 
L 253.738636 240.763904 
L 254.689773 240.878565 
L 254.689773 240.872343 
L 254.689773 241.104332 
L 254.689773 241.086555 
L 255.640909 241.119442 
L 255.640909 241.010114 
L 255.640909 240.700796 
L 256.592045 240.711462 
L 256.592045 240.599467 
L 256.592045 240.360368 
L 256.592045 240.779014 
L 256.592045 240.778125 
L 257.543182 240.819012 
L 257.543182 240.692796 
L 257.543182 240.110602 
L 257.543182 240.113268 
L 258.494318 240.002163 
L 258.494318 238.994212 
L 258.494318 239.079541 
L 259.445455 239.154204 
L 259.445455 239.02621 
L 259.445455 230.879049 
L 259.445455 231.847891 
L 260.396591 231.865668 
L 260.396591 231.79456 
L 260.396591 225.590416 
L 260.396591 234.476208 
L 261.347727 234.481541 
L 261.347727 234.398879 
L 261.347727 230.363519 
L 261.347727 236.976531 
L 262.298864 236.864537 
L 262.298864 235.089512 
L 262.298864 239.284864 
L 262.298864 239.267976 
L 263.25 239.173758 
L 263.25 238.424461 
L 263.25 240.313259 
L 263.25 240.303481 
L 264.201136 240.315036 
L 264.201136 240.219041 
L 264.201136 239.6964 
L 264.201136 240.421698 
L 264.201136 240.28126 
L 265.152273 240.205708 
L 265.152273 225.821516 
L 266.103409 225.723743 
L 266.103409 214.702055 
L 266.103409 228.888034 
L 267.054545 228.9147 
L 267.054545 228.888034 
L 267.054545 224.097155 
L 267.054545 235.317945 
L 268.005682 235.215728 
L 268.005682 235.218394 
L 268.005682 233.154494 
L 268.005682 238.423573 
L 268.005682 238.283135 
L 268.956818 238.314244 
L 268.956818 238.232471 
L 268.956818 236.881425 
L 268.956818 239.381748 
L 269.907955 239.479521 
L 269.907955 239.324862 
L 269.907955 238.562232 
L 269.907955 240.299037 
L 269.907955 240.234151 
L 270.859091 240.122157 
L 270.859091 239.698177 
L 270.859091 240.568357 
L 270.859091 240.524804 
L 271.810227 240.534581 
L 271.810227 240.443919 
L 271.810227 240.210153 
L 271.810227 240.676797 
L 271.810227 240.624355 
L 272.761364 240.67413 
L 272.761364 240.545248 
L 272.761364 240.443919 
L 272.761364 240.919452 
L 273.7125 240.977227 
L 273.7125 240.865232 
L 273.7125 240.75146 
L 273.7125 241.071444 
L 273.7125 240.980782 
L 274.663636 240.891897 
L 274.663636 240.465251 
L 274.663636 240.724794 
L 275.614773 240.787014 
L 275.614773 240.656353 
L 275.614773 240.397699 
L 275.614773 240.910563 
L 275.614773 240.881231 
L 276.565909 240.782569 
L 276.565909 240.349701 
L 276.565909 240.546136 
L 277.517045 240.444808 
L 277.517045 240.107935 
L 277.517045 240.563913 
L 277.517045 240.563024 
L 278.468182 240.403032 
L 278.468182 240.33548 
L 278.468182 240.900786 
L 279.419318 240.960339 
L 279.419318 240.822567 
L 279.419318 240.738127 
L 279.419318 241.192327 
L 279.419318 241.192327 
L 280.370455 241.19766 
L 280.370455 241.116775 
L 280.370455 237.538282 
L 280.370455 237.756938 
L 281.321591 237.619167 
L 281.321591 234.761528 
L 281.321591 238.300912 
L 281.321591 238.215583 
L 282.272727 238.133809 
L 282.272727 236.237012 
L 282.272727 239.108873 
L 282.272727 239.047542 
L 283.223864 238.942658 
L 283.223864 238.087589 
L 283.223864 240.014607 
L 284.175 239.929277 
L 284.175 239.11865 
L 284.175 240.076826 
L 285.126136 240.109713 
L 285.126136 239.971053 
L 285.126136 239.699955 
L 285.126136 240.588801 
L 285.126136 240.56658 
L 286.077273 240.457252 
L 286.077273 230.381295 
L 286.077273 230.434626 
L 287.028409 230.434626 
L 287.028409 230.35463 
L 287.028409 223.012764 
L 287.028409 233.172271 
L 287.028409 233.154494 
L 287.979545 233.18116 
L 287.979545 233.163383 
L 287.979545 229.519115 
L 287.979545 237.096526 
L 287.979545 237.074305 
L 288.930682 237.004975 
L 288.930682 235.612153 
L 288.930682 239.499965 
L 288.930682 239.37286 
L 289.881818 239.327529 
L 289.881818 238.041369 
L 289.881818 239.609293 
L 289.881818 239.600404 
L 290.832955 239.501742 
L 290.832955 238.988878 
L 290.832955 240.440364 
L 290.832955 240.331925 
L 291.784091 240.236818 
L 291.784091 239.892835 
L 291.784091 240.496361 
L 291.784091 240.445697 
L 292.735227 240.326591 
L 292.735227 240.244818 
L 292.735227 240.844789 
L 292.735227 240.833234 
L 293.686364 240.932784 
L 293.686364 240.795902 
L 293.686364 240.417254 
L 293.686364 240.425253 
L 294.6375 240.425253 
L 294.6375 240.324814 
L 294.6375 239.90439 
L 294.6375 240.345257 
L 294.6375 240.271483 
L 295.588636 240.169266 
L 295.588636 239.863503 
L 295.588636 240.241262 
L 295.588636 240.211041 
L 296.539773 240.1426 
L 296.539773 239.762174 
L 296.539773 240.293704 
L 296.539773 240.033272 
L 297.490909 240.055493 
L 297.490909 239.943499 
L 297.490909 239.474188 
L 297.490909 239.59596 
L 298.442045 239.683067 
L 298.442045 239.546185 
L 298.442045 239.2342 
L 298.442045 239.899057 
L 298.442045 239.847504 
L 299.393182 239.785284 
L 299.393182 239.119539 
L 299.393182 239.954165 
L 300.344318 239.861725 
L 300.344318 239.415524 
L 300.344318 240.614577 
L 300.344318 240.563913 
L 301.295455 240.440364 
L 301.295455 236.704545 
L 301.295455 237.205854 
L 302.246591 237.214742 
L 302.246591 237.133857 
L 302.246591 234.521539 
L 302.246591 238.242248 
L 302.246591 238.167585 
L 303.197727 238.129365 
L 303.197727 236.672546 
L 303.197727 239.251088 
L 303.197727 239.21109 
L 304.148864 239.102651 
L 304.148864 238.451127 
L 304.148864 239.88128 
L 304.148864 239.721287 
L 305.1 239.736398 
L 305.1 239.648402 
L 305.1 238.814665 
L 305.1 239.361305 
L 306.051136 239.354194 
L 306.051136 239.456411 
L 306.051136 240.001274 
L 306.051136 239.115983 
L 306.051136 239.958609 
L 307.002273 239.829727 
L 307.002273 234.19 
L 307.002273 234.380213 
L 307.953409 234.287773 
L 307.953409 229.483561 
L 307.953409 235.239727 
L 307.953409 235.209506 
L 308.904545 235.310834 
L 308.904545 238.186251 
L 308.904545 233.198937 
L 308.904545 238.176473 
L 309.855682 238.087589 
L 309.855682 237.410288 
L 309.855682 239.872391 
L 309.855682 239.864392 
L 310.806818 239.893724 
L 310.806818 239.78884 
L 310.806818 239.322196 
L 310.806818 240.278594 
L 310.806818 240.16571 
L 311.757955 240.088381 
L 311.757955 239.622626 
L 311.757955 240.140823 
L 312.709091 240.169266 
L 312.709091 240.08127 
L 312.709091 239.822616 
L 312.709091 240.387922 
L 312.709091 240.387033 
L 313.660227 240.386144 
L 313.660227 240.478584 
L 313.660227 240.775459 
L 313.660227 240.331036 
L 313.660227 240.738127 
L 314.611364 240.642132 
L 314.611364 239.435968 
L 314.611364 239.444856 
L 315.5625 239.347972 
L 315.5625 238.246692 
L 315.5625 238.537345 
L 316.513636 238.638673 
L 316.513636 238.458237 
L 316.513636 238.301801 
L 316.513636 239.483077 
L 317.464773 239.475077 
L 317.464773 239.582627 
L 317.464773 239.667957 
L 317.464773 238.995989 
L 317.464773 239.435968 
L 318.415909 239.34175 
L 318.415909 239.363083 
L 318.415909 238.603119 
L 318.415909 239.213756 
L 319.367045 239.15687 
L 319.367045 239.267976 
L 319.367045 239.64218 
L 319.367045 238.91866 
L 319.367045 239.575517 
L 320.318182 239.50352 
L 320.318182 239.090207 
L 320.318182 239.645736 
L 320.318182 239.630625 
L 321.269318 239.530186 
L 321.269318 239.212868 
L 321.269318 240.019051 
L 321.269318 240.017273 
L 322.220455 240.092825 
L 322.220455 240.010162 
L 322.220455 236.774763 
L 322.220455 237.204076 
L 323.171591 237.121413 
L 323.171591 234.503762 
L 323.171591 237.821824 
L 323.171591 237.788048 
L 324.122727 237.836934 
L 324.122727 237.738272 
L 324.122727 236.442335 
L 324.122727 239.397748 
L 324.122727 239.394192 
L 325.073864 239.497298 
L 325.073864 239.331084 
L 325.073864 238.593342 
L 325.073864 239.861725 
L 325.073864 239.680401 
L 326.025 239.562184 
L 326.025 238.724891 
L 326.025 239.30353 
L 326.976136 239.387081 
L 326.976136 240.16571 
L 326.976136 239.329306 
L 326.976136 239.955054 
L 327.927273 239.841282 
L 327.927273 233.312709 
L 327.927273 233.334041 
L 328.878409 233.292266 
L 328.878409 228.852481 
L 328.878409 235.325056 
L 329.829545 235.473493 
L 329.829545 233.594473 
L 329.829545 238.364909 
L 330.780682 238.28669 
L 330.780682 237.661832 
L 330.780682 240.077715 
L 330.780682 240.056382 
L 331.731818 240.09638 
L 331.731818 240.019051 
L 331.731818 239.768396 
L 331.731818 240.785236 
L 331.731818 240.729239 
L 332.682955 240.786125 
L 332.682955 240.642132 
L 332.682955 240.49725 
L 332.682955 240.809235 
L 332.682955 240.698129 
L 333.634091 240.6048 
L 333.634091 240.407476 
L 333.634091 240.485695 
L 334.585227 240.595912 
L 334.585227 240.771014 
L 334.585227 240.668797 
L 335.536364 240.578135 
L 335.536364 239.923944 
L 335.536364 239.945277 
L 336.4875 239.954165 
L 336.4875 239.85817 
L 336.4875 239.545296 
L 336.4875 240.232374 
L 337.438636 240.129268 
L 337.438636 240.02705 
L 337.438636 240.459029 
L 337.438636 240.450141 
L 338.389773 240.528359 
L 338.389773 240.354146 
L 338.389773 240.09638 
L 338.389773 240.483028 
L 338.389773 240.403921 
L 339.340909 240.326591 
L 339.340909 239.79595 
L 339.340909 240.205708 
L 340.292045 240.187043 
L 340.292045 240.295482 
L 340.292045 240.910563 
L 340.292045 240.232374 
L 340.292045 240.909674 
L 341.243182 240.922118 
L 341.243182 240.853677 
L 341.243182 240.130156 
L 341.243182 240.171932 
L 342.194318 240.075937 
L 342.194318 239.60396 
L 342.194318 240.611022 
L 342.194318 240.596801 
L 343.145455 240.521249 
L 343.145455 239.399525 
L 343.145455 239.889279 
L 344.096591 239.799506 
L 344.096591 238.788888 
L 344.096591 240.100825 
L 344.096591 240.01194 
L 345.047727 239.899945 
L 345.047727 239.448412 
L 345.047727 240.414587 
L 345.047727 240.361256 
L 345.998864 240.276816 
L 345.998864 240.17371 
L 345.998864 240.802124 
L 345.998864 240.78968 
L 347.901136 240.722128 
L 347.901136 240.707017 
L 347.901136 240.569246 
L 347.901136 240.841233 
L 348.852273 240.927451 
L 348.852273 240.924785 
L 348.852273 241.154996 
L 348.852273 241.067889 
L 349.803409 240.995003 
L 349.803409 241.169217 
L 349.803409 241.186105 
L 349.803409 241.08211 
L 350.754545 241.08211 
L 350.754545 241.188772 
L 350.754545 241.226992 
L 350.754545 241.21366 
L 351.705682 241.108776 
L 351.705682 241.04389 
L 351.705682 241.266901 
L 351.705682 241.246102 
L 352.656818 241.123886 
L 352.656818 241.048334 
L 352.656818 241.187883 
L 352.656818 241.160329 
L 353.607955 241.172773 
L 353.607955 241.071444 
L 353.607955 240.876787 
L 353.607955 240.984337 
L 354.559091 240.899008 
L 354.559091 240.656353 
L 354.559091 240.723017 
L 355.510227 240.614577 
L 355.510227 240.550581 
L 355.510227 240.770125 
L 355.510227 240.754126 
L 356.461364 240.664353 
L 356.461364 240.542581 
L 356.461364 240.790569 
L 356.461364 240.748793 
L 357.4125 240.748793 
L 357.4125 240.69724 
L 357.4125 240.314148 
L 357.4125 240.342591 
L 358.363636 240.24304 
L 358.363636 240.024384 
L 358.363636 240.748793 
L 358.363636 240.729239 
L 359.314773 240.742571 
L 359.314773 240.646576 
L 359.314773 240.594134 
L 359.314773 240.922118 
L 359.314773 240.778125 
L 360.265909 240.640354 
L 360.265909 240.547025 
L 360.265909 240.93634 
L 362.168182 240.832345 
L 362.168182 240.653687 
L 362.168182 240.868787 
L 362.168182 240.849233 
L 363.119318 240.863454 
L 363.119318 240.769237 
L 363.119318 240.600356 
L 363.119318 240.869676 
L 363.119318 240.853677 
L 364.070455 240.711462 
L 364.070455 240.69724 
L 364.070455 241.12833 
L 365.021591 241.080333 
L 365.021591 241.224326 
L 365.021591 241.314721 
L 365.021591 241.201216 
L 365.972727 241.094554 
L 365.972727 240.92834 
L 365.972727 240.939895 
L 366.923864 240.831456 
L 366.923864 240.831456 
L 366.923864 240.799457 
L 366.923864 240.981671 
L 366.923864 240.915896 
L 367.875 241.050112 
L 367.875 241.075888 
L 367.875 240.985226 
L 367.875 241.021669 
L 368.826136 240.891009 
L 368.826136 240.813679 
L 368.826136 240.857232 
L 369.777273 240.95945 
L 369.777273 240.957672 
L 369.777273 241.262102 
L 370.728409 241.292411 
L 370.728409 241.172773 
L 370.728409 241.122108 
L 370.728409 241.243614 
L 370.728409 241.178995 
L 371.679545 241.069667 
L 371.679545 241.091888 
L 371.679545 240.754126 
L 371.679545 240.78968 
L 372.630682 240.81279 
L 372.630682 240.703462 
L 372.630682 240.686574 
L 372.630682 240.963005 
L 372.630682 240.929229 
L 373.581818 240.988782 
L 373.581818 240.988782 
" style="fill:none;stroke:#1f77b4;stroke-linecap:square;stroke-width:1.5;"/>
   </g>
   <g id="line2d_15">
    <path clip-path="url(#p470da85bd6)" d="M 69.218182 207.016244 
L 72.071591 202.943896 
L 72.071591 202.943896 
L 74.925 198.556281 
L 74.925 198.556281 
L 77.778409 193.851393 
L 77.778409 193.851393 
L 81.582955 187.087584 
L 81.582955 187.087584 
L 85.3875 179.776329 
L 85.3875 179.776329 
L 89.192045 171.944382 
L 89.192045 171.944382 
L 92.996591 163.63254 
L 92.996591 163.63254 
L 97.752273 152.653851 
L 97.752273 152.653851 
L 103.459091 138.806817 
L 103.459091 138.806817 
L 113.921591 112.554329 
L 113.921591 112.554329 
L 120.579545 96.19774 
L 120.579545 96.19774 
L 125.335227 85.159795 
L 125.335227 85.159795 
L 129.139773 76.924979 
L 129.139773 76.924979 
L 131.993182 71.186013 
L 131.993182 71.186013 
L 134.846591 65.883283 
L 134.846591 65.883283 
L 137.7 61.069022 
L 137.7 61.069022 
L 140.553409 56.791648 
L 140.553409 56.791648 
L 142.455682 54.260172 
L 142.455682 54.260172 
L 144.357955 51.998561 
L 144.357955 51.998561 
L 146.260227 50.017339 
L 146.260227 50.017339 
L 148.1625 48.325794 
L 148.1625 48.325794 
L 150.064773 46.931911 
L 150.064773 46.931911 
L 151.967045 45.842302 
L 151.967045 45.842302 
L 153.869318 45.062161 
L 153.869318 45.062161 
L 155.771591 44.595216 
L 155.771591 44.595216 
L 157.673864 44.443705 
L 157.673864 44.443705 
L 159.576136 44.608353 
L 159.576136 44.608353 
L 161.478409 45.088373 
L 161.478409 45.088373 
L 163.380682 45.881463 
L 163.380682 45.881463 
L 165.282955 46.983834 
L 165.282955 46.983834 
L 167.185227 48.390232 
L 167.185227 48.390232 
L 169.0875 50.093987 
L 169.0875 50.093987 
L 170.989773 52.087059 
L 170.989773 52.087059 
L 172.892045 54.360106 
L 172.892045 54.360106 
L 174.794318 56.902555 
L 174.794318 56.902555 
L 177.647727 61.195421 
L 177.647727 61.195421 
L 180.501136 66.02389 
L 180.501136 66.02389 
L 183.354545 71.33943 
L 183.354545 71.33943 
L 186.207955 77.08971 
L 186.207955 77.08971 
L 190.0125 85.337173 
L 190.0125 85.337173 
L 193.817045 94.122711 
L 193.817045 94.122711 
L 198.572727 105.64941 
L 198.572727 105.64941 
L 208.084091 129.509127 
L 208.084091 129.509127 
L 214.742045 145.99808 
L 214.742045 145.99808 
L 219.497727 157.300102 
L 219.497727 157.300102 
L 224.253409 168.018039 
L 224.253409 168.018039 
L 228.057955 176.085943 
L 228.057955 176.085943 
L 231.8625 183.650905 
L 231.8625 183.650905 
L 235.667045 190.679545 
L 235.667045 190.679545 
L 239.471591 197.152043 
L 239.471591 197.152043 
L 242.325 201.636559 
L 242.325 201.636559 
L 245.178409 205.804859 
L 245.178409 205.804859 
L 248.031818 209.661081 
L 248.031818 209.661081 
L 250.885227 213.212121 
L 250.885227 213.212121 
L 253.738636 216.467235 
L 253.738636 216.467235 
L 256.592045 219.437665 
L 256.592045 219.437665 
L 259.445455 222.136259 
L 259.445455 222.136259 
L 262.298864 224.577113 
L 262.298864 224.577113 
L 265.152273 226.775231 
L 265.152273 226.775231 
L 268.005682 228.746215 
L 268.005682 228.746215 
L 270.859091 230.505978 
L 270.859091 230.505978 
L 274.663636 232.551348 
L 274.663636 232.551348 
L 278.468182 234.286906 
L 278.468182 234.286906 
L 282.272727 235.748692 
L 282.272727 235.748692 
L 286.077273 236.970866 
L 286.077273 236.970866 
L 289.881818 237.985272 
L 289.881818 237.985272 
L 294.6375 239.005387 
L 294.6375 239.005387 
L 299.393182 239.797372 
L 299.393182 239.797372 
L 305.1 240.508379 
L 305.1 240.508379 
L 311.757955 241.087172 
L 311.757955 241.087172 
L 319.367045 241.514097 
L 319.367045 241.514097 
L 328.878409 241.820652 
L 328.878409 241.820652 
L 342.194318 242.016892 
L 342.194318 242.016892 
L 365.972727 242.109504 
L 365.972727 242.109504 
L 373.581818 242.116364 
L 373.581818 242.116364 
" style="fill:none;stroke:#ff7f0e;stroke-dasharray:5.55,2.4;stroke-dashoffset:0;stroke-opacity:0.3;stroke-width:1.5;"/>
   </g>
   <g id="line2d_16">
    <path clip-path="url(#p470da85bd6)" d="M 69.218182 241.912173 
L 81.582955 241.603121 
L 81.582955 241.603121 
L 90.143182 241.18954 
L 90.143182 241.18954 
L 97.752273 240.594587 
L 97.752273 240.594587 
L 103.459091 239.947517 
L 103.459091 239.947517 
L 109.165909 239.070762 
L 109.165909 239.070762 
L 113.921591 238.119923 
L 113.921591 238.119923 
L 118.677273 236.925109 
L 118.677273 236.925109 
L 122.481818 235.763148 
L 122.481818 235.763148 
L 126.286364 234.391077 
L 126.286364 234.391077 
L 130.090909 232.782961 
L 130.090909 232.782961 
L 133.895455 230.912359 
L 133.895455 230.912359 
L 137.7 228.752957 
L 137.7 228.752957 
L 141.504545 226.279331 
L 141.504545 226.279331 
L 145.309091 223.467828 
L 145.309091 223.467828 
L 149.113636 220.297545 
L 149.113636 220.297545 
L 152.918182 216.751396 
L 152.918182 216.751396 
L 156.722727 212.817235 
L 156.722727 212.817235 
L 160.527273 208.488983 
L 160.527273 208.488983 
L 164.331818 203.767738 
L 164.331818 203.767738 
L 168.136364 198.662802 
L 168.136364 198.662802 
L 171.940909 193.192578 
L 171.940909 193.192578 
L 176.696591 185.885059 
L 176.696591 185.885059 
L 181.452273 178.129344 
L 181.452273 178.129344 
L 187.159091 168.377885 
L 187.159091 168.377885 
L 205.230682 137.040497 
L 205.230682 137.040497 
L 209.035227 130.970881 
L 209.035227 130.970881 
L 212.839773 125.300741 
L 212.839773 125.300741 
L 215.693182 121.367351 
L 215.693182 121.367351 
L 218.546591 117.750074 
L 218.546591 117.750074 
L 221.4 114.484766 
L 221.4 114.484766 
L 224.253409 111.604443 
L 224.253409 111.604443 
L 227.106818 109.138728 
L 227.106818 109.138728 
L 229.009091 107.738132 
L 229.009091 107.738132 
L 230.911364 106.539891 
L 230.911364 106.539891 
L 232.813636 105.549658 
L 232.813636 105.549658 
L 234.715909 104.77213 
L 234.715909 104.77213 
L 236.618182 104.211012 
L 236.618182 104.211012 
L 238.520455 103.868984 
L 238.520455 103.868984 
L 240.422727 103.747686 
L 240.422727 103.747686 
L 242.325 103.847699 
L 242.325 103.847699 
L 244.227273 104.168544 
L 244.227273 104.168544 
L 246.129545 104.708683 
L 246.129545 104.708683 
L 248.031818 105.465533 
L 248.031818 105.465533 
L 249.934091 106.435489 
L 249.934091 106.435489 
L 251.836364 107.613947 
L 251.836364 107.613947 
L 253.738636 108.995345 
L 253.738636 108.995345 
L 255.640909 110.573204 
L 255.640909 110.573204 
L 258.494318 113.29207 
L 258.494318 113.29207 
L 261.347727 116.408132 
L 261.347727 116.408132 
L 264.201136 119.889658 
L 264.201136 119.889658 
L 267.054545 123.701851 
L 267.054545 123.701851 
L 270.859091 129.234422 
L 270.859091 129.234422 
L 274.663636 135.195047 
L 274.663636 135.195047 
L 279.419318 143.100437 
L 279.419318 143.100437 
L 286.077273 154.677372 
L 286.077273 154.677372 
L 297.490909 174.612765 
L 297.490909 174.612765 
L 303.197727 184.072678 
L 303.197727 184.072678 
L 307.953409 191.4951 
L 307.953409 191.4951 
L 311.757955 197.06922 
L 311.757955 197.06922 
L 315.5625 202.285409 
L 315.5625 202.285409 
L 319.367045 207.122404 
L 319.367045 207.122404 
L 323.171591 211.568278 
L 323.171591 211.568278 
L 326.976136 215.619589 
L 326.976136 215.619589 
L 330.780682 219.280389 
L 330.780682 219.280389 
L 334.585227 222.561135 
L 334.585227 222.561135 
L 338.389773 225.477558 
L 338.389773 225.477558 
L 342.194318 228.049537 
L 342.194318 228.049537 
L 345.998864 230.300014 
L 345.998864 230.300014 
L 349.803409 232.253982 
L 349.803409 232.253982 
L 353.607955 233.937573 
L 353.607955 233.937573 
L 357.4125 235.377264 
L 357.4125 235.377264 
L 361.217045 236.599199 
L 361.217045 236.599199 
L 365.972727 237.858771 
L 365.972727 237.858771 
L 370.728409 238.863879 
L 370.728409 238.863879 
L 373.581818 239.362599 
L 373.581818 239.362599 
" style="fill:none;stroke:#2ca02c;stroke-dasharray:5.55,2.4;stroke-dashoffset:0;stroke-opacity:0.3;stroke-width:1.5;"/>
   </g>
   <g id="patch_3">
    <path d="M 54 252 
L 54 34.56 
" style="fill:none;stroke:#000000;stroke-linecap:square;stroke-linejoin:miter;stroke-width:0.8;"/>
   </g>
   <g id="patch_4">
    <path d="M 54 252 
L 388.8 252 
" style="fill:none;stroke:#000000;stroke-linecap:square;stroke-linejoin:miter;stroke-width:0.8;"/>
   </g>
   <g id="text_16">
    <!-- 1472.96 Da -->
    <g transform="translate(148.122962 40.49005)scale(0.1 -0.1)">
     <defs>
      <path d="M 684 794 
L 1344 794 
L 1344 0 
L 684 0 
L 684 794 
z
" id="DejaVuSans-2e" transform="scale(0.015625)"/>
      <path d="M 703 97 
L 703 672 
Q 941 559 1184 500 
Q 1428 441 1663 441 
Q 2288 441 2617 861 
Q 2947 1281 2994 2138 
Q 2813 1869 2534 1725 
Q 2256 1581 1919 1581 
Q 1219 1581 811 2004 
Q 403 2428 403 3163 
Q 403 3881 828 4315 
Q 1253 4750 1959 4750 
Q 2769 4750 3195 4129 
Q 3622 3509 3622 2328 
Q 3622 1225 3098 567 
Q 2575 -91 1691 -91 
Q 1453 -91 1209 -44 
Q 966 3 703 97 
z
M 1959 2075 
Q 2384 2075 2632 2365 
Q 2881 2656 2881 3163 
Q 2881 3666 2632 3958 
Q 2384 4250 1959 4250 
Q 1534 4250 1286 3958 
Q 1038 3666 1038 3163 
Q 1038 2656 1286 2365 
Q 1534 2075 1959 2075 
z
" id="DejaVuSans-39" transform="scale(0.015625)"/>
      <path d="M 1259 4147 
L 1259 519 
L 2022 519 
Q 2988 519 3436 956 
Q 3884 1394 3884 2338 
Q 3884 3275 3436 3711 
Q 2988 4147 2022 4147 
L 1259 4147 
z
M 628 4666 
L 1925 4666 
Q 3281 4666 3915 4102 
Q 4550 3538 4550 2338 
Q 4550 1131 3912 565 
Q 3275 0 1925 0 
L 628 0 
L 628 4666 
z
" id="DejaVuSans-44" transform="scale(0.015625)"/>
     </defs>
     <use xlink:href="#DejaVuSans-31"/>
     <use x="63.623047" xlink:href="#DejaVuSans-34"/>
     <use x="127.246094" xlink:href="#DejaVuSans-37"/>
     <use x="190.869141" xlink:href="#DejaVuSans-32"/>
     <use x="254.492188" xlink:href="#DejaVuSans-2e"/>
     <use x="286.279297" xlink:href="#DejaVuSans-39"/>
     <use x="349.902344" xlink:href="#DejaVuSans-36"/>
     <use x="413.525391" xlink:href="#DejaVuSans-20"/>
     <use x="445.3125" xlink:href="#DejaVuSans-44"/>
     <use x="522.314453" xlink:href="#DejaVuSans-61"/>
    </g>
   </g>
   <g id="text_17">
    <!-- 1560.1 Da -->
    <g transform="translate(240.514241 99.793844)scale(0.1 -0.1)">
     <use xlink:href="#DejaVuSans-31"/>
     <use x="63.623047" xlink:href="#DejaVuSans-35"/>
     <use x="127.246094" xlink:href="#DejaVuSans-36"/>
     <use x="190.869141" xlink:href="#DejaVuSans-30"/>
     <use x="254.492188" xlink:href="#DejaVuSans-2e"/>
     <use x="286.279297" xlink:href="#DejaVuSans-31"/>
     <use x="349.902344" xlink:href="#DejaVuSans-20"/>
     <use x="381.689453" xlink:href="#DejaVuSans-44"/>
     <use x="458.691406" xlink:href="#DejaVuSans-61"/>
    </g>
   </g>
   <g id="legend_1">
    <g id="patch_5">
     <path d="M 237.45125 60.709375 
L 383.9 60.709375 
Q 385.3 60.709375 385.3 59.309375 
L 385.3 39.46 
Q 385.3 38.06 383.9 38.06 
L 237.45125 38.06 
Q 236.05125 38.06 236.05125 39.46 
L 236.05125 59.309375 
Q 236.05125 60.709375 237.45125 60.709375 
z
" style="fill:#ffffff;opacity:0.8;stroke:#cccccc;stroke-linejoin:miter;"/>
    </g>
    <g id="line2d_17">
     <path d="M 238.85125 43.728906 
L 252.85125 43.728906 
" style="fill:none;stroke:#ff7f0e;stroke-dasharray:5.55,2.4;stroke-dashoffset:0;stroke-opacity:0.3;stroke-width:1.5;"/>
    </g>
    <g id="line2d_18"/>
    <g id="text_18">
     <!-- 1st population : Peptide hydrolyzed -->
     <g transform="translate(258.45125 46.178906)scale(0.07 -0.07)">
      <defs>
       <path d="M 2834 3397 
L 2834 2853 
Q 2591 2978 2328 3040 
Q 2066 3103 1784 3103 
Q 1356 3103 1142 2972 
Q 928 2841 928 2578 
Q 928 2378 1081 2264 
Q 1234 2150 1697 2047 
L 1894 2003 
Q 2506 1872 2764 1633 
Q 3022 1394 3022 966 
Q 3022 478 2636 193 
Q 2250 -91 1575 -91 
Q 1294 -91 989 -36 
Q 684 19 347 128 
L 347 722 
Q 666 556 975 473 
Q 1284 391 1588 391 
Q 1994 391 2212 530 
Q 2431 669 2431 922 
Q 2431 1156 2273 1281 
Q 2116 1406 1581 1522 
L 1381 1569 
Q 847 1681 609 1914 
Q 372 2147 372 2553 
Q 372 3047 722 3315 
Q 1072 3584 1716 3584 
Q 2034 3584 2315 3537 
Q 2597 3491 2834 3397 
z
" id="DejaVuSans-73" transform="scale(0.015625)"/>
       <path d="M 1172 4494 
L 1172 3500 
L 2356 3500 
L 2356 3053 
L 1172 3053 
L 1172 1153 
Q 1172 725 1289 603 
Q 1406 481 1766 481 
L 2356 481 
L 2356 0 
L 1766 0 
Q 1100 0 847 248 
Q 594 497 594 1153 
L 594 3053 
L 172 3053 
L 172 3500 
L 594 3500 
L 594 4494 
L 1172 4494 
z
" id="DejaVuSans-74" transform="scale(0.015625)"/>
       <path d="M 1159 525 
L 1159 -1331 
L 581 -1331 
L 581 3500 
L 1159 3500 
L 1159 2969 
Q 1341 3281 1617 3432 
Q 1894 3584 2278 3584 
Q 2916 3584 3314 3078 
Q 3713 2572 3713 1747 
Q 3713 922 3314 415 
Q 2916 -91 2278 -91 
Q 1894 -91 1617 61 
Q 1341 213 1159 525 
z
M 3116 1747 
Q 3116 2381 2855 2742 
Q 2594 3103 2138 3103 
Q 1681 3103 1420 2742 
Q 1159 2381 1159 1747 
Q 1159 1113 1420 752 
Q 1681 391 2138 391 
Q 2594 391 2855 752 
Q 3116 1113 3116 1747 
z
" id="DejaVuSans-70" transform="scale(0.015625)"/>
       <path d="M 1959 3097 
Q 1497 3097 1228 2736 
Q 959 2375 959 1747 
Q 959 1119 1226 758 
Q 1494 397 1959 397 
Q 2419 397 2687 759 
Q 2956 1122 2956 1747 
Q 2956 2369 2687 2733 
Q 2419 3097 1959 3097 
z
M 1959 3584 
Q 2709 3584 3137 3096 
Q 3566 2609 3566 1747 
Q 3566 888 3137 398 
Q 2709 -91 1959 -91 
Q 1206 -91 779 398 
Q 353 888 353 1747 
Q 353 2609 779 3096 
Q 1206 3584 1959 3584 
z
" id="DejaVuSans-6f" transform="scale(0.015625)"/>
       <path d="M 603 4863 
L 1178 4863 
L 1178 0 
L 603 0 
L 603 4863 
z
" id="DejaVuSans-6c" transform="scale(0.015625)"/>
       <path d="M 603 3500 
L 1178 3500 
L 1178 0 
L 603 0 
L 603 3500 
z
M 603 4863 
L 1178 4863 
L 1178 4134 
L 603 4134 
L 603 4863 
z
" id="DejaVuSans-69" transform="scale(0.015625)"/>
       <path d="M 750 794 
L 1409 794 
L 1409 0 
L 750 0 
L 750 794 
z
M 750 3309 
L 1409 3309 
L 1409 2516 
L 750 2516 
L 750 3309 
z
" id="DejaVuSans-3a" transform="scale(0.015625)"/>
       <path d="M 1259 4147 
L 1259 2394 
L 2053 2394 
Q 2494 2394 2734 2622 
Q 2975 2850 2975 3272 
Q 2975 3691 2734 3919 
Q 2494 4147 2053 4147 
L 1259 4147 
z
M 628 4666 
L 2053 4666 
Q 2838 4666 3239 4311 
Q 3641 3956 3641 3272 
Q 3641 2581 3239 2228 
Q 2838 1875 2053 1875 
L 1259 1875 
L 1259 0 
L 628 0 
L 628 4666 
z
" id="DejaVuSans-50" transform="scale(0.015625)"/>
       <path d="M 3513 2113 
L 3513 0 
L 2938 0 
L 2938 2094 
Q 2938 2591 2744 2837 
Q 2550 3084 2163 3084 
Q 1697 3084 1428 2787 
Q 1159 2491 1159 1978 
L 1159 0 
L 581 0 
L 581 4863 
L 1159 4863 
L 1159 2956 
Q 1366 3272 1645 3428 
Q 1925 3584 2291 3584 
Q 2894 3584 3203 3211 
Q 3513 2838 3513 2113 
z
" id="DejaVuSans-68" transform="scale(0.015625)"/>
       <path d="M 2059 -325 
Q 1816 -950 1584 -1140 
Q 1353 -1331 966 -1331 
L 506 -1331 
L 506 -850 
L 844 -850 
Q 1081 -850 1212 -737 
Q 1344 -625 1503 -206 
L 1606 56 
L 191 3500 
L 800 3500 
L 1894 763 
L 2988 3500 
L 3597 3500 
L 2059 -325 
z
" id="DejaVuSans-79" transform="scale(0.015625)"/>
       <path d="M 2631 2963 
Q 2534 3019 2420 3045 
Q 2306 3072 2169 3072 
Q 1681 3072 1420 2755 
Q 1159 2438 1159 1844 
L 1159 0 
L 581 0 
L 581 3500 
L 1159 3500 
L 1159 2956 
Q 1341 3275 1631 3429 
Q 1922 3584 2338 3584 
Q 2397 3584 2469 3576 
Q 2541 3569 2628 3553 
L 2631 2963 
z
" id="DejaVuSans-72" transform="scale(0.015625)"/>
      </defs>
      <use xlink:href="#DejaVuSans-31"/>
      <use x="63.623047" xlink:href="#DejaVuSans-73"/>
      <use x="115.722656" xlink:href="#DejaVuSans-74"/>
      <use x="154.931641" xlink:href="#DejaVuSans-20"/>
      <use x="186.71875" xlink:href="#DejaVuSans-70"/>
      <use x="250.195312" xlink:href="#DejaVuSans-6f"/>
      <use x="311.376953" xlink:href="#DejaVuSans-70"/>
      <use x="374.853516" xlink:href="#DejaVuSans-75"/>
      <use x="438.232422" xlink:href="#DejaVuSans-6c"/>
      <use x="466.015625" xlink:href="#DejaVuSans-61"/>
      <use x="527.294922" xlink:href="#DejaVuSans-74"/>
      <use x="566.503906" xlink:href="#DejaVuSans-69"/>
      <use x="594.287109" xlink:href="#DejaVuSans-6f"/>
      <use x="655.46875" xlink:href="#DejaVuSans-6e"/>
      <use x="718.847656" xlink:href="#DejaVuSans-20"/>
      <use x="750.634766" xlink:href="#DejaVuSans-3a"/>
      <use x="784.326172" xlink:href="#DejaVuSans-20"/>
      <use x="816.113281" xlink:href="#DejaVuSans-50"/>
      <use x="872.791016" xlink:href="#DejaVuSans-65"/>
      <use x="934.314453" xlink:href="#DejaVuSans-70"/>
      <use x="997.791016" xlink:href="#DejaVuSans-74"/>
      <use x="1037" xlink:href="#DejaVuSans-69"/>
      <use x="1064.783203" xlink:href="#DejaVuSans-64"/>
      <use x="1128.259766" xlink:href="#DejaVuSans-65"/>
      <use x="1189.783203" xlink:href="#DejaVuSans-20"/>
      <use x="1221.570312" xlink:href="#DejaVuSans-68"/>
      <use x="1284.949219" xlink:href="#DejaVuSans-79"/>
      <use x="1344.128906" xlink:href="#DejaVuSans-64"/>
      <use x="1407.605469" xlink:href="#DejaVuSans-72"/>
      <use x="1446.46875" xlink:href="#DejaVuSans-6f"/>
      <use x="1507.650391" xlink:href="#DejaVuSans-6c"/>
      <use x="1535.433594" xlink:href="#DejaVuSans-79"/>
      <use x="1594.613281" xlink:href="#DejaVuSans-7a"/>
      <use x="1647.103516" xlink:href="#DejaVuSans-65"/>
      <use x="1708.626953" xlink:href="#DejaVuSans-64"/>
     </g>
    </g>
    <g id="line2d_19">
     <path d="M 238.85125 54.003594 
L 252.85125 54.003594 
" style="fill:none;stroke:#2ca02c;stroke-dasharray:5.55,2.4;stroke-dashoffset:0;stroke-opacity:0.3;stroke-width:1.5;"/>
    </g>
    <g id="line2d_20"/>
    <g id="text_19">
     <!-- 2nd population : Peptide -->
     <g transform="translate(258.45125 56.453594)scale(0.07 -0.07)">
      <use xlink:href="#DejaVuSans-32"/>
      <use x="63.623047" xlink:href="#DejaVuSans-6e"/>
      <use x="127.001953" xlink:href="#DejaVuSans-64"/>
      <use x="190.478516" xlink:href="#DejaVuSans-20"/>
      <use x="222.265625" xlink:href="#DejaVuSans-70"/>
      <use x="285.742188" xlink:href="#DejaVuSans-6f"/>
      <use x="346.923828" xlink:href="#DejaVuSans-70"/>
      <use x="410.400391" xlink:href="#DejaVuSans-75"/>
      <use x="473.779297" xlink:href="#DejaVuSans-6c"/>
      <use x="501.5625" xlink:href="#DejaVuSans-61"/>
      <use x="562.841797" xlink:href="#DejaVuSans-74"/>
      <use x="602.050781" xlink:href="#DejaVuSans-69"/>
      <use x="629.833984" xlink:href="#DejaVuSans-6f"/>
      <use x="691.015625" xlink:href="#DejaVuSans-6e"/>
      <use x="754.394531" xlink:href="#DejaVuSans-20"/>
      <use x="786.181641" xlink:href="#DejaVuSans-3a"/>
      <use x="819.873047" xlink:href="#DejaVuSans-20"/>
      <use x="851.660156" xlink:href="#DejaVuSans-50"/>
      <use x="908.337891" xlink:href="#DejaVuSans-65"/>
      <use x="969.861328" xlink:href="#DejaVuSans-70"/>
      <use x="1033.337891" xlink:href="#DejaVuSans-74"/>
      <use x="1072.546875" xlink:href="#DejaVuSans-69"/>
      <use x="1100.330078" xlink:href="#DejaVuSans-64"/>
      <use x="1163.806641" xlink:href="#DejaVuSans-65"/>
     </g>
    </g>
   </g>
  </g>
 </g>
 <defs>
  <clipPath id="p470da85bd6">
   <rect height="217.44" width="334.8" x="54" y="34.56"/>
  </clipPath>
 </defs>
</svg>
